ISO-10303-21;
HEADER;
FILE_DESCRIPTION (( 'STEP AP214' ),
    '1' );
FILE_NAME ('BSE_PLT.STEP',
    '2025-07-15T12:56:51',
    ( '' ),
    ( '' ),
    'SwSTEP 2.0',
    'SolidWorks 2023',
    '' );
FILE_SCHEMA (( 'AUTOMOTIVE_DESIGN' ));
ENDSEC;

DATA;
#1 = SURFACE_STYLE_USAGE ( .BOTH. , #56 ) ;
#2 = PRODUCT_DEFINITION_CONTEXT ( 'detailed design', #44, 'design' ) ;
#3 =( NAMED_UNIT ( * ) PLANE_ANGLE_UNIT ( ) SI_UNIT ( $, .RADIAN. ) );
#4 = EDGE_CURVE ( 'NONE', #151, #75, #33, .T. ) ;
#5 = AXIS2_PLACEMENT_3D ( 'NONE', #188, #186, #182 ) ;
#6 = CIRCLE ( 'NONE', #139, 20.00000000000001776 ) ;
#7 = CARTESIAN_POINT ( 'NONE',  ( 0.000000000000000000, 0.000000000000000000, 0.000000000000000000 ) ) ;
#8 = VERTEX_POINT ( 'NONE', #111 ) ;
#9 = CARTESIAN_POINT ( 'NONE',  ( -400.0000000000001705, 10.00000000000000000, -499.9999999999998863 ) ) ;
#10 = EDGE_CURVE ( 'NONE', #249, #158, #209, .T. ) ;
#11 = CYLINDRICAL_SURFACE ( 'NONE', #34, 20.00000000000001776 ) ;
#12 = DIRECTION ( 'NONE',  ( 1.665334536937734811E-16, 0.000000000000000000, 1.000000000000000000 ) ) ;
#13 = CARTESIAN_POINT ( 'NONE',  ( -380.0000000000000568, 0.000000000000000000, 480.0000000000001137 ) ) ;
#14 = ORIENTED_EDGE ( 'NONE', *, *, #189, .F. ) ;
#15 = DIRECTION ( 'NONE',  ( -0.000000000000000000, 1.000000000000000000, -0.000000000000000000 ) ) ;
#16 = ORIENTED_EDGE ( 'NONE', *, *, #86, .T. ) ;
#17 = STYLED_ITEM ( 'NONE', ( #253 ), #106 ) ;
#18 = AXIS2_PLACEMENT_3D ( 'NONE', #7, #237, #288 ) ;
#19 =( NAMED_UNIT ( * ) SI_UNIT ( $, .STERADIAN. ) SOLID_ANGLE_UNIT ( ) );
#20 = ORIENTED_EDGE ( 'NONE', *, *, #174, .F. ) ;
#21 = ORIENTED_EDGE ( 'NONE', *, *, #65, .F. ) ;
#22 = EDGE_CURVE ( 'NONE', #46, #151, #53, .T. ) ;
#23 = ORIENTED_EDGE ( 'NONE', *, *, #320, .F. ) ;
#24 = EDGE_LOOP ( 'NONE', ( #319, #94, #272, #273 ) ) ;
#25 = CARTESIAN_POINT ( 'NONE',  ( -380.0000000000000568, 10.00000000000000000, 500.0000000000001137 ) ) ;
#26 = CYLINDRICAL_SURFACE ( 'NONE', #203, 20.00000000000001776 ) ;
#27 = PRESENTATION_LAYER_ASSIGNMENT (  '', '', ( #17 ) ) ;
#28 = CARTESIAN_POINT ( 'NONE',  ( 380.0000000000000000, 10.00000000000000000, 480.0000000000001137 ) ) ;
#29 = CARTESIAN_POINT ( 'NONE',  ( 399.9999999999998295, 10.00000000000000000, -499.9999999999998863 ) ) ;
#30 = EDGE_CURVE ( 'NONE', #101, #250, #299, .T. ) ;
#31 = FACE_OUTER_BOUND ( 'NONE', #206, .T. ) ;
#32 = CARTESIAN_POINT ( 'NONE',  ( -400.0000000000001705, 0.000000000000000000, -499.9999999999998863 ) ) ;
#33 = CIRCLE ( 'NONE', #5, 20.00000000000001776 ) ;
#34 = AXIS2_PLACEMENT_3D ( 'NONE', #122, #236, #85 ) ;
#35 = EDGE_CURVE ( 'NONE', #46, #296, #165, .T. ) ;
#36 = LINE ( 'NONE', #204, #233 ) ;
#37 = CARTESIAN_POINT ( 'NONE',  ( -400.0000000000000568, 0.000000000000000000, 480.0000000000001137 ) ) ;
#38 = DIRECTION ( 'NONE',  ( 0.000000000000000000, 0.000000000000000000, 1.000000000000000000 ) ) ;
#39 = VECTOR ( 'NONE', #185, 1000.000000000000000 ) ;
#40 = AXIS2_PLACEMENT_3D ( 'NONE', #190, #142, #90 ) ;
#41 = CYLINDRICAL_SURFACE ( 'NONE', #52, 20.00000000000001776 ) ;
#42 = ADVANCED_FACE ( 'NONE', ( #31 ), #162, .F. ) ;
#43 = DIRECTION ( 'NONE',  ( 0.000000000000000000, 1.000000000000000000, 0.000000000000000000 ) ) ;
#44 = APPLICATION_CONTEXT ( 'automotive_design' ) ;
#45 = ORIENTED_EDGE ( 'NONE', *, *, #30, .F. ) ;
#46 = VERTEX_POINT ( 'NONE', #109 ) ;
#47 = DIRECTION ( 'NONE',  ( 1.000000000000000000, 0.000000000000000000, 0.000000000000000000 ) ) ;
#48 = ORIENTED_EDGE ( 'NONE', *, *, #4, .F. ) ;
#49 = ORIENTED_EDGE ( 'NONE', *, *, #279, .F. ) ;
#50 = ORIENTED_EDGE ( 'NONE', *, *, #35, .F. ) ;
#51 = CIRCLE ( 'NONE', #40, 20.00000000000001776 ) ;
#52 = AXIS2_PLACEMENT_3D ( 'NONE', #146, #243, #262 ) ;
#53 = LINE ( 'NONE', #134, #137 ) ;
#54 = DIRECTION ( 'NONE',  ( 0.000000000000000000, 1.000000000000000000, 0.000000000000000000 ) ) ;
#55 = CARTESIAN_POINT ( 'NONE',  ( 399.9999999999998295, 0.000000000000000000, -499.9999999999998863 ) ) ;
#56 = SURFACE_SIDE_STYLE ('',( #276 ) ) ;
#57 = DIRECTION ( 'NONE',  ( 0.000000000000000000, 1.000000000000000000, 0.000000000000000000 ) ) ;
#58 = LINE ( 'NONE', #32, #309 ) ;
#59 = EDGE_CURVE ( 'NONE', #250, #154, #110, .T. ) ;
#60 = DIRECTION ( 'NONE',  ( 0.000000000000000000, 0.000000000000000000, 1.000000000000000000 ) ) ;
#61 =( GEOMETRIC_REPRESENTATION_CONTEXT ( 3 ) GLOBAL_UNCERTAINTY_ASSIGNED_CONTEXT ( ( #307 ) ) GLOBAL_UNIT_ASSIGNED_CONTEXT ( ( #294, #175, #19 ) ) REPRESENTATION_CONTEXT ( 'NONE', 'WORKASPACE' ) );
#62 = PLANE ( 'NONE',  #18 ) ;
#63 = DIRECTION ( 'NONE',  ( -1.000000000000000000, -0.000000000000000000, -0.000000000000000000 ) ) ;
#64 = CARTESIAN_POINT ( 'NONE',  ( 379.9999999999999432, 0.000000000000000000, 500.0000000000001137 ) ) ;
#65 = EDGE_CURVE ( 'NONE', #128, #250, #78, .T. ) ;
#66 = AXIS2_PLACEMENT_3D ( 'NONE', #312, #43, #155 ) ;
#67 = FACE_OUTER_BOUND ( 'NONE', #129, .T. ) ;
#68 = ORIENTED_EDGE ( 'NONE', *, *, #59, .T. ) ;
#69 = CARTESIAN_POINT ( 'NONE',  ( 0.000000000000000000, 0.000000000000000000, 0.000000000000000000 ) ) ;
#70 = ORIENTED_EDGE ( 'NONE', *, *, #91, .F. ) ;
#71 = ADVANCED_FACE ( 'NONE', ( #231 ), #26, .T. ) ;
#72 = DIRECTION ( 'NONE',  ( 0.000000000000000000, -1.000000000000000000, 0.000000000000000000 ) ) ;
#73 = ORIENTED_EDGE ( 'NONE', *, *, #212, .F. ) ;
#74 = CARTESIAN_POINT ( 'NONE',  ( -380.0000000000001705, 0.000000000000000000, -479.9999999999998863 ) ) ;
#75 = VERTEX_POINT ( 'NONE', #25 ) ;
#76 = DIRECTION ( 'NONE',  ( 1.000000000000000000, 0.000000000000000000, 0.000000000000000000 ) ) ;
#77 = ORIENTED_EDGE ( 'NONE', *, *, #320, .T. ) ;
#78 = LINE ( 'NONE', #302, #39 ) ;
#79 = CIRCLE ( 'NONE', #260, 20.00000000000001776 ) ;
#80 = VECTOR ( 'NONE', #135, 1000.000000000000000 ) ;
#81 = DIRECTION ( 'NONE',  ( 0.000000000000000000, -1.000000000000000000, 0.000000000000000000 ) ) ;
#82 = CARTESIAN_POINT ( 'NONE',  ( -400.0000000000001705, 10.00000000000000000, -479.9999999999998863 ) ) ;
#83 =( LENGTH_UNIT ( ) NAMED_UNIT ( * ) SI_UNIT ( .MILLI., .METRE. ) );
#84 = FILL_AREA_STYLE ('',( #132 ) ) ;
#85 = DIRECTION ( 'NONE',  ( 0.000000000000000000, 0.000000000000000000, -1.000000000000000000 ) ) ;
#86 = EDGE_CURVE ( 'NONE', #297, #128, #252, .T. ) ;
#87 = CARTESIAN_POINT ( 'NONE',  ( -400.0000000000000568, 10.00000000000000000, 480.0000000000001137 ) ) ;
#88 = DIRECTION ( 'NONE',  ( -0.000000000000000000, -1.000000000000000000, -0.000000000000000000 ) ) ;
#89 = CIRCLE ( 'NONE', #116, 20.00000000000001776 ) ;
#90 = DIRECTION ( 'NONE',  ( 8.326672684688666165E-15, 0.000000000000000000, 1.000000000000000000 ) ) ;
#91 = EDGE_CURVE ( 'NONE', #205, #101, #79, .T. ) ;
#92 = CARTESIAN_POINT ( 'NONE',  ( 379.9999999999998295, 0.000000000000000000, -499.9999999999998863 ) ) ;
#93 = DIRECTION ( 'NONE',  ( 0.000000000000000000, -1.000000000000000000, 0.000000000000000000 ) ) ;
#94 = ORIENTED_EDGE ( 'NONE', *, *, #35, .T. ) ;
#95 = VECTOR ( 'NONE', #161, 1000.000000000000000 ) ;
#96 = CIRCLE ( 'NONE', #121, 20.00000000000001776 ) ;
#97 = CARTESIAN_POINT ( 'NONE',  ( 379.9999999999999432, 10.00000000000000000, 500.0000000000001137 ) ) ;
#98 = ORIENTED_EDGE ( 'NONE', *, *, #130, .F. ) ;
#99 = PRODUCT_DEFINITION ( 'UNKNOWN', '', #187, #2 ) ;
#100 = PRODUCT_CONTEXT ( 'NONE', #208, 'mechanical' ) ;
#101 = VERTEX_POINT ( 'NONE', #113 ) ;
#102 = CARTESIAN_POINT ( 'NONE',  ( -400.0000000000001705, 0.000000000000000000, -479.9999999999998863 ) ) ;
#103 = ORIENTED_EDGE ( 'NONE', *, *, #242, .F. ) ;
#104 = VECTOR ( 'NONE', #47, 1000.000000000000000 ) ;
#105 = DIRECTION ( 'NONE',  ( 0.000000000000000000, 0.000000000000000000, -1.000000000000000000 ) ) ;
#106 = MANIFOLD_SOLID_BREP ( 'Fillet1', #282 ) ;
#107 = ORIENTED_EDGE ( 'NONE', *, *, #279, .T. ) ;
#108 = EDGE_LOOP ( 'NONE', ( #70, #23, #227, #124 ) ) ;
#109 = CARTESIAN_POINT ( 'NONE',  ( -400.0000000000001705, 10.00000000000000000, -479.9999999999998863 ) ) ;
#110 = CIRCLE ( 'NONE', #159, 20.00000000000001776 ) ;
#111 = CARTESIAN_POINT ( 'NONE',  ( -380.0000000000000568, 0.000000000000000000, 500.0000000000001137 ) ) ;
#112 = EDGE_CURVE ( 'NONE', #75, #8, #298, .T. ) ;
#113 = CARTESIAN_POINT ( 'NONE',  ( 400.0000000000000000, 10.00000000000000000, 480.0000000000001137 ) ) ;
#114 = DIRECTION ( 'NONE',  ( -1.665334536937734811E-16, -0.000000000000000000, -1.000000000000000000 ) ) ;
#115 = DIRECTION ( 'NONE',  ( 1.000000000000000000, 0.000000000000000000, -0.000000000000000000 ) ) ;
#116 = AXIS2_PLACEMENT_3D ( 'NONE', #310, #264, #38 ) ;
#117 = DIRECTION ( 'NONE',  ( 0.000000000000000000, -1.000000000000000000, 0.000000000000000000 ) ) ;
#118 = ORIENTED_EDGE ( 'NONE', *, *, #86, .F. ) ;
#119 = DIRECTION ( 'NONE',  ( 1.000000000000000000, 0.000000000000000000, -1.110223024625156540E-16 ) ) ;
#120 = LINE ( 'NONE', #266, #277 ) ;
#121 = AXIS2_PLACEMENT_3D ( 'NONE', #211, #145, #60 ) ;
#122 = CARTESIAN_POINT ( 'NONE',  ( -380.0000000000000568, 10.00000000000000000, 480.0000000000001137 ) ) ;
#123 = ORIENTED_EDGE ( 'NONE', *, *, #242, .T. ) ;
#124 = ORIENTED_EDGE ( 'NONE', *, *, #207, .F. ) ;
#125 = MECHANICAL_DESIGN_GEOMETRIC_PRESENTATION_REPRESENTATION (  '', ( #17 ), #213 ) ;
#126 = CARTESIAN_POINT ( 'NONE',  ( 379.9999999999998295, 10.00000000000000000, -479.9999999999998863 ) ) ;
#127 = ORIENTED_EDGE ( 'NONE', *, *, #112, .T. ) ;
#128 = VERTEX_POINT ( 'NONE', #169 ) ;
#129 = EDGE_LOOP ( 'NONE', ( #324, #68, #177, #123, #291, #218, #238, #247 ) ) ;
#130 = EDGE_CURVE ( 'NONE', #8, #141, #251, .T. ) ;
#131 = ORIENTED_EDGE ( 'NONE', *, *, #326, .F. ) ;
#132 = FILL_AREA_STYLE_COLOUR ( '', #303 ) ;
#133 = UNCERTAINTY_MEASURE_WITH_UNIT (LENGTH_MEASURE( 1.000000000000000082E-05 ), #83, 'distance_accuracy_value', 'NONE');
#134 = CARTESIAN_POINT ( 'NONE',  ( -400.0000000000001705, 10.00000000000000000, -499.9999999999998863 ) ) ;
#135 = DIRECTION ( 'NONE',  ( -0.000000000000000000, 1.000000000000000000, -0.000000000000000000 ) ) ;
#136 = CARTESIAN_POINT ( 'NONE',  ( -380.0000000000001705, 10.00000000000000000, -499.9999999999998863 ) ) ;
#137 = VECTOR ( 'NONE', #280, 1000.000000000000000 ) ;
#138 = DIRECTION ( 'NONE',  ( 1.110223024625156540E-16, 0.000000000000000000, 1.000000000000000000 ) ) ;
#139 = AXIS2_PLACEMENT_3D ( 'NONE', #74, #201, #224 ) ;
#140 = CARTESIAN_POINT ( 'NONE',  ( -380.0000000000001705, 10.00000000000000000, -499.9999999999998863 ) ) ;
#141 = VERTEX_POINT ( 'NONE', #37 ) ;
#142 = DIRECTION ( 'NONE',  ( -0.000000000000000000, -1.000000000000000000, -0.000000000000000000 ) ) ;
#143 = ADVANCED_FACE ( 'NONE', ( #311 ), #11, .T. ) ;
#144 = PRODUCT_DEFINITION_SHAPE ( 'NONE', 'NONE',  #99 ) ;
#145 = DIRECTION ( 'NONE',  ( 0.000000000000000000, 1.000000000000000000, 0.000000000000000000 ) ) ;
#146 = CARTESIAN_POINT ( 'NONE',  ( 380.0000000000000000, 10.00000000000000000, 480.0000000000001137 ) ) ;
#147 = EDGE_CURVE ( 'NONE', #297, #156, #51, .T. ) ;
#148 = DIRECTION ( 'NONE',  ( 1.000000000000000000, 0.000000000000000000, 0.000000000000000000 ) ) ;
#149 = EDGE_LOOP ( 'NONE', ( #16, #173, #45, #270 ) ) ;
#150 = LINE ( 'NONE', #172, #104 ) ;
#151 = VERTEX_POINT ( 'NONE', #308 ) ;
#152 = AXIS2_PLACEMENT_3D ( 'NONE', #220, #119, #219 ) ;
#153 = PLANE ( 'NONE',  #66 ) ;
#154 = VERTEX_POINT ( 'NONE', #287 ) ;
#155 = DIRECTION ( 'NONE',  ( 0.000000000000000000, -0.000000000000000000, 1.000000000000000000 ) ) ;
#156 = VERTEX_POINT ( 'NONE', #64 ) ;
#157 = ADVANCED_FACE ( 'NONE', ( #171 ), #239, .F. ) ;
#158 = VERTEX_POINT ( 'NONE', #140 ) ;
#159 = AXIS2_PLACEMENT_3D ( 'NONE', #254, #54, #325 ) ;
#160 = CARTESIAN_POINT ( 'NONE',  ( -380.0000000000000568, 10.00000000000000000, 500.0000000000001137 ) ) ;
#161 = DIRECTION ( 'NONE',  ( 0.000000000000000000, -1.000000000000000000, 0.000000000000000000 ) ) ;
#162 = PLANE ( 'NONE',  #261 ) ;
#163 = VECTOR ( 'NONE', #148, 1000.000000000000000 ) ;
#164 = DIRECTION ( 'NONE',  ( -1.665334536937734811E-16, -0.000000000000000000, -1.000000000000000000 ) ) ;
#165 = LINE ( 'NONE', #82, #235 ) ;
#166 = CARTESIAN_POINT ( 'NONE',  ( 399.9999999999998295, 10.00000000000000000, -499.9999999999998863 ) ) ;
#167 = CARTESIAN_POINT ( 'NONE',  ( 399.9999999999998295, 10.00000000000000000, -479.9999999999998863 ) ) ;
#168 = ADVANCED_FACE ( 'NONE', ( #194 ), #214, .F. ) ;
#169 = CARTESIAN_POINT ( 'NONE',  ( 399.9999999999998295, 0.000000000000000000, -479.9999999999998863 ) ) ;
#170 = PLANE ( 'NONE',  #152 ) ;
#171 = FACE_OUTER_BOUND ( 'NONE', #200, .T. ) ;
#172 = CARTESIAN_POINT ( 'NONE',  ( -400.0000000000000568, 10.00000000000000000, 500.0000000000001137 ) ) ;
#173 = ORIENTED_EDGE ( 'NONE', *, *, #65, .T. ) ;
#174 = EDGE_CURVE ( 'NONE', #141, #151, #305, .T. ) ;
#175 =( NAMED_UNIT ( * ) PLANE_ANGLE_UNIT ( ) SI_UNIT ( $, .RADIAN. ) );
#176 = EDGE_LOOP ( 'NONE', ( #103, #323, #131, #50 ) ) ;
#177 = ORIENTED_EDGE ( 'NONE', *, *, #212, .T. ) ;
#178 = AXIS2_PLACEMENT_3D ( 'NONE', #69, #269, #76 ) ;
#179 = ORIENTED_EDGE ( 'NONE', *, *, #230, .T. ) ;
#180 = APPLICATION_PROTOCOL_DEFINITION ( 'draft international standard', 'automotive_design', 1998, #44 ) ;
#181 = VERTEX_POINT ( 'NONE', #92 ) ;
#182 = DIRECTION ( 'NONE',  ( 0.000000000000000000, 0.000000000000000000, 1.000000000000000000 ) ) ;
#183 = VECTOR ( 'NONE', #15, 1000.000000000000000 ) ;
#184 = DIRECTION ( 'NONE',  ( 0.000000000000000000, 0.000000000000000000, -1.000000000000000000 ) ) ;
#185 = DIRECTION ( 'NONE',  ( -0.000000000000000000, 1.000000000000000000, -0.000000000000000000 ) ) ;
#186 = DIRECTION ( 'NONE',  ( 0.000000000000000000, 1.000000000000000000, 0.000000000000000000 ) ) ;
#187 = PRODUCT_DEFINITION_FORMATION_WITH_SPECIFIED_SOURCE ( 'ANY', '', #286, .NOT_KNOWN. ) ;
#188 = CARTESIAN_POINT ( 'NONE',  ( -380.0000000000000568, 10.00000000000000000, 480.0000000000001137 ) ) ;
#189 = EDGE_CURVE ( 'NONE', #296, #141, #58, .T. ) ;
#190 = CARTESIAN_POINT ( 'NONE',  ( 380.0000000000000000, 0.000000000000000000, 480.0000000000001137 ) ) ;
#191 = DIRECTION ( 'NONE',  ( -0.000000000000000000, 1.000000000000000000, -0.000000000000000000 ) ) ;
#192 = PRODUCT_RELATED_PRODUCT_CATEGORY ( 'part', '', ( #286 ) ) ;
#193 = FACE_OUTER_BOUND ( 'NONE', #248, .T. ) ;
#194 = FACE_OUTER_BOUND ( 'NONE', #149, .T. ) ;
#195 = CARTESIAN_POINT ( 'NONE',  ( -380.0000000000001705, 0.000000000000000000, -499.9999999999998863 ) ) ;
#196 = ORIENTED_EDGE ( 'NONE', *, *, #147, .T. ) ;
#197 = ADVANCED_FACE ( 'NONE', ( #193 ), #62, .F. ) ;
#198 = ORIENTED_EDGE ( 'NONE', *, *, #230, .F. ) ;
#199 = SHAPE_DEFINITION_REPRESENTATION ( #144, #240 ) ;
#200 = EDGE_LOOP ( 'NONE', ( #274, #127, #229, #77 ) ) ;
#201 = DIRECTION ( 'NONE',  ( -0.000000000000000000, -1.000000000000000000, -0.000000000000000000 ) ) ;
#202 = ORIENTED_EDGE ( 'NONE', *, *, #130, .T. ) ;
#203 = AXIS2_PLACEMENT_3D ( 'NONE', #283, #81, #184 ) ;
#204 = CARTESIAN_POINT ( 'NONE',  ( -400.0000000000001705, 0.000000000000000000, -499.9999999999998863 ) ) ;
#205 = VERTEX_POINT ( 'NONE', #306 ) ;
#206 = EDGE_LOOP ( 'NONE', ( #73, #107, #317, #225 ) ) ;
#207 = EDGE_CURVE ( 'NONE', #101, #297, #120, .T. ) ;
#208 = APPLICATION_CONTEXT ( 'automotive_design' ) ;
#209 = LINE ( 'NONE', #136, #80 ) ;
#210 = AXIS2_PLACEMENT_3D ( 'NONE', #13, #88, #263 ) ;
#211 = CARTESIAN_POINT ( 'NONE',  ( -380.0000000000001705, 10.00000000000000000, -479.9999999999998863 ) ) ;
#212 = EDGE_CURVE ( 'NONE', #154, #158, #215, .T. ) ;
#213 =( GEOMETRIC_REPRESENTATION_CONTEXT ( 3 ) GLOBAL_UNCERTAINTY_ASSIGNED_CONTEXT ( ( #133 ) ) GLOBAL_UNIT_ASSIGNED_CONTEXT ( ( #83, #3, #257 ) ) REPRESENTATION_CONTEXT ( 'NONE', 'WORKASPACE' ) );
#214 = PLANE ( 'NONE',  #313 ) ;
#215 = LINE ( 'NONE', #9, #295 ) ;
#216 = ADVANCED_FACE ( 'NONE', ( #285 ), #170, .F. ) ;
#217 = DIRECTION ( 'NONE',  ( -1.000000000000000000, 0.000000000000000000, 1.665334536937734811E-16 ) ) ;
#218 = ORIENTED_EDGE ( 'NONE', *, *, #4, .T. ) ;
#219 = DIRECTION ( 'NONE',  ( -1.110223024625156540E-16, 0.000000000000000000, -1.000000000000000000 ) ) ;
#220 = CARTESIAN_POINT ( 'NONE',  ( -400.0000000000001705, 10.00000000000000000, -499.9999999999998863 ) ) ;
#221 = CARTESIAN_POINT ( 'NONE',  ( -400.0000000000000568, 0.000000000000000000, 500.0000000000001137 ) ) ;
#222 = ORIENTED_EDGE ( 'NONE', *, *, #301, .F. ) ;
#223 = ORIENTED_EDGE ( 'NONE', *, *, #258, .F. ) ;
#224 = DIRECTION ( 'NONE',  ( 0.000000000000000000, 0.000000000000000000, 1.000000000000000000 ) ) ;
#225 = ORIENTED_EDGE ( 'NONE', *, *, #10, .T. ) ;
#226 = LINE ( 'NONE', #221, #163 ) ;
#227 = ORIENTED_EDGE ( 'NONE', *, *, #147, .F. ) ;
#228 = VECTOR ( 'NONE', #114, 1000.000000000000000 ) ;
#229 = ORIENTED_EDGE ( 'NONE', *, *, #301, .T. ) ;
#230 = EDGE_CURVE ( 'NONE', #181, #128, #89, .T. ) ;
#231 = FACE_OUTER_BOUND ( 'NONE', #176, .T. ) ;
#232 = EDGE_LOOP ( 'NONE', ( #245, #21, #198, #49 ) ) ;
#233 = VECTOR ( 'NONE', #290, 1000.000000000000000 ) ;
#234 = DIRECTION ( 'NONE',  ( 0.000000000000000000, 0.000000000000000000, 1.000000000000000000 ) ) ;
#235 = VECTOR ( 'NONE', #278, 1000.000000000000000 ) ;
#236 = DIRECTION ( 'NONE',  ( 0.000000000000000000, -1.000000000000000000, 0.000000000000000000 ) ) ;
#237 = DIRECTION ( 'NONE',  ( 0.000000000000000000, 1.000000000000000000, 0.000000000000000000 ) ) ;
#238 = ORIENTED_EDGE ( 'NONE', *, *, #275, .T. ) ;
#239 = PLANE ( 'NONE',  #304 ) ;
#240 = ADVANCED_BREP_SHAPE_REPRESENTATION ( 'BSE_PLT', ( #106, #178 ), #61 ) ;
#241 = CARTESIAN_POINT ( 'NONE',  ( -400.0000000000000568, 10.00000000000000000, 500.0000000000001137 ) ) ;
#242 = EDGE_CURVE ( 'NONE', #158, #46, #96, .T. ) ;
#243 = DIRECTION ( 'NONE',  ( 0.000000000000000000, -1.000000000000000000, 0.000000000000000000 ) ) ;
#244 = CARTESIAN_POINT ( 'NONE',  ( 400.0000000000000000, 0.000000000000000000, 480.0000000000001137 ) ) ;
#245 = ORIENTED_EDGE ( 'NONE', *, *, #59, .F. ) ;
#246 = CYLINDRICAL_SURFACE ( 'NONE', #256, 20.00000000000001776 ) ;
#247 = ORIENTED_EDGE ( 'NONE', *, *, #91, .T. ) ;
#248 = EDGE_LOOP ( 'NONE', ( #223, #179, #118, #196, #222, #202, #14, #293 ) ) ;
#249 = VERTEX_POINT ( 'NONE', #195 ) ;
#250 = VERTEX_POINT ( 'NONE', #167 ) ;
#251 = CIRCLE ( 'NONE', #210, 20.00000000000001776 ) ;
#252 = LINE ( 'NONE', #55, #228 ) ;
#253 = PRESENTATION_STYLE_ASSIGNMENT (( #1 ) ) ;
#254 = CARTESIAN_POINT ( 'NONE',  ( 379.9999999999998295, 10.00000000000000000, -479.9999999999998863 ) ) ;
#255 = ADVANCED_FACE ( 'NONE', ( #289 ), #41, .T. ) ;
#256 = AXIS2_PLACEMENT_3D ( 'NONE', #126, #93, #105 ) ;
#257 =( NAMED_UNIT ( * ) SI_UNIT ( $, .STERADIAN. ) SOLID_ANGLE_UNIT ( ) );
#258 = EDGE_CURVE ( 'NONE', #181, #249, #36, .T. ) ;
#259 = DIRECTION ( 'NONE',  ( 0.000000000000000000, 0.000000000000000000, -1.000000000000000000 ) ) ;
#260 = AXIS2_PLACEMENT_3D ( 'NONE', #28, #57, #234 ) ;
#261 = AXIS2_PLACEMENT_3D ( 'NONE', #327, #281, #115 ) ;
#262 = DIRECTION ( 'NONE',  ( 0.000000000000000000, 0.000000000000000000, -1.000000000000000000 ) ) ;
#263 = DIRECTION ( 'NONE',  ( 0.000000000000000000, 0.000000000000000000, 1.000000000000000000 ) ) ;
#264 = DIRECTION ( 'NONE',  ( -0.000000000000000000, -1.000000000000000000, -0.000000000000000000 ) ) ;
#265 = ADVANCED_FACE ( 'NONE', ( #318 ), #246, .T. ) ;
#266 = CARTESIAN_POINT ( 'NONE',  ( 400.0000000000000000, 10.00000000000000000, 480.0000000000001137 ) ) ;
#267 = EDGE_LOOP ( 'NONE', ( #48, #20, #98, #315 ) ) ;
#268 = ADVANCED_FACE ( 'NONE', ( #67 ), #153, .T. ) ;
#269 = DIRECTION ( 'NONE',  ( 0.000000000000000000, 0.000000000000000000, 1.000000000000000000 ) ) ;
#270 = ORIENTED_EDGE ( 'NONE', *, *, #207, .T. ) ;
#271 = VECTOR ( 'NONE', #72, 1000.000000000000000 ) ;
#272 = ORIENTED_EDGE ( 'NONE', *, *, #189, .T. ) ;
#273 = ORIENTED_EDGE ( 'NONE', *, *, #174, .T. ) ;
#274 = ORIENTED_EDGE ( 'NONE', *, *, #275, .F. ) ;
#275 = EDGE_CURVE ( 'NONE', #75, #205, #150, .T. ) ;
#276 = SURFACE_STYLE_FILL_AREA ( #84 ) ;
#277 = VECTOR ( 'NONE', #117, 1000.000000000000000 ) ;
#278 = DIRECTION ( 'NONE',  ( 0.000000000000000000, -1.000000000000000000, 0.000000000000000000 ) ) ;
#279 = EDGE_CURVE ( 'NONE', #154, #181, #314, .T. ) ;
#280 = DIRECTION ( 'NONE',  ( 1.110223024625156540E-16, 0.000000000000000000, 1.000000000000000000 ) ) ;
#281 = DIRECTION ( 'NONE',  ( 0.000000000000000000, 0.000000000000000000, 1.000000000000000000 ) ) ;
#282 = CLOSED_SHELL ( 'NONE', ( #168, #42, #216, #157, #268, #197, #265, #71, #143, #255 ) ) ;
#283 = CARTESIAN_POINT ( 'NONE',  ( -380.0000000000001705, 10.00000000000000000, -479.9999999999998863 ) ) ;
#284 = DIRECTION ( 'NONE',  ( -1.000000000000000000, 0.000000000000000000, -0.000000000000000000 ) ) ;
#285 = FACE_OUTER_BOUND ( 'NONE', #24, .T. ) ;
#286 = PRODUCT ( 'BSE_PLT', 'BSE_PLT', '', ( #100 ) ) ;
#287 = CARTESIAN_POINT ( 'NONE',  ( 379.9999999999998295, 10.00000000000000000, -499.9999999999998863 ) ) ;
#288 = DIRECTION ( 'NONE',  ( 0.000000000000000000, -0.000000000000000000, 1.000000000000000000 ) ) ;
#289 = FACE_OUTER_BOUND ( 'NONE', #108, .T. ) ;
#290 = DIRECTION ( 'NONE',  ( -1.000000000000000000, -0.000000000000000000, -0.000000000000000000 ) ) ;
#291 = ORIENTED_EDGE ( 'NONE', *, *, #22, .T. ) ;
#292 = CARTESIAN_POINT ( 'NONE',  ( 379.9999999999998295, 10.00000000000000000, -499.9999999999998863 ) ) ;
#293 = ORIENTED_EDGE ( 'NONE', *, *, #326, .T. ) ;
#294 =( LENGTH_UNIT ( ) NAMED_UNIT ( * ) SI_UNIT ( .MILLI., .METRE. ) );
#295 = VECTOR ( 'NONE', #63, 1000.000000000000000 ) ;
#296 = VERTEX_POINT ( 'NONE', #102 ) ;
#297 = VERTEX_POINT ( 'NONE', #244 ) ;
#298 = LINE ( 'NONE', #160, #95 ) ;
#299 = LINE ( 'NONE', #29, #321 ) ;
#300 = VECTOR ( 'NONE', #191, 1000.000000000000000 ) ;
#301 = EDGE_CURVE ( 'NONE', #8, #156, #226, .T. ) ;
#302 = CARTESIAN_POINT ( 'NONE',  ( 399.9999999999998295, 10.00000000000000000, -479.9999999999998863 ) ) ;
#303 = COLOUR_RGB ( '',0.7921568627450980005, 0.8196078431372548767, 0.9333333333333333481 ) ;
#304 = AXIS2_PLACEMENT_3D ( 'NONE', #241, #259, #284 ) ;
#305 = LINE ( 'NONE', #87, #300 ) ;
#306 = CARTESIAN_POINT ( 'NONE',  ( 379.9999999999999432, 10.00000000000000000, 500.0000000000001137 ) ) ;
#307 = UNCERTAINTY_MEASURE_WITH_UNIT (LENGTH_MEASURE( 1.000000000000000082E-05 ), #294, 'distance_accuracy_value', 'NONE');
#308 = CARTESIAN_POINT ( 'NONE',  ( -400.0000000000000568, 10.00000000000000000, 480.0000000000001137 ) ) ;
#309 = VECTOR ( 'NONE', #138, 1000.000000000000000 ) ;
#310 = CARTESIAN_POINT ( 'NONE',  ( 379.9999999999998295, 0.000000000000000000, -479.9999999999998863 ) ) ;
#311 = FACE_OUTER_BOUND ( 'NONE', #267, .T. ) ;
#312 = CARTESIAN_POINT ( 'NONE',  ( 0.000000000000000000, 10.00000000000000000, 0.000000000000000000 ) ) ;
#313 = AXIS2_PLACEMENT_3D ( 'NONE', #166, #217, #12 ) ;
#314 = LINE ( 'NONE', #292, #271 ) ;
#315 = ORIENTED_EDGE ( 'NONE', *, *, #112, .F. ) ;
#316 = APPLICATION_PROTOCOL_DEFINITION ( 'draft international standard', 'automotive_design', 1998, #208 ) ;
#317 = ORIENTED_EDGE ( 'NONE', *, *, #258, .T. ) ;
#318 = FACE_OUTER_BOUND ( 'NONE', #232, .T. ) ;
#319 = ORIENTED_EDGE ( 'NONE', *, *, #22, .F. ) ;
#320 = EDGE_CURVE ( 'NONE', #156, #205, #322, .T. ) ;
#321 = VECTOR ( 'NONE', #164, 1000.000000000000000 ) ;
#322 = LINE ( 'NONE', #97, #183 ) ;
#323 = ORIENTED_EDGE ( 'NONE', *, *, #10, .F. ) ;
#324 = ORIENTED_EDGE ( 'NONE', *, *, #30, .T. ) ;
#325 = DIRECTION ( 'NONE',  ( 0.000000000000000000, 0.000000000000000000, 1.000000000000000000 ) ) ;
#326 = EDGE_CURVE ( 'NONE', #296, #249, #6, .T. ) ;
#327 = CARTESIAN_POINT ( 'NONE',  ( -400.0000000000001705, 10.00000000000000000, -499.9999999999998863 ) ) ;
ENDSEC;
END-ISO-10303-21;
