ISO-10303-21;
HEADER;
FILE_DESCRIPTION (( 'STEP AP214' ),
    '1' );
FILE_NAME ('PRT-1.STEP',
    '2025-07-15T12:57:27',
    ( '' ),
    ( '' ),
    'SwSTEP 2.0',
    'SolidWorks 2023',
    '' );
FILE_SCHEMA (( 'AUTOMOTIVE_DESIGN' ));
ENDSEC;

DATA;
#1 = PLANE ( 'NONE',  #948 ) ;
#2 = CARTESIAN_POINT ( 'NONE',  ( 25.00000000000000000, 42.49999999999998579, -40.00000000000000000 ) ) ;
#3 = ORIENTED_EDGE ( 'NONE', *, *, #104, .T. ) ;
#4 = CARTESIAN_POINT ( 'NONE',  ( -32.50000000000000000, 37.49999999999999289, -5.000000000000000000 ) ) ;
#5 = CARTESIAN_POINT ( 'NONE',  ( 37.49999999999999289, -40.00000000000000711, 0.000000000000000000 ) ) ;
#6 = EDGE_CURVE ( 'NONE', #355, #52, #527, .T. ) ;
#7 = ORIENTED_EDGE ( 'NONE', *, *, #782, .F. ) ;
#8 = CARTESIAN_POINT ( 'NONE',  ( -32.50000000000000000, -40.00000000000000711, 0.000000000000000000 ) ) ;
#9 = DIRECTION ( 'NONE',  ( -0.000000000000000000, -0.000000000000000000, 1.000000000000000000 ) ) ;
#10 = AXIS2_PLACEMENT_3D ( 'NONE', #1048, #286, #111 ) ;
#11 = AXIS2_PLACEMENT_3D ( 'NONE', #659, #665, #994 ) ;
#12 = VERTEX_POINT ( 'NONE', #679 ) ;
#13 = ORIENTED_EDGE ( 'NONE', *, *, #186, .T. ) ;
#14 = CARTESIAN_POINT ( 'NONE',  ( -34.99999999999999289, -40.00000000000000711, 0.000000000000000000 ) ) ;
#15 = EDGE_CURVE ( 'NONE', #208, #192, #757, .T. ) ;
#16 = EDGE_LOOP ( 'NONE', ( #614, #803 ) ) ;
#17 = ADVANCED_FACE ( 'NONE', ( #828 ), #1074, .F. ) ;
#18 = ORIENTED_EDGE ( 'NONE', *, *, #252, .F. ) ;
#19 = ORIENTED_EDGE ( 'NONE', *, *, #912, .F. ) ;
#20 = ORIENTED_EDGE ( 'NONE', *, *, #578, .F. ) ;
#21 = EDGE_CURVE ( 'NONE', #269, #594, #488, .T. ) ;
#22 = DIRECTION ( 'NONE',  ( 1.000000000000000000, 0.000000000000000000, 0.000000000000000000 ) ) ;
#23 = AXIS2_PLACEMENT_3D ( 'NONE', #892, #643, #131 ) ;
#24 = VECTOR ( 'NONE', #345, 1000.000000000000000 ) ;
#25 = EDGE_LOOP ( 'NONE', ( #534, #1069, #535, #943, #579, #1042, #532, #794, #790 ) ) ;
#26 = EDGE_LOOP ( 'NONE', ( #1065, #634, #229, #774 ) ) ;
#27 = DIRECTION ( 'NONE',  ( -0.000000000000000000, -0.000000000000000000, 1.000000000000000000 ) ) ;
#28 = ORIENTED_EDGE ( 'NONE', *, *, #108, .T. ) ;
#29 = ORIENTED_EDGE ( 'NONE', *, *, #598, .T. ) ;
#30 = CARTESIAN_POINT ( 'NONE',  ( 28.50000000000000355, 37.49999999999999289, 0.000000000000000000 ) ) ;
#31 = CARTESIAN_POINT ( 'NONE',  ( 39.99999999999999289, 51.99999999999997158, -5.500000000000076383 ) ) ;
#32 = EDGE_CURVE ( 'NONE', #1029, #785, #583, .T. ) ;
#33 = ORIENTED_EDGE ( 'NONE', *, *, #967, .T. ) ;
#34 = EDGE_LOOP ( 'NONE', ( #190, #867 ) ) ;
#35 = ORIENTED_EDGE ( 'NONE', *, *, #413, .F. ) ;
#36 = LINE ( 'NONE', #198, #89 ) ;
#37 = CARTESIAN_POINT ( 'NONE',  ( 34.99999999999999289, -40.00000000000000711, -5.000000000000000000 ) ) ;
#38 = LINE ( 'NONE', #46, #602 ) ;
#39 = VECTOR ( 'NONE', #326, 1000.000000000000000 ) ;
#40 = ORIENTED_EDGE ( 'NONE', *, *, #211, .T. ) ;
#41 = CIRCLE ( 'NONE', #985, 3.999999999999996447 ) ;
#42 = VECTOR ( 'NONE', #807, 1000.000000000000000 ) ;
#43 = PLANE ( 'NONE',  #599 ) ;
#44 = LINE ( 'NONE', #1059, #1092 ) ;
#45 = AXIS2_PLACEMENT_3D ( 'NONE', #740, #56, #570 ) ;
#46 = CARTESIAN_POINT ( 'NONE',  ( -40.00000000000000711, 42.49999999999998579, -40.00000000000000000 ) ) ;
#47 = CARTESIAN_POINT ( 'NONE',  ( 32.50000000000000000, 37.49999999999999289, -5.000000000000000000 ) ) ;
#48 = VERTEX_POINT ( 'NONE', #423 ) ;
#49 = CARTESIAN_POINT ( 'NONE',  ( -25.00000000000000000, 35.49999999999999289, -90.48762224545735933 ) ) ;
#50 = DIRECTION ( 'NONE',  ( -0.000000000000000000, -0.000000000000000000, 1.000000000000000000 ) ) ;
#51 = EDGE_CURVE ( 'NONE', #875, #166, #92, .T. ) ;
#52 = VERTEX_POINT ( 'NONE', #775 ) ;
#53 = CARTESIAN_POINT ( 'NONE',  ( 40.00000000000000711, -46.50000000000000000, 0.000000000000000000 ) ) ;
#54 = DIRECTION ( 'NONE',  ( -0.000000000000000000, 0.000000000000000000, 1.000000000000000000 ) ) ;
#55 = VERTEX_POINT ( 'NONE', #941 ) ;
#56 = DIRECTION ( 'NONE',  ( -0.000000000000000000, -0.000000000000000000, 1.000000000000000000 ) ) ;
#57 = DIRECTION ( 'NONE',  ( 1.000000000000000000, 0.000000000000000000, 0.000000000000000000 ) ) ;
#58 = EDGE_CURVE ( 'NONE', #355, #278, #1021, .T. ) ;
#59 = VERTEX_POINT ( 'NONE', #1027 ) ;
#60 = CARTESIAN_POINT ( 'NONE',  ( -32.50000000000000000, 37.49999999999999289, -5.000000000000000888 ) ) ;
#61 = DIRECTION ( 'NONE',  ( -1.460819769243627131E-16, 1.000000000000000000, 0.000000000000000000 ) ) ;
#62 = PLANE ( 'NONE',  #902 ) ;
#63 = CARTESIAN_POINT ( 'NONE',  ( -32.50000000000000000, 37.49999999999999289, -5.000000000000000888 ) ) ;
#64 = AXIS2_PLACEMENT_3D ( 'NONE', #407, #154, #490 ) ;
#65 = VECTOR ( 'NONE', #719, 1000.000000000000000 ) ;
#66 = EDGE_LOOP ( 'NONE', ( #297, #421, #107, #501, #79, #789, #683, #280 ) ) ;
#67 = VECTOR ( 'NONE', #321, 1000.000000000000000 ) ;
#68 = EDGE_CURVE ( 'NONE', #284, #875, #930, .T. ) ;
#69 =( NAMED_UNIT ( * ) SI_UNIT ( $, .STERADIAN. ) SOLID_ANGLE_UNIT ( ) );
#70 = DIRECTION ( 'NONE',  ( -0.000000000000000000, -0.000000000000000000, 1.000000000000000000 ) ) ;
#71 = ADVANCED_FACE ( 'NONE', ( #356 ), #433, .F. ) ;
#72 = LINE ( 'NONE', #408, #334 ) ;
#73 = FACE_OUTER_BOUND ( 'NONE', #1046, .T. ) ;
#74 = ORIENTED_EDGE ( 'NONE', *, *, #846, .F. ) ;
#75 = SURFACE_SIDE_STYLE ('',( #580 ) ) ;
#76 = DIRECTION ( 'NONE',  ( -0.000000000000000000, -0.000000000000000000, 1.000000000000000000 ) ) ;
#77 = EDGE_CURVE ( 'NONE', #313, #883, #167, .T. ) ;
#78 = DIRECTION ( 'NONE',  ( -0.000000000000000000, -0.000000000000000000, 1.000000000000000000 ) ) ;
#79 = ORIENTED_EDGE ( 'NONE', *, *, #1004, .F. ) ;
#80 = DIRECTION ( 'NONE',  ( -0.000000000000000000, -0.000000000000000000, 1.000000000000000000 ) ) ;
#81 = CARTESIAN_POINT ( 'NONE',  ( 0.000000000000000000, 46.49999999999997158, 0.000000000000000000 ) ) ;
#82 = CARTESIAN_POINT ( 'NONE',  ( 39.99999999999999289, 47.49999999999998579, -38.99999999999997158 ) ) ;
#83 = EDGE_LOOP ( 'NONE', ( #843, #564, #960, #389 ) ) ;
#84 = AXIS2_PLACEMENT_3D ( 'NONE', #861, #9, #942 ) ;
#85 = DIRECTION ( 'NONE',  ( -0.000000000000000000, -0.000000000000000000, 1.000000000000000000 ) ) ;
#86 = AXIS2_PLACEMENT_3D ( 'NONE', #298, #27, #362 ) ;
#87 = DIRECTION ( 'NONE',  ( 1.000000000000000000, 0.000000000000000000, 0.000000000000000000 ) ) ;
#88 = AXIS2_PLACEMENT_3D ( 'NONE', #710, #443, #605 ) ;
#89 = VECTOR ( 'NONE', #116, 1000.000000000000000 ) ;
#90 = CARTESIAN_POINT ( 'NONE',  ( 32.50000000000000000, -40.00000000000000711, 0.000000000000000000 ) ) ;
#91 = VERTEX_POINT ( 'NONE', #506 ) ;
#92 = LINE ( 'NONE', #96, #512 ) ;
#93 = DIRECTION ( 'NONE',  ( 1.460819769243627131E-16, -1.000000000000000000, 0.000000000000000000 ) ) ;
#94 = DIRECTION ( 'NONE',  ( -1.000000000000000000, 0.000000000000000000, -0.000000000000000000 ) ) ;
#95 = ORIENTED_EDGE ( 'NONE', *, *, #348, .T. ) ;
#96 = CARTESIAN_POINT ( 'NONE',  ( 25.00000000000000000, 42.49999999999998579, -40.00000000000000000 ) ) ;
#97 = DIRECTION ( 'NONE',  ( 0.000000000000000000, 0.7071067811865524577, -0.7071067811865425767 ) ) ;
#98 = ORIENTED_EDGE ( 'NONE', *, *, #108, .F. ) ;
#99 = CARTESIAN_POINT ( 'NONE',  ( -38.99999999999999289, -40.00000000000000711, 0.000000000000000000 ) ) ;
#100 = PRODUCT ( 'PRT-1', 'PRT-1', '', ( #612 ) ) ;
#101 = EDGE_CURVE ( 'NONE', #12, #91, #655, .T. ) ;
#102 = AXIS2_PLACEMENT_3D ( 'NONE', #891, #998, #236 ) ;
#103 = CIRCLE ( 'NONE', #118, 3.999999999999996447 ) ;
#104 = EDGE_CURVE ( 'NONE', #12, #277, #608, .T. ) ;
#105 = VECTOR ( 'NONE', #181, 1000.000000000000000 ) ;
#106 = EDGE_LOOP ( 'NONE', ( #545, #1033, #889, #33 ) ) ;
#107 = ORIENTED_EDGE ( 'NONE', *, *, #677, .F. ) ;
#108 = EDGE_CURVE ( 'NONE', #981, #1057, #595, .T. ) ;
#109 = ORIENTED_EDGE ( 'NONE', *, *, #619, .T. ) ;
#110 = ORIENTED_EDGE ( 'NONE', *, *, #212, .T. ) ;
#111 = DIRECTION ( 'NONE',  ( 1.000000000000000000, 0.000000000000000000, 0.000000000000000000 ) ) ;
#112 = APPLICATION_PROTOCOL_DEFINITION ( 'draft international standard', 'automotive_design', 1998, #317 ) ;
#113 = EDGE_CURVE ( 'NONE', #848, #733, #244, .T. ) ;
#114 = ORIENTED_EDGE ( 'NONE', *, *, #978, .F. ) ;
#115 = ORIENTED_EDGE ( 'NONE', *, *, #619, .F. ) ;
#116 = DIRECTION ( 'NONE',  ( -0.000000000000000000, -0.000000000000000000, 1.000000000000000000 ) ) ;
#117 = AXIS2_PLACEMENT_3D ( 'NONE', #540, #533, #709 ) ;
#118 = AXIS2_PLACEMENT_3D ( 'NONE', #680, #80, #405 ) ;
#119 = ORIENTED_EDGE ( 'NONE', *, *, #435, .T. ) ;
#120 = ORIENTED_EDGE ( 'NONE', *, *, #990, .T. ) ;
#121 = DIRECTION ( 'NONE',  ( 1.000000000000000000, 0.000000000000000000, 0.000000000000000000 ) ) ;
#122 = EDGE_CURVE ( 'NONE', #52, #195, #936, .T. ) ;
#123 = DIRECTION ( 'NONE',  ( 1.000000000000000000, 0.000000000000000000, 0.000000000000000000 ) ) ;
#124 = ORIENTED_EDGE ( 'NONE', *, *, #133, .T. ) ;
#125 = ORIENTED_EDGE ( 'NONE', *, *, #613, .F. ) ;
#126 = CARTESIAN_POINT ( 'NONE',  ( -25.00000000000000000, 35.49999999999999289, -10.00000000000000000 ) ) ;
#127 = LINE ( 'NONE', #549, #950 ) ;
#128 = ORIENTED_EDGE ( 'NONE', *, *, #32, .T. ) ;
#129 = DIRECTION ( 'NONE',  ( 1.000000000000000000, 0.000000000000000000, 0.000000000000000000 ) ) ;
#130 = PLANE ( 'NONE',  #600 ) ;
#131 = DIRECTION ( 'NONE',  ( 0.000000000000000000, 0.000000000000000000, -1.000000000000000000 ) ) ;
#132 = EDGE_CURVE ( 'NONE', #986, #208, #177, .T. ) ;
#133 = EDGE_CURVE ( 'NONE', #621, #877, #173, .T. ) ;
#134 = AXIS2_PLACEMENT_3D ( 'NONE', #480, #976, #235 ) ;
#135 = ORIENTED_EDGE ( 'NONE', *, *, #132, .T. ) ;
#136 = AXIS2_PLACEMENT_3D ( 'NONE', #820, #50, #388 ) ;
#137 = CARTESIAN_POINT ( 'NONE',  ( 28.50000000000000355, 37.49999999999999289, -5.000000000000000000 ) ) ;
#138 = DIRECTION ( 'NONE',  ( 0.000000000000000000, 1.000000000000000000, 0.000000000000000000 ) ) ;
#139 = ORIENTED_EDGE ( 'NONE', *, *, #68, .T. ) ;
#140 = CARTESIAN_POINT ( 'NONE',  ( -28.50000000000000355, 37.49999999999999289, 0.000000000000000000 ) ) ;
#141 = DIRECTION ( 'NONE',  ( 1.000000000000000000, 0.000000000000000000, 0.000000000000000000 ) ) ;
#142 = EDGE_LOOP ( 'NONE', ( #19, #35 ) ) ;
#143 = EDGE_CURVE ( 'NONE', #166, #366, #438, .T. ) ;
#144 = CARTESIAN_POINT ( 'NONE',  ( 39.99999999999999289, 42.49999999999998579, -40.00000000000000000 ) ) ;
#145 = FACE_OUTER_BOUND ( 'NONE', #769, .T. ) ;
#146 = CARTESIAN_POINT ( 'NONE',  ( 25.00000000000000000, 42.49999999999998579, -10.00000000000000000 ) ) ;
#147 = CARTESIAN_POINT ( 'NONE',  ( 34.99999999999999289, -40.00000000000000711, -5.000000000000000888 ) ) ;
#148 = CARTESIAN_POINT ( 'NONE',  ( -30.00000000000000355, 37.49999999999999289, -5.000000000000000888 ) ) ;
#149 = PLANE ( 'NONE',  #650 ) ;
#150 = EDGE_CURVE ( 'NONE', #952, #59, #817, .T. ) ;
#151 = DIRECTION ( 'NONE',  ( 1.000000000000000000, 0.000000000000000000, 0.000000000000000000 ) ) ;
#152 = DIRECTION ( 'NONE',  ( 1.000000000000000000, 0.000000000000000000, 0.000000000000000000 ) ) ;
#153 = CARTESIAN_POINT ( 'NONE',  ( 34.99999999999999289, -40.00000000000000711, 0.000000000000000000 ) ) ;
#154 = DIRECTION ( 'NONE',  ( -0.000000000000000000, -0.000000000000000000, 1.000000000000000000 ) ) ;
#155 = DIRECTION ( 'NONE',  ( -1.000000000000000000, 0.000000000000000000, -0.000000000000000000 ) ) ;
#156 = DIRECTION ( 'NONE',  ( -0.000000000000000000, -0.000000000000000000, 1.000000000000000000 ) ) ;
#157 = ORIENTED_EDGE ( 'NONE', *, *, #611, .F. ) ;
#158 = EDGE_CURVE ( 'NONE', #454, #546, #746, .T. ) ;
#159 = CARTESIAN_POINT ( 'NONE',  ( -40.00000000000000711, 46.49999999999997158, 0.000000000000000000 ) ) ;
#160 = FACE_OUTER_BOUND ( 'NONE', #226, .T. ) ;
#161 = LINE ( 'NONE', #500, #378 ) ;
#162 = ORIENTED_EDGE ( 'NONE', *, *, #499, .F. ) ;
#163 = PRESENTATION_STYLE_ASSIGNMENT (( #411 ) ) ;
#164 = CARTESIAN_POINT ( 'NONE',  ( -25.00000000000000711, 42.49999999999998579, -40.00000000000000000 ) ) ;
#165 = DIRECTION ( 'NONE',  ( 0.000000000000000000, 0.000000000000000000, 1.000000000000000000 ) ) ;
#166 = VERTEX_POINT ( 'NONE', #926 ) ;
#167 = LINE ( 'NONE', #260, #900 ) ;
#168 = LINE ( 'NONE', #257, #745 ) ;
#169 = EDGE_CURVE ( 'NONE', #713, #238, #574, .T. ) ;
#170 = CARTESIAN_POINT ( 'NONE',  ( -39.99999999999999289, -47.50000000000001421, -10.00000000000000000 ) ) ;
#171 = ORIENTED_EDGE ( 'NONE', *, *, #1002, .F. ) ;
#172 = CIRCLE ( 'NONE', #795, 2.499999999999995115 ) ;
#173 = LINE ( 'NONE', #99, #603 ) ;
#174 = DIRECTION ( 'NONE',  ( -1.032955564923529314E-16, 0.7071067811865426878, -0.7071067811865524577 ) ) ;
#175 = VECTOR ( 'NONE', #371, 1000.000000000000000 ) ;
#176 = ORIENTED_EDGE ( 'NONE', *, *, #113, .F. ) ;
#177 = LINE ( 'NONE', #859, #291 ) ;
#178 = CARTESIAN_POINT ( 'NONE',  ( -32.50000000000000000, 37.49999999999999289, 0.000000000000000000 ) ) ;
#179 = EDGE_LOOP ( 'NONE', ( #648, #609, #40, #479 ) ) ;
#180 = EDGE_CURVE ( 'NONE', #359, #1032, #470, .T. ) ;
#181 = DIRECTION ( 'NONE',  ( -0.000000000000000000, -0.000000000000000000, 1.000000000000000000 ) ) ;
#182 = ADVANCED_FACE ( 'NONE', ( #903 ), #581, .T. ) ;
#183 = ORIENTED_EDGE ( 'NONE', *, *, #933, .T. ) ;
#184 = EDGE_LOOP ( 'NONE', ( #114, #386, #442, #338 ) ) ;
#185 = VECTOR ( 'NONE', #1061, 1000.000000000000000 ) ;
#186 = EDGE_CURVE ( 'NONE', #48, #449, #399, .T. ) ;
#187 = CIRCLE ( 'NONE', #920, 2.499999999999998668 ) ;
#188 = AXIS2_PLACEMENT_3D ( 'NONE', #178, #1022, #1028 ) ;
#189 = EDGE_LOOP ( 'NONE', ( #717, #305, #28, #935 ) ) ;
#190 = ORIENTED_EDGE ( 'NONE', *, *, #295, .T. ) ;
#191 = LINE ( 'NONE', #872, #65 ) ;
#192 = VERTEX_POINT ( 'NONE', #569 ) ;
#193 = ORIENTED_EDGE ( 'NONE', *, *, #205, .T. ) ;
#194 = CYLINDRICAL_SURFACE ( 'NONE', #330, 2.499999999999995115 ) ;
#195 = VERTEX_POINT ( 'NONE', #315 ) ;
#196 = ADVANCED_FACE ( 'NONE', ( #160 ), #398, .F. ) ;
#197 = ORIENTED_EDGE ( 'NONE', *, *, #158, .F. ) ;
#198 = CARTESIAN_POINT ( 'NONE',  ( -28.50000000000000355, 37.49999999999999289, 0.000000000000000000 ) ) ;
#199 = FACE_OUTER_BOUND ( 'NONE', #26, .T. ) ;
#200 = VECTOR ( 'NONE', #494, 1000.000000000000000 ) ;
#201 = AXIS2_PLACEMENT_3D ( 'NONE', #556, #993, #57 ) ;
#202 = AXIS2_PLACEMENT_3D ( 'NONE', #907, #742, #152 ) ;
#203 = VERTEX_POINT ( 'NONE', #921 ) ;
#204 = ORIENTED_EDGE ( 'NONE', *, *, #406, .F. ) ;
#205 = EDGE_CURVE ( 'NONE', #785, #1029, #524, .T. ) ;
#206 = LINE ( 'NONE', #805, #437 ) ;
#207 = LINE ( 'NONE', #227, #881 ) ;
#208 = VERTEX_POINT ( 'NONE', #1078 ) ;
#209 = DIRECTION ( 'NONE',  ( -0.000000000000000000, -0.000000000000000000, 1.000000000000000000 ) ) ;
#210 = DIRECTION ( 'NONE',  ( 1.032955564923529314E-16, -0.7071067811865426878, -0.7071067811865524577 ) ) ;
#211 = EDGE_CURVE ( 'NONE', #48, #848, #219, .T. ) ;
#212 = EDGE_CURVE ( 'NONE', #883, #538, #652, .T. ) ;
#213 = DIRECTION ( 'NONE',  ( -0.000000000000000000, -0.000000000000000000, 1.000000000000000000 ) ) ;
#214 = EDGE_LOOP ( 'NONE', ( #585, #626, #694, #448 ) ) ;
#215 = CARTESIAN_POINT ( 'NONE',  ( 38.99999999999999289, -40.00000000000000711, 0.000000000000000000 ) ) ;
#216 = CARTESIAN_POINT ( 'NONE',  ( -30.00000000000000355, 37.49999999999999289, -5.000000000000000888 ) ) ;
#217 = FACE_OUTER_BOUND ( 'NONE', #786, .T. ) ;
#218 = ADVANCED_FACE ( 'NONE', ( #559 ), #478, .F. ) ;
#219 = LINE ( 'NONE', #1088, #185 ) ;
#220 = ORIENTED_EDGE ( 'NONE', *, *, #651, .T. ) ;
#221 = AXIS2_PLACEMENT_3D ( 'NONE', #688, #78, #928 ) ;
#222 = PRESENTATION_LAYER_ASSIGNMENT (  '', '', ( #289 ) ) ;
#223 = DIRECTION ( 'NONE',  ( -0.000000000000000000, -0.000000000000000000, 1.000000000000000000 ) ) ;
#224 = VECTOR ( 'NONE', #604, 1000.000000000000000 ) ;
#225 = DIRECTION ( 'NONE',  ( 1.000000000000000000, 0.000000000000000000, 0.000000000000000000 ) ) ;
#226 = EDGE_LOOP ( 'NONE', ( #929, #395, #1090, #98 ) ) ;
#227 = CARTESIAN_POINT ( 'NONE',  ( 39.99999999999999289, 42.49999999999998579, -40.00000000000000000 ) ) ;
#228 = CARTESIAN_POINT ( 'NONE',  ( -40.00000000000000711, 61.99999999999997158, -24.49999999999978684 ) ) ;
#229 = ORIENTED_EDGE ( 'NONE', *, *, #834, .T. ) ;
#230 = DIRECTION ( 'NONE',  ( 0.000000000000000000, 0.000000000000000000, -1.000000000000000000 ) ) ;
#231 = FACE_OUTER_BOUND ( 'NONE', #862, .T. ) ;
#232 = ORIENTED_EDGE ( 'NONE', *, *, #290, .F. ) ;
#233 = FACE_OUTER_BOUND ( 'NONE', #365, .T. ) ;
#234 = DIRECTION ( 'NONE',  ( 1.032955564923529314E-16, -0.7071067811865426878, -0.7071067811865524577 ) ) ;
#235 = DIRECTION ( 'NONE',  ( 1.460819769243627131E-16, -1.000000000000000000, 0.000000000000000000 ) ) ;
#236 = DIRECTION ( 'NONE',  ( 1.000000000000000000, 0.000000000000000000, 0.000000000000000000 ) ) ;
#237 = EDGE_CURVE ( 'NONE', #779, #359, #391, .T. ) ;
#238 = VERTEX_POINT ( 'NONE', #148 ) ;
#239 = DIRECTION ( 'NONE',  ( -0.000000000000000000, -0.000000000000000000, 1.000000000000000000 ) ) ;
#240 = DIRECTION ( 'NONE',  ( -0.000000000000000000, -0.000000000000000000, 1.000000000000000000 ) ) ;
#241 = DIRECTION ( 'NONE',  ( 0.000000000000000000, -1.000000000000000000, 0.000000000000000000 ) ) ;
#242 = VECTOR ( 'NONE', #504, 1000.000000000000000 ) ;
#243 = ORIENTED_EDGE ( 'NONE', *, *, #1017, .T. ) ;
#244 = CIRCLE ( 'NONE', #633, 3.999999999999996447 ) ;
#245 = LINE ( 'NONE', #844, #67 ) ;
#246 = CARTESIAN_POINT ( 'NONE',  ( 39.99999999999999289, 47.49999999999998579, -10.00000000000000000 ) ) ;
#247 = DIRECTION ( 'NONE',  ( 0.000000000000000000, -1.000000000000000000, 0.000000000000000000 ) ) ;
#248 = UNCERTAINTY_MEASURE_WITH_UNIT (LENGTH_MEASURE( 1.000000000000000082E-05 ), #931, 'distance_accuracy_value', 'NONE');
#249 = ORIENTED_EDGE ( 'NONE', *, *, #788, .T. ) ;
#250 = DIRECTION ( 'NONE',  ( 1.000000000000000000, 0.000000000000000000, 0.000000000000000000 ) ) ;
#251 = DIRECTION ( 'NONE',  ( 1.000000000000000000, 0.000000000000000000, 0.000000000000000000 ) ) ;
#252 = EDGE_CURVE ( 'NONE', #546, #324, #738, .T. ) ;
#253 = LINE ( 'NONE', #1010, #471 ) ;
#254 = ORIENTED_EDGE ( 'NONE', *, *, #517, .T. ) ;
#255 = DIRECTION ( 'NONE',  ( -0.000000000000000000, -0.000000000000000000, 1.000000000000000000 ) ) ;
#256 = DIRECTION ( 'NONE',  ( 1.000000000000000000, 0.000000000000000000, 0.000000000000000000 ) ) ;
#257 = CARTESIAN_POINT ( 'NONE',  ( -40.00000000000000711, 51.99999999999997158, -5.500000000000076383 ) ) ;
#258 = CARTESIAN_POINT ( 'NONE',  ( -25.00000000000000000, 42.49999999999998579, -10.00000000000000000 ) ) ;
#259 = ORIENTED_EDGE ( 'NONE', *, *, #697, .T. ) ;
#260 = CARTESIAN_POINT ( 'NONE',  ( -25.00000000000000000, 42.49999999999998579, -90.48762224545735933 ) ) ;
#261 = CIRCLE ( 'NONE', #400, 3.999999999999996447 ) ;
#262 = LINE ( 'NONE', #597, #327 ) ;
#263 = CIRCLE ( 'NONE', #654, 2.499999999999995115 ) ;
#264 = APPLICATION_CONTEXT ( 'automotive_design' ) ;
#265 = EDGE_CURVE ( 'NONE', #616, #883, #322, .T. ) ;
#266 = ORIENTED_EDGE ( 'NONE', *, *, #933, .F. ) ;
#267 = CARTESIAN_POINT ( 'NONE',  ( 30.00000000000000711, 37.49999999999999289, 0.000000000000000000 ) ) ;
#268 = ORIENTED_EDGE ( 'NONE', *, *, #834, .F. ) ;
#269 = VERTEX_POINT ( 'NONE', #996 ) ;
#270 = ADVANCED_FACE ( 'NONE', ( #667 ), #915, .F. ) ;
#271 = APPLICATION_PROTOCOL_DEFINITION ( 'draft international standard', 'automotive_design', 1998, #264 ) ;
#272 = EDGE_LOOP ( 'NONE', ( #991, #702 ) ) ;
#273 = EDGE_LOOP ( 'NONE', ( #176, #857 ) ) ;
#274 = AXIS2_PLACEMENT_3D ( 'NONE', #394, #156, #806 ) ;
#275 = VECTOR ( 'NONE', #849, 1000.000000000000000 ) ;
#276 = VECTOR ( 'NONE', #347, 1000.000000000000000 ) ;
#277 = VERTEX_POINT ( 'NONE', #836 ) ;
#278 = VERTEX_POINT ( 'NONE', #754 ) ;
#279 = DIRECTION ( 'NONE',  ( 1.000000000000000000, 0.000000000000000000, 0.000000000000000000 ) ) ;
#280 = ORIENTED_EDGE ( 'NONE', *, *, #316, .F. ) ;
#281 = EDGE_LOOP ( 'NONE', ( #796, #285 ) ) ;
#282 = CARTESIAN_POINT ( 'NONE',  ( -37.49999999999999289, -40.00000000000000711, -5.000000000000000888 ) ) ;
#283 = PRODUCT_DEFINITION ( 'UNKNOWN', '', #899, #678 ) ;
#284 = VERTEX_POINT ( 'NONE', #1082 ) ;
#285 = ORIENTED_EDGE ( 'NONE', *, *, #956, .T. ) ;
#286 = DIRECTION ( 'NONE',  ( -0.000000000000000000, -0.000000000000000000, 1.000000000000000000 ) ) ;
#287 = DIRECTION ( 'NONE',  ( 0.000000000000000000, 1.000000000000000000, 0.000000000000000000 ) ) ;
#288 = AXIS2_PLACEMENT_3D ( 'NONE', #1085, #323, #842 ) ;
#289 = STYLED_ITEM ( 'NONE', ( #163 ), #1087 ) ;
#290 = EDGE_CURVE ( 'NONE', #804, #940, #812, .T. ) ;
#291 = VECTOR ( 'NONE', #863, 1000.000000000000000 ) ;
#292 = ORIENTED_EDGE ( 'NONE', *, *, #944, .F. ) ;
#293 = DIRECTION ( 'NONE',  ( 0.000000000000000000, 0.000000000000000000, 1.000000000000000000 ) ) ;
#294 = DIRECTION ( 'NONE',  ( 1.000000000000000000, 0.000000000000000000, 0.000000000000000000 ) ) ;
#295 = EDGE_CURVE ( 'NONE', #981, #269, #308, .T. ) ;
#296 = CARTESIAN_POINT ( 'NONE',  ( 37.49999999999999289, -40.00000000000000711, -10.00000000000000000 ) ) ;
#297 = ORIENTED_EDGE ( 'NONE', *, *, #15, .F. ) ;
#298 = CARTESIAN_POINT ( 'NONE',  ( -34.99999999999999289, -40.00000000000000711, -5.000000000000000888 ) ) ;
#299 = DIRECTION ( 'NONE',  ( -0.000000000000000000, -0.000000000000000000, 1.000000000000000000 ) ) ;
#300 = LINE ( 'NONE', #1049, #814 ) ;
#301 = DIRECTION ( 'NONE',  ( 1.000000000000000000, 0.000000000000000000, 0.000000000000000000 ) ) ;
#302 = EDGE_LOOP ( 'NONE', ( #369, #162, #601, #951 ) ) ;
#303 = CARTESIAN_POINT ( 'NONE',  ( 0.000000000000000000, 46.49999999999997158, -40.00000000000000000 ) ) ;
#304 = DIRECTION ( 'NONE',  ( -0.000000000000000000, -0.000000000000000000, 1.000000000000000000 ) ) ;
#305 = ORIENTED_EDGE ( 'NONE', *, *, #295, .F. ) ;
#306 = DIRECTION ( 'NONE',  ( 1.000000000000000000, 0.000000000000000000, 0.000000000000000000 ) ) ;
#307 = DIRECTION ( 'NONE',  ( -0.000000000000000000, 1.000000000000000000, -0.000000000000000000 ) ) ;
#308 = CIRCLE ( 'NONE', #1095, 2.499999999999995115 ) ;
#309 = EDGE_LOOP ( 'NONE', ( #1026, #360 ) ) ;
#310 = CIRCLE ( 'NONE', #630, 2.499999999999995115 ) ;
#311 = FACE_BOUND ( 'NONE', #521, .T. ) ;
#312 = LINE ( 'NONE', #972, #420 ) ;
#313 = VERTEX_POINT ( 'NONE', #164 ) ;
#314 = DIRECTION ( 'NONE',  ( -1.000000000000000000, 0.000000000000000000, 0.000000000000000000 ) ) ;
#315 = CARTESIAN_POINT ( 'NONE',  ( 35.00000000000000000, 37.49999999999999289, -5.000000000000000888 ) ) ;
#316 = EDGE_CURVE ( 'NONE', #192, #616, #262, .T. ) ;
#317 = APPLICATION_CONTEXT ( 'automotive_design' ) ;
#318 = CARTESIAN_POINT ( 'NONE',  ( 39.99999999999999289, 61.99999999999997158, -24.49999999999978684 ) ) ;
#319 = CARTESIAN_POINT ( 'NONE',  ( 39.99999999999999289, 47.49999999999998579, -10.00000000000000000 ) ) ;
#320 = EDGE_LOOP ( 'NONE', ( #736, #525, #791, #918 ) ) ;
#321 = DIRECTION ( 'NONE',  ( 0.000000000000000000, 0.000000000000000000, 1.000000000000000000 ) ) ;
#322 = LINE ( 'NONE', #661, #865 ) ;
#323 = DIRECTION ( 'NONE',  ( -0.000000000000000000, -0.000000000000000000, 1.000000000000000000 ) ) ;
#324 = VERTEX_POINT ( 'NONE', #932 ) ;
#325 = FACE_OUTER_BOUND ( 'NONE', #465, .T. ) ;
#326 = DIRECTION ( 'NONE',  ( -1.032955564923529314E-16, 0.7071067811865426878, 0.7071067811865524577 ) ) ;
#327 = VECTOR ( 'NONE', #606, 1000.000000000000000 ) ;
#328 = ADVANCED_FACE ( 'NONE', ( #781 ), #1, .F. ) ;
#329 = PLANE ( 'NONE',  #835 ) ;
#330 = AXIS2_PLACEMENT_3D ( 'NONE', #1054, #370, #798 ) ;
#331 = CIRCLE ( 'NONE', #1075, 2.499999999999998668 ) ;
#332 = EDGE_CURVE ( 'NONE', #733, #848, #984, .T. ) ;
#333 = ORIENTED_EDGE ( 'NONE', *, *, #122, .T. ) ;
#334 = VECTOR ( 'NONE', #640, 1000.000000000000000 ) ;
#335 = LINE ( 'NONE', #346, #353 ) ;
#336 = CARTESIAN_POINT ( 'NONE',  ( 32.50000000000000000, -40.00000000000000711, -5.000000000000000888 ) ) ;
#337 = DIRECTION ( 'NONE',  ( -1.000000000000000000, 0.000000000000000000, 0.000000000000000000 ) ) ;
#338 = ORIENTED_EDGE ( 'NONE', *, *, #887, .F. ) ;
#339 = CARTESIAN_POINT ( 'NONE',  ( 31.00000000000000000, -40.00000000000000711, 0.000000000000000000 ) ) ;
#340 = ADVANCED_FACE ( 'NONE', ( #1093 ), #937, .T. ) ;
#341 = CYLINDRICAL_SURFACE ( 'NONE', #544, 2.499999999999995115 ) ;
#342 = CARTESIAN_POINT ( 'NONE',  ( 0.000000000000000000, -46.50000000000000000, 0.000000000000000000 ) ) ;
#343 = CARTESIAN_POINT ( 'NONE',  ( -38.99999999999999289, -40.00000000000000711, 0.000000000000000000 ) ) ;
#344 = VERTEX_POINT ( 'NONE', #336 ) ;
#345 = DIRECTION ( 'NONE',  ( -1.000000000000000000, 0.000000000000000000, 0.000000000000000000 ) ) ;
#346 = CARTESIAN_POINT ( 'NONE',  ( -40.00000000000000711, 47.49999999999998579, 0.000000000000000000 ) ) ;
#347 = DIRECTION ( 'NONE',  ( -0.000000000000000000, -0.000000000000000000, 1.000000000000000000 ) ) ;
#348 = EDGE_CURVE ( 'NONE', #1038, #727, #168, .T. ) ;
#349 = ORIENTED_EDGE ( 'NONE', *, *, #1017, .F. ) ;
#350 = AXIS2_PLACEMENT_3D ( 'NONE', #954, #209, #121 ) ;
#351 = CARTESIAN_POINT ( 'NONE',  ( 39.99999999999999289, 42.49999999999998579, -40.00000000000000000 ) ) ;
#352 = DIRECTION ( 'NONE',  ( -1.000000000000000000, 0.000000000000000000, 0.000000000000000000 ) ) ;
#353 = VECTOR ( 'NONE', #93, 1000.000000000000000 ) ;
#354 = EDGE_LOOP ( 'NONE', ( #18, #197, #698, #703 ) ) ;
#355 = VERTEX_POINT ( 'NONE', #434 ) ;
#356 = FACE_OUTER_BOUND ( 'NONE', #718, .T. ) ;
#357 = ADVANCED_FACE ( 'NONE', ( #696 ), #426, .F. ) ;
#358 = ORIENTED_EDGE ( 'NONE', *, *, #990, .F. ) ;
#359 = VERTEX_POINT ( 'NONE', #772 ) ;
#360 = ORIENTED_EDGE ( 'NONE', *, *, #6, .T. ) ;
#361 = EDGE_LOOP ( 'NONE', ( #446, #249, #833, #620 ) ) ;
#362 = DIRECTION ( 'NONE',  ( 1.000000000000000000, 0.000000000000000000, 0.000000000000000000 ) ) ;
#363 = ADVANCED_FACE ( 'NONE', ( #691 ), #502, .F. ) ;
#364 = CIRCLE ( 'NONE', #1023, 2.499999999999995115 ) ;
#365 = EDGE_LOOP ( 'NONE', ( #591, #964, #1039, #259 ) ) ;
#366 = VERTEX_POINT ( 'NONE', #778 ) ;
#367 = CARTESIAN_POINT ( 'NONE',  ( -35.00000000000000000, 37.49999999999999289, -5.000000000000000888 ) ) ;
#368 = ORIENTED_EDGE ( 'NONE', *, *, #150, .T. ) ;
#369 = ORIENTED_EDGE ( 'NONE', *, *, #874, .F. ) ;
#370 = DIRECTION ( 'NONE',  ( -0.000000000000000000, -0.000000000000000000, 1.000000000000000000 ) ) ;
#371 = DIRECTION ( 'NONE',  ( 1.032955564923529314E-16, -0.7071067811865426878, 0.7071067811865524577 ) ) ;
#372 = ADVANCED_FACE ( 'NONE', ( #763 ), #856, .F. ) ;
#373 = EDGE_CURVE ( 'NONE', #923, #965, #592, .T. ) ;
#374 = VERTEX_POINT ( 'NONE', #831 ) ;
#375 = FACE_OUTER_BOUND ( 'NONE', #83, .T. ) ;
#376 = CARTESIAN_POINT ( 'NONE',  ( 32.50000000000000000, 37.49999999999999289, -10.00000000000000000 ) ) ;
#377 = CARTESIAN_POINT ( 'NONE',  ( -32.50000000000000000, -40.00000000000000711, -10.00000000000000000 ) ) ;
#378 = VECTOR ( 'NONE', #314, 1000.000000000000000 ) ;
#379 = AXIS2_PLACEMENT_3D ( 'NONE', #246, #980, #61 ) ;
#380 = ORIENTED_EDGE ( 'NONE', *, *, #332, .T. ) ;
#381 = ADVANCED_FACE ( 'NONE', ( #1070 ), #62, .F. ) ;
#382 = FACE_BOUND ( 'NONE', #272, .T. ) ;
#383 = CARTESIAN_POINT ( 'NONE',  ( 34.99999999999999289, -40.00000000000000711, 0.000000000000000000 ) ) ;
#384 = DIRECTION ( 'NONE',  ( -0.000000000000000000, -0.000000000000000000, 1.000000000000000000 ) ) ;
#385 = DIRECTION ( 'NONE',  ( -0.000000000000000000, -0.000000000000000000, 1.000000000000000000 ) ) ;
#386 = ORIENTED_EDGE ( 'NONE', *, *, #687, .F. ) ;
#387 = DIRECTION ( 'NONE',  ( -0.000000000000000000, -0.000000000000000000, 1.000000000000000000 ) ) ;
#388 = DIRECTION ( 'NONE',  ( 1.000000000000000000, 0.000000000000000000, 0.000000000000000000 ) ) ;
#389 = ORIENTED_EDGE ( 'NONE', *, *, #122, .F. ) ;
#390 = CARTESIAN_POINT ( 'NONE',  ( 32.50000000000000000, 37.49999999999999289, -5.000000000000000888 ) ) ;
#391 = LINE ( 'NONE', #228, #541 ) ;
#392 = ORIENTED_EDGE ( 'NONE', *, *, #860, .F. ) ;
#393 = FACE_OUTER_BOUND ( 'NONE', #189, .T. ) ;
#394 = CARTESIAN_POINT ( 'NONE',  ( 32.50000000000000000, 37.49999999999999289, 0.000000000000000000 ) ) ;
#395 = ORIENTED_EDGE ( 'NONE', *, *, #21, .T. ) ;
#396 = ADVANCED_FACE ( 'NONE', ( #393 ), #750, .F. ) ;
#397 = DIRECTION ( 'NONE',  ( -0.000000000000000000, 0.000000000000000000, 1.000000000000000000 ) ) ;
#398 = CYLINDRICAL_SURFACE ( 'NONE', #938, 2.499999999999995115 ) ;
#399 = CIRCLE ( 'NONE', #897, 3.999999999999996447 ) ;
#400 = AXIS2_PLACEMENT_3D ( 'NONE', #37, #911, #664 ) ;
#401 = DIRECTION ( 'NONE',  ( -0.000000000000000000, -0.000000000000000000, 1.000000000000000000 ) ) ;
#402 = VECTOR ( 'NONE', #759, 1000.000000000000000 ) ;
#403 = DIRECTION ( 'NONE',  ( 0.000000000000000000, 0.000000000000000000, -1.000000000000000000 ) ) ;
#404 = EDGE_LOOP ( 'NONE', ( #946, #7 ) ) ;
#405 = DIRECTION ( 'NONE',  ( 1.000000000000000000, 0.000000000000000000, 0.000000000000000000 ) ) ;
#406 = EDGE_CURVE ( 'NONE', #1032, #839, #982, .T. ) ;
#407 = CARTESIAN_POINT ( 'NONE',  ( 34.99999999999999289, -40.00000000000000711, 0.000000000000000000 ) ) ;
#408 = CARTESIAN_POINT ( 'NONE',  ( -34.99999999999999289, 37.49999999999999289, 0.000000000000000000 ) ) ;
#409 = DIRECTION ( 'NONE',  ( -0.000000000000000000, 0.000000000000000000, 1.000000000000000000 ) ) ;
#410 = ORIENTED_EDGE ( 'NONE', *, *, #51, .T. ) ;
#411 = SURFACE_STYLE_USAGE ( .BOTH. , #75 ) ;
#412 = DIRECTION ( 'NONE',  ( -1.000000000000000000, 0.000000000000000000, 0.000000000000000000 ) ) ;
#413 = EDGE_CURVE ( 'NONE', #344, #965, #1040, .T. ) ;
#414 = ADVANCED_FACE ( 'NONE', ( #997 ), #646, .T. ) ;
#415 = CARTESIAN_POINT ( 'NONE',  ( -36.50000000000000000, 37.49999999999999289, 0.000000000000000000 ) ) ;
#416 = EDGE_LOOP ( 'NONE', ( #505, #460 ) ) ;
#417 = DIRECTION ( 'NONE',  ( -0.000000000000000000, 0.000000000000000000, 1.000000000000000000 ) ) ;
#418 = VECTOR ( 'NONE', #412, 1000.000000000000000 ) ;
#419 = FACE_BOUND ( 'NONE', #404, .T. ) ;
#420 = VECTOR ( 'NONE', #832, 1000.000000000000000 ) ;
#421 = ORIENTED_EDGE ( 'NONE', *, *, #132, .F. ) ;
#422 = AXIS2_PLACEMENT_3D ( 'NONE', #14, #690, #701 ) ;
#423 = CARTESIAN_POINT ( 'NONE',  ( 36.50000000000000000, 37.49999999999999289, -5.000000000000000000 ) ) ;
#424 = AXIS2_PLACEMENT_3D ( 'NONE', #474, #401, #1079 ) ;
#425 = CARTESIAN_POINT ( 'NONE',  ( 32.50000000000000000, -40.00000000000000711, -10.00000000000000000 ) ) ;
#426 = PLANE ( 'NONE',  #451 ) ;
#427 = CARTESIAN_POINT ( 'NONE',  ( -39.99999999999999289, -47.50000000000001421, -10.00000000000000000 ) ) ;
#428 = ORIENTED_EDGE ( 'NONE', *, *, #265, .T. ) ;
#429 = DIRECTION ( 'NONE',  ( 0.000000000000000000, -1.000000000000000000, 0.000000000000000000 ) ) ;
#430 = CARTESIAN_POINT ( 'NONE',  ( -32.50000000000000000, -40.00000000000000711, -5.000000000000000888 ) ) ;
#431 = DIRECTION ( 'NONE',  ( 0.000000000000000000, -0.000000000000000000, 1.000000000000000000 ) ) ;
#432 = ORIENTED_EDGE ( 'NONE', *, *, #211, .F. ) ;
#433 = CYLINDRICAL_SURFACE ( 'NONE', #422, 3.999999999999996447 ) ;
#434 = CARTESIAN_POINT ( 'NONE',  ( 30.00000000000000711, 37.49999999999999289, -10.00000000000000000 ) ) ;
#435 = EDGE_CURVE ( 'NONE', #366, #616, #819, .T. ) ;
#436 = ORIENTED_EDGE ( 'NONE', *, *, #1051, .F. ) ;
#437 = VECTOR ( 'NONE', #1044, 1000.000000000000000 ) ;
#438 = LINE ( 'NONE', #787, #749 ) ;
#439 = VECTOR ( 'NONE', #1001, 1000.000000000000000 ) ;
#440 = ADVANCED_FACE ( 'NONE', ( #311, #826 ), #992, .F. ) ;
#441 = ORIENTED_EDGE ( 'NONE', *, *, #77, .F. ) ;
#442 = ORIENTED_EDGE ( 'NONE', *, *, #348, .F. ) ;
#443 = DIRECTION ( 'NONE',  ( 0.000000000000000000, 0.000000000000000000, 1.000000000000000000 ) ) ;
#444 = ORIENTED_EDGE ( 'NONE', *, *, #887, .T. ) ;
#445 = EDGE_CURVE ( 'NONE', #91, #203, #575, .T. ) ;
#446 = ORIENTED_EDGE ( 'NONE', *, *, #143, .F. ) ;
#447 = CARTESIAN_POINT ( 'NONE',  ( 0.000000000000000000, 0.000000000000000000, -10.00000000000000000 ) ) ;
#448 = ORIENTED_EDGE ( 'NONE', *, *, #373, .F. ) ;
#449 = VERTEX_POINT ( 'NONE', #137 ) ;
#450 = LINE ( 'NONE', #728, #712 ) ;
#451 = AXIS2_PLACEMENT_3D ( 'NONE', #81, #850, #94 ) ;
#452 = AXIS2_PLACEMENT_3D ( 'NONE', #376, #729, #906 ) ;
#453 = VECTOR ( 'NONE', #123, 1000.000000000000000 ) ;
#454 = VERTEX_POINT ( 'NONE', #910 ) ;
#455 = ORIENTED_EDGE ( 'NONE', *, *, #726, .T. ) ;
#456 = LINE ( 'NONE', #30, #1073 ) ;
#457 = ADVANCED_FACE ( 'NONE', ( #734 ), #149, .F. ) ;
#458 = FACE_OUTER_BOUND ( 'NONE', #870, .T. ) ;
#459 = VERTEX_POINT ( 'NONE', #486 ) ;
#460 = ORIENTED_EDGE ( 'NONE', *, *, #101, .T. ) ;
#461 = ORIENTED_EDGE ( 'NONE', *, *, #627, .F. ) ;
#462 = FACE_OUTER_BOUND ( 'NONE', #821, .T. ) ;
#463 = CARTESIAN_POINT ( 'NONE',  ( -40.00000000000000711, 47.49999999999998579, -10.00000000000000000 ) ) ;
#464 = EDGE_CURVE ( 'NONE', #713, #894, #172, .T. ) ;
#465 = EDGE_LOOP ( 'NONE', ( #721, #520, #539, #476 ) ) ;
#466 = FACE_BOUND ( 'NONE', #309, .T. ) ;
#467 = LINE ( 'NONE', #723, #582 ) ;
#468 = FACE_OUTER_BOUND ( 'NONE', #416, .T. ) ;
#469 = AXIS2_PLACEMENT_3D ( 'NONE', #519, #1018, #352 ) ;
#470 = LINE ( 'NONE', #672, #439 ) ;
#471 = VECTOR ( 'NONE', #247, 1000.000000000000000 ) ;
#472 = AXIS2_PLACEMENT_3D ( 'NONE', #390, #638, #568 ) ;
#473 = ORIENTED_EDGE ( 'NONE', *, *, #860, .T. ) ;
#474 = CARTESIAN_POINT ( 'NONE',  ( -34.99999999999999289, -40.00000000000000711, 0.000000000000000000 ) ) ;
#475 = DIRECTION ( 'NONE',  ( 0.000000000000000000, -0.000000000000000000, 1.000000000000000000 ) ) ;
#476 = ORIENTED_EDGE ( 'NONE', *, *, #496, .T. ) ;
#477 = PLANE ( 'NONE',  #1094 ) ;
#478 = PLANE ( 'NONE',  #558 ) ;
#479 = ORIENTED_EDGE ( 'NONE', *, *, #113, .T. ) ;
#480 = CARTESIAN_POINT ( 'NONE',  ( -40.00000000000000711, 47.49999999999998579, -10.00000000000000000 ) ) ;
#481 = FACE_OUTER_BOUND ( 'NONE', #761, .T. ) ;
#482 = EDGE_CURVE ( 'NONE', #894, #567, #72, .T. ) ;
#483 = DIRECTION ( 'NONE',  ( 0.000000000000000000, -1.000000000000000000, 0.000000000000000000 ) ) ;
#484 = DIRECTION ( 'NONE',  ( -0.000000000000000000, -0.000000000000000000, 1.000000000000000000 ) ) ;
#485 = DIRECTION ( 'NONE',  ( 1.000000000000000000, 0.000000000000000000, 0.000000000000000000 ) ) ;
#486 = CARTESIAN_POINT ( 'NONE',  ( -40.00000000000000711, 42.49999999999998579, -40.00000000000000000 ) ) ;
#487 = DIRECTION ( 'NONE',  ( -1.000000000000000000, 0.000000000000000000, -0.000000000000000000 ) ) ;
#488 = LINE ( 'NONE', #999, #275 ) ;
#489 =( LENGTH_UNIT ( ) NAMED_UNIT ( * ) SI_UNIT ( .MILLI., .METRE. ) );
#490 = DIRECTION ( 'NONE',  ( 1.000000000000000000, 0.000000000000000000, 0.000000000000000000 ) ) ;
#491 = AXIS2_PLACEMENT_3D ( 'NONE', #822, #737, #888 ) ;
#492 = DIRECTION ( 'NONE',  ( 1.000000000000000000, 0.000000000000000000, 0.000000000000000000 ) ) ;
#493 = CLOSED_SHELL ( 'NONE', ( #1083, #270, #886, #196, #743, #716, #669, #537, #503, #381, #755, #182, #808, #414, #963, #858, #340, #372, #440, #17, #1066, #642, #1098, #396, #1025, #71, #730, #893, #1035, #328, #457, #357, #218, #363, #973 ) ) ;
#494 = DIRECTION ( 'NONE',  ( -0.000000000000000000, -0.000000000000000000, 1.000000000000000000 ) ) ;
#495 = ORIENTED_EDGE ( 'NONE', *, *, #864, .T. ) ;
#496 = EDGE_CURVE ( 'NONE', #203, #277, #1072, .T. ) ;
#497 = DIRECTION ( 'NONE',  ( -1.000000000000000000, 0.000000000000000000, -0.000000000000000000 ) ) ;
#498 = CARTESIAN_POINT ( 'NONE',  ( -34.99999999999999289, -40.00000000000000711, 0.000000000000000000 ) ) ;
#499 = EDGE_CURVE ( 'NONE', #923, #1043, #563, .T. ) ;
#500 = CARTESIAN_POINT ( 'NONE',  ( 0.000000000000000000, 46.49999999999997158, 0.000000000000000000 ) ) ;
#501 = ORIENTED_EDGE ( 'NONE', *, *, #967, .F. ) ;
#502 = PLANE ( 'NONE',  #706 ) ;
#503 = ADVANCED_FACE ( 'NONE', ( #466, #382, #722, #880, #959 ), #43, .F. ) ;
#504 = DIRECTION ( 'NONE',  ( 0.000000000000000000, 0.000000000000000000, 1.000000000000000000 ) ) ;
#505 = ORIENTED_EDGE ( 'NONE', *, *, #699, .T. ) ;
#506 = CARTESIAN_POINT ( 'NONE',  ( 38.99999999999999289, -40.00000000000000711, -5.000000000000000000 ) ) ;
#507 = CARTESIAN_POINT ( 'NONE',  ( 39.99999999999999289, 46.49999999999997158, -40.00000000000000000 ) ) ;
#508 = CARTESIAN_POINT ( 'NONE',  ( -34.99999999999999289, -40.00000000000000711, -10.00000000000000000 ) ) ;
#509 = VECTOR ( 'NONE', #223, 1000.000000000000000 ) ;
#510 = CARTESIAN_POINT ( 'NONE',  ( 36.50000000000000000, 37.49999999999999289, 0.000000000000000000 ) ) ;
#511 = VERTEX_POINT ( 'NONE', #810 ) ;
#512 = VECTOR ( 'NONE', #429, 1000.000000000000000 ) ;
#513 = CARTESIAN_POINT ( 'NONE',  ( 34.99999999999999289, 37.49999999999999289, 0.000000000000000000 ) ) ;
#514 = FILL_AREA_STYLE ('',( #596 ) ) ;
#515 = DIRECTION ( 'NONE',  ( 0.000000000000000000, 1.000000000000000000, 0.000000000000000000 ) ) ;
#516 = ORIENTED_EDGE ( 'NONE', *, *, #924, .F. ) ;
#517 = EDGE_CURVE ( 'NONE', #1029, #940, #36, .T. ) ;
#518 = DIRECTION ( 'NONE',  ( -0.000000000000000000, -0.000000000000000000, 1.000000000000000000 ) ) ;
#519 = CARTESIAN_POINT ( 'NONE',  ( 0.000000000000000000, 0.000000000000000000, -40.00000000000000000 ) ) ;
#520 = ORIENTED_EDGE ( 'NONE', *, *, #699, .F. ) ;
#521 = EDGE_LOOP ( 'NONE', ( #1097, #292 ) ) ;
#522 = DIRECTION ( 'NONE',  ( 1.000000000000000000, 0.000000000000000000, 0.000000000000000000 ) ) ;
#523 = ORIENTED_EDGE ( 'NONE', *, *, #180, .F. ) ;
#524 = CIRCLE ( 'NONE', #673, 3.999999999999996447 ) ;
#525 = ORIENTED_EDGE ( 'NONE', *, *, #611, .T. ) ;
#526 = CIRCLE ( 'NONE', #452, 2.499999999999995115 ) ;
#527 = CIRCLE ( 'NONE', #202, 2.499999999999995115 ) ;
#528 = EDGE_CURVE ( 'NONE', #839, #374, #450, .T. ) ;
#529 = AXIS2_PLACEMENT_3D ( 'NONE', #681, #1012, #251 ) ;
#530 = EDGE_CURVE ( 'NONE', #269, #981, #364, .T. ) ;
#531 = EDGE_LOOP ( 'NONE', ( #639, #739, #204, #523 ) ) ;
#532 = ORIENTED_EDGE ( 'NONE', *, *, #406, .T. ) ;
#533 = DIRECTION ( 'NONE',  ( -0.000000000000000000, 0.000000000000000000, 1.000000000000000000 ) ) ;
#534 = ORIENTED_EDGE ( 'NONE', *, *, #150, .F. ) ;
#535 = ORIENTED_EDGE ( 'NONE', *, *, #1045, .F. ) ;
#536 = CARTESIAN_POINT ( 'NONE',  ( -40.00000000000000711, 42.49999999999998579, -10.00000000000000000 ) ) ;
#537 = ADVANCED_FACE ( 'NONE', ( #375 ), #194, .F. ) ;
#538 = VERTEX_POINT ( 'NONE', #536 ) ;
#539 = ORIENTED_EDGE ( 'NONE', *, *, #445, .T. ) ;
#540 = CARTESIAN_POINT ( 'NONE',  ( 34.99999999999999289, -40.00000000000000711, -10.00000000000000000 ) ) ;
#541 = VECTOR ( 'NONE', #234, 1000.000000000000000 ) ;
#542 = CIRCLE ( 'NONE', #350, 3.999999999999996447 ) ;
#543 = PLANE ( 'NONE',  #675 ) ;
#544 = AXIS2_PLACEMENT_3D ( 'NONE', #995, #1100, #855 ) ;
#545 = ORIENTED_EDGE ( 'NONE', *, *, #1045, .T. ) ;
#546 = VERTEX_POINT ( 'NONE', #1058 ) ;
#547 = FACE_BOUND ( 'NONE', #1014, .T. ) ;
#548 = EDGE_CURVE ( 'NONE', #1057, #594, #765, .T. ) ;
#549 = CARTESIAN_POINT ( 'NONE',  ( -25.00000000000000000, 42.49999999999998579, -40.00000000000000000 ) ) ;
#550 = ORIENTED_EDGE ( 'NONE', *, *, #782, .T. ) ;
#551 = DIRECTION ( 'NONE',  ( -0.000000000000000000, -0.000000000000000000, 1.000000000000000000 ) ) ;
#552 = DIRECTION ( 'NONE',  ( 1.000000000000000000, 0.000000000000000000, 0.000000000000000000 ) ) ;
#553 = DIRECTION ( 'NONE',  ( 1.000000000000000000, 0.000000000000000000, 0.000000000000000000 ) ) ;
#554 = ORIENTED_EDGE ( 'NONE', *, *, #924, .T. ) ;
#555 = CARTESIAN_POINT ( 'NONE',  ( -32.50000000000000000, 37.49999999999999289, -10.00000000000000000 ) ) ;
#556 = CARTESIAN_POINT ( 'NONE',  ( -32.50000000000000000, 37.49999999999999289, 0.000000000000000000 ) ) ;
#557 = DIRECTION ( 'NONE',  ( -0.000000000000000000, -0.000000000000000000, 1.000000000000000000 ) ) ;
#558 = AXIS2_PLACEMENT_3D ( 'NONE', #823, #989, #54 ) ;
#559 = FACE_OUTER_BOUND ( 'NONE', #320, .T. ) ;
#560 = AXIS2_PLACEMENT_3D ( 'NONE', #629, #885, #966 ) ;
#561 = VECTOR ( 'NONE', #1077, 1000.000000000000000 ) ;
#562 = AXIS2_PLACEMENT_3D ( 'NONE', #780, #85, #1099 ) ;
#563 = CIRCLE ( 'NONE', #117, 2.499999999999995115 ) ;
#564 = ORIENTED_EDGE ( 'NONE', *, *, #58, .T. ) ;
#565 = DIRECTION ( 'NONE',  ( -0.000000000000000000, 0.000000000000000000, 1.000000000000000000 ) ) ;
#566 = LINE ( 'NONE', #934, #692 ) ;
#567 = VERTEX_POINT ( 'NONE', #367 ) ;
#568 = DIRECTION ( 'NONE',  ( 1.000000000000000000, 0.000000000000000000, 0.000000000000000000 ) ) ;
#569 = CARTESIAN_POINT ( 'NONE',  ( 25.00000000000000000, 35.49999999999999289, -10.00000000000000000 ) ) ;
#570 = DIRECTION ( 'NONE',  ( 1.000000000000000000, 0.000000000000000000, 0.000000000000000000 ) ) ;
#571 = CARTESIAN_POINT ( 'NONE',  ( 39.99999999999999289, 42.49999999999998579, -40.00000000000000000 ) ) ;
#572 = EDGE_LOOP ( 'NONE', ( #13, #818 ) ) ;
#573 = CARTESIAN_POINT ( 'NONE',  ( 34.99999999999999289, -40.00000000000000711, 0.000000000000000000 ) ) ;
#574 = LINE ( 'NONE', #588, #869 ) ;
#575 = LINE ( 'NONE', #215, #764 ) ;
#576 = EDGE_CURVE ( 'NONE', #511, #877, #542, .T. ) ;
#577 = CARTESIAN_POINT ( 'NONE',  ( -40.00000000000000711, 47.49999999999998579, -1.000000000000028644 ) ) ;
#578 = EDGE_CURVE ( 'NONE', #894, #713, #310, .T. ) ;
#579 = ORIENTED_EDGE ( 'NONE', *, *, #927, .F. ) ;
#580 = SURFACE_STYLE_FILL_AREA ( #514 ) ;
#581 = PLANE ( 'NONE',  #379 ) ;
#582 = VECTOR ( 'NONE', #294, 1000.000000000000000 ) ;
#583 = CIRCLE ( 'NONE', #939, 3.999999999999996447 ) ;
#584 = DIRECTION ( 'NONE',  ( 1.000000000000000000, 0.000000000000000000, 0.000000000000000000 ) ) ;
#585 = ORIENTED_EDGE ( 'NONE', *, *, #956, .F. ) ;
#586 = EDGE_CURVE ( 'NONE', #449, #733, #456, .T. ) ;
#587 = CYLINDRICAL_SURFACE ( 'NONE', #618, 3.999999999999996447 ) ;
#588 = CARTESIAN_POINT ( 'NONE',  ( -30.00000000000000711, 37.49999999999999289, 0.000000000000000000 ) ) ;
#589 = DIRECTION ( 'NONE',  ( -0.000000000000000000, -0.000000000000000000, 1.000000000000000000 ) ) ;
#590 = ORIENTED_EDGE ( 'NONE', *, *, #32, .F. ) ;
#591 = ORIENTED_EDGE ( 'NONE', *, *, #482, .F. ) ;
#592 = LINE ( 'NONE', #5, #276 ) ;
#593 = CARTESIAN_POINT ( 'NONE',  ( -36.50000000000000000, 37.49999999999999289, -5.000000000000000000 ) ) ;
#594 = VERTEX_POINT ( 'NONE', #282 ) ;
#595 = LINE ( 'NONE', #8, #1076 ) ;
#596 = FILL_AREA_STYLE_COLOUR ( '', #1009 ) ;
#597 = CARTESIAN_POINT ( 'NONE',  ( 25.00000000000000000, 35.49999999999999289, -10.00000000000000000 ) ) ;
#598 = EDGE_CURVE ( 'NONE', #277, #203, #41, .T. ) ;
#599 = AXIS2_PLACEMENT_3D ( 'NONE', #447, #1041, #279 ) ;
#600 = AXIS2_PLACEMENT_3D ( 'NONE', #216, #403, #487 ) ;
#601 = ORIENTED_EDGE ( 'NONE', *, *, #373, .T. ) ;
#602 = VECTOR ( 'NONE', #384, 1000.000000000000000 ) ;
#603 = VECTOR ( 'NONE', #518, 1000.000000000000000 ) ;
#604 = DIRECTION ( 'NONE',  ( -0.000000000000000000, -0.000000000000000000, 1.000000000000000000 ) ) ;
#605 = DIRECTION ( 'NONE',  ( 1.000000000000000000, 0.000000000000000000, 0.000000000000000000 ) ) ;
#606 = DIRECTION ( 'NONE',  ( -1.000000000000000000, 0.000000000000000000, 0.000000000000000000 ) ) ;
#607 = EDGE_LOOP ( 'NONE', ( #958, #705, #1081, #95, #268, #824, #125, #243, #975 ) ) ;
#608 = LINE ( 'NONE', #339, #105 ) ;
#609 = ORIENTED_EDGE ( 'NONE', *, *, #186, .F. ) ;
#610 = ORIENTED_EDGE ( 'NONE', *, *, #1034, .T. ) ;
#611 = EDGE_CURVE ( 'NONE', #875, #208, #206, .T. ) ;
#612 = PRODUCT_CONTEXT ( 'NONE', #264, 'mechanical' ) ;
#613 = EDGE_CURVE ( 'NONE', #459, #359, #191, .T. ) ;
#614 = ORIENTED_EDGE ( 'NONE', *, *, #496, .F. ) ;
#615 = VECTOR ( 'NONE', #657, 1000.000000000000000 ) ;
#616 = VERTEX_POINT ( 'NONE', #126 ) ;
#617 =( NAMED_UNIT ( * ) SI_UNIT ( $, .STERADIAN. ) SOLID_ANGLE_UNIT ( ) );
#618 = AXIS2_PLACEMENT_3D ( 'NONE', #573, #753, #1091 ) ;
#619 = EDGE_CURVE ( 'NONE', #904, #621, #1052, .T. ) ;
#620 = ORIENTED_EDGE ( 'NONE', *, *, #435, .F. ) ;
#621 = VERTEX_POINT ( 'NONE', #962 ) ;
#622 = CARTESIAN_POINT ( 'NONE',  ( -34.99999999999999289, -40.00000000000000711, -10.00000000000000000 ) ) ;
#623 = EDGE_LOOP ( 'NONE', ( #670, #752, #333, #455 ) ) ;
#624 = ORIENTED_EDGE ( 'NONE', *, *, #697, .F. ) ;
#625 = DIRECTION ( 'NONE',  ( -0.000000000000000000, -0.000000000000000000, 1.000000000000000000 ) ) ;
#626 = ORIENTED_EDGE ( 'NONE', *, *, #874, .T. ) ;
#627 = EDGE_CURVE ( 'NONE', #940, #804, #747, .T. ) ;
#628 = EDGE_LOOP ( 'NONE', ( #873, #3, #29, #714 ) ) ;
#629 = CARTESIAN_POINT ( 'NONE',  ( -32.50000000000000000, 37.49999999999999289, 0.000000000000000000 ) ) ;
#630 = AXIS2_PLACEMENT_3D ( 'NONE', #635, #801, #971 ) ;
#631 =( GEOMETRIC_REPRESENTATION_CONTEXT ( 3 ) GLOBAL_UNCERTAINTY_ASSIGNED_CONTEXT ( ( #248 ) ) GLOBAL_UNIT_ASSIGNED_CONTEXT ( ( #931, #771, #617 ) ) REPRESENTATION_CONTEXT ( 'NONE', 'WORKASPACE' ) );
#632 = PLANE ( 'NONE',  #491 ) ;
#633 = AXIS2_PLACEMENT_3D ( 'NONE', #1015, #255, #522 ) ;
#634 = ORIENTED_EDGE ( 'NONE', *, *, #1084, .T. ) ;
#635 = CARTESIAN_POINT ( 'NONE',  ( -32.50000000000000000, 37.49999999999999289, -10.00000000000000000 ) ) ;
#636 = CARTESIAN_POINT ( 'NONE',  ( -30.00000000000000711, 37.49999999999999289, -10.00000000000000000 ) ) ;
#637 = UNCERTAINTY_MEASURE_WITH_UNIT (LENGTH_MEASURE( 1.000000000000000082E-05 ), #489, 'distance_accuracy_value', 'NONE');
#638 = DIRECTION ( 'NONE',  ( -0.000000000000000000, -0.000000000000000000, 1.000000000000000000 ) ) ;
#639 = ORIENTED_EDGE ( 'NONE', *, *, #237, .F. ) ;
#640 = DIRECTION ( 'NONE',  ( -0.000000000000000000, -0.000000000000000000, 1.000000000000000000 ) ) ;
#641 = CARTESIAN_POINT ( 'NONE',  ( 28.50000000000000355, 37.49999999999999289, 0.000000000000000000 ) ) ;
#642 = ADVANCED_FACE ( 'NONE', ( #547, #462 ), #130, .F. ) ;
#643 = DIRECTION ( 'NONE',  ( 1.000000000000000000, 0.000000000000000000, 0.000000000000000000 ) ) ;
#644 = CARTESIAN_POINT ( 'NONE',  ( -39.99999999999999289, -47.50000000000001421, -1.000000000000028644 ) ) ;
#645 = ORIENTED_EDGE ( 'NONE', *, *, #1002, .T. ) ;
#646 = PLANE ( 'NONE',  #134 ) ;
#647 = CYLINDRICAL_SURFACE ( 'NONE', #274, 3.999999999999996447 ) ;
#648 = ORIENTED_EDGE ( 'NONE', *, *, #586, .F. ) ;
#649 = DIRECTION ( 'NONE',  ( 0.000000000000000000, 1.000000000000000000, 0.000000000000000000 ) ) ;
#650 = AXIS2_PLACEMENT_3D ( 'NONE', #303, #916, #492 ) ;
#651 = EDGE_CURVE ( 'NONE', #324, #952, #467, .T. ) ;
#652 = LINE ( 'NONE', #841, #418 ) ;
#653 = VECTOR ( 'NONE', #751, 1000.000000000000000 ) ;
#654 = AXIS2_PLACEMENT_3D ( 'NONE', #829, #397, #306 ) ;
#655 = CIRCLE ( 'NONE', #562, 3.999999999999996447 ) ;
#656 = ORIENTED_EDGE ( 'NONE', *, *, #143, .T. ) ;
#657 = DIRECTION ( 'NONE',  ( -1.032955564923529314E-16, 0.7071067811865426878, 0.7071067811865524577 ) ) ;
#658 = DIRECTION ( 'NONE',  ( 1.000000000000000000, 0.000000000000000000, 0.000000000000000000 ) ) ;
#659 = CARTESIAN_POINT ( 'NONE',  ( 32.50000000000000000, 37.49999999999999289, 0.000000000000000000 ) ) ;
#660 = DIRECTION ( 'NONE',  ( 1.000000000000000000, 0.000000000000000000, 0.000000000000000000 ) ) ;
#661 = CARTESIAN_POINT ( 'NONE',  ( -25.00000000000000000, 42.49999999999998579, -10.00000000000000000 ) ) ;
#662 = EDGE_CURVE ( 'NONE', #52, #355, #526, .T. ) ;
#663 = DIRECTION ( 'NONE',  ( 0.000000000000000000, 1.000000000000000000, 0.000000000000000000 ) ) ;
#664 = DIRECTION ( 'NONE',  ( 1.000000000000000000, 0.000000000000000000, 0.000000000000000000 ) ) ;
#665 = DIRECTION ( 'NONE',  ( -0.000000000000000000, -0.000000000000000000, 1.000000000000000000 ) ) ;
#666 = DIRECTION ( 'NONE',  ( -1.000000000000000000, 0.000000000000000000, 0.000000000000000000 ) ) ;
#667 = FACE_OUTER_BOUND ( 'NONE', #214, .T. ) ;
#668 = PLANE ( 'NONE',  #708 ) ;
#669 = ADVANCED_FACE ( 'NONE', ( #145 ), #647, .F. ) ;
#670 = ORIENTED_EDGE ( 'NONE', *, *, #58, .F. ) ;
#671 = CYLINDRICAL_SURFACE ( 'NONE', #987, 3.999999999999996447 ) ;
#672 = CARTESIAN_POINT ( 'NONE',  ( 0.000000000000000000, 46.49999999999997158, -40.00000000000000000 ) ) ;
#673 = AXIS2_PLACEMENT_3D ( 'NONE', #909, #76, #485 ) ;
#674 = AXIS2_PLACEMENT_3D ( 'NONE', #147, #213, #553 ) ;
#675 = AXIS2_PLACEMENT_3D ( 'NONE', #882, #649, #1067 ) ;
#676 = LINE ( 'NONE', #773, #851 ) ;
#677 = EDGE_CURVE ( 'NONE', #55, #986, #1071, .T. ) ;
#678 = PRODUCT_DEFINITION_CONTEXT ( 'detailed design', #317, 'design' ) ;
#679 = CARTESIAN_POINT ( 'NONE',  ( 31.00000000000000000, -40.00000000000000711, -5.000000000000000000 ) ) ;
#680 = CARTESIAN_POINT ( 'NONE',  ( 32.50000000000000000, 37.49999999999999289, -5.000000000000000000 ) ) ;
#681 = CARTESIAN_POINT ( 'NONE',  ( 32.50000000000000000, 37.49999999999999289, 0.000000000000000000 ) ) ;
#682 = LINE ( 'NONE', #838, #242 ) ;
#683 = ORIENTED_EDGE ( 'NONE', *, *, #265, .F. ) ;
#684 = DIRECTION ( 'NONE',  ( -0.000000000000000000, -0.000000000000000000, 1.000000000000000000 ) ) ;
#685 = DIRECTION ( 'NONE',  ( 0.000000000000000000, 0.000000000000000000, -1.000000000000000000 ) ) ;
#686 = DIRECTION ( 'NONE',  ( 1.000000000000000000, 0.000000000000000000, 0.000000000000000000 ) ) ;
#687 = EDGE_CURVE ( 'NONE', #727, #374, #312, .T. ) ;
#688 = CARTESIAN_POINT ( 'NONE',  ( -34.99999999999999289, -40.00000000000000711, -5.000000000000000888 ) ) ;
#689 = EDGE_LOOP ( 'NONE', ( #707, #554, #792, #1031 ) ) ;
#690 = DIRECTION ( 'NONE',  ( -0.000000000000000000, -0.000000000000000000, 1.000000000000000000 ) ) ;
#691 = FACE_OUTER_BOUND ( 'NONE', #361, .T. ) ;
#692 = VECTOR ( 'NONE', #165, 1000.000000000000000 ) ;
#693 = CIRCLE ( 'NONE', #102, 2.500000000000002220 ) ;
#694 = ORIENTED_EDGE ( 'NONE', *, *, #413, .T. ) ;
#695 = DIRECTION ( 'NONE',  ( 1.000000000000000000, 0.000000000000000000, 0.000000000000000000 ) ) ;
#696 = FACE_OUTER_BOUND ( 'NONE', #184, .T. ) ;
#697 = EDGE_CURVE ( 'NONE', #238, #567, #187, .T. ) ;
#698 = ORIENTED_EDGE ( 'NONE', *, *, #704, .F. ) ;
#699 = EDGE_CURVE ( 'NONE', #91, #12, #261, .T. ) ;
#700 = ORIENTED_EDGE ( 'NONE', *, *, #77, .T. ) ;
#701 = DIRECTION ( 'NONE',  ( 1.000000000000000000, 0.000000000000000000, 0.000000000000000000 ) ) ;
#702 = ORIENTED_EDGE ( 'NONE', *, *, #578, .T. ) ;
#703 = ORIENTED_EDGE ( 'NONE', *, *, #651, .F. ) ;
#704 = EDGE_CURVE ( 'NONE', #952, #454, #44, .T. ) ;
#705 = ORIENTED_EDGE ( 'NONE', *, *, #252, .T. ) ;
#706 = AXIS2_PLACEMENT_3D ( 'NONE', #845, #515, #431 ) ;
#707 = ORIENTED_EDGE ( 'NONE', *, *, #205, .F. ) ;
#708 = AXIS2_PLACEMENT_3D ( 'NONE', #427, #241, #1089 ) ;
#709 = DIRECTION ( 'NONE',  ( 1.000000000000000000, 0.000000000000000000, 0.000000000000000000 ) ) ;
#710 = CARTESIAN_POINT ( 'NONE',  ( 0.000000000000000000, 0.000000000000000000, 0.000000000000000000 ) ) ;
#711 = VECTOR ( 'NONE', #666, 1000.000000000000000 ) ;
#712 = VECTOR ( 'NONE', #293, 1000.000000000000000 ) ;
#713 = VERTEX_POINT ( 'NONE', #636 ) ;
#714 = ORIENTED_EDGE ( 'NONE', *, *, #445, .F. ) ;
#715 = DIRECTION ( 'NONE',  ( -0.000000000000000000, -0.000000000000000000, 1.000000000000000000 ) ) ;
#716 = ADVANCED_FACE ( 'NONE', ( #481 ), #983, .F. ) ;
#717 = ORIENTED_EDGE ( 'NONE', *, *, #21, .F. ) ;
#718 = EDGE_LOOP ( 'NONE', ( #1011, #115, #120, #957 ) ) ;
#719 = DIRECTION ( 'NONE',  ( -0.000000000000000000, 1.000000000000000000, -0.000000000000000000 ) ) ;
#720 = LINE ( 'NONE', #744, #453 ) ;
#721 = ORIENTED_EDGE ( 'NONE', *, *, #104, .F. ) ;
#722 = FACE_BOUND ( 'NONE', #34, .T. ) ;
#723 = CARTESIAN_POINT ( 'NONE',  ( 0.000000000000000000, -46.50000000000000000, 0.000000000000000000 ) ) ;
#724 = AXIS2_PLACEMENT_3D ( 'NONE', #1064, #304, #225 ) ;
#725 = CARTESIAN_POINT ( 'NONE',  ( -31.00000000000000000, -40.00000000000000711, -5.000000000000000000 ) ) ;
#726 = EDGE_CURVE ( 'NONE', #195, #278, #693, .T. ) ;
#727 = VERTEX_POINT ( 'NONE', #577 ) ;
#728 = CARTESIAN_POINT ( 'NONE',  ( 39.99999999999999289, 47.49999999999998579, -10.00000000000000000 ) ) ;
#729 = DIRECTION ( 'NONE',  ( -0.000000000000000000, 0.000000000000000000, 1.000000000000000000 ) ) ;
#730 = ADVANCED_FACE ( 'NONE', ( #917 ), #811, .F. ) ;
#731 = FACE_BOUND ( 'NONE', #1020, .T. ) ;
#732 = DIRECTION ( 'NONE',  ( -1.000000000000000000, 0.000000000000000000, 0.000000000000000000 ) ) ;
#733 = VERTEX_POINT ( 'NONE', #641 ) ;
#734 = FACE_OUTER_BOUND ( 'NONE', #531, .T. ) ;
#735 = CARTESIAN_POINT ( 'NONE',  ( -40.00000000000000711, 47.49999999999998579, -38.99999999999997158 ) ) ;
#736 = ORIENTED_EDGE ( 'NONE', *, *, #51, .F. ) ;
#737 = DIRECTION ( 'NONE',  ( 0.000000000000000000, 0.000000000000000000, -1.000000000000000000 ) ) ;
#738 = LINE ( 'NONE', #1068, #39 ) ;
#739 = ORIENTED_EDGE ( 'NONE', *, *, #1084, .F. ) ;
#740 = CARTESIAN_POINT ( 'NONE',  ( 34.99999999999999289, -40.00000000000000711, -5.000000000000000888 ) ) ;
#741 = CARTESIAN_POINT ( 'NONE',  ( -32.50000000000000000, 37.49999999999999289, 0.000000000000000000 ) ) ;
#742 = DIRECTION ( 'NONE',  ( -0.000000000000000000, 0.000000000000000000, 1.000000000000000000 ) ) ;
#743 = ADVANCED_FACE ( 'NONE', ( #827 ), #977, .F. ) ;
#744 = CARTESIAN_POINT ( 'NONE',  ( -39.99999999999999289, -47.50000000000001421, -10.00000000000000000 ) ) ;
#745 = VECTOR ( 'NONE', #174, 1000.000000000000000 ) ;
#746 = LINE ( 'NONE', #644, #1024 ) ;
#747 = CIRCLE ( 'NONE', #560, 3.999999999999996447 ) ;
#748 = MECHANICAL_DESIGN_GEOMETRIC_PRESENTATION_REPRESENTATION (  '', ( #289 ), #766 ) ;
#749 = VECTOR ( 'NONE', #732, 1000.000000000000000 ) ;
#750 = CYLINDRICAL_SURFACE ( 'NONE', #424, 2.499999999999995115 ) ;
#751 = DIRECTION ( 'NONE',  ( -1.460819769243627131E-16, 1.000000000000000000, -0.000000000000000000 ) ) ;
#752 = ORIENTED_EDGE ( 'NONE', *, *, #662, .F. ) ;
#753 = DIRECTION ( 'NONE',  ( -0.000000000000000000, -0.000000000000000000, 1.000000000000000000 ) ) ;
#754 = CARTESIAN_POINT ( 'NONE',  ( 30.00000000000000000, 37.49999999999999289, -5.000000000000000888 ) ) ;
#755 = ADVANCED_FACE ( 'NONE', ( #231 ), #896, .F. ) ;
#756 = CYLINDRICAL_SURFACE ( 'NONE', #288, 3.999999999999996447 ) ;
#757 = LINE ( 'NONE', #146, #767 ) ;
#758 =( NAMED_UNIT ( * ) PLANE_ANGLE_UNIT ( ) SI_UNIT ( $, .RADIAN. ) );
#759 = DIRECTION ( 'NONE',  ( -1.460819769243627131E-16, 1.000000000000000000, -0.000000000000000000 ) ) ;
#760 = CARTESIAN_POINT ( 'NONE',  ( 25.00000000000000000, 35.49999999999999289, -90.48762224545735933 ) ) ;
#761 = EDGE_LOOP ( 'NONE', ( #20, #853, #183, #1050 ) ) ;
#762 = DIRECTION ( 'NONE',  ( -0.000000000000000000, -0.000000000000000000, 1.000000000000000000 ) ) ;
#763 = FACE_OUTER_BOUND ( 'NONE', #623, .T. ) ;
#764 = VECTOR ( 'NONE', #387, 1000.000000000000000 ) ;
#765 = CIRCLE ( 'NONE', #86, 2.499999999999995115 ) ;
#766 =( GEOMETRIC_REPRESENTATION_CONTEXT ( 3 ) GLOBAL_UNCERTAINTY_ASSIGNED_CONTEXT ( ( #637 ) ) GLOBAL_UNIT_ASSIGNED_CONTEXT ( ( #489, #758, #69 ) ) REPRESENTATION_CONTEXT ( 'NONE', 'WORKASPACE' ) );
#767 = VECTOR ( 'NONE', #483, 1000.000000000000000 ) ;
#768 = FACE_BOUND ( 'NONE', #799, .T. ) ;
#769 = EDGE_LOOP ( 'NONE', ( #436, #913, #380, #432 ) ) ;
#770 = DIRECTION ( 'NONE',  ( -0.000000000000000000, -0.000000000000000000, 1.000000000000000000 ) ) ;
#771 =( NAMED_UNIT ( * ) PLANE_ANGLE_UNIT ( ) SI_UNIT ( $, .RADIAN. ) );
#772 = CARTESIAN_POINT ( 'NONE',  ( -40.00000000000000711, 46.49999999999997158, -40.00000000000000000 ) ) ;
#773 = CARTESIAN_POINT ( 'NONE',  ( 39.99999999999999289, 42.49999999999998579, -40.00000000000000000 ) ) ;
#774 = ORIENTED_EDGE ( 'NONE', *, *, #687, .T. ) ;
#775 = CARTESIAN_POINT ( 'NONE',  ( 34.99999999999999289, 37.49999999999999289, -10.00000000000000000 ) ) ;
#776 = EDGE_CURVE ( 'NONE', #621, #904, #949, .T. ) ;
#777 = CARTESIAN_POINT ( 'NONE',  ( -28.50000000000000355, 37.49999999999999289, -5.000000000000000000 ) ) ;
#778 = CARTESIAN_POINT ( 'NONE',  ( -25.00000000000000000, 35.49999999999999289, -40.00000000000000000 ) ) ;
#779 = VERTEX_POINT ( 'NONE', #735 ) ;
#780 = CARTESIAN_POINT ( 'NONE',  ( 34.99999999999999289, -40.00000000000000711, -5.000000000000000000 ) ) ;
#781 = FACE_OUTER_BOUND ( 'NONE', #354, .T. ) ;
#782 = EDGE_CURVE ( 'NONE', #877, #511, #813, .T. ) ;
#783 = EDGE_CURVE ( 'NONE', #800, #546, #566, .T. ) ;
#784 = ADVANCED_BREP_SHAPE_REPRESENTATION ( 'PRT-1', ( #1087, #88 ), #631 ) ;
#785 = VERTEX_POINT ( 'NONE', #593 ) ;
#786 = EDGE_LOOP ( 'NONE', ( #109, #868 ) ) ;
#787 = CARTESIAN_POINT ( 'NONE',  ( 25.00000000000000000, 35.49999999999999289, -40.00000000000000000 ) ) ;
#788 = EDGE_CURVE ( 'NONE', #166, #192, #1003, .T. ) ;
#789 = ORIENTED_EDGE ( 'NONE', *, *, #212, .F. ) ;
#790 = ORIENTED_EDGE ( 'NONE', *, *, #978, .T. ) ;
#791 = ORIENTED_EDGE ( 'NONE', *, *, #15, .T. ) ;
#792 = ORIENTED_EDGE ( 'NONE', *, *, #290, .T. ) ;
#793 = DIRECTION ( 'NONE',  ( -0.000000000000000000, 0.000000000000000000, 1.000000000000000000 ) ) ;
#794 = ORIENTED_EDGE ( 'NONE', *, *, #528, .T. ) ;
#795 = AXIS2_PLACEMENT_3D ( 'NONE', #555, #565, #837 ) ;
#796 = ORIENTED_EDGE ( 'NONE', *, *, #499, .T. ) ;
#797 = AXIS2_PLACEMENT_3D ( 'NONE', #383, #299, #151 ) ;
#798 = DIRECTION ( 'NONE',  ( 1.000000000000000000, 0.000000000000000000, 0.000000000000000000 ) ) ;
#799 = EDGE_LOOP ( 'NONE', ( #461, #232 ) ) ;
#800 = VERTEX_POINT ( 'NONE', #170 ) ;
#801 = DIRECTION ( 'NONE',  ( -0.000000000000000000, 0.000000000000000000, 1.000000000000000000 ) ) ;
#802 = LINE ( 'NONE', #31, #175 ) ;
#803 = ORIENTED_EDGE ( 'NONE', *, *, #598, .F. ) ;
#804 = VERTEX_POINT ( 'NONE', #415 ) ;
#805 = CARTESIAN_POINT ( 'NONE',  ( 25.00000000000000000, 42.49999999999998579, -90.48762224545735933 ) ) ;
#806 = DIRECTION ( 'NONE',  ( 1.000000000000000000, 0.000000000000000000, 0.000000000000000000 ) ) ;
#807 = DIRECTION ( 'NONE',  ( 1.460819769243627131E-16, -1.000000000000000000, 0.000000000000000000 ) ) ;
#808 = ADVANCED_FACE ( 'NONE', ( #847 ), #668, .T. ) ;
#809 = ORIENTED_EDGE ( 'NONE', *, *, #627, .T. ) ;
#810 = CARTESIAN_POINT ( 'NONE',  ( -31.00000000000000000, -40.00000000000000711, 0.000000000000000000 ) ) ;
#811 = CYLINDRICAL_SURFACE ( 'NONE', #797, 2.499999999999995115 ) ;
#812 = CIRCLE ( 'NONE', #188, 3.999999999999996447 ) ;
#813 = CIRCLE ( 'NONE', #724, 3.999999999999996447 ) ;
#814 = VECTOR ( 'NONE', #557, 1000.000000000000000 ) ;
#815 = CARTESIAN_POINT ( 'NONE',  ( 39.99999999999999289, 42.49999999999998579, -10.00000000000000000 ) ) ;
#816 = AXIS2_PLACEMENT_3D ( 'NONE', #1063, #230, #155 ) ;
#817 = LINE ( 'NONE', #1008, #402 ) ;
#818 = ORIENTED_EDGE ( 'NONE', *, *, #1051, .T. ) ;
#819 = LINE ( 'NONE', #49, #509 ) ;
#820 = CARTESIAN_POINT ( 'NONE',  ( -34.99999999999999289, -40.00000000000000711, -5.000000000000000000 ) ) ;
#821 = EDGE_LOOP ( 'NONE', ( #128, #193 ) ) ;
#822 = CARTESIAN_POINT ( 'NONE',  ( 37.49999999999999289, -40.00000000000000711, -5.000000000000000888 ) ) ;
#823 = CARTESIAN_POINT ( 'NONE',  ( 25.00000000000000000, 42.49999999999998579, -90.48762224545735933 ) ) ;
#824 = ORIENTED_EDGE ( 'NONE', *, *, #237, .T. ) ;
#825 = PRODUCT_RELATED_PRODUCT_CATEGORY ( 'part', '', ( #100 ) ) ;
#826 = FACE_OUTER_BOUND ( 'NONE', #572, .T. ) ;
#827 = FACE_OUTER_BOUND ( 'NONE', #689, .T. ) ;
#828 = FACE_OUTER_BOUND ( 'NONE', #179, .T. ) ;
#829 = CARTESIAN_POINT ( 'NONE',  ( 34.99999999999999289, -40.00000000000000711, -10.00000000000000000 ) ) ;
#830 = DIRECTION ( 'NONE',  ( -1.000000000000000000, 0.000000000000000000, 0.000000000000000000 ) ) ;
#831 = CARTESIAN_POINT ( 'NONE',  ( 39.99999999999999289, 47.49999999999998579, -1.000000000000028644 ) ) ;
#832 = DIRECTION ( 'NONE',  ( 1.000000000000000000, 0.000000000000000000, 0.000000000000000000 ) ) ;
#833 = ORIENTED_EDGE ( 'NONE', *, *, #316, .T. ) ;
#834 = EDGE_CURVE ( 'NONE', #779, #727, #682, .T. ) ;
#835 = AXIS2_PLACEMENT_3D ( 'NONE', #1019, #409, #584 ) ;
#836 = CARTESIAN_POINT ( 'NONE',  ( 31.00000000000000000, -40.00000000000000711, 0.000000000000000000 ) ) ;
#837 = DIRECTION ( 'NONE',  ( 1.000000000000000000, 0.000000000000000000, 0.000000000000000000 ) ) ;
#838 = CARTESIAN_POINT ( 'NONE',  ( -40.00000000000000711, 47.49999999999998579, -10.00000000000000000 ) ) ;
#839 = VERTEX_POINT ( 'NONE', #82 ) ;
#840 = CARTESIAN_POINT ( 'NONE',  ( -32.50000000000000000, -40.00000000000000711, -5.000000000000000888 ) ) ;
#841 = CARTESIAN_POINT ( 'NONE',  ( 39.99999999999999289, 42.49999999999998579, -10.00000000000000000 ) ) ;
#842 = DIRECTION ( 'NONE',  ( 1.000000000000000000, 0.000000000000000000, 0.000000000000000000 ) ) ;
#843 = ORIENTED_EDGE ( 'NONE', *, *, #6, .F. ) ;
#844 = CARTESIAN_POINT ( 'NONE',  ( 40.00000000000000711, -47.50000000000001421, -10.00000000000000000 ) ) ;
#845 = CARTESIAN_POINT ( 'NONE',  ( 25.00000000000000000, 35.49999999999999289, -90.48762224545735933 ) ) ;
#846 = EDGE_CURVE ( 'NONE', #594, #1057, #1036, .T. ) ;
#847 = FACE_OUTER_BOUND ( 'NONE', #106, .T. ) ;
#848 = VERTEX_POINT ( 'NONE', #510 ) ;
#849 = DIRECTION ( 'NONE',  ( -0.000000000000000000, -0.000000000000000000, 1.000000000000000000 ) ) ;
#850 = DIRECTION ( 'NONE',  ( 0.000000000000000000, -0.7071067811865524577, -0.7071067811865425767 ) ) ;
#851 = VECTOR ( 'NONE', #337, 1000.000000000000000 ) ;
#852 = LINE ( 'NONE', #90, #866 ) ;
#853 = ORIENTED_EDGE ( 'NONE', *, *, #482, .T. ) ;
#854 = DIRECTION ( 'NONE',  ( -0.000000000000000000, -0.000000000000000000, 1.000000000000000000 ) ) ;
#855 = DIRECTION ( 'NONE',  ( 1.000000000000000000, 0.000000000000000000, 0.000000000000000000 ) ) ;
#856 = CYLINDRICAL_SURFACE ( 'NONE', #529, 2.499999999999995115 ) ;
#857 = ORIENTED_EDGE ( 'NONE', *, *, #332, .F. ) ;
#858 = ADVANCED_FACE ( 'NONE', ( #1013, #419, #768, #1096, #922 ), #329, .T. ) ;
#859 = CARTESIAN_POINT ( 'NONE',  ( 39.99999999999999289, 42.49999999999998579, -10.00000000000000000 ) ) ;
#860 = EDGE_CURVE ( 'NONE', #313, #459, #676, .T. ) ;
#861 = CARTESIAN_POINT ( 'NONE',  ( 32.50000000000000000, 37.49999999999999289, 0.000000000000000000 ) ) ;
#862 = EDGE_LOOP ( 'NONE', ( #700, #110, #349, #392 ) ) ;
#863 = DIRECTION ( 'NONE',  ( -1.000000000000000000, 0.000000000000000000, 0.000000000000000000 ) ) ;
#864 = EDGE_CURVE ( 'NONE', #1032, #284, #253, .T. ) ;
#865 = VECTOR ( 'NONE', #307, 1000.000000000000000 ) ;
#866 = VECTOR ( 'NONE', #589, 1000.000000000000000 ) ;
#867 = ORIENTED_EDGE ( 'NONE', *, *, #530, .T. ) ;
#868 = ORIENTED_EDGE ( 'NONE', *, *, #776, .T. ) ;
#869 = VECTOR ( 'NONE', #70, 1000.000000000000000 ) ;
#870 = EDGE_LOOP ( 'NONE', ( #171, #119, #428, #441 ) ) ;
#871 = EDGE_LOOP ( 'NONE', ( #157, #1047, #961, #135 ) ) ;
#872 = CARTESIAN_POINT ( 'NONE',  ( -40.00000000000000711, 47.49999999999998579, -40.00000000000000000 ) ) ;
#873 = ORIENTED_EDGE ( 'NONE', *, *, #101, .F. ) ;
#874 = EDGE_CURVE ( 'NONE', #1043, #344, #852, .T. ) ;
#875 = VERTEX_POINT ( 'NONE', #2 ) ;
#876 = DIRECTION ( 'NONE',  ( 1.000000000000000000, 0.000000000000000000, 0.000000000000000000 ) ) ;
#877 = VERTEX_POINT ( 'NONE', #343 ) ;
#878 = ORIENTED_EDGE ( 'NONE', *, *, #776, .F. ) ;
#879 = AXIS2_PLACEMENT_3D ( 'NONE', #571, #138, #475 ) ;
#880 = FACE_BOUND ( 'NONE', #281, .T. ) ;
#881 = VECTOR ( 'NONE', #484, 1000.000000000000000 ) ;
#882 = CARTESIAN_POINT ( 'NONE',  ( -40.00000000000000711, 47.49999999999998579, -10.00000000000000000 ) ) ;
#883 = VERTEX_POINT ( 'NONE', #258 ) ;
#884 = EDGE_LOOP ( 'NONE', ( #1005, #970, #495, #139, #410, #656, #645, #473 ) ) ;
#885 = DIRECTION ( 'NONE',  ( -0.000000000000000000, -0.000000000000000000, 1.000000000000000000 ) ) ;
#886 = ADVANCED_FACE ( 'NONE', ( #73 ), #756, .F. ) ;
#887 = EDGE_CURVE ( 'NONE', #59, #1038, #161, .T. ) ;
#888 = DIRECTION ( 'NONE',  ( -1.000000000000000000, 0.000000000000000000, -0.000000000000000000 ) ) ;
#889 = ORIENTED_EDGE ( 'NONE', *, *, #783, .F. ) ;
#890 = CARTESIAN_POINT ( 'NONE',  ( 34.99999999999999289, -40.00000000000000711, 0.000000000000000000 ) ) ;
#891 = CARTESIAN_POINT ( 'NONE',  ( 32.50000000000000000, 37.49999999999999289, -5.000000000000000888 ) ) ;
#892 = CARTESIAN_POINT ( 'NONE',  ( -25.00000000000000000, 42.49999999999998579, -90.48762224545735933 ) ) ;
#893 = ADVANCED_FACE ( 'NONE', ( #1060, #468 ), #632, .F. ) ;
#894 = VERTEX_POINT ( 'NONE', #908 ) ;
#895 = CARTESIAN_POINT ( 'NONE',  ( 34.99999999999999289, -40.00000000000000711, 0.000000000000000000 ) ) ;
#896 = PLANE ( 'NONE',  #879 ) ;
#897 = AXIS2_PLACEMENT_3D ( 'NONE', #47, #240, #301 ) ;
#898 = AXIS2_PLACEMENT_3D ( 'NONE', #741, #1055, #552 ) ;
#899 = PRODUCT_DEFINITION_FORMATION_WITH_SPECIFIED_SOURCE ( 'ANY', '', #100, .NOT_KNOWN. ) ;
#900 = VECTOR ( 'NONE', #854, 1000.000000000000000 ) ;
#901 = LINE ( 'NONE', #969, #561 ) ;
#902 = AXIS2_PLACEMENT_3D ( 'NONE', #144, #663, #905 ) ;
#903 = FACE_OUTER_BOUND ( 'NONE', #25, .T. ) ;
#904 = VERTEX_POINT ( 'NONE', #725 ) ;
#905 = DIRECTION ( 'NONE',  ( 0.000000000000000000, -0.000000000000000000, 1.000000000000000000 ) ) ;
#906 = DIRECTION ( 'NONE',  ( 1.000000000000000000, 0.000000000000000000, 0.000000000000000000 ) ) ;
#907 = CARTESIAN_POINT ( 'NONE',  ( 32.50000000000000000, 37.49999999999999289, -10.00000000000000000 ) ) ;
#908 = CARTESIAN_POINT ( 'NONE',  ( -34.99999999999999289, 37.49999999999999289, -10.00000000000000000 ) ) ;
#909 = CARTESIAN_POINT ( 'NONE',  ( -32.50000000000000000, 37.49999999999999289, -5.000000000000000000 ) ) ;
#910 = CARTESIAN_POINT ( 'NONE',  ( 40.00000000000000711, -47.50000000000001421, -1.000000000000028644 ) ) ;
#911 = DIRECTION ( 'NONE',  ( -0.000000000000000000, -0.000000000000000000, 1.000000000000000000 ) ) ;
#912 = EDGE_CURVE ( 'NONE', #965, #344, #1007, .T. ) ;
#913 = ORIENTED_EDGE ( 'NONE', *, *, #586, .T. ) ;
#914 = LINE ( 'NONE', #1000, #711 ) ;
#915 = CYLINDRICAL_SURFACE ( 'NONE', #64, 2.499999999999995115 ) ;
#916 = DIRECTION ( 'NONE',  ( 0.000000000000000000, -0.7071067811865524577, 0.7071067811865425767 ) ) ;
#917 = FACE_OUTER_BOUND ( 'NONE', #302, .T. ) ;
#918 = ORIENTED_EDGE ( 'NONE', *, *, #788, .F. ) ;
#919 = FACE_OUTER_BOUND ( 'NONE', #1086, .T. ) ;
#920 = AXIS2_PLACEMENT_3D ( 'NONE', #63, #1080, #658 ) ;
#921 = CARTESIAN_POINT ( 'NONE',  ( 38.99999999999999289, -40.00000000000000711, 0.000000000000000000 ) ) ;
#922 = FACE_OUTER_BOUND ( 'NONE', #947, .T. ) ;
#923 = VERTEX_POINT ( 'NONE', #296 ) ;
#924 = EDGE_CURVE ( 'NONE', #785, #804, #901, .T. ) ;
#925 = CYLINDRICAL_SURFACE ( 'NONE', #1037, 3.999999999999996447 ) ;
#926 = CARTESIAN_POINT ( 'NONE',  ( 25.00000000000000000, 35.49999999999999289, -40.00000000000000000 ) ) ;
#927 = EDGE_CURVE ( 'NONE', #284, #986, #207, .T. ) ;
#928 = DIRECTION ( 'NONE',  ( 1.000000000000000000, 0.000000000000000000, 0.000000000000000000 ) ) ;
#929 = ORIENTED_EDGE ( 'NONE', *, *, #530, .F. ) ;
#930 = LINE ( 'NONE', #351, #24 ) ;
#931 =( LENGTH_UNIT ( ) NAMED_UNIT ( * ) SI_UNIT ( .MILLI., .METRE. ) );
#932 = CARTESIAN_POINT ( 'NONE',  ( -39.99999999999999289, -46.50000000000000000, 0.000000000000000000 ) ) ;
#933 = EDGE_CURVE ( 'NONE', #567, #238, #331, .T. ) ;
#934 = CARTESIAN_POINT ( 'NONE',  ( -39.99999999999999289, -47.50000000000001421, -10.00000000000000000 ) ) ;
#935 = ORIENTED_EDGE ( 'NONE', *, *, #548, .T. ) ;
#936 = LINE ( 'NONE', #513, #224 ) ;
#937 = PLANE ( 'NONE',  #469 ) ;
#938 = AXIS2_PLACEMENT_3D ( 'NONE', #498, #385, #141 ) ;
#939 = AXIS2_PLACEMENT_3D ( 'NONE', #4, #945, #695 ) ;
#940 = VERTEX_POINT ( 'NONE', #140 ) ;
#941 = CARTESIAN_POINT ( 'NONE',  ( 40.00000000000000711, -47.50000000000001421, -10.00000000000000000 ) ) ;
#942 = DIRECTION ( 'NONE',  ( 1.000000000000000000, 0.000000000000000000, 0.000000000000000000 ) ) ;
#943 = ORIENTED_EDGE ( 'NONE', *, *, #677, .T. ) ;
#944 = EDGE_CURVE ( 'NONE', #278, #195, #1053, .T. ) ;
#945 = DIRECTION ( 'NONE',  ( -0.000000000000000000, -0.000000000000000000, 1.000000000000000000 ) ) ;
#946 = ORIENTED_EDGE ( 'NONE', *, *, #576, .F. ) ;
#947 = EDGE_LOOP ( 'NONE', ( #610, #220, #368, #444 ) ) ;
#948 = AXIS2_PLACEMENT_3D ( 'NONE', #342, #97, #686 ) ;
#949 = CIRCLE ( 'NONE', #136, 3.999999999999996447 ) ;
#950 = VECTOR ( 'NONE', #287, 1000.000000000000000 ) ;
#951 = ORIENTED_EDGE ( 'NONE', *, *, #912, .T. ) ;
#952 = VERTEX_POINT ( 'NONE', #53 ) ;
#953 = AXIS2_PLACEMENT_3D ( 'NONE', #895, #625, #876 ) ;
#954 = CARTESIAN_POINT ( 'NONE',  ( -34.99999999999999289, -40.00000000000000711, 0.000000000000000000 ) ) ;
#955 = SHAPE_DEFINITION_REPRESENTATION ( #1030, #784 ) ;
#956 = EDGE_CURVE ( 'NONE', #1043, #923, #263, .T. ) ;
#957 = ORIENTED_EDGE ( 'NONE', *, *, #576, .T. ) ;
#958 = ORIENTED_EDGE ( 'NONE', *, *, #783, .T. ) ;
#959 = FACE_OUTER_BOUND ( 'NONE', #66, .T. ) ;
#960 = ORIENTED_EDGE ( 'NONE', *, *, #944, .T. ) ;
#961 = ORIENTED_EDGE ( 'NONE', *, *, #927, .T. ) ;
#962 = CARTESIAN_POINT ( 'NONE',  ( -38.99999999999999289, -40.00000000000000711, -5.000000000000000000 ) ) ;
#963 = ADVANCED_FACE ( 'NONE', ( #199 ), #543, .T. ) ;
#964 = ORIENTED_EDGE ( 'NONE', *, *, #464, .F. ) ;
#965 = VERTEX_POINT ( 'NONE', #974 ) ;
#966 = DIRECTION ( 'NONE',  ( 1.000000000000000000, 0.000000000000000000, 0.000000000000000000 ) ) ;
#967 = EDGE_CURVE ( 'NONE', #800, #55, #720, .T. ) ;
#968 = VECTOR ( 'NONE', #770, 1000.000000000000000 ) ;
#969 = CARTESIAN_POINT ( 'NONE',  ( -36.50000000000000000, 37.49999999999999289, 0.000000000000000000 ) ) ;
#970 = ORIENTED_EDGE ( 'NONE', *, *, #180, .T. ) ;
#971 = DIRECTION ( 'NONE',  ( 1.000000000000000000, 0.000000000000000000, 0.000000000000000000 ) ) ;
#972 = CARTESIAN_POINT ( 'NONE',  ( -40.00000000000000711, 47.49999999999998579, -1.000000000000028644 ) ) ;
#973 = ADVANCED_FACE ( 'NONE', ( #458 ), #1056, .F. ) ;
#974 = CARTESIAN_POINT ( 'NONE',  ( 37.49999999999999289, -40.00000000000000711, -5.000000000000000888 ) ) ;
#975 = ORIENTED_EDGE ( 'NONE', *, *, #1004, .T. ) ;
#976 = DIRECTION ( 'NONE',  ( -1.000000000000000000, -1.460819769243627131E-16, 0.000000000000000000 ) ) ;
#977 = CYLINDRICAL_SURFACE ( 'NONE', #201, 3.999999999999996447 ) ;
#978 = EDGE_CURVE ( 'NONE', #374, #59, #802, .T. ) ;
#979 = LINE ( 'NONE', #463, #42 ) ;
#980 = DIRECTION ( 'NONE',  ( 1.000000000000000000, 1.460819769243627131E-16, -0.000000000000000000 ) ) ;
#981 = VERTEX_POINT ( 'NONE', #377 ) ;
#982 = LINE ( 'NONE', #318, #615 ) ;
#983 = CYLINDRICAL_SURFACE ( 'NONE', #898, 2.499999999999995115 ) ;
#984 = CIRCLE ( 'NONE', #84, 3.999999999999996447 ) ;
#985 = AXIS2_PLACEMENT_3D ( 'NONE', #890, #715, #129 ) ;
#986 = VERTEX_POINT ( 'NONE', #815 ) ;
#987 = AXIS2_PLACEMENT_3D ( 'NONE', #1006, #762, #250 ) ;
#988 = DIRECTION ( 'NONE',  ( -0.000000000000000000, -0.000000000000000000, 1.000000000000000000 ) ) ;
#989 = DIRECTION ( 'NONE',  ( -1.000000000000000000, 0.000000000000000000, -0.000000000000000000 ) ) ;
#990 = EDGE_CURVE ( 'NONE', #904, #511, #300, .T. ) ;
#991 = ORIENTED_EDGE ( 'NONE', *, *, #464, .T. ) ;
#992 = PLANE ( 'NONE',  #816 ) ;
#993 = DIRECTION ( 'NONE',  ( -0.000000000000000000, -0.000000000000000000, 1.000000000000000000 ) ) ;
#994 = DIRECTION ( 'NONE',  ( 1.000000000000000000, 0.000000000000000000, 0.000000000000000000 ) ) ;
#995 = CARTESIAN_POINT ( 'NONE',  ( -32.50000000000000000, 37.49999999999999289, 0.000000000000000000 ) ) ;
#996 = CARTESIAN_POINT ( 'NONE',  ( -37.49999999999999289, -40.00000000000000711, -10.00000000000000000 ) ) ;
#997 = FACE_OUTER_BOUND ( 'NONE', #607, .T. ) ;
#998 = DIRECTION ( 'NONE',  ( -0.000000000000000000, -0.000000000000000000, 1.000000000000000000 ) ) ;
#999 = CARTESIAN_POINT ( 'NONE',  ( -37.49999999999999289, -40.00000000000000711, 0.000000000000000000 ) ) ;
#1000 = CARTESIAN_POINT ( 'NONE',  ( -40.00000000000000711, 47.49999999999998579, -38.99999999999997158 ) ) ;
#1001 = DIRECTION ( 'NONE',  ( 1.000000000000000000, 0.000000000000000000, 0.000000000000000000 ) ) ;
#1002 = EDGE_CURVE ( 'NONE', #366, #313, #127, .T. ) ;
#1003 = LINE ( 'NONE', #760, #200 ) ;
#1004 = EDGE_CURVE ( 'NONE', #538, #800, #979, .T. ) ;
#1005 = ORIENTED_EDGE ( 'NONE', *, *, #613, .T. ) ;
#1006 = CARTESIAN_POINT ( 'NONE',  ( -32.50000000000000000, 37.49999999999999289, 0.000000000000000000 ) ) ;
#1007 = CIRCLE ( 'NONE', #674, 2.499999999999995115 ) ;
#1008 = CARTESIAN_POINT ( 'NONE',  ( 39.99999999999999289, 47.49999999999998579, 0.000000000000000000 ) ) ;
#1009 = COLOUR_RGB ( '',0.7921568627450980005, 0.8196078431372548767, 0.9333333333333333481 ) ;
#1010 = CARTESIAN_POINT ( 'NONE',  ( 39.99999999999999289, 47.49999999999998579, -40.00000000000000000 ) ) ;
#1011 = ORIENTED_EDGE ( 'NONE', *, *, #133, .F. ) ;
#1012 = DIRECTION ( 'NONE',  ( -0.000000000000000000, -0.000000000000000000, 1.000000000000000000 ) ) ;
#1013 = FACE_BOUND ( 'NONE', #16, .T. ) ;
#1014 = EDGE_LOOP ( 'NONE', ( #624, #266 ) ) ;
#1015 = CARTESIAN_POINT ( 'NONE',  ( 32.50000000000000000, 37.49999999999999289, 0.000000000000000000 ) ) ;
#1016 = FACE_OUTER_BOUND ( 'NONE', #628, .T. ) ;
#1017 = EDGE_CURVE ( 'NONE', #459, #538, #38, .T. ) ;
#1018 = DIRECTION ( 'NONE',  ( -0.000000000000000000, 0.000000000000000000, -1.000000000000000000 ) ) ;
#1019 = CARTESIAN_POINT ( 'NONE',  ( 0.000000000000000000, 0.000000000000000000, 0.000000000000000000 ) ) ;
#1020 = EDGE_LOOP ( 'NONE', ( #1062, #74 ) ) ;
#1021 = LINE ( 'NONE', #267, #968 ) ;
#1022 = DIRECTION ( 'NONE',  ( -0.000000000000000000, -0.000000000000000000, 1.000000000000000000 ) ) ;
#1023 = AXIS2_PLACEMENT_3D ( 'NONE', #622, #793, #22 ) ;
#1024 = VECTOR ( 'NONE', #830, 1000.000000000000000 ) ;
#1025 = ADVANCED_FACE ( 'NONE', ( #731, #217 ), #477, .F. ) ;
#1026 = ORIENTED_EDGE ( 'NONE', *, *, #662, .T. ) ;
#1027 = CARTESIAN_POINT ( 'NONE',  ( 39.99999999999999289, 46.49999999999997158, 0.000000000000000000 ) ) ;
#1028 = DIRECTION ( 'NONE',  ( 1.000000000000000000, 0.000000000000000000, 0.000000000000000000 ) ) ;
#1029 = VERTEX_POINT ( 'NONE', #777 ) ;
#1030 = PRODUCT_DEFINITION_SHAPE ( 'NONE', 'NONE',  #283 ) ;
#1031 = ORIENTED_EDGE ( 'NONE', *, *, #517, .F. ) ;
#1032 = VERTEX_POINT ( 'NONE', #507 ) ;
#1033 = ORIENTED_EDGE ( 'NONE', *, *, #158, .T. ) ;
#1034 = EDGE_CURVE ( 'NONE', #1038, #324, #335, .T. ) ;
#1035 = ADVANCED_FACE ( 'NONE', ( #325 ), #587, .F. ) ;
#1036 = CIRCLE ( 'NONE', #221, 2.499999999999995115 ) ;
#1037 = AXIS2_PLACEMENT_3D ( 'NONE', #153, #239, #256 ) ;
#1038 = VERTEX_POINT ( 'NONE', #159 ) ;
#1039 = ORIENTED_EDGE ( 'NONE', *, *, #169, .T. ) ;
#1040 = CIRCLE ( 'NONE', #45, 2.499999999999995115 ) ;
#1041 = DIRECTION ( 'NONE',  ( -0.000000000000000000, 0.000000000000000000, 1.000000000000000000 ) ) ;
#1042 = ORIENTED_EDGE ( 'NONE', *, *, #864, .F. ) ;
#1043 = VERTEX_POINT ( 'NONE', #425 ) ;
#1044 = DIRECTION ( 'NONE',  ( -0.000000000000000000, -0.000000000000000000, 1.000000000000000000 ) ) ;
#1045 = EDGE_CURVE ( 'NONE', #55, #454, #245, .T. ) ;
#1046 = EDGE_LOOP ( 'NONE', ( #878, #124, #550, #358 ) ) ;
#1047 = ORIENTED_EDGE ( 'NONE', *, *, #68, .F. ) ;
#1048 = CARTESIAN_POINT ( 'NONE',  ( -34.99999999999999289, -40.00000000000000711, -5.000000000000000000 ) ) ;
#1049 = CARTESIAN_POINT ( 'NONE',  ( -31.00000000000000000, -40.00000000000000711, 0.000000000000000000 ) ) ;
#1050 = ORIENTED_EDGE ( 'NONE', *, *, #169, .F. ) ;
#1051 = EDGE_CURVE ( 'NONE', #449, #48, #103, .T. ) ;
#1052 = CIRCLE ( 'NONE', #10, 3.999999999999996447 ) ;
#1053 = CIRCLE ( 'NONE', #472, 2.500000000000002220 ) ;
#1054 = CARTESIAN_POINT ( 'NONE',  ( 32.50000000000000000, 37.49999999999999289, 0.000000000000000000 ) ) ;
#1055 = DIRECTION ( 'NONE',  ( -0.000000000000000000, -0.000000000000000000, 1.000000000000000000 ) ) ;
#1056 = PLANE ( 'NONE',  #23 ) ;
#1057 = VERTEX_POINT ( 'NONE', #840 ) ;
#1058 = CARTESIAN_POINT ( 'NONE',  ( -39.99999999999999289, -47.50000000000001421, -1.000000000000028644 ) ) ;
#1059 = CARTESIAN_POINT ( 'NONE',  ( 40.00000000000000000, -4.500000000000656364, 41.99999999999992184 ) ) ;
#1060 = FACE_BOUND ( 'NONE', #142, .T. ) ;
#1061 = DIRECTION ( 'NONE',  ( -0.000000000000000000, -0.000000000000000000, 1.000000000000000000 ) ) ;
#1062 = ORIENTED_EDGE ( 'NONE', *, *, #548, .F. ) ;
#1063 = CARTESIAN_POINT ( 'NONE',  ( 35.00000000000000000, 37.49999999999999289, -5.000000000000000888 ) ) ;
#1064 = CARTESIAN_POINT ( 'NONE',  ( -34.99999999999999289, -40.00000000000000711, 0.000000000000000000 ) ) ;
#1065 = ORIENTED_EDGE ( 'NONE', *, *, #528, .F. ) ;
#1066 = ADVANCED_FACE ( 'NONE', ( #233 ), #341, .F. ) ;
#1067 = DIRECTION ( 'NONE',  ( 0.000000000000000000, -0.000000000000000000, 1.000000000000000000 ) ) ;
#1068 = CARTESIAN_POINT ( 'NONE',  ( -40.00000000000000000, -4.500000000000656364, 41.99999999999992184 ) ) ;
#1069 = ORIENTED_EDGE ( 'NONE', *, *, #704, .T. ) ;
#1070 = FACE_OUTER_BOUND ( 'NONE', #871, .T. ) ;
#1071 = LINE ( 'NONE', #319, #653 ) ;
#1072 = CIRCLE ( 'NONE', #953, 3.999999999999996447 ) ;
#1073 = VECTOR ( 'NONE', #551, 1000.000000000000000 ) ;
#1074 = CYLINDRICAL_SURFACE ( 'NONE', #11, 3.999999999999996447 ) ;
#1075 = AXIS2_PLACEMENT_3D ( 'NONE', #60, #988, #660 ) ;
#1076 = VECTOR ( 'NONE', #684, 1000.000000000000000 ) ;
#1077 = DIRECTION ( 'NONE',  ( -0.000000000000000000, -0.000000000000000000, 1.000000000000000000 ) ) ;
#1078 = CARTESIAN_POINT ( 'NONE',  ( 25.00000000000000000, 42.49999999999998579, -10.00000000000000000 ) ) ;
#1079 = DIRECTION ( 'NONE',  ( 1.000000000000000000, 0.000000000000000000, 0.000000000000000000 ) ) ;
#1080 = DIRECTION ( 'NONE',  ( -0.000000000000000000, -0.000000000000000000, 1.000000000000000000 ) ) ;
#1081 = ORIENTED_EDGE ( 'NONE', *, *, #1034, .F. ) ;
#1082 = CARTESIAN_POINT ( 'NONE',  ( 39.99999999999999289, 42.49999999999998579, -40.00000000000000000 ) ) ;
#1083 = ADVANCED_FACE ( 'NONE', ( #1016 ), #925, .F. ) ;
#1084 = EDGE_CURVE ( 'NONE', #839, #779, #914, .T. ) ;
#1085 = CARTESIAN_POINT ( 'NONE',  ( -34.99999999999999289, -40.00000000000000711, 0.000000000000000000 ) ) ;
#1086 = EDGE_LOOP ( 'NONE', ( #516, #590, #254, #809 ) ) ;
#1087 = MANIFOLD_SOLID_BREP ( 'Boss-Extrude3', #493 ) ;
#1088 = CARTESIAN_POINT ( 'NONE',  ( 36.50000000000000000, 37.49999999999999289, 0.000000000000000000 ) ) ;
#1089 = DIRECTION ( 'NONE',  ( 0.000000000000000000, -0.000000000000000000, -1.000000000000000000 ) ) ;
#1090 = ORIENTED_EDGE ( 'NONE', *, *, #846, .T. ) ;
#1091 = DIRECTION ( 'NONE',  ( 1.000000000000000000, 0.000000000000000000, 0.000000000000000000 ) ) ;
#1092 = VECTOR ( 'NONE', #210, 1000.000000000000000 ) ;
#1093 = FACE_OUTER_BOUND ( 'NONE', #884, .T. ) ;
#1094 = AXIS2_PLACEMENT_3D ( 'NONE', #430, #685, #497 ) ;
#1095 = AXIS2_PLACEMENT_3D ( 'NONE', #508, #417, #87 ) ;
#1096 = FACE_BOUND ( 'NONE', #273, .T. ) ;
#1097 = ORIENTED_EDGE ( 'NONE', *, *, #726, .F. ) ;
#1098 = ADVANCED_FACE ( 'NONE', ( #919 ), #671, .F. ) ;
#1099 = DIRECTION ( 'NONE',  ( 1.000000000000000000, 0.000000000000000000, 0.000000000000000000 ) ) ;
#1100 = DIRECTION ( 'NONE',  ( -0.000000000000000000, -0.000000000000000000, 1.000000000000000000 ) ) ;
ENDSEC;
END-ISO-10303-21;
