ISO-10303-21;
HEADER;
FILE_DESCRIPTION (( 'STEP AP214' ),
    '1' );
FILE_NAME ('PRT-3.STEP',
    '2025-07-15T12:58:01',
    ( '' ),
    ( '' ),
    'SwSTEP 2.0',
    'SolidWorks 2023',
    '' );
FILE_SCHEMA (( 'AUTOMOTIVE_DESIGN' ));
ENDSEC;

DATA;
#1 = DIRECTION ( 'NONE',  ( 0.000000000000000000, 0.000000000000000000, 1.000000000000000000 ) ) ;
#2 = ORIENTED_EDGE ( 'NONE', *, *, #16, .F. ) ;
#3 = DIRECTION ( 'NONE',  ( -1.000000000000000000, -0.000000000000000000, -0.000000000000000000 ) ) ;
#4 = ADVANCED_FACE ( 'NONE', ( #420 ), #169, .T. ) ;
#5 = ORIENTED_EDGE ( 'NONE', *, *, #194, .F. ) ;
#6 = DIRECTION ( 'NONE',  ( 1.000000000000000000, 0.000000000000000000, 0.000000000000000000 ) ) ;
#7 = FACE_OUTER_BOUND ( 'NONE', #446, .T. ) ;
#8 = CIRCLE ( 'NONE', #442, 2.499999999999993783 ) ;
#9 = VERTEX_POINT ( 'NONE', #416 ) ;
#10 = LINE ( 'NONE', #161, #465 ) ;
#11 = CARTESIAN_POINT ( 'NONE',  ( -10.75000000000000000, -9.000000000000001776, 7.500000000000000888 ) ) ;
#12 = CARTESIAN_POINT ( 'NONE',  ( -10.75000000000000000, -5.000000000000000888, -7.499999999999999112 ) ) ;
#13 = PLANE ( 'NONE',  #412 ) ;
#14 = DIRECTION ( 'NONE',  ( 0.000000000000000000, -0.000000000000000000, 1.000000000000000000 ) ) ;
#15 = EDGE_LOOP ( 'NONE', ( #346, #355, #124, #226 ) ) ;
#16 = EDGE_CURVE ( 'NONE', #137, #160, #267, .T. ) ;
#17 = CARTESIAN_POINT ( 'NONE',  ( 3.061616997868381169E-16, -24.00000000000000000, -2.499999999999993783 ) ) ;
#18 = AXIS2_PLACEMENT_3D ( 'NONE', #212, #463, #29 ) ;
#19 = VECTOR ( 'NONE', #110, 1000.000000000000000 ) ;
#20 = ORIENTED_EDGE ( 'NONE', *, *, #417, .T. ) ;
#21 = EDGE_LOOP ( 'NONE', ( #299, #454 ) ) ;
#22 = EDGE_LOOP ( 'NONE', ( #377, #408 ) ) ;
#23 = APPLICATION_PROTOCOL_DEFINITION ( 'draft international standard', 'automotive_design', 1998, #332 ) ;
#24 = ORIENTED_EDGE ( 'NONE', *, *, #366, .F. ) ;
#25 = DIRECTION ( 'NONE',  ( -0.000000000000000000, 1.000000000000000000, -0.000000000000000000 ) ) ;
#26 = EDGE_CURVE ( 'NONE', #137, #156, #410, .T. ) ;
#27 = DIRECTION ( 'NONE',  ( 0.000000000000000000, 0.000000000000000000, 1.000000000000000000 ) ) ;
#28 = ORIENTED_EDGE ( 'NONE', *, *, #26, .T. ) ;
#29 = DIRECTION ( 'NONE',  ( -1.156482317317871478E-16, 0.000000000000000000, -1.000000000000000000 ) ) ;
#30 = VERTEX_POINT ( 'NONE', #379 ) ;
#31 = DIRECTION ( 'NONE',  ( 1.000000000000000000, 0.000000000000000000, 0.000000000000000000 ) ) ;
#32 = PRODUCT_DEFINITION_CONTEXT ( 'detailed design', #192, 'design' ) ;
#33 = ADVANCED_FACE ( 'NONE', ( #7 ), #13, .T. ) ;
#34 = EDGE_CURVE ( 'NONE', #306, #30, #48, .T. ) ;
#35 = AXIS2_PLACEMENT_3D ( 'NONE', #50, #91, #338 ) ;
#36 = CARTESIAN_POINT ( 'NONE',  ( 0.000000000000000000, -3.851859888774471706E-31, 4.999999999999993783 ) ) ;
#37 = EDGE_CURVE ( 'NONE', #176, #211, #432, .T. ) ;
#38 = DIRECTION ( 'NONE',  ( 0.000000000000000000, -1.000000000000000000, 0.000000000000000000 ) ) ;
#39 = AXIS2_PLACEMENT_3D ( 'NONE', #238, #449, #273 ) ;
#40 = VECTOR ( 'NONE', #151, 1000.000000000000000 ) ;
#41 = LINE ( 'NONE', #147, #19 ) ;
#42 = LINE ( 'NONE', #111, #224 ) ;
#43 = ORIENTED_EDGE ( 'NONE', *, *, #185, .T. ) ;
#44 = CARTESIAN_POINT ( 'NONE',  ( -7.499999999999998224, -24.00000000000000000, 7.500000000000000888 ) ) ;
#45 = VERTEX_POINT ( 'NONE', #11 ) ;
#46 = ORIENTED_EDGE ( 'NONE', *, *, #194, .T. ) ;
#47 = CARTESIAN_POINT ( 'NONE',  ( -7.499999999999998224, -24.00000000000000000, 7.500000000000000888 ) ) ;
#48 = LINE ( 'NONE', #198, #472 ) ;
#49 = ORIENTED_EDGE ( 'NONE', *, *, #229, .T. ) ;
#50 = CARTESIAN_POINT ( 'NONE',  ( 0.000000000000000000, -5.000000000000000888, 0.000000000000000000 ) ) ;
#51 = PRODUCT ( 'PRT-3', 'PRT-3', '', ( #315 ) ) ;
#52 = ORIENTED_EDGE ( 'NONE', *, *, #109, .F. ) ;
#53 = EDGE_CURVE ( 'NONE', #122, #368, #89, .T. ) ;
#54 = DIRECTION ( 'NONE',  ( -0.000000000000000000, 1.000000000000000000, -0.000000000000000000 ) ) ;
#55 = ORIENTED_EDGE ( 'NONE', *, *, #357, .T. ) ;
#56 = DIRECTION ( 'NONE',  ( 1.000000000000000000, 0.000000000000000000, 0.000000000000000000 ) ) ;
#57 = ORIENTED_EDGE ( 'NONE', *, *, #185, .F. ) ;
#58 = MECHANICAL_DESIGN_GEOMETRIC_PRESENTATION_REPRESENTATION (  '', ( #207 ), #107 ) ;
#59 = DIRECTION ( 'NONE',  ( -0.000000000000000000, 1.000000000000000000, -0.000000000000000000 ) ) ;
#60 = DIRECTION ( 'NONE',  ( 0.000000000000000000, 0.000000000000000000, 1.000000000000000000 ) ) ;
#61 = ORIENTED_EDGE ( 'NONE', *, *, #468, .T. ) ;
#62 = VECTOR ( 'NONE', #6, 1000.000000000000000 ) ;
#63 = ADVANCED_FACE ( 'NONE', ( #129 ), #236, .T. ) ;
#64 = PLANE ( 'NONE',  #18 ) ;
#65 = DIRECTION ( 'NONE',  ( 0.000000000000000000, 0.000000000000000000, 1.000000000000000000 ) ) ;
#66 = ORIENTED_EDGE ( 'NONE', *, *, #329, .T. ) ;
#67 = CARTESIAN_POINT ( 'NONE',  ( -14.49999999999999822, -9.000000000000001776, -7.499999999999999112 ) ) ;
#68 = EDGE_LOOP ( 'NONE', ( #78, #423 ) ) ;
#69 = AXIS2_PLACEMENT_3D ( 'NONE', #103, #250, #390 ) ;
#70 = AXIS2_PLACEMENT_3D ( 'NONE', #261, #227, #369 ) ;
#71 = DIRECTION ( 'NONE',  ( 1.156482317317871478E-16, 0.000000000000000000, 1.000000000000000000 ) ) ;
#72 = DIRECTION ( 'NONE',  ( 0.000000000000000000, 0.000000000000000000, 1.000000000000000000 ) ) ;
#73 =( NAMED_UNIT ( * ) PLANE_ANGLE_UNIT ( ) SI_UNIT ( $, .RADIAN. ) );
#74 = CARTESIAN_POINT ( 'NONE',  ( -10.75000000000000000, -5.000000000000000888, 7.500000000000000888 ) ) ;
#75 = FACE_BOUND ( 'NONE', #22, .T. ) ;
#76 = AXIS2_PLACEMENT_3D ( 'NONE', #457, #92, #298 ) ;
#77 = CIRCLE ( 'NONE', #403, 4.999999999999993783 ) ;
#78 = ORIENTED_EDGE ( 'NONE', *, *, #202, .F. ) ;
#79 = SURFACE_STYLE_FILL_AREA ( #152 ) ;
#80 = ORIENTED_EDGE ( 'NONE', *, *, #257, .T. ) ;
#81 = PRODUCT_RELATED_PRODUCT_CATEGORY ( 'part', '', ( #51 ) ) ;
#82 = DIRECTION ( 'NONE',  ( 0.000000000000000000, 0.000000000000000000, 1.000000000000000000 ) ) ;
#83 = CARTESIAN_POINT ( 'NONE',  ( -14.49999999999999822, -9.000000000000001776, -7.499999999999999112 ) ) ;
#84 = ORIENTED_EDGE ( 'NONE', *, *, #240, .F. ) ;
#85 = DIRECTION ( 'NONE',  ( 0.000000000000000000, 0.000000000000000000, 1.000000000000000000 ) ) ;
#86 = CARTESIAN_POINT ( 'NONE',  ( -14.49999999999999822, -8.572527594031474176E-16, -7.499999999999999112 ) ) ;
#87 = VECTOR ( 'NONE', #132, 1000.000000000000000 ) ;
#88 = FACE_OUTER_BOUND ( 'NONE', #125, .T. ) ;
#89 = LINE ( 'NONE', #162, #106 ) ;
#90 = ORIENTED_EDGE ( 'NONE', *, *, #144, .T. ) ;
#91 = DIRECTION ( 'NONE',  ( -0.000000000000000000, 1.000000000000000000, -0.000000000000000000 ) ) ;
#92 = DIRECTION ( 'NONE',  ( -0.000000000000000000, 1.000000000000000000, -0.000000000000000000 ) ) ;
#93 =( LENGTH_UNIT ( ) NAMED_UNIT ( * ) SI_UNIT ( .MILLI., .METRE. ) );
#94 = EDGE_LOOP ( 'NONE', ( #313, #241, #28, #373 ) ) ;
#95 = LINE ( 'NONE', #371, #293 ) ;
#96 = CYLINDRICAL_SURFACE ( 'NONE', #394, 4.999999999999993783 ) ;
#97 = FACE_BOUND ( 'NONE', #68, .T. ) ;
#98 = AXIS2_PLACEMENT_3D ( 'NONE', #340, #27, #56 ) ;
#99 = ORIENTED_EDGE ( 'NONE', *, *, #109, .T. ) ;
#100 = LINE ( 'NONE', #246, #345 ) ;
#101 =( NAMED_UNIT ( * ) PLANE_ANGLE_UNIT ( ) SI_UNIT ( $, .RADIAN. ) );
#102 = EDGE_LOOP ( 'NONE', ( #281, #428, #80, #206 ) ) ;
#103 = CARTESIAN_POINT ( 'NONE',  ( -14.49999999999999822, -9.000000000000001776, -7.499999999999999112 ) ) ;
#104 = ORIENTED_EDGE ( 'NONE', *, *, #219, .T. ) ;
#105 = CARTESIAN_POINT ( 'NONE',  ( 0.000000000000000000, 0.000000000000000000, 0.000000000000000000 ) ) ;
#106 = VECTOR ( 'NONE', #165, 1000.000000000000000 ) ;
#107 =( GEOMETRIC_REPRESENTATION_CONTEXT ( 3 ) GLOBAL_UNCERTAINTY_ASSIGNED_CONTEXT ( ( #317 ) ) GLOBAL_UNIT_ASSIGNED_CONTEXT ( ( #439, #73, #435 ) ) REPRESENTATION_CONTEXT ( 'NONE', 'WORKASPACE' ) );
#108 = CARTESIAN_POINT ( 'NONE',  ( -10.75000000000000000, -5.000000000000000888, 7.500000000000000888 ) ) ;
#109 = EDGE_CURVE ( 'NONE', #160, #158, #407, .T. ) ;
#110 = DIRECTION ( 'NONE',  ( 0.000000000000000000, -1.000000000000000000, 0.000000000000000000 ) ) ;
#111 = CARTESIAN_POINT ( 'NONE',  ( -7.500000000000000000, -24.00000000000000000, -7.499999999999999112 ) ) ;
#112 = CARTESIAN_POINT ( 'NONE',  ( -10.75000000000000000, -5.000000000000000888, -7.499999999999999112 ) ) ;
#113 = ADVANCED_FACE ( 'NONE', ( #277 ), #96, .F. ) ;
#114 = ADVANCED_FACE ( 'NONE', ( #318 ), #64, .T. ) ;
#115 = VERTEX_POINT ( 'NONE', #284 ) ;
#116 = CARTESIAN_POINT ( 'NONE',  ( -10.75000000000000000, -5.000000000000000888, -7.499999999999999112 ) ) ;
#117 = VECTOR ( 'NONE', #272, 1000.000000000000000 ) ;
#118 = DIRECTION ( 'NONE',  ( 1.156482317317871478E-16, 0.000000000000000000, 1.000000000000000000 ) ) ;
#119 = ORIENTED_EDGE ( 'NONE', *, *, #150, .F. ) ;
#120 = CARTESIAN_POINT ( 'NONE',  ( -7.500000000000000000, -5.000000000000000888, -7.499999999999999112 ) ) ;
#121 = ORIENTED_EDGE ( 'NONE', *, *, #240, .T. ) ;
#122 = VERTEX_POINT ( 'NONE', #351 ) ;
#123 = FACE_OUTER_BOUND ( 'NONE', #310, .T. ) ;
#124 = ORIENTED_EDGE ( 'NONE', *, *, #323, .T. ) ;
#125 = EDGE_LOOP ( 'NONE', ( #319, #163, #121, #459, #214, #135, #57, #2 ) ) ;
#126 = AXIS2_PLACEMENT_3D ( 'NONE', #466, #396, #72 ) ;
#127 = AXIS2_PLACEMENT_3D ( 'NONE', #289, #38, #193 ) ;
#128 = CARTESIAN_POINT ( 'NONE',  ( -7.500000000000000000, -24.00000000000000000, -7.499999999999999112 ) ) ;
#129 = FACE_OUTER_BOUND ( 'NONE', #339, .T. ) ;
#130 = CARTESIAN_POINT ( 'NONE',  ( 3.061616997868396946E-16, -5.000000000000000888, -2.500000000000011102 ) ) ;
#131 = CARTESIAN_POINT ( 'NONE',  ( 7.500000000000000000, -24.00000000000000000, -7.499999999999999112 ) ) ;
#132 = DIRECTION ( 'NONE',  ( 0.000000000000000000, 0.000000000000000000, 1.000000000000000000 ) ) ;
#133 = EDGE_CURVE ( 'NONE', #290, #350, #285, .T. ) ;
#134 = DIRECTION ( 'NONE',  ( 0.000000000000000000, 1.000000000000000000, 0.000000000000000000 ) ) ;
#135 = ORIENTED_EDGE ( 'NONE', *, *, #53, .F. ) ;
#136 = PLANE ( 'NONE',  #69 ) ;
#137 = VERTEX_POINT ( 'NONE', #314 ) ;
#138 = FACE_OUTER_BOUND ( 'NONE', #343, .T. ) ;
#139 = DIRECTION ( 'NONE',  ( -0.000000000000000000, 1.000000000000000000, -0.000000000000000000 ) ) ;
#140 = ORIENTED_EDGE ( 'NONE', *, *, #229, .F. ) ;
#141 = VECTOR ( 'NONE', #60, 1000.000000000000000 ) ;
#142 = EDGE_CURVE ( 'NONE', #464, #30, #149, .T. ) ;
#143 = CYLINDRICAL_SURFACE ( 'NONE', #326, 2.500000000000002220 ) ;
#144 = EDGE_CURVE ( 'NONE', #372, #464, #255, .T. ) ;
#145 = CARTESIAN_POINT ( 'NONE',  ( -14.49999999999999822, -9.000000000000001776, -7.499999999999999112 ) ) ;
#146 = VECTOR ( 'NONE', #1, 1000.000000000000000 ) ;
#147 = CARTESIAN_POINT ( 'NONE',  ( -14.49999999999999822, -8.572527594031474176E-16, 7.500000000000000888 ) ) ;
#148 = SURFACE_SIDE_STYLE ('',( #79 ) ) ;
#149 = CIRCLE ( 'NONE', #354, 2.500000000000011102 ) ;
#150 = EDGE_CURVE ( 'NONE', #389, #115, #223, .T. ) ;
#151 = DIRECTION ( 'NONE',  ( 1.000000000000000000, 0.000000000000000000, 0.000000000000000000 ) ) ;
#152 = FILL_AREA_STYLE ('',( #362 ) ) ;
#153 = PRODUCT_DEFINITION ( 'UNKNOWN', '', #440, #32 ) ;
#154 = ORIENTED_EDGE ( 'NONE', *, *, #257, .F. ) ;
#155 = PLANE ( 'NONE',  #254 ) ;
#156 = VERTEX_POINT ( 'NONE', #183 ) ;
#157 = CARTESIAN_POINT ( 'NONE',  ( -7.499999999999998224, -5.000000000000000888, 7.500000000000000888 ) ) ;
#158 = VERTEX_POINT ( 'NONE', #430 ) ;
#159 = EDGE_CURVE ( 'NONE', #372, #306, #303, .T. ) ;
#160 = VERTEX_POINT ( 'NONE', #145 ) ;
#161 = CARTESIAN_POINT ( 'NONE',  ( 7.500000000000001776, -24.00000000000000000, 7.500000000000000888 ) ) ;
#162 = CARTESIAN_POINT ( 'NONE',  ( -10.75000000000000000, -9.000000000000001776, -7.499999999999999112 ) ) ;
#163 = ORIENTED_EDGE ( 'NONE', *, *, #422, .F. ) ;
#164 = DIRECTION ( 'NONE',  ( -1.000000000000000000, -0.000000000000000000, -0.000000000000000000 ) ) ;
#165 = DIRECTION ( 'NONE',  ( 0.000000000000000000, 1.000000000000000000, 0.000000000000000000 ) ) ;
#166 = VECTOR ( 'NONE', #279, 1000.000000000000000 ) ;
#167 = VECTOR ( 'NONE', #71, 1000.000000000000000 ) ;
#168 = CARTESIAN_POINT ( 'NONE',  ( 6.123233995736758394E-16, -5.000000000000000888, -4.999999999999993783 ) ) ;
#169 = PLANE ( 'NONE',  #271 ) ;
#170 = CARTESIAN_POINT ( 'NONE',  ( 0.000000000000000000, -24.00000000000000000, 0.000000000000000000 ) ) ;
#171 = ORIENTED_EDGE ( 'NONE', *, *, #429, .F. ) ;
#172 = ADVANCED_BREP_SHAPE_REPRESENTATION ( 'PRT-3', ( #225, #98 ), #359 ) ;
#173 = ADVANCED_FACE ( 'NONE', ( #138 ), #143, .F. ) ;
#174 = ORIENTED_EDGE ( 'NONE', *, *, #34, .T. ) ;
#175 = FACE_BOUND ( 'NONE', #21, .T. ) ;
#176 = VERTEX_POINT ( 'NONE', #252 ) ;
#177 = DIRECTION ( 'NONE',  ( 0.000000000000000000, 0.000000000000000000, 1.000000000000000000 ) ) ;
#178 = CARTESIAN_POINT ( 'NONE',  ( 0.000000000000000000, 0.000000000000000000, 0.000000000000000000 ) ) ;
#179 = EDGE_LOOP ( 'NONE', ( #228, #52, #43, #61 ) ) ;
#180 = DIRECTION ( 'NONE',  ( -0.000000000000000000, 1.000000000000000000, -0.000000000000000000 ) ) ;
#181 = ORIENTED_EDGE ( 'NONE', *, *, #473, .F. ) ;
#182 = ADVANCED_FACE ( 'NONE', ( #427 ), #136, .T. ) ;
#183 = CARTESIAN_POINT ( 'NONE',  ( -14.49999999999999822, -8.572527594031474176E-16, 7.500000000000000888 ) ) ;
#184 = AXIS2_PLACEMENT_3D ( 'NONE', #380, #134, #384 ) ;
#185 = EDGE_CURVE ( 'NONE', #160, #122, #387, .T. ) ;
#186 = CARTESIAN_POINT ( 'NONE',  ( 7.500000000000001776, -24.00000000000000000, 7.500000000000000888 ) ) ;
#187 = CLOSED_SHELL ( 'NONE', ( #113, #173, #114, #363, #4, #331, #443, #434, #286, #63, #182, #33, #438, #300, #249 ) ) ;
#188 = VECTOR ( 'NONE', #258, 1000.000000000000000 ) ;
#189 = FACE_OUTER_BOUND ( 'NONE', #102, .T. ) ;
#190 = VERTEX_POINT ( 'NONE', #218 ) ;
#191 = CARTESIAN_POINT ( 'NONE',  ( -7.499999999999998224, -24.00000000000000000, 7.500000000000000888 ) ) ;
#192 = APPLICATION_CONTEXT ( 'automotive_design' ) ;
#193 = DIRECTION ( 'NONE',  ( 0.000000000000000000, -0.000000000000000000, -1.000000000000000000 ) ) ;
#194 = EDGE_CURVE ( 'NONE', #9, #270, #353, .T. ) ;
#195 = CARTESIAN_POINT ( 'NONE',  ( -7.500000000000000000, -24.00000000000000000, -7.499999999999999112 ) ) ;
#196 = DIRECTION ( 'NONE',  ( 1.000000000000000000, 0.000000000000000000, -0.000000000000000000 ) ) ;
#197 = VECTOR ( 'NONE', #419, 1000.000000000000000 ) ;
#198 = CARTESIAN_POINT ( 'NONE',  ( 0.000000000000000000, 0.000000000000000000, 2.500000000000002220 ) ) ;
#199 = EDGE_LOOP ( 'NONE', ( #24, #232, #268, #283 ) ) ;
#200 = CARTESIAN_POINT ( 'NONE',  ( 0.000000000000000000, -5.000000000000000888, 0.000000000000000000 ) ) ;
#201 = CARTESIAN_POINT ( 'NONE',  ( -14.49999999999999822, -8.572527594031474176E-16, -7.499999999999999112 ) ) ;
#202 = EDGE_CURVE ( 'NONE', #211, #176, #77, .T. ) ;
#203 = CARTESIAN_POINT ( 'NONE',  ( 7.500000000000000000, 0.000000000000000000, -7.499999999999999112 ) ) ;
#204 = EDGE_LOOP ( 'NONE', ( #119, #66, #245, #154 ) ) ;
#205 = FACE_OUTER_BOUND ( 'NONE', #94, .T. ) ;
#206 = ORIENTED_EDGE ( 'NONE', *, *, #202, .T. ) ;
#207 = STYLED_ITEM ( 'NONE', ( #324 ), #225 ) ;
#208 = EDGE_CURVE ( 'NONE', #316, #425, #100, .T. ) ;
#209 = DIRECTION ( 'NONE',  ( 0.000000000000000000, 0.000000000000000000, 1.000000000000000000 ) ) ;
#210 = CIRCLE ( 'NONE', #35, 4.999999999999993783 ) ;
#211 = VERTEX_POINT ( 'NONE', #36 ) ;
#212 = CARTESIAN_POINT ( 'NONE',  ( 7.500000000000000000, -24.00000000000000000, -7.499999999999999112 ) ) ;
#213 = PLANE ( 'NONE',  #426 ) ;
#214 = ORIENTED_EDGE ( 'NONE', *, *, #323, .F. ) ;
#215 = DIRECTION ( 'NONE',  ( 0.000000000000000000, 0.000000000000000000, 1.000000000000000000 ) ) ;
#216 = EDGE_LOOP ( 'NONE', ( #444, #391, #46, #385 ) ) ;
#217 = CARTESIAN_POINT ( 'NONE',  ( 0.000000000000000000, -3.851859888774471706E-31, 0.000000000000000000 ) ) ;
#218 = CARTESIAN_POINT ( 'NONE',  ( 7.500000000000001776, 0.000000000000000000, 7.500000000000000888 ) ) ;
#219 = EDGE_CURVE ( 'NONE', #368, #290, #401, .T. ) ;
#220 = AXIS2_PLACEMENT_3D ( 'NONE', #200, #54, #307 ) ;
#221 = DIRECTION ( 'NONE',  ( 0.000000000000000000, -1.000000000000000000, 0.000000000000000000 ) ) ;
#222 = PLANE ( 'NONE',  #127 ) ;
#223 = CIRCLE ( 'NONE', #126, 4.999999999999993783 ) ;
#224 = VECTOR ( 'NONE', #3, 1000.000000000000000 ) ;
#225 = MANIFOLD_SOLID_BREP ( 'CBORE for M5 Hex Head Bolt1', #187 ) ;
#226 = ORIENTED_EDGE ( 'NONE', *, *, #321, .T. ) ;
#227 = DIRECTION ( 'NONE',  ( -0.000000000000000000, 1.000000000000000000, -0.000000000000000000 ) ) ;
#228 = ORIENTED_EDGE ( 'NONE', *, *, #417, .F. ) ;
#229 = EDGE_CURVE ( 'NONE', #156, #158, #41, .T. ) ;
#230 = LINE ( 'NONE', #398, #40 ) ;
#231 = DIRECTION ( 'NONE',  ( 0.000000000000000000, 0.000000000000000000, 1.000000000000000000 ) ) ;
#232 = ORIENTED_EDGE ( 'NONE', *, *, #402, .F. ) ;
#233 = LINE ( 'NONE', #203, #197 ) ;
#234 = DIRECTION ( 'NONE',  ( -1.000000000000000000, 0.000000000000000000, 0.000000000000000000 ) ) ;
#235 = DIRECTION ( 'NONE',  ( -1.000000000000000000, 0.000000000000000000, -0.000000000000000000 ) ) ;
#236 = PLANE ( 'NONE',  #39 ) ;
#237 = DIRECTION ( 'NONE',  ( 1.000000000000000000, 0.000000000000000000, 0.000000000000000000 ) ) ;
#238 = CARTESIAN_POINT ( 'NONE',  ( -10.75000000000000000, -9.000000000000001776, -7.499999999999999112 ) ) ;
#239 = CARTESIAN_POINT ( 'NONE',  ( -10.75000000000000000, -9.000000000000001776, -7.499999999999999112 ) ) ;
#240 = EDGE_CURVE ( 'NONE', #425, #9, #42, .T. ) ;
#241 = ORIENTED_EDGE ( 'NONE', *, *, #397, .T. ) ;
#242 = LINE ( 'NONE', #128, #361 ) ;
#243 = ORIENTED_EDGE ( 'NONE', *, *, #133, .T. ) ;
#244 = PLANE ( 'NONE',  #184 ) ;
#245 = ORIENTED_EDGE ( 'NONE', *, *, #37, .T. ) ;
#246 = CARTESIAN_POINT ( 'NONE',  ( 7.500000000000000000, -24.00000000000000000, -7.499999999999999112 ) ) ;
#247 = VECTOR ( 'NONE', #237, 1000.000000000000000 ) ;
#248 = ORIENTED_EDGE ( 'NONE', *, *, #360, .T. ) ;
#249 = ADVANCED_FACE ( 'NONE', ( #189 ), #436, .F. ) ;
#250 = DIRECTION ( 'NONE',  ( 0.000000000000000000, -1.000000000000000000, 0.000000000000000000 ) ) ;
#251 = ORIENTED_EDGE ( 'NONE', *, *, #382, .T. ) ;
#252 = CARTESIAN_POINT ( 'NONE',  ( 6.123233995736758394E-16, -3.851859888774471706E-31, -4.999999999999993783 ) ) ;
#253 = VECTOR ( 'NONE', #308, 1000.000000000000000 ) ;
#254 = AXIS2_PLACEMENT_3D ( 'NONE', #116, #221, #291 ) ;
#255 = LINE ( 'NONE', #460, #166 ) ;
#256 = EDGE_CURVE ( 'NONE', #270, #350, #264, .T. ) ;
#257 = EDGE_CURVE ( 'NONE', #115, #211, #404, .T. ) ;
#258 = DIRECTION ( 'NONE',  ( -0.000000000000000000, 1.000000000000000000, -0.000000000000000000 ) ) ;
#259 = CARTESIAN_POINT ( 'NONE',  ( 0.000000000000000000, 0.000000000000000000, 4.999999999999993783 ) ) ;
#260 = DIRECTION ( 'NONE',  ( -1.156482317317871478E-16, -0.000000000000000000, -1.000000000000000000 ) ) ;
#261 = CARTESIAN_POINT ( 'NONE',  ( 0.000000000000000000, 0.000000000000000000, 0.000000000000000000 ) ) ;
#262 = ORIENTED_EDGE ( 'NONE', *, *, #53, .T. ) ;
#263 = AXIS2_PLACEMENT_3D ( 'NONE', #409, #85, #196 ) ;
#264 = LINE ( 'NONE', #191, #327 ) ;
#265 = ORIENTED_EDGE ( 'NONE', *, *, #208, .F. ) ;
#266 = CARTESIAN_POINT ( 'NONE',  ( -10.75000000000000000, -9.000000000000001776, 7.500000000000000888 ) ) ;
#267 = LINE ( 'NONE', #413, #253 ) ;
#268 = ORIENTED_EDGE ( 'NONE', *, *, #208, .T. ) ;
#269 = CARTESIAN_POINT ( 'NONE',  ( 7.500000000000000000, -24.00000000000000000, -7.499999999999999112 ) ) ;
#270 = VERTEX_POINT ( 'NONE', #44 ) ;
#271 = AXIS2_PLACEMENT_3D ( 'NONE', #195, #334, #118 ) ;
#272 = DIRECTION ( 'NONE',  ( 1.000000000000000000, 0.000000000000000000, 0.000000000000000000 ) ) ;
#273 = DIRECTION ( 'NONE',  ( 0.000000000000000000, 0.000000000000000000, -1.000000000000000000 ) ) ;
#274 = DIRECTION ( 'NONE',  ( -0.000000000000000000, 1.000000000000000000, -0.000000000000000000 ) ) ;
#275 = ORIENTED_EDGE ( 'NONE', *, *, #159, .F. ) ;
#276 = LINE ( 'NONE', #451, #117 ) ;
#277 = FACE_OUTER_BOUND ( 'NONE', #204, .T. ) ;
#278 = ORIENTED_EDGE ( 'NONE', *, *, #142, .T. ) ;
#279 = DIRECTION ( 'NONE',  ( -0.000000000000000000, 1.000000000000000000, -0.000000000000000000 ) ) ;
#280 = CYLINDRICAL_SURFACE ( 'NONE', #335, 2.500000000000002220 ) ;
#281 = ORIENTED_EDGE ( 'NONE', *, *, #329, .F. ) ;
#282 = DIRECTION ( 'NONE',  ( -0.000000000000000000, 1.000000000000000000, -0.000000000000000000 ) ) ;
#283 = ORIENTED_EDGE ( 'NONE', *, *, #422, .T. ) ;
#284 = CARTESIAN_POINT ( 'NONE',  ( 0.000000000000000000, -5.000000000000000888, 4.999999999999993783 ) ) ;
#285 = LINE ( 'NONE', #108, #344 ) ;
#286 = ADVANCED_FACE ( 'NONE', ( #400 ), #155, .T. ) ;
#287 = SURFACE_STYLE_USAGE ( .BOTH. , #148 ) ;
#288 = CARTESIAN_POINT ( 'NONE',  ( 6.123233995736758394E-16, 0.000000000000000000, -4.999999999999993783 ) ) ;
#289 = CARTESIAN_POINT ( 'NONE',  ( 2.500000000000011102, -5.000000000000000888, 0.000000000000000000 ) ) ;
#290 = VERTEX_POINT ( 'NONE', #74 ) ;
#291 = DIRECTION ( 'NONE',  ( 0.000000000000000000, -0.000000000000000000, -1.000000000000000000 ) ) ;
#292 = EDGE_LOOP ( 'NONE', ( #418, #181, #174, #447 ) ) ;
#293 = VECTOR ( 'NONE', #164, 1000.000000000000000 ) ;
#294 = DIRECTION ( 'NONE',  ( 0.000000000000000000, 1.000000000000000000, 0.000000000000000000 ) ) ;
#295 = ORIENTED_EDGE ( 'NONE', *, *, #382, .F. ) ;
#296 = ORIENTED_EDGE ( 'NONE', *, *, #256, .F. ) ;
#297 = LINE ( 'NONE', #456, #62 ) ;
#298 = DIRECTION ( 'NONE',  ( 0.000000000000000000, 0.000000000000000000, 1.000000000000000000 ) ) ;
#299 = ORIENTED_EDGE ( 'NONE', *, *, #473, .T. ) ;
#300 = ADVANCED_FACE ( 'NONE', ( #75, #406 ), #222, .F. ) ;
#301 = DIRECTION ( 'NONE',  ( 0.000000000000000000, 1.000000000000000000, 0.000000000000000000 ) ) ;
#302 = ORIENTED_EDGE ( 'NONE', *, *, #468, .F. ) ;
#303 = CIRCLE ( 'NONE', #452, 2.499999999999993783 ) ;
#304 = VECTOR ( 'NONE', #437, 1000.000000000000000 ) ;
#305 = APPLICATION_PROTOCOL_DEFINITION ( 'draft international standard', 'automotive_design', 1998, #192 ) ;
#306 = VERTEX_POINT ( 'NONE', #367 ) ;
#307 = DIRECTION ( 'NONE',  ( 0.000000000000000000, 0.000000000000000000, 1.000000000000000000 ) ) ;
#308 = DIRECTION ( 'NONE',  ( 0.000000000000000000, -1.000000000000000000, 0.000000000000000000 ) ) ;
#309 = SHAPE_DEFINITION_REPRESENTATION ( #415, #172 ) ;
#310 = EDGE_LOOP ( 'NONE', ( #171, #49, #20, #248, #243, #296, #251, #341 ) ) ;
#311 = DIRECTION ( 'NONE',  ( 0.000000000000000000, 0.000000000000000000, 1.000000000000000000 ) ) ;
#312 = DIRECTION ( 'NONE',  ( 0.000000000000000000, 1.000000000000000000, 0.000000000000000000 ) ) ;
#313 = ORIENTED_EDGE ( 'NONE', *, *, #366, .T. ) ;
#314 = CARTESIAN_POINT ( 'NONE',  ( -14.49999999999999822, -8.572527594031474176E-16, -7.499999999999999112 ) ) ;
#315 = PRODUCT_CONTEXT ( 'NONE', #332, 'mechanical' ) ;
#316 = VERTEX_POINT ( 'NONE', #186 ) ;
#317 = UNCERTAINTY_MEASURE_WITH_UNIT (LENGTH_MEASURE( 1.000000000000000082E-05 ), #439, 'distance_accuracy_value', 'NONE');
#318 = FACE_OUTER_BOUND ( 'NONE', #199, .T. ) ;
#319 = ORIENTED_EDGE ( 'NONE', *, *, #397, .F. ) ;
#320 = DIRECTION ( 'NONE',  ( 1.000000000000000000, 0.000000000000000000, 0.000000000000000000 ) ) ;
#321 = EDGE_CURVE ( 'NONE', #348, #350, #441, .T. ) ;
#322 = VECTOR ( 'NONE', #411, 1000.000000000000000 ) ;
#323 = EDGE_CURVE ( 'NONE', #368, #348, #230, .T. ) ;
#324 = PRESENTATION_STYLE_ASSIGNMENT (( #287 ) ) ;
#325 = UNCERTAINTY_MEASURE_WITH_UNIT (LENGTH_MEASURE( 1.000000000000000082E-05 ), #93, 'distance_accuracy_value', 'NONE');
#326 = AXIS2_PLACEMENT_3D ( 'NONE', #105, #282, #215 ) ;
#327 = VECTOR ( 'NONE', #330, 1000.000000000000000 ) ;
#328 = LINE ( 'NONE', #288, #304 ) ;
#329 = EDGE_CURVE ( 'NONE', #389, #176, #328, .T. ) ;
#330 = DIRECTION ( 'NONE',  ( 0.000000000000000000, 1.000000000000000000, 0.000000000000000000 ) ) ;
#331 = ADVANCED_FACE ( 'NONE', ( #88 ), #336, .T. ) ;
#332 = APPLICATION_CONTEXT ( 'automotive_design' ) ;
#333 = LINE ( 'NONE', #266, #386 ) ;
#334 = DIRECTION ( 'NONE',  ( -1.000000000000000000, 0.000000000000000000, 1.156482317317871478E-16 ) ) ;
#335 = AXIS2_PLACEMENT_3D ( 'NONE', #178, #139, #388 ) ;
#336 = PLANE ( 'NONE',  #470 ) ;
#337 = DIRECTION ( 'NONE',  ( -0.000000000000000000, 1.000000000000000000, -0.000000000000000000 ) ) ;
#338 = DIRECTION ( 'NONE',  ( 0.000000000000000000, 0.000000000000000000, 1.000000000000000000 ) ) ;
#339 = EDGE_LOOP ( 'NONE', ( #381, #302, #262, #104 ) ) ;
#340 = CARTESIAN_POINT ( 'NONE',  ( 0.000000000000000000, 0.000000000000000000, 0.000000000000000000 ) ) ;
#341 = ORIENTED_EDGE ( 'NONE', *, *, #402, .T. ) ;
#342 = CARTESIAN_POINT ( 'NONE',  ( -7.500000000000000000, -24.00000000000000000, -7.499999999999999112 ) ) ;
#343 = EDGE_LOOP ( 'NONE', ( #275, #90, #278, #375 ) ) ;
#344 = VECTOR ( 'NONE', #31, 1000.000000000000000 ) ;
#345 = VECTOR ( 'NONE', #260, 1000.000000000000000 ) ;
#346 = ORIENTED_EDGE ( 'NONE', *, *, #133, .F. ) ;
#347 = EDGE_CURVE ( 'NONE', #9, #348, #242, .T. ) ;
#348 = VERTEX_POINT ( 'NONE', #120 ) ;
#349 = CARTESIAN_POINT ( 'NONE',  ( 0.000000000000000000, 0.000000000000000000, 0.000000000000000000 ) ) ;
#350 = VERTEX_POINT ( 'NONE', #157 ) ;
#351 = CARTESIAN_POINT ( 'NONE',  ( -10.75000000000000000, -9.000000000000001776, -7.499999999999999112 ) ) ;
#352 = EDGE_LOOP ( 'NONE', ( #265, #295, #5, #84 ) ) ;
#353 = LINE ( 'NONE', #392, #167 ) ;
#354 = AXIS2_PLACEMENT_3D ( 'NONE', #431, #180, #177 ) ;
#355 = ORIENTED_EDGE ( 'NONE', *, *, #219, .F. ) ;
#356 = CARTESIAN_POINT ( 'NONE',  ( 0.000000000000000000, -24.00000000000000000, 0.000000000000000000 ) ) ;
#357 = EDGE_CURVE ( 'NONE', #115, #389, #210, .T. ) ;
#358 = DIRECTION ( 'NONE',  ( 0.000000000000000000, 0.000000000000000000, 1.000000000000000000 ) ) ;
#359 =( GEOMETRIC_REPRESENTATION_CONTEXT ( 3 ) GLOBAL_UNCERTAINTY_ASSIGNED_CONTEXT ( ( #325 ) ) GLOBAL_UNIT_ASSIGNED_CONTEXT ( ( #93, #101, #421 ) ) REPRESENTATION_CONTEXT ( 'NONE', 'WORKASPACE' ) );
#360 = EDGE_CURVE ( 'NONE', #45, #290, #333, .T. ) ;
#361 = VECTOR ( 'NONE', #374, 1000.000000000000000 ) ;
#362 = FILL_AREA_STYLE_COLOUR ( '', #469 ) ;
#363 = ADVANCED_FACE ( 'NONE', ( #123 ), #414, .T. ) ;
#364 = VECTOR ( 'NONE', #209, 1000.000000000000000 ) ;
#365 = EDGE_LOOP ( 'NONE', ( #55, #370 ) ) ;
#366 = EDGE_CURVE ( 'NONE', #190, #450, #233, .T. ) ;
#367 = CARTESIAN_POINT ( 'NONE',  ( 0.000000000000000000, -24.00000000000000000, 2.499999999999993783 ) ) ;
#368 = VERTEX_POINT ( 'NONE', #12 ) ;
#369 = DIRECTION ( 'NONE',  ( 0.000000000000000000, 0.000000000000000000, 1.000000000000000000 ) ) ;
#370 = ORIENTED_EDGE ( 'NONE', *, *, #150, .T. ) ;
#371 = CARTESIAN_POINT ( 'NONE',  ( -7.500000000000000000, 0.000000000000000000, -7.499999999999999112 ) ) ;
#372 = VERTEX_POINT ( 'NONE', #17 ) ;
#373 = ORIENTED_EDGE ( 'NONE', *, *, #429, .T. ) ;
#374 = DIRECTION ( 'NONE',  ( 0.000000000000000000, 1.000000000000000000, 0.000000000000000000 ) ) ;
#375 = ORIENTED_EDGE ( 'NONE', *, *, #34, .F. ) ;
#376 = LINE ( 'NONE', #239, #141 ) ;
#377 = ORIENTED_EDGE ( 'NONE', *, *, #393, .F. ) ;
#378 = LINE ( 'NONE', #47, #247 ) ;
#379 = CARTESIAN_POINT ( 'NONE',  ( 0.000000000000000000, -5.000000000000000888, 2.500000000000011102 ) ) ;
#380 = CARTESIAN_POINT ( 'NONE',  ( 0.000000000000000000, -24.00000000000000000, 0.000000000000000000 ) ) ;
#381 = ORIENTED_EDGE ( 'NONE', *, *, #360, .F. ) ;
#382 = EDGE_CURVE ( 'NONE', #270, #316, #378, .T. ) ;
#383 = CARTESIAN_POINT ( 'NONE',  ( 0.000000000000000000, 0.000000000000000000, 0.000000000000000000 ) ) ;
#384 = DIRECTION ( 'NONE',  ( 0.000000000000000000, -0.000000000000000000, 1.000000000000000000 ) ) ;
#385 = ORIENTED_EDGE ( 'NONE', *, *, #256, .T. ) ;
#386 = VECTOR ( 'NONE', #294, 1000.000000000000000 ) ;
#387 = LINE ( 'NONE', #67, #395 ) ;
#388 = DIRECTION ( 'NONE',  ( 0.000000000000000000, 0.000000000000000000, 1.000000000000000000 ) ) ;
#389 = VERTEX_POINT ( 'NONE', #168 ) ;
#390 = DIRECTION ( 'NONE',  ( 0.000000000000000000, -0.000000000000000000, -1.000000000000000000 ) ) ;
#391 = ORIENTED_EDGE ( 'NONE', *, *, #347, .F. ) ;
#392 = CARTESIAN_POINT ( 'NONE',  ( -7.500000000000000000, -24.00000000000000000, -7.499999999999999112 ) ) ;
#393 = EDGE_CURVE ( 'NONE', #30, #464, #399, .T. ) ;
#394 = AXIS2_PLACEMENT_3D ( 'NONE', #383, #59, #311 ) ;
#395 = VECTOR ( 'NONE', #320, 1000.000000000000000 ) ;
#396 = DIRECTION ( 'NONE',  ( -0.000000000000000000, 1.000000000000000000, -0.000000000000000000 ) ) ;
#397 = EDGE_CURVE ( 'NONE', #450, #137, #95, .T. ) ;
#398 = CARTESIAN_POINT ( 'NONE',  ( -10.75000000000000000, -5.000000000000000888, -7.499999999999999112 ) ) ;
#399 = CIRCLE ( 'NONE', #220, 2.500000000000011102 ) ;
#400 = FACE_OUTER_BOUND ( 'NONE', #15, .T. ) ;
#401 = LINE ( 'NONE', #112, #146 ) ;
#402 = EDGE_CURVE ( 'NONE', #316, #190, #10, .T. ) ;
#403 = AXIS2_PLACEMENT_3D ( 'NONE', #217, #467, #358 ) ;
#404 = LINE ( 'NONE', #259, #188 ) ;
#405 = ORIENTED_EDGE ( 'NONE', *, *, #16, .T. ) ;
#406 = FACE_OUTER_BOUND ( 'NONE', #365, .T. ) ;
#407 = LINE ( 'NONE', #83, #87 ) ;
#408 = ORIENTED_EDGE ( 'NONE', *, *, #142, .F. ) ;
#409 = CARTESIAN_POINT ( 'NONE',  ( -7.499999999999998224, -24.00000000000000000, 7.500000000000000888 ) ) ;
#410 = LINE ( 'NONE', #201, #364 ) ;
#411 = DIRECTION ( 'NONE',  ( 0.000000000000000000, 1.000000000000000000, 0.000000000000000000 ) ) ;
#412 = AXIS2_PLACEMENT_3D ( 'NONE', #86, #234, #231 ) ;
#413 = CARTESIAN_POINT ( 'NONE',  ( -14.49999999999999822, -8.572527594031474176E-16, -7.499999999999999112 ) ) ;
#414 = PLANE ( 'NONE',  #263 ) ;
#415 = PRODUCT_DEFINITION_SHAPE ( 'NONE', 'NONE',  #153 ) ;
#416 = CARTESIAN_POINT ( 'NONE',  ( -7.500000000000000000, -24.00000000000000000, -7.499999999999999112 ) ) ;
#417 = EDGE_CURVE ( 'NONE', #158, #45, #297, .T. ) ;
#418 = ORIENTED_EDGE ( 'NONE', *, *, #144, .F. ) ;
#419 = DIRECTION ( 'NONE',  ( -1.156482317317871478E-16, -0.000000000000000000, -1.000000000000000000 ) ) ;
#420 = FACE_OUTER_BOUND ( 'NONE', #216, .T. ) ;
#421 =( NAMED_UNIT ( * ) SI_UNIT ( $, .STERADIAN. ) SOLID_ANGLE_UNIT ( ) );
#422 = EDGE_CURVE ( 'NONE', #425, #450, #448, .T. ) ;
#423 = ORIENTED_EDGE ( 'NONE', *, *, #37, .F. ) ;
#424 = DIRECTION ( 'NONE',  ( 0.000000000000000000, 0.000000000000000000, 1.000000000000000000 ) ) ;
#425 = VERTEX_POINT ( 'NONE', #131 ) ;
#426 = AXIS2_PLACEMENT_3D ( 'NONE', #349, #312, #14 ) ;
#427 = FACE_OUTER_BOUND ( 'NONE', #179, .T. ) ;
#428 = ORIENTED_EDGE ( 'NONE', *, *, #357, .F. ) ;
#429 = EDGE_CURVE ( 'NONE', #156, #190, #276, .T. ) ;
#430 = CARTESIAN_POINT ( 'NONE',  ( -14.49999999999999822, -9.000000000000001776, 7.500000000000000888 ) ) ;
#431 = CARTESIAN_POINT ( 'NONE',  ( 0.000000000000000000, -5.000000000000000888, 0.000000000000000000 ) ) ;
#432 = CIRCLE ( 'NONE', #76, 4.999999999999993783 ) ;
#433 = VECTOR ( 'NONE', #82, 1000.000000000000000 ) ;
#434 = ADVANCED_FACE ( 'NONE', ( #97, #205 ), #213, .T. ) ;
#435 =( NAMED_UNIT ( * ) SI_UNIT ( $, .STERADIAN. ) SOLID_ANGLE_UNIT ( ) );
#436 = CYLINDRICAL_SURFACE ( 'NONE', #70, 4.999999999999993783 ) ;
#437 = DIRECTION ( 'NONE',  ( -0.000000000000000000, 1.000000000000000000, -0.000000000000000000 ) ) ;
#438 = ADVANCED_FACE ( 'NONE', ( #458 ), #280, .F. ) ;
#439 =( LENGTH_UNIT ( ) NAMED_UNIT ( * ) SI_UNIT ( .MILLI., .METRE. ) );
#440 = PRODUCT_DEFINITION_FORMATION_WITH_SPECIFIED_SOURCE ( 'ANY', '', #51, .NOT_KNOWN. ) ;
#441 = LINE ( 'NONE', #471, #433 ) ;
#442 = AXIS2_PLACEMENT_3D ( 'NONE', #170, #274, #65 ) ;
#443 = ADVANCED_FACE ( 'NONE', ( #175, #461 ), #244, .F. ) ;
#444 = ORIENTED_EDGE ( 'NONE', *, *, #321, .F. ) ;
#445 = DIRECTION ( 'NONE',  ( 0.000000000000000000, 0.000000000000000000, -1.000000000000000000 ) ) ;
#446 = EDGE_LOOP ( 'NONE', ( #140, #462, #405, #99 ) ) ;
#447 = ORIENTED_EDGE ( 'NONE', *, *, #393, .T. ) ;
#448 = LINE ( 'NONE', #269, #322 ) ;
#449 = DIRECTION ( 'NONE',  ( 1.000000000000000000, 0.000000000000000000, 0.000000000000000000 ) ) ;
#450 = VERTEX_POINT ( 'NONE', #455 ) ;
#451 = CARTESIAN_POINT ( 'NONE',  ( -7.499999999999998224, 0.000000000000000000, 7.500000000000000888 ) ) ;
#452 = AXIS2_PLACEMENT_3D ( 'NONE', #356, #25, #424 ) ;
#453 = PRESENTATION_LAYER_ASSIGNMENT (  '', '', ( #207 ) ) ;
#454 = ORIENTED_EDGE ( 'NONE', *, *, #159, .T. ) ;
#455 = CARTESIAN_POINT ( 'NONE',  ( 7.500000000000000000, 0.000000000000000000, -7.499999999999999112 ) ) ;
#456 = CARTESIAN_POINT ( 'NONE',  ( -14.49999999999999822, -9.000000000000001776, 7.500000000000000888 ) ) ;
#457 = CARTESIAN_POINT ( 'NONE',  ( 0.000000000000000000, -3.851859888774471706E-31, 0.000000000000000000 ) ) ;
#458 = FACE_OUTER_BOUND ( 'NONE', #292, .T. ) ;
#459 = ORIENTED_EDGE ( 'NONE', *, *, #347, .T. ) ;
#460 = CARTESIAN_POINT ( 'NONE',  ( 3.061616997868386099E-16, 0.000000000000000000, -2.500000000000002220 ) ) ;
#461 = FACE_OUTER_BOUND ( 'NONE', #352, .T. ) ;
#462 = ORIENTED_EDGE ( 'NONE', *, *, #26, .F. ) ;
#463 = DIRECTION ( 'NONE',  ( 1.000000000000000000, 0.000000000000000000, -1.156482317317871478E-16 ) ) ;
#464 = VERTEX_POINT ( 'NONE', #130 ) ;
#465 = VECTOR ( 'NONE', #301, 1000.000000000000000 ) ;
#466 = CARTESIAN_POINT ( 'NONE',  ( 0.000000000000000000, -5.000000000000000888, 0.000000000000000000 ) ) ;
#467 = DIRECTION ( 'NONE',  ( -0.000000000000000000, 1.000000000000000000, -0.000000000000000000 ) ) ;
#468 = EDGE_CURVE ( 'NONE', #122, #45, #376, .T. ) ;
#469 = COLOUR_RGB ( '',0.7921568627450980005, 0.8196078431372548767, 0.9333333333333333481 ) ;
#470 = AXIS2_PLACEMENT_3D ( 'NONE', #342, #445, #235 ) ;
#471 = CARTESIAN_POINT ( 'NONE',  ( -7.499999999999998224, -5.000000000000000888, -7.499999999999999112 ) ) ;
#472 = VECTOR ( 'NONE', #337, 1000.000000000000000 ) ;
#473 = EDGE_CURVE ( 'NONE', #306, #372, #8, .T. ) ;
ENDSEC;
END-ISO-10303-21;
