ISO-10303-21;
HEADER;
FILE_DESCRIPTION (( 'STEP AP214' ),
    '1' );
FILE_NAME ('PRT-13.STEP',
    '2025-07-15T13:03:46',
    ( '' ),
    ( '' ),
    'SwSTEP 2.0',
    'SolidWorks 2023',
    '' );
FILE_SCHEMA (( 'AUTOMOTIVE_DESIGN' ));
ENDSEC;

DATA;
#1 = ADVANCED_FACE ( 'NONE', ( #351 ), #794, .F. ) ;
#2 = VECTOR ( 'NONE', #802, 1000.000000000000000 ) ;
#3 = VERTEX_POINT ( 'NONE', #876 ) ;
#4 = ORIENTED_EDGE ( 'NONE', *, *, #241, .T. ) ;
#5 = DIRECTION ( 'NONE',  ( 0.000000000000000000, 1.000000000000000000, 0.000000000000000000 ) ) ;
#6 = ORIENTED_EDGE ( 'NONE', *, *, #547, .T. ) ;
#7 = ORIENTED_EDGE ( 'NONE', *, *, #261, .T. ) ;
#8 = VECTOR ( 'NONE', #744, 1000.000000000000000 ) ;
#9 = DIRECTION ( 'NONE',  ( 1.000000000000000000, 0.000000000000000000, 0.000000000000000000 ) ) ;
#10 = VERTEX_POINT ( 'NONE', #616 ) ;
#11 = EDGE_CURVE ( 'NONE', #1115, #1073, #1158, .T. ) ;
#12 = EDGE_LOOP ( 'NONE', ( #1027, #534 ) ) ;
#13 = CARTESIAN_POINT ( 'NONE',  ( -1.597501047550178016E-14, 40.00000000000000000, 75.00000000000000000 ) ) ;
#14 = VECTOR ( 'NONE', #9, 1000.000000000000000 ) ;
#15 = ORIENTED_EDGE ( 'NONE', *, *, #630, .T. ) ;
#16 = ADVANCED_FACE ( 'NONE', ( #43 ), #564, .F. ) ;
#17 = LINE ( 'NONE', #422, #706 ) ;
#18 = DIRECTION ( 'NONE',  ( -1.000000000000000000, 0.000000000000000000, 0.000000000000000000 ) ) ;
#19 = ORIENTED_EDGE ( 'NONE', *, *, #572, .F. ) ;
#20 = ORIENTED_EDGE ( 'NONE', *, *, #185, .F. ) ;
#21 = PLANE ( 'NONE',  #336 ) ;
#22 = EDGE_CURVE ( 'NONE', #1032, #276, #1043, .T. ) ;
#23 = CARTESIAN_POINT ( 'NONE',  ( 10.00000000000000178, 20.00000000000000000, -75.00000000000000000 ) ) ;
#24 = ADVANCED_FACE ( 'NONE', ( #440 ), #34, .T. ) ;
#25 = DIRECTION ( 'NONE',  ( -1.000000000000000000, 0.000000000000000000, 0.000000000000000000 ) ) ;
#26 = AXIS2_PLACEMENT_3D ( 'NONE', #60, #431, #713 ) ;
#27 = VECTOR ( 'NONE', #975, 1000.000000000000000 ) ;
#28 = ORIENTED_EDGE ( 'NONE', *, *, #1106, .T. ) ;
#29 = ORIENTED_EDGE ( 'NONE', *, *, #983, .F. ) ;
#30 = DIRECTION ( 'NONE',  ( 0.000000000000000000, 0.000000000000000000, -1.000000000000000000 ) ) ;
#31 = DIRECTION ( 'NONE',  ( -0.000000000000000000, -0.000000000000000000, -1.000000000000000000 ) ) ;
#32 = ORIENTED_EDGE ( 'NONE', *, *, #1126, .F. ) ;
#33 = LINE ( 'NONE', #350, #493 ) ;
#34 = PLANE ( 'NONE',  #1182 ) ;
#35 = CIRCLE ( 'NONE', #1055, 5.000000000000004441 ) ;
#36 = CARTESIAN_POINT ( 'NONE',  ( 7.000000000000001776, 5.000000000000000888, 75.00000000000000000 ) ) ;
#37 = ORIENTED_EDGE ( 'NONE', *, *, #612, .F. ) ;
#38 = ORIENTED_EDGE ( 'NONE', *, *, #900, .F. ) ;
#39 = DIRECTION ( 'NONE',  ( 0.000000000000000000, 0.000000000000000000, -1.000000000000000000 ) ) ;
#40 = PLANE ( 'NONE',  #964 ) ;
#41 = ORIENTED_EDGE ( 'NONE', *, *, #900, .T. ) ;
#42 = PLANE ( 'NONE',  #688 ) ;
#43 = FACE_OUTER_BOUND ( 'NONE', #246, .T. ) ;
#44 = ADVANCED_FACE ( 'NONE', ( #145 ), #355, .F. ) ;
#45 = FACE_OUTER_BOUND ( 'NONE', #660, .T. ) ;
#46 = LINE ( 'NONE', #1164, #27 ) ;
#47 = ORIENTED_EDGE ( 'NONE', *, *, #1191, .T. ) ;
#48 = DIRECTION ( 'NONE',  ( -1.000000000000000000, 0.000000000000000000, 0.000000000000000000 ) ) ;
#49 =( NAMED_UNIT ( * ) SI_UNIT ( $, .STERADIAN. ) SOLID_ANGLE_UNIT ( ) );
#50 = ORIENTED_EDGE ( 'NONE', *, *, #840, .F. ) ;
#51 = CARTESIAN_POINT ( 'NONE',  ( 7.000000000000002665, -10.00000000000000000, -75.00000000000000000 ) ) ;
#52 = DIRECTION ( 'NONE',  ( 1.000000000000000000, 0.000000000000000000, 0.000000000000000000 ) ) ;
#53 = ORIENTED_EDGE ( 'NONE', *, *, #1134, .T. ) ;
#54 = CARTESIAN_POINT ( 'NONE',  ( 0.4999999999999987232, -14.99999999999999822, -62.50000000000000000 ) ) ;
#55 = EDGE_CURVE ( 'NONE', #442, #850, #1086, .T. ) ;
#56 = LINE ( 'NONE', #438, #230 ) ;
#57 = DIRECTION ( 'NONE',  ( -0.000000000000000000, 1.000000000000000000, -0.000000000000000000 ) ) ;
#58 = DIRECTION ( 'NONE',  ( 1.000000000000000000, -0.000000000000000000, -0.000000000000000000 ) ) ;
#59 = DIRECTION ( 'NONE',  ( -0.000000000000000000, -0.000000000000000000, -1.000000000000000000 ) ) ;
#60 = CARTESIAN_POINT ( 'NONE',  ( 3.000000000000001776, -14.99999999999999822, -62.50000000000000000 ) ) ;
#61 = AXIS2_PLACEMENT_3D ( 'NONE', #362, #824, #189 ) ;
#62 = ORIENTED_EDGE ( 'NONE', *, *, #948, .T. ) ;
#63 = EDGE_LOOP ( 'NONE', ( #653, #573, #515, #334 ) ) ;
#64 = FACE_OUTER_BOUND ( 'NONE', #147, .T. ) ;
#65 = EDGE_CURVE ( 'NONE', #578, #316, #741, .T. ) ;
#66 = EDGE_CURVE ( 'NONE', #470, #774, #633, .T. ) ;
#67 = LINE ( 'NONE', #288, #622 ) ;
#68 = CONICAL_SURFACE ( 'NONE', #73, 5.000000000000004441, 0.7853981633974481680 ) ;
#69 = DIRECTION ( 'NONE',  ( 0.000000000000000000, 0.000000000000000000, 1.000000000000000000 ) ) ;
#70 = VECTOR ( 'NONE', #59, 1000.000000000000000 ) ;
#71 = DIRECTION ( 'NONE',  ( 0.000000000000000000, 0.000000000000000000, -1.000000000000000000 ) ) ;
#72 = CARTESIAN_POINT ( 'NONE',  ( -1.561251128379126385E-14, 15.00000000000000000, -62.50000000000000000 ) ) ;
#73 = AXIS2_PLACEMENT_3D ( 'NONE', #1060, #795, #237 ) ;
#74 = LINE ( 'NONE', #370, #8 ) ;
#75 = VERTEX_POINT ( 'NONE', #718 ) ;
#76 = DIRECTION ( 'NONE',  ( 0.000000000000000000, 0.000000000000000000, -1.000000000000000000 ) ) ;
#77 = DIRECTION ( 'NONE',  ( -1.000000000000000000, -0.000000000000000000, -0.000000000000000000 ) ) ;
#78 = VECTOR ( 'NONE', #931, 1000.000000000000000 ) ;
#79 = DIRECTION ( 'NONE',  ( -8.673617379884035472E-16, 1.000000000000000000, -0.000000000000000000 ) ) ;
#80 = EDGE_CURVE ( 'NONE', #378, #242, #803, .T. ) ;
#81 = CYLINDRICAL_SURFACE ( 'NONE', #195, 2.499999999999995115 ) ;
#82 = VERTEX_POINT ( 'NONE', #884 ) ;
#83 = DIRECTION ( 'NONE',  ( 0.000000000000000000, 0.000000000000000000, -1.000000000000000000 ) ) ;
#84 =( NAMED_UNIT ( * ) SI_UNIT ( $, .STERADIAN. ) SOLID_ANGLE_UNIT ( ) );
#85 = VECTOR ( 'NONE', #999, 1000.000000000000000 ) ;
#86 = CARTESIAN_POINT ( 'NONE',  ( 3.000000000000001776, -14.99999999999999822, -60.00000000000000000 ) ) ;
#87 = VERTEX_POINT ( 'NONE', #1163 ) ;
#88 = EDGE_LOOP ( 'NONE', ( #214, #783 ) ) ;
#89 = FACE_OUTER_BOUND ( 'NONE', #1157, .T. ) ;
#90 = EDGE_CURVE ( 'NONE', #988, #715, #639, .T. ) ;
#91 = CIRCLE ( 'NONE', #277, 4.999999999999997335 ) ;
#92 = DIRECTION ( 'NONE',  ( 1.000000000000000000, 0.000000000000000000, 0.000000000000000000 ) ) ;
#93 = EDGE_LOOP ( 'NONE', ( #833, #571 ) ) ;
#94 = VERTEX_POINT ( 'NONE', #536 ) ;
#95 = FACE_BOUND ( 'NONE', #972, .T. ) ;
#96 = ORIENTED_EDGE ( 'NONE', *, *, #55, .T. ) ;
#97 = ORIENTED_EDGE ( 'NONE', *, *, #162, .T. ) ;
#98 = AXIS2_PLACEMENT_3D ( 'NONE', #1190, #170, #1011 ) ;
#99 = CARTESIAN_POINT ( 'NONE',  ( 3.000000000000001776, 15.00000000000000000, -62.50000000000000000 ) ) ;
#100 = EDGE_CURVE ( 'NONE', #684, #186, #709, .T. ) ;
#101 = VERTEX_POINT ( 'NONE', #990 ) ;
#102 = ORIENTED_EDGE ( 'NONE', *, *, #332, .F. ) ;
#103 = CARTESIAN_POINT ( 'NONE',  ( 7.000000000000001776, -5.000000000000000888, 75.00000000000000000 ) ) ;
#104 = AXIS2_PLACEMENT_3D ( 'NONE', #781, #247, #505 ) ;
#105 = DIRECTION ( 'NONE',  ( 1.000000000000000000, -0.000000000000000000, -0.000000000000000000 ) ) ;
#106 = PRODUCT_DEFINITION_FORMATION_WITH_SPECIFIED_SOURCE ( 'ANY', '', #374, .NOT_KNOWN. ) ;
#107 = ADVANCED_FACE ( 'NONE', ( #899 ), #810, .F. ) ;
#108 = ORIENTED_EDGE ( 'NONE', *, *, #1203, .T. ) ;
#109 = CARTESIAN_POINT ( 'NONE',  ( 0.4999999999999987232, -14.99999999999999822, 64.99999999999997158 ) ) ;
#110 = CARTESIAN_POINT ( 'NONE',  ( 3.000000000000001776, 15.00000000000000000, 67.49999999999998579 ) ) ;
#111 = AXIS2_PLACEMENT_3D ( 'NONE', #286, #1194, #449 ) ;
#112 = EDGE_CURVE ( 'NONE', #1125, #768, #987, .T. ) ;
#113 = ORIENTED_EDGE ( 'NONE', *, *, #306, .T. ) ;
#114 = DIRECTION ( 'NONE',  ( -0.000000000000000000, 1.000000000000000000, -0.000000000000000000 ) ) ;
#115 = LINE ( 'NONE', #414, #450 ) ;
#116 = FACE_BOUND ( 'NONE', #93, .T. ) ;
#117 = AXIS2_PLACEMENT_3D ( 'NONE', #1004, #1107, #734 ) ;
#118 = ORIENTED_EDGE ( 'NONE', *, *, #1197, .T. ) ;
#119 = ORIENTED_EDGE ( 'NONE', *, *, #315, .T. ) ;
#120 = FACE_OUTER_BOUND ( 'NONE', #130, .T. ) ;
#121 = CARTESIAN_POINT ( 'NONE',  ( 7.000000000000000888, -20.00000000000000000, 75.00000000000000000 ) ) ;
#122 = PRODUCT_DEFINITION ( 'UNKNOWN', '', #106, #693 ) ;
#123 = VECTOR ( 'NONE', #225, 1000.000000000000000 ) ;
#124 = CYLINDRICAL_SURFACE ( 'NONE', #366, 2.500000000000002220 ) ;
#125 = VECTOR ( 'NONE', #464, 1000.000000000000000 ) ;
#126 =( GEOMETRIC_REPRESENTATION_CONTEXT ( 3 ) GLOBAL_UNCERTAINTY_ASSIGNED_CONTEXT ( ( #1152 ) ) GLOBAL_UNIT_ASSIGNED_CONTEXT ( ( #526, #907, #49 ) ) REPRESENTATION_CONTEXT ( 'NONE', 'WORKASPACE' ) );
#127 = VECTOR ( 'NONE', #690, 1000.000000000000000 ) ;
#128 = CARTESIAN_POINT ( 'NONE',  ( 3.000000000000001776, -25.00000000000000000, 75.00000000000000000 ) ) ;
#129 = ORIENTED_EDGE ( 'NONE', *, *, #395, .T. ) ;
#130 = EDGE_LOOP ( 'NONE', ( #606, #736, #325, #118 ) ) ;
#131 = CARTESIAN_POINT ( 'NONE',  ( 10.00000000000000533, 10.00000000000000000, 75.00000000000000000 ) ) ;
#132 = DIRECTION ( 'NONE',  ( -0.000000000000000000, -0.000000000000000000, -1.000000000000000000 ) ) ;
#133 = EDGE_CURVE ( 'NONE', #1054, #3, #825, .T. ) ;
#134 = APPLICATION_CONTEXT ( 'automotive_design' ) ;
#135 = ORIENTED_EDGE ( 'NONE', *, *, #814, .T. ) ;
#136 = CARTESIAN_POINT ( 'NONE',  ( 3.000000000000001776, -14.99999999999999822, 62.49999999999997868 ) ) ;
#137 = DIRECTION ( 'NONE',  ( 0.000000000000000000, 0.000000000000000000, -1.000000000000000000 ) ) ;
#138 = VECTOR ( 'NONE', #57, 1000.000000000000000 ) ;
#139 = LINE ( 'NONE', #700, #503 ) ;
#140 = ORIENTED_EDGE ( 'NONE', *, *, #857, .F. ) ;
#141 = DIRECTION ( 'NONE',  ( -0.000000000000000000, -0.000000000000000000, -1.000000000000000000 ) ) ;
#142 = SURFACE_STYLE_USAGE ( .BOTH. , #978 ) ;
#143 = ORIENTED_EDGE ( 'NONE', *, *, #11, .F. ) ;
#144 = CARTESIAN_POINT ( 'NONE',  ( 3.000000000000001776, -5.000000000000000888, 75.00000000000000000 ) ) ;
#145 = FACE_OUTER_BOUND ( 'NONE', #939, .T. ) ;
#146 = EDGE_CURVE ( 'NONE', #1151, #697, #67, .T. ) ;
#147 = EDGE_LOOP ( 'NONE', ( #862, #889, #50, #879 ) ) ;
#148 = AXIS2_PLACEMENT_3D ( 'NONE', #328, #58, #521 ) ;
#149 = DIRECTION ( 'NONE',  ( 0.000000000000000000, 0.000000000000000000, -1.000000000000000000 ) ) ;
#150 = LINE ( 'NONE', #813, #933 ) ;
#151 = VERTEX_POINT ( 'NONE', #542 ) ;
#152 = CARTESIAN_POINT ( 'NONE',  ( 3.000000000000001776, 15.00000000000000000, 64.99999999999998579 ) ) ;
#153 = CARTESIAN_POINT ( 'NONE',  ( 3.000000000000001776, -14.99999999999999822, -62.50000000000000000 ) ) ;
#154 = DIRECTION ( 'NONE',  ( 0.000000000000000000, 0.000000000000000000, -1.000000000000000000 ) ) ;
#155 = DIRECTION ( 'NONE',  ( 0.000000000000000000, 0.000000000000000000, -1.000000000000000000 ) ) ;
#156 = DIRECTION ( 'NONE',  ( 0.000000000000000000, 1.000000000000000000, 0.000000000000000000 ) ) ;
#157 = EDGE_LOOP ( 'NONE', ( #20, #751 ) ) ;
#158 = EDGE_CURVE ( 'NONE', #3, #164, #269, .T. ) ;
#159 = LINE ( 'NONE', #806, #568 ) ;
#160 = CARTESIAN_POINT ( 'NONE',  ( 7.000000000000001776, -25.00000000000000000, 75.00000000000000000 ) ) ;
#161 = VECTOR ( 'NONE', #77, 1000.000000000000000 ) ;
#162 = EDGE_CURVE ( 'NONE', #1137, #10, #769, .T. ) ;
#163 = DIRECTION ( 'NONE',  ( -0.000000000000000000, -0.000000000000000000, -1.000000000000000000 ) ) ;
#164 = VERTEX_POINT ( 'NONE', #821 ) ;
#165 = CARTESIAN_POINT ( 'NONE',  ( 10.00000000000000888, -40.00000000000000000, 75.00000000000000000 ) ) ;
#166 = VECTOR ( 'NONE', #1207, 1000.000000000000000 ) ;
#167 = CARTESIAN_POINT ( 'NONE',  ( 7.000000000000001776, -25.00000000000000000, -75.00000000000000000 ) ) ;
#168 = DIRECTION ( 'NONE',  ( 1.734723475976806848E-16, -1.000000000000000000, 0.000000000000000000 ) ) ;
#169 = EDGE_CURVE ( 'NONE', #850, #1115, #376, .T. ) ;
#170 = DIRECTION ( 'NONE',  ( 1.000000000000000000, -0.000000000000000000, -0.000000000000000000 ) ) ;
#171 = ORIENTED_EDGE ( 'NONE', *, *, #786, .T. ) ;
#172 = DIRECTION ( 'NONE',  ( -3.469446951953614189E-16, 1.000000000000000000, 0.000000000000000000 ) ) ;
#173 = AXIS2_PLACEMENT_3D ( 'NONE', #443, #447, #69 ) ;
#174 = LINE ( 'NONE', #187, #509 ) ;
#175 = LINE ( 'NONE', #834, #161 ) ;
#176 = CIRCLE ( 'NONE', #600, 4.999999999999997335 ) ;
#177 = EDGE_CURVE ( 'NONE', #707, #1054, #469, .T. ) ;
#178 = CARTESIAN_POINT ( 'NONE',  ( -1.597501047550178016E-14, 40.00000000000000000, -75.00000000000000000 ) ) ;
#179 = PRODUCT_DEFINITION_SHAPE ( 'NONE', 'NONE',  #122 ) ;
#180 = DIRECTION ( 'NONE',  ( 0.000000000000000000, 0.000000000000000000, -1.000000000000000000 ) ) ;
#181 = ORIENTED_EDGE ( 'NONE', *, *, #66, .F. ) ;
#182 = DIRECTION ( 'NONE',  ( 1.000000000000000000, -0.000000000000000000, -0.000000000000000000 ) ) ;
#183 = AXIS2_PLACEMENT_3D ( 'NONE', #136, #1170, #326 ) ;
#184 = DIRECTION ( 'NONE',  ( 0.000000000000000000, -0.000000000000000000, 1.000000000000000000 ) ) ;
#185 = EDGE_CURVE ( 'NONE', #82, #1131, #849, .T. ) ;
#186 = VERTEX_POINT ( 'NONE', #917 ) ;
#187 = CARTESIAN_POINT ( 'NONE',  ( -1.597501047550178016E-14, 40.00000000000000000, 75.00000000000000000 ) ) ;
#188 = EDGE_LOOP ( 'NONE', ( #322, #992, #417, #529 ) ) ;
#189 = DIRECTION ( 'NONE',  ( 0.000000000000000000, 0.000000000000000000, -1.000000000000000000 ) ) ;
#190 = SHAPE_DEFINITION_REPRESENTATION ( #179, #1128 ) ;
#191 = AXIS2_PLACEMENT_3D ( 'NONE', #252, #337, #1082 ) ;
#192 = ORIENTED_EDGE ( 'NONE', *, *, #1047, .F. ) ;
#193 = VERTEX_POINT ( 'NONE', #178 ) ;
#194 = AXIS2_PLACEMENT_3D ( 'NONE', #1098, #1180, #631 ) ;
#195 = AXIS2_PLACEMENT_3D ( 'NONE', #919, #284, #76 ) ;
#196 = AXIS2_PLACEMENT_3D ( 'NONE', #1154, #1065, #229 ) ;
#197 = ORIENTED_EDGE ( 'NONE', *, *, #185, .T. ) ;
#198 = ORIENTED_EDGE ( 'NONE', *, *, #146, .F. ) ;
#199 =( LENGTH_UNIT ( ) NAMED_UNIT ( * ) SI_UNIT ( .MILLI., .METRE. ) );
#200 = EDGE_CURVE ( 'NONE', #226, #1025, #425, .T. ) ;
#201 = VECTOR ( 'NONE', #343, 1000.000000000000000 ) ;
#202 = CARTESIAN_POINT ( 'NONE',  ( 8.517925507445284181E-15, -40.00000000000000000, -75.00000000000000000 ) ) ;
#203 = ORIENTED_EDGE ( 'NONE', *, *, #55, .F. ) ;
#204 = ORIENTED_EDGE ( 'NONE', *, *, #892, .F. ) ;
#205 = DIRECTION ( 'NONE',  ( 0.000000000000000000, -1.000000000000000000, 0.000000000000000000 ) ) ;
#206 = EDGE_CURVE ( 'NONE', #226, #1069, #74, .T. ) ;
#207 = DIRECTION ( 'NONE',  ( -1.000000000000000000, -0.000000000000000000, -0.000000000000000000 ) ) ;
#208 = EDGE_CURVE ( 'NONE', #980, #930, #740, .T. ) ;
#209 = EDGE_LOOP ( 'NONE', ( #390, #204, #792, #842, #965, #37, #617, #848, #1014, #1117, #192, #1038, #491, #1076, #897, #601, #699, #577, #29, #1120 ) ) ;
#210 = ORIENTED_EDGE ( 'NONE', *, *, #991, .F. ) ;
#211 = DIRECTION ( 'NONE',  ( 1.000000000000000000, 1.734723475976807341E-16, -0.000000000000000000 ) ) ;
#212 = DIRECTION ( 'NONE',  ( 1.734723475976806848E-16, 1.000000000000000000, 0.000000000000000000 ) ) ;
#213 = ADVANCED_FACE ( 'NONE', ( #275 ), #836, .F. ) ;
#214 = ORIENTED_EDGE ( 'NONE', *, *, #375, .F. ) ;
#215 = DIRECTION ( 'NONE',  ( -0.000000000000000000, -0.000000000000000000, -1.000000000000000000 ) ) ;
#216 = CARTESIAN_POINT ( 'NONE',  ( 10.00000000000000178, 20.00000000000000000, 75.00000000000000000 ) ) ;
#217 = LINE ( 'NONE', #479, #218 ) ;
#218 = VECTOR ( 'NONE', #1041, 1000.000000000000000 ) ;
#219 = EDGE_CURVE ( 'NONE', #780, #467, #922, .T. ) ;
#220 = ORIENTED_EDGE ( 'NONE', *, *, #169, .T. ) ;
#221 = ORIENTED_EDGE ( 'NONE', *, *, #758, .T. ) ;
#222 = LINE ( 'NONE', #797, #756 ) ;
#223 = PLANE ( 'NONE',  #1031 ) ;
#224 = DIRECTION ( 'NONE',  ( 0.000000000000000000, -0.000000000000000000, 1.000000000000000000 ) ) ;
#225 = DIRECTION ( 'NONE',  ( 1.000000000000000000, -0.000000000000000000, -0.000000000000000000 ) ) ;
#226 = VERTEX_POINT ( 'NONE', #830 ) ;
#227 = ORIENTED_EDGE ( 'NONE', *, *, #936, .F. ) ;
#228 = CARTESIAN_POINT ( 'NONE',  ( 3.000000000000001776, 5.000000000000000888, -75.00000000000000000 ) ) ;
#229 = DIRECTION ( 'NONE',  ( 0.000000000000000000, 0.000000000000000000, 1.000000000000000000 ) ) ;
#230 = VECTOR ( 'NONE', #807, 1000.000000000000000 ) ;
#231 = ORIENTED_EDGE ( 'NONE', *, *, #743, .F. ) ;
#232 = FACE_OUTER_BOUND ( 'NONE', #586, .T. ) ;
#233 = CONICAL_SURFACE ( 'NONE', #705, 4.999999999999997335, 0.7853981633974481680 ) ;
#234 = CARTESIAN_POINT ( 'NONE',  ( 0.4999999999999987232, -14.99999999999999822, -62.50000000000000000 ) ) ;
#235 = AXIS2_PLACEMENT_3D ( 'NONE', #466, #565, #1019 ) ;
#236 = VECTOR ( 'NONE', #902, 1000.000000000000000 ) ;
#237 = DIRECTION ( 'NONE',  ( 0.000000000000000000, 0.000000000000000000, -1.000000000000000000 ) ) ;
#238 = ORIENTED_EDGE ( 'NONE', *, *, #840, .T. ) ;
#239 = CARTESIAN_POINT ( 'NONE',  ( 3.000000000000001776, -14.99999999999999822, 62.49999999999997868 ) ) ;
#240 = DIRECTION ( 'NONE',  ( 1.000000000000000000, -0.000000000000000000, -0.000000000000000000 ) ) ;
#241 = EDGE_CURVE ( 'NONE', #87, #382, #282, .T. ) ;
#242 = VERTEX_POINT ( 'NONE', #1084 ) ;
#243 = DIRECTION ( 'NONE',  ( 0.7071067811865476838, 0.000000000000000000, -0.7071067811865474617 ) ) ;
#244 = ORIENTED_EDGE ( 'NONE', *, *, #827, .T. ) ;
#245 = VECTOR ( 'NONE', #672, 1000.000000000000000 ) ;
#246 = EDGE_LOOP ( 'NONE', ( #143, #221, #1053, #412 ) ) ;
#247 = DIRECTION ( 'NONE',  ( 1.000000000000000000, -0.000000000000000000, -0.000000000000000000 ) ) ;
#248 = CARTESIAN_POINT ( 'NONE',  ( 3.000000000000001776, -14.99999999999999822, -67.50000000000000000 ) ) ;
#249 = VERTEX_POINT ( 'NONE', #256 ) ;
#250 = DIRECTION ( 'NONE',  ( -1.000000000000000000, -3.469446951953614189E-16, 0.000000000000000000 ) ) ;
#251 = ADVANCED_FACE ( 'NONE', ( #626 ), #1089, .F. ) ;
#252 = CARTESIAN_POINT ( 'NONE',  ( 0.4999999999999987232, 15.00000000000000000, -62.50000000000000000 ) ) ;
#253 = EDGE_CURVE ( 'NONE', #1088, #378, #641, .T. ) ;
#254 = PLANE ( 'NONE',  #389 ) ;
#255 = ORIENTED_EDGE ( 'NONE', *, *, #375, .T. ) ;
#256 = CARTESIAN_POINT ( 'NONE',  ( 7.000000000000001776, -25.00000000000000000, 75.00000000000000000 ) ) ;
#257 = DIRECTION ( 'NONE',  ( 1.000000000000000000, 1.734723475976806848E-16, -0.000000000000000000 ) ) ;
#258 = CARTESIAN_POINT ( 'NONE',  ( 0.000000000000000000, 0.000000000000000000, -75.00000000000000000 ) ) ;
#259 = ADVANCED_FACE ( 'NONE', ( #993 ), #1090, .F. ) ;
#260 = AXIS2_PLACEMENT_3D ( 'NONE', #239, #694, #602 ) ;
#261 = EDGE_CURVE ( 'NONE', #1109, #446, #737, .T. ) ;
#262 = ORIENTED_EDGE ( 'NONE', *, *, #1126, .T. ) ;
#263 = DIRECTION ( 'NONE',  ( -1.000000000000000000, 0.000000000000000000, 0.000000000000000000 ) ) ;
#264 = FACE_OUTER_BOUND ( 'NONE', #563, .T. ) ;
#265 = CARTESIAN_POINT ( 'NONE',  ( -1.561251128379126385E-14, -14.99999999999999822, -62.50000000000000000 ) ) ;
#266 = CARTESIAN_POINT ( 'NONE',  ( 8.517925507445284181E-15, -40.00000000000000000, 75.00000000000000000 ) ) ;
#267 = SURFACE_STYLE_FILL_AREA ( #725 ) ;
#268 = CARTESIAN_POINT ( 'NONE',  ( 3.000000000000001776, -14.99999999999999822, -57.50000000000000000 ) ) ;
#269 = LINE ( 'NONE', #1112, #791 ) ;
#270 = APPLICATION_CONTEXT ( 'automotive_design' ) ;
#271 = LINE ( 'NONE', #454, #820 ) ;
#272 = VECTOR ( 'NONE', #451, 1000.000000000000000 ) ;
#273 = CARTESIAN_POINT ( 'NONE',  ( 3.000000000000001776, 15.00000000000000000, 67.49999999999998579 ) ) ;
#274 = DIRECTION ( 'NONE',  ( 1.000000000000000000, -0.000000000000000000, -0.000000000000000000 ) ) ;
#275 = FACE_OUTER_BOUND ( 'NONE', #763, .T. ) ;
#276 = VERTEX_POINT ( 'NONE', #997 ) ;
#277 = AXIS2_PLACEMENT_3D ( 'NONE', #1153, #618, #30 ) ;
#278 = DIRECTION ( 'NONE',  ( 1.000000000000000000, -0.000000000000000000, -0.000000000000000000 ) ) ;
#279 = CARTESIAN_POINT ( 'NONE',  ( -1.597501047550178016E-14, 40.00000000000000000, 75.00000000000000000 ) ) ;
#280 = DIRECTION ( 'NONE',  ( 1.000000000000000000, 0.000000000000000000, 0.000000000000000000 ) ) ;
#281 = EDGE_CURVE ( 'NONE', #524, #715, #159, .T. ) ;
#282 = LINE ( 'NONE', #561, #800 ) ;
#283 = EDGE_LOOP ( 'NONE', ( #668, #760, #300, #405 ) ) ;
#284 = DIRECTION ( 'NONE',  ( 1.000000000000000000, -0.000000000000000000, -0.000000000000000000 ) ) ;
#285 = ORIENTED_EDGE ( 'NONE', *, *, #208, .F. ) ;
#286 = CARTESIAN_POINT ( 'NONE',  ( 0.4999999999999987232, -14.99999999999999822, 62.49999999999997868 ) ) ;
#287 = CONICAL_SURFACE ( 'NONE', #183, 4.999999999999997335, 0.7853981633974473908 ) ;
#288 = CARTESIAN_POINT ( 'NONE',  ( 3.000000000000001776, -25.00000000000000000, 75.00000000000000000 ) ) ;
#289 = ADVANCED_FACE ( 'NONE', ( #64 ), #543, .F. ) ;
#290 = ORIENTED_EDGE ( 'NONE', *, *, #845, .F. ) ;
#291 = ORIENTED_EDGE ( 'NONE', *, *, #630, .F. ) ;
#292 = EDGE_CURVE ( 'NONE', #620, #722, #271, .T. ) ;
#293 = ORIENTED_EDGE ( 'NONE', *, *, #1111, .T. ) ;
#294 = VECTOR ( 'NONE', #1045, 1000.000000000000000 ) ;
#295 = EDGE_CURVE ( 'NONE', #1025, #226, #646, .T. ) ;
#296 = ORIENTED_EDGE ( 'NONE', *, *, #177, .T. ) ;
#297 = AXIS2_PLACEMENT_3D ( 'NONE', #1001, #822, #724 ) ;
#298 = VECTOR ( 'NONE', #687, 1000.000000000000000 ) ;
#299 = PLANE ( 'NONE',  #345 ) ;
#300 = ORIENTED_EDGE ( 'NONE', *, *, #206, .T. ) ;
#301 = ORIENTED_EDGE ( 'NONE', *, *, #177, .F. ) ;
#302 = CIRCLE ( 'NONE', #955, 2.500000000000002220 ) ;
#303 = LINE ( 'NONE', #846, #245 ) ;
#304 = VERTEX_POINT ( 'NONE', #817 ) ;
#305 = ORIENTED_EDGE ( 'NONE', *, *, #845, .T. ) ;
#306 = EDGE_CURVE ( 'NONE', #697, #304, #1184, .T. ) ;
#307 = FACE_OUTER_BOUND ( 'NONE', #387, .T. ) ;
#308 = VECTOR ( 'NONE', #163, 1000.000000000000000 ) ;
#309 = CARTESIAN_POINT ( 'NONE',  ( 7.000000000000001776, -5.000000000000000888, 75.00000000000000000 ) ) ;
#310 = ORIENTED_EDGE ( 'NONE', *, *, #402, .F. ) ;
#311 = DIRECTION ( 'NONE',  ( 0.7071067811865476838, 8.659560562354931626E-17, 0.7071067811865474617 ) ) ;
#312 = CARTESIAN_POINT ( 'NONE',  ( 8.517925507445284181E-15, -40.00000000000000000, -75.00000000000000000 ) ) ;
#313 = AXIS2_PLACEMENT_3D ( 'NONE', #961, #1063, #39 ) ;
#314 = CARTESIAN_POINT ( 'NONE',  ( 7.000000000000002665, -10.00000000000000000, 75.00000000000000000 ) ) ;
#315 = EDGE_CURVE ( 'NONE', #959, #950, #1094, .T. ) ;
#316 = VERTEX_POINT ( 'NONE', #634 ) ;
#317 = ORIENTED_EDGE ( 'NONE', *, *, #835, .F. ) ;
#318 = LINE ( 'NONE', #406, #677 ) ;
#319 = DIRECTION ( 'NONE',  ( 0.000000000000000000, -0.000000000000000000, -1.000000000000000000 ) ) ;
#320 = DIRECTION ( 'NONE',  ( 0.000000000000000000, 0.000000000000000000, 1.000000000000000000 ) ) ;
#321 = VERTEX_POINT ( 'NONE', #353 ) ;
#322 = ORIENTED_EDGE ( 'NONE', *, *, #758, .F. ) ;
#323 = DIRECTION ( 'NONE',  ( 1.000000000000000000, -0.000000000000000000, -0.000000000000000000 ) ) ;
#324 = CARTESIAN_POINT ( 'NONE',  ( 3.000000000000001776, 5.000000000000000888, 75.00000000000000000 ) ) ;
#325 = ORIENTED_EDGE ( 'NONE', *, *, #133, .F. ) ;
#326 = DIRECTION ( 'NONE',  ( 0.000000000000000000, 0.000000000000000000, -1.000000000000000000 ) ) ;
#327 = VECTOR ( 'NONE', #623, 1000.000000000000000 ) ;
#328 = CARTESIAN_POINT ( 'NONE',  ( 3.000000000000001776, 15.00000000000000000, 62.49999999999999289 ) ) ;
#329 = FACE_OUTER_BOUND ( 'NONE', #574, .T. ) ;
#330 = ORIENTED_EDGE ( 'NONE', *, *, #22, .F. ) ;
#331 = CARTESIAN_POINT ( 'NONE',  ( 3.000000000000001776, 15.00000000000000000, 62.49999999999999289 ) ) ;
#332 = EDGE_CURVE ( 'NONE', #566, #75, #853, .T. ) ;
#333 = LINE ( 'NONE', #782, #727 ) ;
#334 = ORIENTED_EDGE ( 'NONE', *, *, #206, .F. ) ;
#335 = CARTESIAN_POINT ( 'NONE',  ( 10.00000000000000888, -40.00000000000000000, 75.00000000000000000 ) ) ;
#336 = AXIS2_PLACEMENT_3D ( 'NONE', #1159, #775, #1167 ) ;
#337 = DIRECTION ( 'NONE',  ( 1.000000000000000000, -0.000000000000000000, -0.000000000000000000 ) ) ;
#338 = ORIENTED_EDGE ( 'NONE', *, *, #306, .F. ) ;
#339 = CARTESIAN_POINT ( 'NONE',  ( 7.000000000000002665, -10.00000000000000000, 75.00000000000000000 ) ) ;
#340 = DIRECTION ( 'NONE',  ( -1.734723475976806848E-16, 1.000000000000000000, 0.000000000000000000 ) ) ;
#341 = ADVANCED_FACE ( 'NONE', ( #552, #1192, #347, #720, #1056 ), #1145, .F. ) ;
#342 = EDGE_LOOP ( 'NONE', ( #7, #811, #647, #1037 ) ) ;
#343 = DIRECTION ( 'NONE',  ( 1.734723475976807341E-16, -1.000000000000000000, 0.000000000000000000 ) ) ;
#344 = CARTESIAN_POINT ( 'NONE',  ( 7.000000000000002665, -10.00000000000000000, 75.00000000000000000 ) ) ;
#345 = AXIS2_PLACEMENT_3D ( 'NONE', #777, #1147, #320 ) ;
#346 = ORIENTED_EDGE ( 'NONE', *, *, #936, .T. ) ;
#347 = FACE_BOUND ( 'NONE', #943, .T. ) ;
#348 = DIRECTION ( 'NONE',  ( 1.000000000000000000, -0.000000000000000000, -0.000000000000000000 ) ) ;
#349 = ADVANCED_FACE ( 'NONE', ( #516 ), #1142, .F. ) ;
#350 = CARTESIAN_POINT ( 'NONE',  ( 10.00000000000000533, -10.00000000000000000, 75.00000000000000000 ) ) ;
#351 = FACE_OUTER_BOUND ( 'NONE', #518, .T. ) ;
#352 = ORIENTED_EDGE ( 'NONE', *, *, #80, .F. ) ;
#353 = CARTESIAN_POINT ( 'NONE',  ( 7.000000000000000888, -20.00000000000000000, 75.00000000000000000 ) ) ;
#354 = VECTOR ( 'NONE', #462, 1000.000000000000000 ) ;
#355 = PLANE ( 'NONE',  #371 ) ;
#356 = EDGE_CURVE ( 'NONE', #420, #164, #222, .T. ) ;
#357 = VECTOR ( 'NONE', #92, 1000.000000000000000 ) ;
#358 = VECTOR ( 'NONE', #1100, 1000.000000000000000 ) ;
#359 = EDGE_LOOP ( 'NONE', ( #592, #1062, #181, #852 ) ) ;
#360 = CARTESIAN_POINT ( 'NONE',  ( 7.000000000000001776, -25.00000000000000000, -75.00000000000000000 ) ) ;
#361 = DIRECTION ( 'NONE',  ( 0.000000000000000000, 0.000000000000000000, -1.000000000000000000 ) ) ;
#362 = CARTESIAN_POINT ( 'NONE',  ( 3.000000000000001776, 15.00000000000000000, 62.49999999999999289 ) ) ;
#363 = DIRECTION ( 'NONE',  ( -0.000000000000000000, -0.000000000000000000, -1.000000000000000000 ) ) ;
#364 = ADVANCED_FACE ( 'NONE', ( #703 ), #233, .F. ) ;
#365 = ORIENTED_EDGE ( 'NONE', *, *, #644, .T. ) ;
#366 = AXIS2_PLACEMENT_3D ( 'NONE', #890, #528, #989 ) ;
#367 = CARTESIAN_POINT ( 'NONE',  ( -1.561251128379126385E-14, -14.99999999999999822, 62.49999999999997868 ) ) ;
#368 = DIRECTION ( 'NONE',  ( -0.000000000000000000, -0.000000000000000000, -1.000000000000000000 ) ) ;
#369 = CARTESIAN_POINT ( 'NONE',  ( 3.000000000000001776, -14.99999999999999822, 62.49999999999997868 ) ) ;
#370 = CARTESIAN_POINT ( 'NONE',  ( 3.000000000000001776, -14.99999999999999822, 59.99999999999997868 ) ) ;
#371 = AXIS2_PLACEMENT_3D ( 'NONE', #728, #156, #434 ) ;
#372 = CARTESIAN_POINT ( 'NONE',  ( 3.000000000000001776, -25.00000000000000000, 75.00000000000000000 ) ) ;
#373 = LINE ( 'NONE', #1015, #809 ) ;
#374 = PRODUCT ( 'PRT-13', 'PRT-13', '', ( #1206 ) ) ;
#375 = EDGE_CURVE ( 'NONE', #316, #578, #91, .T. ) ;
#376 = LINE ( 'NONE', #86, #166 ) ;
#377 = DIRECTION ( 'NONE',  ( 1.000000000000000000, 0.000000000000000000, 0.000000000000000000 ) ) ;
#378 = VERTEX_POINT ( 'NONE', #594 ) ;
#379 = DIRECTION ( 'NONE',  ( -1.000000000000000000, 0.000000000000000000, 0.000000000000000000 ) ) ;
#380 = CARTESIAN_POINT ( 'NONE',  ( 7.000000000000001776, 5.000000000000000888, -75.00000000000000000 ) ) ;
#381 = ORIENTED_EDGE ( 'NONE', *, *, #835, .T. ) ;
#382 = VERTEX_POINT ( 'NONE', #977 ) ;
#383 = CARTESIAN_POINT ( 'NONE',  ( 7.000000000000001776, 25.00000000000000000, 75.00000000000000000 ) ) ;
#384 = VECTOR ( 'NONE', #5, 1000.000000000000000 ) ;
#385 = EDGE_CURVE ( 'NONE', #484, #87, #610, .T. ) ;
#386 = ORIENTED_EDGE ( 'NONE', *, *, #90, .T. ) ;
#387 = EDGE_LOOP ( 'NONE', ( #480, #837, #473, #905 ) ) ;
#388 = LINE ( 'NONE', #973, #2 ) ;
#389 = AXIS2_PLACEMENT_3D ( 'NONE', #855, #401, #770 ) ;
#390 = ORIENTED_EDGE ( 'NONE', *, *, #998, .F. ) ;
#391 = VECTOR ( 'NONE', #323, 1000.000000000000000 ) ;
#392 = VECTOR ( 'NONE', #739, 1000.000000000000000 ) ;
#393 = CARTESIAN_POINT ( 'NONE',  ( 7.000000000000000888, 20.00000000000000000, 75.00000000000000000 ) ) ;
#394 = ORIENTED_EDGE ( 'NONE', *, *, #657, .F. ) ;
#395 = EDGE_CURVE ( 'NONE', #249, #1151, #318, .T. ) ;
#396 = EDGE_LOOP ( 'NONE', ( #4, #625, #317, #476 ) ) ;
#397 = LINE ( 'NONE', #23, #1091 ) ;
#398 = AXIS2_PLACEMENT_3D ( 'NONE', #585, #18, #1058 ) ;
#399 = FACE_OUTER_BOUND ( 'NONE', #396, .T. ) ;
#400 = ORIENTED_EDGE ( 'NONE', *, *, #169, .F. ) ;
#401 = DIRECTION ( 'NONE',  ( -1.000000000000000000, -8.673617379884035472E-16, 0.000000000000000000 ) ) ;
#402 = EDGE_CURVE ( 'NONE', #524, #1119, #508, .T. ) ;
#403 = FACE_OUTER_BOUND ( 'NONE', #359, .T. ) ;
#404 = EDGE_LOOP ( 'NONE', ( #400, #203, #882, #938 ) ) ;
#405 = ORIENTED_EDGE ( 'NONE', *, *, #798, .T. ) ;
#406 = CARTESIAN_POINT ( 'NONE',  ( 7.000000000000001776, -25.00000000000000000, 75.00000000000000000 ) ) ;
#407 = LINE ( 'NONE', #776, #298 ) ;
#408 = VECTOR ( 'NONE', #172, 1000.000000000000000 ) ;
#409 = AXIS2_PLACEMENT_3D ( 'NONE', #1168, #257, #340 ) ;
#410 = FACE_OUTER_BOUND ( 'NONE', #1143, .T. ) ;
#411 = ORIENTED_EDGE ( 'NONE', *, *, #1064, .F. ) ;
#412 = ORIENTED_EDGE ( 'NONE', *, *, #506, .F. ) ;
#413 = DIRECTION ( 'NONE',  ( -0.000000000000000000, -0.000000000000000000, -1.000000000000000000 ) ) ;
#414 = CARTESIAN_POINT ( 'NONE',  ( 10.00000000000000888, -40.00000000000000000, -75.00000000000000000 ) ) ;
#415 = ORIENTED_EDGE ( 'NONE', *, *, #1026, .T. ) ;
#416 = DIRECTION ( 'NONE',  ( -0.000000000000000000, -0.000000000000000000, -1.000000000000000000 ) ) ;
#417 = ORIENTED_EDGE ( 'NONE', *, *, #506, .T. ) ;
#418 = EDGE_CURVE ( 'NONE', #1025, #1012, #686, .T. ) ;
#419 = LINE ( 'NONE', #513, #123 ) ;
#420 = VERTEX_POINT ( 'NONE', #228 ) ;
#421 = CARTESIAN_POINT ( 'NONE',  ( 3.000000000000001776, -25.00000000000000000, -75.00000000000000000 ) ) ;
#422 = CARTESIAN_POINT ( 'NONE',  ( -1.597501047550178016E-14, 40.00000000000000000, -75.00000000000000000 ) ) ;
#423 = ORIENTED_EDGE ( 'NONE', *, *, #764, .T. ) ;
#424 = DIRECTION ( 'NONE',  ( 1.000000000000000000, -0.000000000000000000, -0.000000000000000000 ) ) ;
#425 = CIRCLE ( 'NONE', #932, 2.500000000000002220 ) ;
#426 = CARTESIAN_POINT ( 'NONE',  ( 0.000000000000000000, 0.000000000000000000, 75.00000000000000000 ) ) ;
#427 = DIRECTION ( 'NONE',  ( -0.000000000000000000, -0.000000000000000000, -1.000000000000000000 ) ) ;
#428 = ORIENTED_EDGE ( 'NONE', *, *, #748, .F. ) ;
#429 = LINE ( 'NONE', #985, #966 ) ;
#430 = ADVANCED_FACE ( 'NONE', ( #1071 ), #994, .F. ) ;
#431 = DIRECTION ( 'NONE',  ( 1.000000000000000000, -0.000000000000000000, -0.000000000000000000 ) ) ;
#432 = EDGE_LOOP ( 'NONE', ( #210, #1018, #731, #1080 ) ) ;
#433 = CARTESIAN_POINT ( 'NONE',  ( -1.561251128379126385E-14, 15.00000000000000000, 62.49999999999999289 ) ) ;
#434 = DIRECTION ( 'NONE',  ( 0.000000000000000000, -0.000000000000000000, 1.000000000000000000 ) ) ;
#435 = VERTEX_POINT ( 'NONE', #131 ) ;
#436 = EDGE_CURVE ( 'NONE', #249, #1109, #429, .T. ) ;
#437 = FACE_BOUND ( 'NONE', #88, .T. ) ;
#438 = CARTESIAN_POINT ( 'NONE',  ( 10.00000000000000533, 10.00000000000000000, -75.00000000000000000 ) ) ;
#439 = CARTESIAN_POINT ( 'NONE',  ( 10.00000000000000178, 20.00000000000000000, -75.00000000000000000 ) ) ;
#440 = FACE_OUTER_BOUND ( 'NONE', #1097, .T. ) ;
#441 = VECTOR ( 'NONE', #1188, 1000.000000000000000 ) ;
#442 = VERTEX_POINT ( 'NONE', #789 ) ;
#443 = CARTESIAN_POINT ( 'NONE',  ( 10.00000000000000178, 20.00000000000000000, 75.00000000000000000 ) ) ;
#444 = FILL_AREA_STYLE_COLOUR ( '', #604 ) ;
#445 = EDGE_CURVE ( 'NONE', #1073, #1115, #663, .T. ) ;
#446 = VERTEX_POINT ( 'NONE', #421 ) ;
#447 = DIRECTION ( 'NONE',  ( 0.000000000000000000, 1.000000000000000000, -0.000000000000000000 ) ) ;
#448 = PRESENTATION_STYLE_ASSIGNMENT (( #142 ) ) ;
#449 = DIRECTION ( 'NONE',  ( 0.000000000000000000, 0.000000000000000000, -1.000000000000000000 ) ) ;
#450 = VECTOR ( 'NONE', #865, 1000.000000000000000 ) ;
#451 = DIRECTION ( 'NONE',  ( -1.000000000000000000, -0.000000000000000000, -0.000000000000000000 ) ) ;
#452 = VECTOR ( 'NONE', #311, 1000.000000000000000 ) ;
#453 = AXIS2_PLACEMENT_3D ( 'NONE', #13, #500, #957 ) ;
#454 = CARTESIAN_POINT ( 'NONE',  ( 7.000000000000002665, -10.00000000000000000, -75.00000000000000000 ) ) ;
#455 = FACE_OUTER_BOUND ( 'NONE', #404, .T. ) ;
#456 = LINE ( 'NONE', #747, #78 ) ;
#457 = DIRECTION ( 'NONE',  ( 0.000000000000000000, 1.000000000000000000, 0.000000000000000000 ) ) ;
#458 = ADVANCED_FACE ( 'NONE', ( #437, #499, #120 ), #21, .F. ) ;
#459 = ORIENTED_EDGE ( 'NONE', *, *, #80, .T. ) ;
#460 = AXIS2_PLACEMENT_3D ( 'NONE', #433, #698, #898 ) ;
#461 = DIRECTION ( 'NONE',  ( 3.061616997868382648E-16, -1.000000000000000000, 0.000000000000000000 ) ) ;
#462 = DIRECTION ( 'NONE',  ( 1.000000000000000000, -0.000000000000000000, -0.000000000000000000 ) ) ;
#463 = CARTESIAN_POINT ( 'NONE',  ( 0.000000000000000000, 0.000000000000000000, 0.000000000000000000 ) ) ;
#464 = DIRECTION ( 'NONE',  ( -1.734723475976807341E-16, -1.000000000000000000, -0.000000000000000000 ) ) ;
#465 = AXIS2_PLACEMENT_3D ( 'NONE', #265, #1092, #982 ) ;
#466 = CARTESIAN_POINT ( 'NONE',  ( 3.000000000000001776, -14.99999999999999822, 62.49999999999997868 ) ) ;
#467 = VERTEX_POINT ( 'NONE', #864 ) ;
#468 = LINE ( 'NONE', #1205, #570 ) ;
#469 = LINE ( 'NONE', #909, #272 ) ;
#470 = VERTEX_POINT ( 'NONE', #339 ) ;
#471 = AXIS2_PLACEMENT_3D ( 'NONE', #645, #555, #184 ) ;
#472 = EDGE_CURVE ( 'NONE', #988, #1131, #712, .T. ) ;
#473 = ORIENTED_EDGE ( 'NONE', *, *, #786, .F. ) ;
#474 = CARTESIAN_POINT ( 'NONE',  ( 7.000000000000002665, 10.00000000000000000, -75.00000000000000000 ) ) ;
#475 = EDGE_CURVE ( 'NONE', #980, #684, #679, .T. ) ;
#476 = ORIENTED_EDGE ( 'NONE', *, *, #385, .T. ) ;
#477 = ORIENTED_EDGE ( 'NONE', *, *, #885, .F. ) ;
#478 = EDGE_CURVE ( 'NONE', #378, #321, #587, .T. ) ;
#479 = CARTESIAN_POINT ( 'NONE',  ( 7.000000000000000888, -20.00000000000000000, 75.00000000000000000 ) ) ;
#480 = ORIENTED_EDGE ( 'NONE', *, *, #637, .T. ) ;
#481 = ORIENTED_EDGE ( 'NONE', *, *, #281, .F. ) ;
#482 = DIRECTION ( 'NONE',  ( 0.000000000000000000, 0.000000000000000000, -1.000000000000000000 ) ) ;
#483 = ADVANCED_FACE ( 'NONE', ( #867 ), #1035, .F. ) ;
#484 = VERTEX_POINT ( 'NONE', #681 ) ;
#485 = ORIENTED_EDGE ( 'NONE', *, *, #385, .F. ) ;
#486 = VECTOR ( 'NONE', #79, 1000.000000000000000 ) ;
#487 = DIRECTION ( 'NONE',  ( 0.000000000000000000, -0.000000000000000000, -1.000000000000000000 ) ) ;
#488 = DIRECTION ( 'NONE',  ( 0.000000000000000000, 0.000000000000000000, -1.000000000000000000 ) ) ;
#489 = AXIS2_PLACEMENT_3D ( 'NONE', #463, #940, #280 ) ;
#490 = ADVANCED_FACE ( 'NONE', ( #1046 ), #947, .F. ) ;
#491 = ORIENTED_EDGE ( 'NONE', *, *, #637, .F. ) ;
#492 = FACE_OUTER_BOUND ( 'NONE', #583, .T. ) ;
#493 = VECTOR ( 'NONE', #416, 1000.000000000000000 ) ;
#494 = CARTESIAN_POINT ( 'NONE',  ( 3.000000000000001776, -25.00000000000000000, -75.00000000000000000 ) ) ;
#495 = EDGE_LOOP ( 'NONE', ( #32, #662, #527, #255 ) ) ;
#496 = ORIENTED_EDGE ( 'NONE', *, *, #857, .T. ) ;
#497 = EDGE_CURVE ( 'NONE', #321, #94, #217, .T. ) ;
#498 = UNCERTAINTY_MEASURE_WITH_UNIT (LENGTH_MEASURE( 1.000000000000000082E-05 ), #199, 'distance_accuracy_value', 'NONE');
#499 = FACE_BOUND ( 'NONE', #157, .T. ) ;
#500 = DIRECTION ( 'NONE',  ( 0.000000000000000000, -1.000000000000000000, 0.000000000000000000 ) ) ;
#501 = DIRECTION ( 'NONE',  ( 1.000000000000000000, -0.000000000000000000, -0.000000000000000000 ) ) ;
#502 = ORIENTED_EDGE ( 'NONE', *, *, #651, .F. ) ;
#503 = VECTOR ( 'NONE', #1156, 1000.000000000000000 ) ;
#504 = EDGE_LOOP ( 'NONE', ( #102, #854, #1144, #140 ) ) ;
#505 = DIRECTION ( 'NONE',  ( 0.000000000000000000, 0.000000000000000000, -1.000000000000000000 ) ) ;
#506 = EDGE_CURVE ( 'NONE', #1073, #1125, #303, .T. ) ;
#507 = LINE ( 'NONE', #1146, #546 ) ;
#508 = CIRCLE ( 'NONE', #313, 2.500000000000002220 ) ;
#509 = VECTOR ( 'NONE', #461, 1000.000000000000000 ) ;
#510 = EDGE_CURVE ( 'NONE', #950, #674, #851, .T. ) ;
#511 = ORIENTED_EDGE ( 'NONE', *, *, #1176, .T. ) ;
#512 = LINE ( 'NONE', #152, #859 ) ;
#513 = CARTESIAN_POINT ( 'NONE',  ( 3.000000000000001776, -14.99999999999999822, -65.00000000000000000 ) ) ;
#514 = EDGE_LOOP ( 'NONE', ( #752, #613, #38, #28 ) ) ;
#515 = ORIENTED_EDGE ( 'NONE', *, *, #743, .T. ) ;
#516 = FACE_OUTER_BOUND ( 'NONE', #655, .T. ) ;
#517 = DIRECTION ( 'NONE',  ( 0.7071067811865482389, 8.659560562354925463E-17, 0.7071067811865469066 ) ) ;
#518 = EDGE_LOOP ( 'NONE', ( #918, #949, #976, #459 ) ) ;
#519 = LINE ( 'NONE', #963, #735 ) ;
#520 = AXIS2_PLACEMENT_3D ( 'NONE', #621, #1162, #614 ) ;
#521 = DIRECTION ( 'NONE',  ( 0.000000000000000000, 0.000000000000000000, -1.000000000000000000 ) ) ;
#522 = DIRECTION ( 'NONE',  ( 1.000000000000000000, -1.734723475976807341E-16, 0.000000000000000000 ) ) ;
#523 = CARTESIAN_POINT ( 'NONE',  ( -1.597501047550178016E-14, 40.00000000000000000, 75.00000000000000000 ) ) ;
#524 = VERTEX_POINT ( 'NONE', #937 ) ;
#525 = CARTESIAN_POINT ( 'NONE',  ( -1.597501047550178016E-14, 40.00000000000000000, 75.00000000000000000 ) ) ;
#526 =( LENGTH_UNIT ( ) NAMED_UNIT ( * ) SI_UNIT ( .MILLI., .METRE. ) );
#527 = ORIENTED_EDGE ( 'NONE', *, *, #575, .T. ) ;
#528 = DIRECTION ( 'NONE',  ( 1.000000000000000000, -0.000000000000000000, -0.000000000000000000 ) ) ;
#529 = ORIENTED_EDGE ( 'NONE', *, *, #112, .T. ) ;
#530 = EDGE_CURVE ( 'NONE', #470, #620, #958, .T. ) ;
#531 = EDGE_LOOP ( 'NONE', ( #411, #220, #1132, #477 ) ) ;
#532 = DIRECTION ( 'NONE',  ( 0.000000000000000000, 0.000000000000000000, -1.000000000000000000 ) ) ;
#533 = CYLINDRICAL_SURFACE ( 'NONE', #551, 2.500000000000002220 ) ;
#534 = ORIENTED_EDGE ( 'NONE', *, *, #766, .T. ) ;
#535 = FACE_OUTER_BOUND ( 'NONE', #432, .T. ) ;
#536 = CARTESIAN_POINT ( 'NONE',  ( 7.000000000000000888, -20.00000000000000000, -75.00000000000000000 ) ) ;
#537 = DIRECTION ( 'NONE',  ( -1.734723475976806848E-16, -1.000000000000000000, -0.000000000000000000 ) ) ;
#538 = EDGE_CURVE ( 'NONE', #1131, #82, #35, .T. ) ;
#539 = CARTESIAN_POINT ( 'NONE',  ( 0.4999999999999987232, -14.99999999999999822, -60.00000000000000000 ) ) ;
#540 = DIRECTION ( 'NONE',  ( 0.000000000000000000, -0.000000000000000000, -1.000000000000000000 ) ) ;
#541 = DIRECTION ( 'NONE',  ( 1.000000000000000000, -0.000000000000000000, -0.000000000000000000 ) ) ;
#542 = CARTESIAN_POINT ( 'NONE',  ( 7.000000000000001776, -5.000000000000000888, 75.00000000000000000 ) ) ;
#543 = PLANE ( 'NONE',  #173 ) ;
#544 = CARTESIAN_POINT ( 'NONE',  ( 3.000000000000001776, 5.000000000000000888, 75.00000000000000000 ) ) ;
#545 = CARTESIAN_POINT ( 'NONE',  ( 10.00000000000000533, -10.00000000000000000, 75.00000000000000000 ) ) ;
#546 = VECTOR ( 'NONE', #31, 1000.000000000000000 ) ;
#547 = EDGE_CURVE ( 'NONE', #779, #780, #856, .T. ) ;
#548 = DIRECTION ( 'NONE',  ( 1.000000000000000000, -0.000000000000000000, -0.000000000000000000 ) ) ;
#549 = AXIS2_PLACEMENT_3D ( 'NONE', #367, #812, #154 ) ;
#550 = AXIS2_PLACEMENT_3D ( 'NONE', #742, #278, #180 ) ;
#551 = AXIS2_PLACEMENT_3D ( 'NONE', #896, #240, #361 ) ;
#552 = FACE_BOUND ( 'NONE', #1033, .T. ) ;
#553 = FACE_OUTER_BOUND ( 'NONE', #504, .T. ) ;
#554 = CARTESIAN_POINT ( 'NONE',  ( 0.4999999999999987232, -14.99999999999999822, 62.49999999999997868 ) ) ;
#555 = DIRECTION ( 'NONE',  ( 0.000000000000000000, 1.000000000000000000, 0.000000000000000000 ) ) ;
#556 = CIRCLE ( 'NONE', #460, 2.499999999999995115 ) ;
#557 = CYLINDRICAL_SURFACE ( 'NONE', #235, 2.500000000000002220 ) ;
#558 = ORIENTED_EDGE ( 'NONE', *, *, #1059, .F. ) ;
#559 = CARTESIAN_POINT ( 'NONE',  ( 10.00000000000000533, 10.00000000000000000, -75.00000000000000000 ) ) ;
#560 = CARTESIAN_POINT ( 'NONE',  ( 3.000000000000001776, 5.000000000000000888, 75.00000000000000000 ) ) ;
#561 = CARTESIAN_POINT ( 'NONE',  ( 7.000000000000000888, 20.00000000000000000, -75.00000000000000000 ) ) ;
#562 = ADVANCED_FACE ( 'NONE', ( #399 ), #1122, .F. ) ;
#563 = EDGE_LOOP ( 'NONE', ( #423, #1178, #1169, #701 ) ) ;
#564 = CONICAL_SURFACE ( 'NONE', #696, 5.000000000000004441, 0.7853981633974473908 ) ;
#565 = DIRECTION ( 'NONE',  ( 1.000000000000000000, -0.000000000000000000, -0.000000000000000000 ) ) ;
#566 = VERTEX_POINT ( 'NONE', #767 ) ;
#567 = DIRECTION ( 'NONE',  ( 1.000000000000000000, -0.000000000000000000, -0.000000000000000000 ) ) ;
#568 = VECTOR ( 'NONE', #541, 1000.000000000000000 ) ;
#569 = MECHANICAL_DESIGN_GEOMETRIC_PRESENTATION_REPRESENTATION (  '', ( #1187 ), #126 ) ;
#570 = VECTOR ( 'NONE', #379, 1000.000000000000000 ) ;
#571 = ORIENTED_EDGE ( 'NONE', *, *, #1118, .F. ) ;
#572 = EDGE_CURVE ( 'NONE', #151, #868, #1135, .T. ) ;
#573 = ORIENTED_EDGE ( 'NONE', *, *, #418, .T. ) ;
#574 = EDGE_LOOP ( 'NONE', ( #593, #1208, #893, #291 ) ) ;
#575 = EDGE_CURVE ( 'NONE', #1137, #316, #1129, .T. ) ;
#576 = CARTESIAN_POINT ( 'NONE',  ( 7.000000000000002665, -10.00000000000000000, 75.00000000000000000 ) ) ;
#577 = ORIENTED_EDGE ( 'NONE', *, *, #847, .F. ) ;
#578 = VERTEX_POINT ( 'NONE', #110 ) ;
#579 = AXIS2_PLACEMENT_3D ( 'NONE', #974, #1171, #904 ) ;
#580 = PLANE ( 'NONE',  #196 ) ;
#581 = EDGE_CURVE ( 'NONE', #446, #304, #861, .T. ) ;
#582 = ORIENTED_EDGE ( 'NONE', *, *, #651, .T. ) ;
#583 = EDGE_LOOP ( 'NONE', ( #6, #558, #428, #47 ) ) ;
#584 = DIRECTION ( 'NONE',  ( 3.061616997868382648E-16, -1.000000000000000000, 0.000000000000000000 ) ) ;
#585 = CARTESIAN_POINT ( 'NONE',  ( 10.00000000000000533, 10.00000000000000000, 75.00000000000000000 ) ) ;
#586 = EDGE_LOOP ( 'NONE', ( #934, #352, #1165, #415 ) ) ;
#587 = LINE ( 'NONE', #667, #1009 ) ;
#588 = CARTESIAN_POINT ( 'NONE',  ( -1.561251128379126385E-14, -14.99999999999999822, 64.99999999999997158 ) ) ;
#589 = CIRCLE ( 'NONE', #665, 2.500000000000002220 ) ;
#590 = DIRECTION ( 'NONE',  ( 1.000000000000000000, -1.734723475976806848E-16, 0.000000000000000000 ) ) ;
#591 = ADVANCED_FACE ( 'NONE', ( #403 ), #1141, .F. ) ;
#592 = ORIENTED_EDGE ( 'NONE', *, *, #292, .T. ) ;
#593 = ORIENTED_EDGE ( 'NONE', *, *, #90, .F. ) ;
#594 = CARTESIAN_POINT ( 'NONE',  ( 10.00000000000000178, -20.00000000000000000, 75.00000000000000000 ) ) ;
#595 = ADVANCED_FACE ( 'NONE', ( #116, #95, #410 ), #299, .F. ) ;
#596 = CARTESIAN_POINT ( 'NONE',  ( 7.000000000000000888, 20.00000000000000000, 75.00000000000000000 ) ) ;
#597 = CARTESIAN_POINT ( 'NONE',  ( 10.00000000000000888, -40.00000000000000000, -75.00000000000000000 ) ) ;
#598 = FACE_OUTER_BOUND ( 'NONE', #649, .T. ) ;
#599 = ORIENTED_EDGE ( 'NONE', *, *, #65, .T. ) ;
#600 = AXIS2_PLACEMENT_3D ( 'NONE', #369, #1003, #920 ) ;
#601 = ORIENTED_EDGE ( 'NONE', *, *, #261, .F. ) ;
#602 = DIRECTION ( 'NONE',  ( 0.000000000000000000, 0.000000000000000000, -1.000000000000000000 ) ) ;
#603 = PLANE ( 'NONE',  #453 ) ;
#604 = COLOUR_RGB ( '',0.7921568627450980005, 0.8196078431372548767, 0.9333333333333333481 ) ;
#605 = CIRCLE ( 'NONE', #661, 2.500000000000002220 ) ;
#606 = ORIENTED_EDGE ( 'NONE', *, *, #356, .T. ) ;
#607 = DIRECTION ( 'NONE',  ( 1.000000000000000000, -0.000000000000000000, -0.000000000000000000 ) ) ;
#608 = LINE ( 'NONE', #523, #127 ) ;
#609 = ORIENTED_EDGE ( 'NONE', *, *, #66, .T. ) ;
#610 = LINE ( 'NONE', #968, #914 ) ;
#611 = LINE ( 'NONE', #632, #236 ) ;
#612 = EDGE_CURVE ( 'NONE', #164, #87, #388, .T. ) ;
#613 = ORIENTED_EDGE ( 'NONE', *, *, #827, .F. ) ;
#614 = DIRECTION ( 'NONE',  ( 0.000000000000000000, 0.000000000000000000, -1.000000000000000000 ) ) ;
#615 = CIRCLE ( 'NONE', #111, 2.500000000000002220 ) ;
#616 = CARTESIAN_POINT ( 'NONE',  ( 0.4999999999999987232, 15.00000000000000000, 64.99999999999998579 ) ) ;
#617 = ORIENTED_EDGE ( 'NONE', *, *, #356, .F. ) ;
#618 = DIRECTION ( 'NONE',  ( 1.000000000000000000, -0.000000000000000000, -0.000000000000000000 ) ) ;
#619 = DIRECTION ( 'NONE',  ( -0.000000000000000000, -0.000000000000000000, -1.000000000000000000 ) ) ;
#620 = VERTEX_POINT ( 'NONE', #51 ) ;
#621 = CARTESIAN_POINT ( 'NONE',  ( 0.4999999999999987232, 15.00000000000000000, 62.49999999999999289 ) ) ;
#622 = VECTOR ( 'NONE', #457, 1000.000000000000000 ) ;
#623 = DIRECTION ( 'NONE',  ( -8.673617379884035472E-16, 1.000000000000000000, -0.000000000000000000 ) ) ;
#624 = ADVANCED_FACE ( 'NONE', ( #535 ), #287, .F. ) ;
#625 = ORIENTED_EDGE ( 'NONE', *, *, #1010, .F. ) ;
#626 = FACE_OUTER_BOUND ( 'NONE', #838, .T. ) ;
#627 = CARTESIAN_POINT ( 'NONE',  ( 9.999999999999984013, 40.00000000000000000, 75.00000000000000000 ) ) ;
#628 = VECTOR ( 'NONE', #263, 1000.000000000000000 ) ;
#629 = DIRECTION ( 'NONE',  ( -0.000000000000000000, 0.000000000000000000, 1.000000000000000000 ) ) ;
#630 = EDGE_CURVE ( 'NONE', #715, #82, #519, .T. ) ;
#631 = DIRECTION ( 'NONE',  ( 0.000000000000000000, 0.000000000000000000, -1.000000000000000000 ) ) ;
#632 = CARTESIAN_POINT ( 'NONE',  ( 3.000000000000001776, -5.000000000000000888, -75.00000000000000000 ) ) ;
#633 = LINE ( 'NONE', #344, #85 ) ;
#634 = CARTESIAN_POINT ( 'NONE',  ( 3.000000000000001776, 15.00000000000000000, 57.49999999999999289 ) ) ;
#635 = LINE ( 'NONE', #627, #1189 ) ;
#636 = DIRECTION ( 'NONE',  ( 0.000000000000000000, 0.000000000000000000, -1.000000000000000000 ) ) ;
#637 = EDGE_CURVE ( 'NONE', #868, #620, #981, .T. ) ;
#638 = DIRECTION ( 'NONE',  ( -0.000000000000000000, 1.000000000000000000, -0.000000000000000000 ) ) ;
#639 = CIRCLE ( 'NONE', #191, 2.500000000000002220 ) ;
#640 = ORIENTED_EDGE ( 'NONE', *, *, #472, .F. ) ;
#641 = LINE ( 'NONE', #165, #408 ) ;
#642 = DIRECTION ( 'NONE',  ( -1.734723475976807341E-16, -1.000000000000000000, -0.000000000000000000 ) ) ;
#643 = LINE ( 'NONE', #1008, #354 ) ;
#644 = EDGE_CURVE ( 'NONE', #75, #566, #556, .T. ) ;
#645 = CARTESIAN_POINT ( 'NONE',  ( 8.517925507445284181E-15, -40.00000000000000000, 75.00000000000000000 ) ) ;
#646 = CIRCLE ( 'NONE', #549, 2.500000000000002220 ) ;
#647 = ORIENTED_EDGE ( 'NONE', *, *, #395, .F. ) ;
#648 = CARTESIAN_POINT ( 'NONE',  ( 8.517925507445284181E-15, -40.00000000000000000, 75.00000000000000000 ) ) ;
#649 = EDGE_LOOP ( 'NONE', ( #669, #227, #858, #805 ) ) ;
#650 = LINE ( 'NONE', #927, #358 ) ;
#651 = EDGE_CURVE ( 'NONE', #774, #435, #1067, .T. ) ;
#652 = CARTESIAN_POINT ( 'NONE',  ( -1.561251128379126385E-14, -14.99999999999999822, 62.49999999999997868 ) ) ;
#653 = ORIENTED_EDGE ( 'NONE', *, *, #295, .F. ) ;
#654 = CARTESIAN_POINT ( 'NONE',  ( 3.000000000000001776, 15.00000000000000000, -57.49999999999999289 ) ) ;
#655 = EDGE_LOOP ( 'NONE', ( #640, #290, #15, #197 ) ) ;
#656 = CARTESIAN_POINT ( 'NONE',  ( 7.000000000000001776, -5.000000000000000888, 75.00000000000000000 ) ) ;
#657 = EDGE_CURVE ( 'NONE', #1119, #988, #716, .T. ) ;
#658 = ORIENTED_EDGE ( 'NONE', *, *, #778, .T. ) ;
#659 = VECTOR ( 'NONE', #638, 1000.000000000000000 ) ;
#660 = EDGE_LOOP ( 'NONE', ( #1042, #678, #285, #1020 ) ) ;
#661 = AXIS2_PLACEMENT_3D ( 'NONE', #829, #182, #83 ) ;
#662 = ORIENTED_EDGE ( 'NONE', *, *, #162, .F. ) ;
#663 = CIRCLE ( 'NONE', #1185, 2.500000000000002220 ) ;
#664 = PRESENTATION_LAYER_ASSIGNMENT (  '', '', ( #1187 ) ) ;
#665 = AXIS2_PLACEMENT_3D ( 'NONE', #554, #1105, #636 ) ;
#666 = ORIENTED_EDGE ( 'NONE', *, *, #510, .T. ) ;
#667 = CARTESIAN_POINT ( 'NONE',  ( 10.00000000000000178, -20.00000000000000000, 75.00000000000000000 ) ) ;
#668 = ORIENTED_EDGE ( 'NONE', *, *, #418, .F. ) ;
#669 = ORIENTED_EDGE ( 'NONE', *, *, #219, .T. ) ;
#670 = CONICAL_SURFACE ( 'NONE', #61, 4.999999999999997335, 0.7853981633974481680 ) ;
#671 = ADVANCED_FACE ( 'NONE', ( #232 ), #42, .F. ) ;
#672 = DIRECTION ( 'NONE',  ( 0.7071067811865482389, 0.000000000000000000, -0.7071067811865469066 ) ) ;
#673 = ORIENTED_EDGE ( 'NONE', *, *, #714, .T. ) ;
#674 = VERTEX_POINT ( 'NONE', #597 ) ;
#675 = DIRECTION ( 'NONE',  ( 0.000000000000000000, -1.000000000000000000, 0.000000000000000000 ) ) ;
#676 = CARTESIAN_POINT ( 'NONE',  ( 3.000000000000001776, 15.00000000000000000, 57.49999999999999289 ) ) ;
#677 = VECTOR ( 'NONE', #48, 1000.000000000000000 ) ;
#678 = ORIENTED_EDGE ( 'NONE', *, *, #1106, .F. ) ;
#679 = LINE ( 'NONE', #1049, #1121 ) ;
#680 = CARTESIAN_POINT ( 'NONE',  ( 9.999999999999984013, 40.00000000000000000, 75.00000000000000000 ) ) ;
#681 = CARTESIAN_POINT ( 'NONE',  ( 7.000000000000001776, 25.00000000000000000, 75.00000000000000000 ) ) ;
#682 = EDGE_CURVE ( 'NONE', #566, #10, #512, .T. ) ;
#683 = EDGE_CURVE ( 'NONE', #10, #1137, #1017, .T. ) ;
#684 = VERTEX_POINT ( 'NONE', #439 ) ;
#685 = VERTEX_POINT ( 'NONE', #708 ) ;
#686 = LINE ( 'NONE', #894, #391 ) ;
#687 = DIRECTION ( 'NONE',  ( -0.000000000000000000, -0.000000000000000000, -1.000000000000000000 ) ) ;
#688 = AXIS2_PLACEMENT_3D ( 'NONE', #335, #250, #793 ) ;
#689 = DIRECTION ( 'NONE',  ( -0.000000000000000000, -0.000000000000000000, -1.000000000000000000 ) ) ;
#690 = DIRECTION ( 'NONE',  ( -1.000000000000000000, -0.000000000000000000, -0.000000000000000000 ) ) ;
#691 = ORIENTED_EDGE ( 'NONE', *, *, #1026, .F. ) ;
#692 = ORIENTED_EDGE ( 'NONE', *, *, #991, .T. ) ;
#693 = PRODUCT_DEFINITION_CONTEXT ( 'detailed design', #270, 'design' ) ;
#694 = DIRECTION ( 'NONE',  ( 1.000000000000000000, -0.000000000000000000, -0.000000000000000000 ) ) ;
#695 = FACE_OUTER_BOUND ( 'NONE', #514, .T. ) ;
#696 = AXIS2_PLACEMENT_3D ( 'NONE', #153, #1155, #1183 ) ;
#697 = VERTEX_POINT ( 'NONE', #144 ) ;
#698 = DIRECTION ( 'NONE',  ( 1.000000000000000000, -0.000000000000000000, -0.000000000000000000 ) ) ;
#699 = ORIENTED_EDGE ( 'NONE', *, *, #764, .F. ) ;
#700 = CARTESIAN_POINT ( 'NONE',  ( -1.597501047550178016E-14, 40.00000000000000000, -75.00000000000000000 ) ) ;
#701 = ORIENTED_EDGE ( 'NONE', *, *, #497, .T. ) ;
#702 = ADVANCED_FACE ( 'NONE', ( #1074 ), #124, .F. ) ;
#703 = FACE_OUTER_BOUND ( 'NONE', #495, .T. ) ;
#704 = CARTESIAN_POINT ( 'NONE',  ( 3.000000000000001776, -14.99999999999999822, -62.50000000000000000 ) ) ;
#705 = AXIS2_PLACEMENT_3D ( 'NONE', #331, #1077, #532 ) ;
#706 = VECTOR ( 'NONE', #584, 1000.000000000000000 ) ;
#707 = VERTEX_POINT ( 'NONE', #1177 ) ;
#708 = CARTESIAN_POINT ( 'NONE',  ( -1.597501047550178016E-14, 40.00000000000000000, 75.00000000000000000 ) ) ;
#709 = LINE ( 'NONE', #1075, #327 ) ;
#710 = CARTESIAN_POINT ( 'NONE',  ( 7.000000000000001776, -5.000000000000000888, -75.00000000000000000 ) ) ;
#711 = EDGE_LOOP ( 'NONE', ( #1000, #1209, #502, #673 ) ) ;
#712 = LINE ( 'NONE', #1138, #452 ) ;
#713 = DIRECTION ( 'NONE',  ( 0.000000000000000000, 0.000000000000000000, -1.000000000000000000 ) ) ;
#714 = EDGE_CURVE ( 'NONE', #774, #722, #33, .T. ) ;
#715 = VERTEX_POINT ( 'NONE', #784 ) ;
#716 = LINE ( 'NONE', #1081, #1130 ) ;
#717 = VECTOR ( 'NONE', #761, 1000.000000000000000 ) ;
#718 = CARTESIAN_POINT ( 'NONE',  ( -1.561251128379126385E-14, 15.00000000000000000, 60.00000000000000000 ) ) ;
#719 = ORIENTED_EDGE ( 'NONE', *, *, #281, .T. ) ;
#720 = FACE_BOUND ( 'NONE', #772, .T. ) ;
#721 = PLANE ( 'NONE',  #409 ) ;
#722 = VERTEX_POINT ( 'NONE', #839 ) ;
#723 = ORIENTED_EDGE ( 'NONE', *, *, #133, .T. ) ;
#724 = DIRECTION ( 'NONE',  ( 0.000000000000000000, 0.000000000000000000, -1.000000000000000000 ) ) ;
#725 = FILL_AREA_STYLE ('',( #444 ) ) ;
#726 = CIRCLE ( 'NONE', #26, 5.000000000000004441 ) ;
#727 = VECTOR ( 'NONE', #517, 1000.000000000000000 ) ;
#728 = CARTESIAN_POINT ( 'NONE',  ( 3.000000000000001776, -5.000000000000000888, 75.00000000000000000 ) ) ;
#729 = EDGE_CURVE ( 'NONE', #3, #484, #1210, .T. ) ;
#730 = ADVANCED_FACE ( 'NONE', ( #89 ), #670, .F. ) ;
#731 = ORIENTED_EDGE ( 'NONE', *, *, #935, .T. ) ;
#732 = DIRECTION ( 'NONE',  ( 1.000000000000000000, 0.000000000000000000, 0.000000000000000000 ) ) ;
#733 = LINE ( 'NONE', #656, #441 ) ;
#734 = DIRECTION ( 'NONE',  ( 0.000000000000000000, 0.000000000000000000, -1.000000000000000000 ) ) ;
#735 = VECTOR ( 'NONE', #243, 1000.000000000000000 ) ;
#736 = ORIENTED_EDGE ( 'NONE', *, *, #158, .F. ) ;
#737 = LINE ( 'NONE', #360, #628 ) ;
#738 = CARTESIAN_POINT ( 'NONE',  ( 7.000000000000001776, 5.000000000000000888, 75.00000000000000000 ) ) ;
#739 = DIRECTION ( 'NONE',  ( -0.000000000000000000, -0.000000000000000000, -1.000000000000000000 ) ) ;
#740 = LINE ( 'NONE', #1103, #486 ) ;
#741 = CIRCLE ( 'NONE', #148, 4.999999999999997335 ) ;
#742 = CARTESIAN_POINT ( 'NONE',  ( 3.000000000000001776, 15.00000000000000000, -62.50000000000000000 ) ) ;
#743 = EDGE_CURVE ( 'NONE', #1012, #1069, #615, .T. ) ;
#744 = DIRECTION ( 'NONE',  ( 1.000000000000000000, -0.000000000000000000, -0.000000000000000000 ) ) ;
#745 = LINE ( 'NONE', #560, #871 ) ;
#746 = ORIENTED_EDGE ( 'NONE', *, *, #1176, .F. ) ;
#747 = CARTESIAN_POINT ( 'NONE',  ( 3.000000000000001776, 5.000000000000000888, -75.00000000000000000 ) ) ;
#748 = EDGE_CURVE ( 'NONE', #435, #101, #175, .T. ) ;
#749 = CARTESIAN_POINT ( 'NONE',  ( 3.000000000000001776, 25.00000000000000000, 75.00000000000000000 ) ) ;
#750 = ORIENTED_EDGE ( 'NONE', *, *, #146, .T. ) ;
#751 = ORIENTED_EDGE ( 'NONE', *, *, #538, .F. ) ;
#752 = ORIENTED_EDGE ( 'NONE', *, *, #892, .T. ) ;
#753 = ORIENTED_EDGE ( 'NONE', *, *, #729, .T. ) ;
#754 = VECTOR ( 'NONE', #132, 1000.000000000000000 ) ;
#755 = EDGE_LOOP ( 'NONE', ( #231, #692, #135, #945 ) ) ;
#756 = VECTOR ( 'NONE', #114, 1000.000000000000000 ) ;
#757 = VECTOR ( 'NONE', #642, 1000.000000000000000 ) ;
#758 = EDGE_CURVE ( 'NONE', #1115, #768, #373, .T. ) ;
#759 = VECTOR ( 'NONE', #860, 1000.000000000000000 ) ;
#760 = ORIENTED_EDGE ( 'NONE', *, *, #200, .F. ) ;
#761 = DIRECTION ( 'NONE',  ( -0.000000000000000000, -0.000000000000000000, -1.000000000000000000 ) ) ;
#762 = EDGE_LOOP ( 'NONE', ( #878, #831, #870, #244 ) ) ;
#763 = EDGE_LOOP ( 'NONE', ( #666, #691, #746, #119 ) ) ;
#764 = EDGE_CURVE ( 'NONE', #94, #1109, #1095, .T. ) ;
#765 = DIRECTION ( 'NONE',  ( 1.000000000000000000, -0.000000000000000000, -0.000000000000000000 ) ) ;
#766 = EDGE_CURVE ( 'NONE', #1119, #524, #302, .T. ) ;
#767 = CARTESIAN_POINT ( 'NONE',  ( -1.561251128379126385E-14, 15.00000000000000000, 64.99999999999998579 ) ) ;
#768 = VERTEX_POINT ( 'NONE', #268 ) ;
#769 = CIRCLE ( 'NONE', #117, 2.499999999999995115 ) ;
#770 = DIRECTION ( 'NONE',  ( 8.673617379884035472E-16, -1.000000000000000000, 0.000000000000000000 ) ) ;
#771 = CARTESIAN_POINT ( 'NONE',  ( 7.000000000000002665, 10.00000000000000000, -75.00000000000000000 ) ) ;
#772 = EDGE_LOOP ( 'NONE', ( #1204, #1083 ) ) ;
#773 = AXIS2_PLACEMENT_3D ( 'NONE', #525, #888, #956 ) ;
#774 = VERTEX_POINT ( 'NONE', #545 ) ;
#775 = DIRECTION ( 'NONE',  ( -1.000000000000000000, 0.000000000000000000, 0.000000000000000000 ) ) ;
#776 = CARTESIAN_POINT ( 'NONE',  ( 10.00000000000000888, -40.00000000000000000, 75.00000000000000000 ) ) ;
#777 = CARTESIAN_POINT ( 'NONE',  ( 3.000000000000001776, -25.00000000000000000, 75.00000000000000000 ) ) ;
#778 = EDGE_CURVE ( 'NONE', #467, #420, #456, .T. ) ;
#779 = VERTEX_POINT ( 'NONE', #559 ) ;
#780 = VERTEX_POINT ( 'NONE', #474 ) ;
#781 = CARTESIAN_POINT ( 'NONE',  ( 3.000000000000001776, 15.00000000000000000, -62.50000000000000000 ) ) ;
#782 = CARTESIAN_POINT ( 'NONE',  ( 3.000000000000001776, -14.99999999999999822, 67.49999999999997158 ) ) ;
#783 = ORIENTED_EDGE ( 'NONE', *, *, #65, .F. ) ;
#784 = CARTESIAN_POINT ( 'NONE',  ( 0.4999999999999987232, 15.00000000000000000, -65.00000000000000000 ) ) ;
#785 = DIRECTION ( 'NONE',  ( 0.000000000000000000, -1.000000000000000000, 0.000000000000000000 ) ) ;
#786 = EDGE_CURVE ( 'NONE', #151, #470, #733, .T. ) ;
#787 = LINE ( 'NONE', #128, #1028 ) ;
#788 = ORIENTED_EDGE ( 'NONE', *, *, #158, .T. ) ;
#789 = CARTESIAN_POINT ( 'NONE',  ( -1.561251128379126385E-14, -14.99999999999999822, -65.00000000000000000 ) ) ;
#790 = FACE_OUTER_BOUND ( 'NONE', #984, .T. ) ;
#791 = VECTOR ( 'NONE', #363, 1000.000000000000000 ) ;
#792 = ORIENTED_EDGE ( 'NONE', *, *, #100, .F. ) ;
#793 = DIRECTION ( 'NONE',  ( 3.469446951953614189E-16, -1.000000000000000000, 0.000000000000000000 ) ) ;
#794 = PLANE ( 'NONE',  #1102 ) ;
#795 = DIRECTION ( 'NONE',  ( 1.000000000000000000, -0.000000000000000000, -0.000000000000000000 ) ) ;
#796 = EDGE_LOOP ( 'NONE', ( #929, #485, #1093, #788 ) ) ;
#797 = CARTESIAN_POINT ( 'NONE',  ( 3.000000000000001776, 25.00000000000000000, -75.00000000000000000 ) ) ;
#798 = EDGE_CURVE ( 'NONE', #1069, #1012, #589, .T. ) ;
#799 = CARTESIAN_POINT ( 'NONE',  ( 0.4999999999999987232, -14.99999999999999822, 59.99999999999997868 ) ) ;
#800 = VECTOR ( 'NONE', #537, 1000.000000000000000 ) ;
#801 = ORIENTED_EDGE ( 'NONE', *, *, #866, .T. ) ;
#802 = DIRECTION ( 'NONE',  ( 1.000000000000000000, -0.000000000000000000, -0.000000000000000000 ) ) ;
#803 = LINE ( 'NONE', #1087, #308 ) ;
#804 =( GEOMETRIC_REPRESENTATION_CONTEXT ( 3 ) GLOBAL_UNCERTAINTY_ASSIGNED_CONTEXT ( ( #498 ) ) GLOBAL_UNIT_ASSIGNED_CONTEXT ( ( #199, #928, #84 ) ) REPRESENTATION_CONTEXT ( 'NONE', 'WORKASPACE' ) );
#805 = ORIENTED_EDGE ( 'NONE', *, *, #1059, .T. ) ;
#806 = CARTESIAN_POINT ( 'NONE',  ( 3.000000000000001776, 15.00000000000000000, -65.00000000000000000 ) ) ;
#807 = DIRECTION ( 'NONE',  ( -0.000000000000000000, 1.000000000000000000, -0.000000000000000000 ) ) ;
#808 = DIRECTION ( 'NONE',  ( 1.000000000000000000, -0.000000000000000000, -0.000000000000000000 ) ) ;
#809 = VECTOR ( 'NONE', #913, 1000.000000000000000 ) ;
#810 = PLANE ( 'NONE',  #1023 ) ;
#811 = ORIENTED_EDGE ( 'NONE', *, *, #866, .F. ) ;
#812 = DIRECTION ( 'NONE',  ( 1.000000000000000000, -0.000000000000000000, -0.000000000000000000 ) ) ;
#813 = CARTESIAN_POINT ( 'NONE',  ( 7.000000000000002665, 10.00000000000000000, 75.00000000000000000 ) ) ;
#814 = EDGE_CURVE ( 'NONE', #276, #1032, #176, .T. ) ;
#815 = AXIS2_PLACEMENT_3D ( 'NONE', #234, #607, #137 ) ;
#816 = CARTESIAN_POINT ( 'NONE',  ( 10.00000000000000178, -20.00000000000000000, 75.00000000000000000 ) ) ;
#817 = CARTESIAN_POINT ( 'NONE',  ( 3.000000000000001776, -5.000000000000000888, -75.00000000000000000 ) ) ;
#818 = AXIS2_PLACEMENT_3D ( 'NONE', #324, #675, #319 ) ;
#819 = CARTESIAN_POINT ( 'NONE',  ( 7.000000000000000888, -20.00000000000000000, -75.00000000000000000 ) ) ;
#820 = VECTOR ( 'NONE', #732, 1000.000000000000000 ) ;
#821 = CARTESIAN_POINT ( 'NONE',  ( 3.000000000000001776, 25.00000000000000000, -75.00000000000000000 ) ) ;
#822 = DIRECTION ( 'NONE',  ( 1.000000000000000000, -0.000000000000000000, -0.000000000000000000 ) ) ;
#823 = CYLINDRICAL_SURFACE ( 'NONE', #1030, 2.500000000000002220 ) ;
#824 = DIRECTION ( 'NONE',  ( 1.000000000000000000, -0.000000000000000000, -0.000000000000000000 ) ) ;
#825 = LINE ( 'NONE', #749, #659 ) ;
#826 = VECTOR ( 'NONE', #168, 1000.000000000000000 ) ;
#827 = EDGE_CURVE ( 'NONE', #685, #193, #1110, .T. ) ;
#828 = LINE ( 'NONE', #738, #757 ) ;
#829 = CARTESIAN_POINT ( 'NONE',  ( 0.4999999999999987232, 15.00000000000000000, -62.50000000000000000 ) ) ;
#830 = CARTESIAN_POINT ( 'NONE',  ( -1.561251128379126385E-14, -14.99999999999999822, 59.99999999999997868 ) ) ;
#831 = ORIENTED_EDGE ( 'NONE', *, *, #315, .F. ) ;
#832 = LINE ( 'NONE', #648, #916 ) ;
#833 = ORIENTED_EDGE ( 'NONE', *, *, #112, .F. ) ;
#834 = CARTESIAN_POINT ( 'NONE',  ( 7.000000000000002665, 10.00000000000000000, 75.00000000000000000 ) ) ;
#835 = EDGE_CURVE ( 'NONE', #484, #967, #650, .T. ) ;
#836 = PLANE ( 'NONE',  #471 ) ;
#837 = ORIENTED_EDGE ( 'NONE', *, *, #530, .F. ) ;
#838 = EDGE_LOOP ( 'NONE', ( #874, #1044, #386, #481 ) ) ;
#839 = CARTESIAN_POINT ( 'NONE',  ( 10.00000000000000533, -10.00000000000000000, -75.00000000000000000 ) ) ;
#840 = EDGE_CURVE ( 'NONE', #967, #980, #643, .T. ) ;
#841 = CARTESIAN_POINT ( 'NONE',  ( 3.000000000000001776, -5.000000000000000888, 75.00000000000000000 ) ) ;
#842 = ORIENTED_EDGE ( 'NONE', *, *, #941, .F. ) ;
#843 = VECTOR ( 'NONE', #207, 1000.000000000000000 ) ;
#844 = ORIENTED_EDGE ( 'NONE', *, *, #1197, .F. ) ;
#845 = EDGE_CURVE ( 'NONE', #715, #988, #605, .T. ) ;
#846 = CARTESIAN_POINT ( 'NONE',  ( 3.000000000000001776, -14.99999999999999822, -67.50000000000000000 ) ) ;
#847 = EDGE_CURVE ( 'NONE', #242, #94, #468, .T. ) ;
#848 = ORIENTED_EDGE ( 'NONE', *, *, #778, .F. ) ;
#849 = CIRCLE ( 'NONE', #944, 5.000000000000004441 ) ;
#850 = VERTEX_POINT ( 'NONE', #1021 ) ;
#851 = LINE ( 'NONE', #202, #14 ) ;
#852 = ORIENTED_EDGE ( 'NONE', *, *, #530, .T. ) ;
#853 = CIRCLE ( 'NONE', #297, 2.499999999999995115 ) ;
#854 = ORIENTED_EDGE ( 'NONE', *, *, #682, .T. ) ;
#855 = CARTESIAN_POINT ( 'NONE',  ( 9.999999999999984013, 40.00000000000000000, 75.00000000000000000 ) ) ;
#856 = LINE ( 'NONE', #771, #843 ) ;
#857 = EDGE_CURVE ( 'NONE', #75, #1137, #46, .T. ) ;
#858 = ORIENTED_EDGE ( 'NONE', *, *, #1134, .F. ) ;
#859 = VECTOR ( 'NONE', #424, 1000.000000000000000 ) ;
#860 = DIRECTION ( 'NONE',  ( 0.7071067811865482389, 0.000000000000000000, -0.7071067811865469066 ) ) ;
#861 = LINE ( 'NONE', #494, #384 ) ;
#862 = ORIENTED_EDGE ( 'NONE', *, *, #941, .T. ) ;
#863 = ORIENTED_EDGE ( 'NONE', *, *, #683, .F. ) ;
#864 = CARTESIAN_POINT ( 'NONE',  ( 7.000000000000001776, 5.000000000000000888, -75.00000000000000000 ) ) ;
#865 = DIRECTION ( 'NONE',  ( -3.469446951953614189E-16, 1.000000000000000000, 0.000000000000000000 ) ) ;
#866 = EDGE_CURVE ( 'NONE', #1151, #446, #787, .T. ) ;
#867 = FACE_OUTER_BOUND ( 'NONE', #1068, .T. ) ;
#868 = VERTEX_POINT ( 'NONE', #710 ) ;
#869 = AXIS2_PLACEMENT_3D ( 'NONE', #1006, #910, #906 ) ;
#870 = ORIENTED_EDGE ( 'NONE', *, *, #1149, .F. ) ;
#871 = VECTOR ( 'NONE', #921, 1000.000000000000000 ) ;
#872 = AXIS2_PLACEMENT_3D ( 'NONE', #160, #1002, #1186 ) ;
#873 = LINE ( 'NONE', #1050, #759 ) ;
#874 = ORIENTED_EDGE ( 'NONE', *, *, #766, .F. ) ;
#875 = CARTESIAN_POINT ( 'NONE',  ( 10.00000000000000533, 10.00000000000000000, 75.00000000000000000 ) ) ;
#876 = CARTESIAN_POINT ( 'NONE',  ( 3.000000000000001776, 25.00000000000000000, 75.00000000000000000 ) ) ;
#877 = PLANE ( 'NONE',  #969 ) ;
#878 = ORIENTED_EDGE ( 'NONE', *, *, #998, .T. ) ;
#879 = ORIENTED_EDGE ( 'NONE', *, *, #1010, .T. ) ;
#880 = DIRECTION ( 'NONE',  ( 1.000000000000000000, -0.000000000000000000, -0.000000000000000000 ) ) ;
#881 = LINE ( 'NONE', #121, #294 ) ;
#882 = ORIENTED_EDGE ( 'NONE', *, *, #885, .T. ) ;
#883 = CARTESIAN_POINT ( 'NONE',  ( 7.000000000000001776, -5.000000000000000888, -75.00000000000000000 ) ) ;
#884 = CARTESIAN_POINT ( 'NONE',  ( 3.000000000000001776, 15.00000000000000000, -67.50000000000000000 ) ) ;
#885 = EDGE_CURVE ( 'NONE', #442, #1073, #419, .T. ) ;
#886 = DIRECTION ( 'NONE',  ( 1.734723475976807341E-16, 1.000000000000000000, 0.000000000000000000 ) ) ;
#887 = ORIENTED_EDGE ( 'NONE', *, *, #478, .T. ) ;
#888 = DIRECTION ( 'NONE',  ( 1.000000000000000000, 3.061616997868382648E-16, -0.000000000000000000 ) ) ;
#889 = ORIENTED_EDGE ( 'NONE', *, *, #475, .F. ) ;
#890 = CARTESIAN_POINT ( 'NONE',  ( 3.000000000000001776, -14.99999999999999822, -62.50000000000000000 ) ) ;
#891 = DIRECTION ( 'NONE',  ( -0.000000000000000000, 0.000000000000000000, 1.000000000000000000 ) ) ;
#892 = EDGE_CURVE ( 'NONE', #186, #193, #139, .T. ) ;
#893 = ORIENTED_EDGE ( 'NONE', *, *, #538, .T. ) ;
#894 = CARTESIAN_POINT ( 'NONE',  ( 3.000000000000001776, -14.99999999999999822, 64.99999999999997158 ) ) ;
#895 = ADVANCED_FACE ( 'NONE', ( #329 ), #68, .F. ) ;
#896 = CARTESIAN_POINT ( 'NONE',  ( 3.000000000000001776, -14.99999999999999822, 62.49999999999997868 ) ) ;
#897 = ORIENTED_EDGE ( 'NONE', *, *, #581, .F. ) ;
#898 = DIRECTION ( 'NONE',  ( 0.000000000000000000, 0.000000000000000000, -1.000000000000000000 ) ) ;
#899 = FACE_OUTER_BOUND ( 'NONE', #209, .T. ) ;
#900 = EDGE_CURVE ( 'NONE', #930, #685, #608, .T. ) ;
#901 = CARTESIAN_POINT ( 'NONE',  ( 3.000000000000001776, -5.000000000000000888, 75.00000000000000000 ) ) ;
#902 = DIRECTION ( 'NONE',  ( 1.000000000000000000, 0.000000000000000000, 0.000000000000000000 ) ) ;
#903 = ADVANCED_FACE ( 'NONE', ( #598 ), #877, .F. ) ;
#904 = DIRECTION ( 'NONE',  ( 0.000000000000000000, 0.000000000000000000, -1.000000000000000000 ) ) ;
#905 = ORIENTED_EDGE ( 'NONE', *, *, #572, .T. ) ;
#906 = DIRECTION ( 'NONE',  ( 0.000000000000000000, 0.000000000000000000, -1.000000000000000000 ) ) ;
#907 =( NAMED_UNIT ( * ) PLANE_ANGLE_UNIT ( ) SI_UNIT ( $, .RADIAN. ) );
#908 = PRODUCT_RELATED_PRODUCT_CATEGORY ( 'part', '', ( #374 ) ) ;
#909 = CARTESIAN_POINT ( 'NONE',  ( 3.000000000000001776, 5.000000000000000888, 75.00000000000000000 ) ) ;
#910 = DIRECTION ( 'NONE',  ( 1.000000000000000000, -0.000000000000000000, -0.000000000000000000 ) ) ;
#911 = AXIS2_PLACEMENT_3D ( 'NONE', #1193, #348, #71 ) ;
#912 = FACE_OUTER_BOUND ( 'NONE', #342, .T. ) ;
#913 = DIRECTION ( 'NONE',  ( 0.7071067811865482389, 8.659560562354925463E-17, 0.7071067811865469066 ) ) ;
#914 = VECTOR ( 'NONE', #413, 1000.000000000000000 ) ;
#915 = ADVANCED_FACE ( 'NONE', ( #45 ), #254, .F. ) ;
#916 = VECTOR ( 'NONE', #377, 1000.000000000000000 ) ;
#917 = CARTESIAN_POINT ( 'NONE',  ( 9.999999999999984013, 40.00000000000000000, -75.00000000000000000 ) ) ;
#918 = ORIENTED_EDGE ( 'NONE', *, *, #847, .T. ) ;
#919 = CARTESIAN_POINT ( 'NONE',  ( 3.000000000000001776, 15.00000000000000000, 62.49999999999999289 ) ) ;
#920 = DIRECTION ( 'NONE',  ( 0.000000000000000000, 0.000000000000000000, -1.000000000000000000 ) ) ;
#921 = DIRECTION ( 'NONE',  ( -0.000000000000000000, -0.000000000000000000, -1.000000000000000000 ) ) ;
#922 = LINE ( 'NONE', #380, #125 ) ;
#923 = VECTOR ( 'NONE', #689, 1000.000000000000000 ) ;
#924 = ADVANCED_FACE ( 'NONE', ( #790 ), #1139, .F. ) ;
#925 = LINE ( 'NONE', #273, #1123 ) ;
#926 = ORIENTED_EDGE ( 'NONE', *, *, #748, .T. ) ;
#927 = CARTESIAN_POINT ( 'NONE',  ( 7.000000000000000888, 20.00000000000000000, 75.00000000000000000 ) ) ;
#928 =( NAMED_UNIT ( * ) PLANE_ANGLE_UNIT ( ) SI_UNIT ( $, .RADIAN. ) );
#929 = ORIENTED_EDGE ( 'NONE', *, *, #612, .T. ) ;
#930 = VERTEX_POINT ( 'NONE', #680 ) ;
#931 = DIRECTION ( 'NONE',  ( -1.000000000000000000, -0.000000000000000000, -0.000000000000000000 ) ) ;
#932 = AXIS2_PLACEMENT_3D ( 'NONE', #652, #1196, #1200 ) ;
#933 = VECTOR ( 'NONE', #619, 1000.000000000000000 ) ;
#934 = ORIENTED_EDGE ( 'NONE', *, *, #983, .T. ) ;
#935 = EDGE_CURVE ( 'NONE', #1069, #1032, #873, .T. ) ;
#936 = EDGE_CURVE ( 'NONE', #707, #467, #507, .T. ) ;
#937 = CARTESIAN_POINT ( 'NONE',  ( -1.561251128379126385E-14, 15.00000000000000000, -65.00000000000000000 ) ) ;
#938 = ORIENTED_EDGE ( 'NONE', *, *, #445, .T. ) ;
#939 = EDGE_LOOP ( 'NONE', ( #293, #19, #1127, #113 ) ) ;
#940 = DIRECTION ( 'NONE',  ( 0.000000000000000000, 0.000000000000000000, 1.000000000000000000 ) ) ;
#941 = EDGE_CURVE ( 'NONE', #382, #684, #397, .T. ) ;
#942 = CARTESIAN_POINT ( 'NONE',  ( 3.000000000000001776, 15.00000000000000000, 62.49999999999999289 ) ) ;
#943 = EDGE_LOOP ( 'NONE', ( #96, #1066 ) ) ;
#944 = AXIS2_PLACEMENT_3D ( 'NONE', #1096, #548, #1016 ) ;
#945 = ORIENTED_EDGE ( 'NONE', *, *, #935, .F. ) ;
#946 = LINE ( 'NONE', #1133, #754 ) ;
#947 = PLANE ( 'NONE',  #398 ) ;
#948 = EDGE_CURVE ( 'NONE', #321, #249, #881, .T. ) ;
#949 = ORIENTED_EDGE ( 'NONE', *, *, #497, .F. ) ;
#950 = VERTEX_POINT ( 'NONE', #312 ) ;
#951 = CARTESIAN_POINT ( 'NONE',  ( 8.517925507445284181E-15, -40.00000000000000000, 75.00000000000000000 ) ) ;
#952 = DIRECTION ( 'NONE',  ( 0.7071067811865476838, 0.000000000000000000, -0.7071067811865474617 ) ) ;
#953 = ADVANCED_FACE ( 'NONE', ( #695 ), #603, .F. ) ;
#954 = ORIENTED_EDGE ( 'NONE', *, *, #682, .F. ) ;
#955 = AXIS2_PLACEMENT_3D ( 'NONE', #72, #567, #1199 ) ;
#956 = DIRECTION ( 'NONE',  ( -3.061616997868382648E-16, 1.000000000000000000, 0.000000000000000000 ) ) ;
#957 = DIRECTION ( 'NONE',  ( 0.000000000000000000, -0.000000000000000000, -1.000000000000000000 ) ) ;
#958 = LINE ( 'NONE', #576, #923 ) ;
#959 = VERTEX_POINT ( 'NONE', #951 ) ;
#960 = ORIENTED_EDGE ( 'NONE', *, *, #1149, .T. ) ;
#961 = CARTESIAN_POINT ( 'NONE',  ( -1.561251128379126385E-14, 15.00000000000000000, -62.50000000000000000 ) ) ;
#962 = FACE_OUTER_BOUND ( 'NONE', #796, .T. ) ;
#963 = CARTESIAN_POINT ( 'NONE',  ( 3.000000000000001776, 15.00000000000000000, -67.50000000000000000 ) ) ;
#964 = AXIS2_PLACEMENT_3D ( 'NONE', #103, #211, #1160 ) ;
#965 = ORIENTED_EDGE ( 'NONE', *, *, #241, .F. ) ;
#966 = VECTOR ( 'NONE', #141, 1000.000000000000000 ) ;
#967 = VERTEX_POINT ( 'NONE', #596 ) ;
#968 = CARTESIAN_POINT ( 'NONE',  ( 7.000000000000001776, 25.00000000000000000, 75.00000000000000000 ) ) ;
#969 = AXIS2_PLACEMENT_3D ( 'NONE', #36, #522, #886 ) ;
#970 = CARTESIAN_POINT ( 'NONE',  ( 0.4999999999999987232, 15.00000000000000000, -60.00000000000000000 ) ) ;
#971 = ADVANCED_FACE ( 'NONE', ( #307 ), #40, .F. ) ;
#972 = EDGE_LOOP ( 'NONE', ( #330, #1161 ) ) ;
#973 = CARTESIAN_POINT ( 'NONE',  ( 7.000000000000001776, 25.00000000000000000, -75.00000000000000000 ) ) ;
#974 = CARTESIAN_POINT ( 'NONE',  ( 3.000000000000001776, -14.99999999999999822, 62.49999999999997868 ) ) ;
#975 = DIRECTION ( 'NONE',  ( 1.000000000000000000, -0.000000000000000000, -0.000000000000000000 ) ) ;
#976 = ORIENTED_EDGE ( 'NONE', *, *, #478, .F. ) ;
#977 = CARTESIAN_POINT ( 'NONE',  ( 7.000000000000000888, 20.00000000000000000, -75.00000000000000000 ) ) ;
#978 = SURFACE_SIDE_STYLE ('',( #267 ) ) ;
#979 = AXIS2_PLACEMENT_3D ( 'NONE', #393, #590, #212 ) ;
#980 = VERTEX_POINT ( 'NONE', #216 ) ;
#981 = LINE ( 'NONE', #883, #201 ) ;
#982 = DIRECTION ( 'NONE',  ( 0.000000000000000000, 0.000000000000000000, -1.000000000000000000 ) ) ;
#983 = EDGE_CURVE ( 'NONE', #674, #242, #115, .T. ) ;
#984 = EDGE_LOOP ( 'NONE', ( #658, #844, #301, #346 ) ) ;
#985 = CARTESIAN_POINT ( 'NONE',  ( 7.000000000000001776, -25.00000000000000000, 75.00000000000000000 ) ) ;
#986 = CARTESIAN_POINT ( 'NONE',  ( 0.4999999999999987232, -14.99999999999999822, -65.00000000000000000 ) ) ;
#987 = CIRCLE ( 'NONE', #98, 5.000000000000004441 ) ;
#988 = VERTEX_POINT ( 'NONE', #970 ) ;
#989 = DIRECTION ( 'NONE',  ( 0.000000000000000000, 0.000000000000000000, -1.000000000000000000 ) ) ;
#990 = CARTESIAN_POINT ( 'NONE',  ( 7.000000000000002665, 10.00000000000000000, 75.00000000000000000 ) ) ;
#991 = EDGE_CURVE ( 'NONE', #1012, #276, #333, .T. ) ;
#992 = ORIENTED_EDGE ( 'NONE', *, *, #445, .F. ) ;
#993 = FACE_OUTER_BOUND ( 'NONE', #188, .T. ) ;
#994 = CONICAL_SURFACE ( 'NONE', #260, 4.999999999999997335, 0.7853981633974473908 ) ;
#995 = DIRECTION ( 'NONE',  ( -0.000000000000000000, -0.000000000000000000, -1.000000000000000000 ) ) ;
#996 = DIRECTION ( 'NONE',  ( 1.000000000000000000, 0.000000000000000000, 0.000000000000000000 ) ) ;
#997 = CARTESIAN_POINT ( 'NONE',  ( 3.000000000000001776, -14.99999999999999822, 67.49999999999997158 ) ) ;
#998 = EDGE_CURVE ( 'NONE', #193, #950, #17, .T. ) ;
#999 = DIRECTION ( 'NONE',  ( 1.000000000000000000, 0.000000000000000000, 0.000000000000000000 ) ) ;
#1000 = ORIENTED_EDGE ( 'NONE', *, *, #1047, .T. ) ;
#1001 = CARTESIAN_POINT ( 'NONE',  ( -1.561251128379126385E-14, 15.00000000000000000, 62.49999999999999289 ) ) ;
#1002 = DIRECTION ( 'NONE',  ( 0.000000000000000000, -1.000000000000000000, 0.000000000000000000 ) ) ;
#1003 = DIRECTION ( 'NONE',  ( 1.000000000000000000, -0.000000000000000000, -0.000000000000000000 ) ) ;
#1004 = CARTESIAN_POINT ( 'NONE',  ( 0.4999999999999987232, 15.00000000000000000, 62.49999999999999289 ) ) ;
#1005 = ORIENTED_EDGE ( 'NONE', *, *, #253, .T. ) ;
#1006 = CARTESIAN_POINT ( 'NONE',  ( 3.000000000000001776, -14.99999999999999822, -62.50000000000000000 ) ) ;
#1007 = CARTESIAN_POINT ( 'NONE',  ( 0.4999999999999987232, 15.00000000000000000, 60.00000000000000000 ) ) ;
#1008 = CARTESIAN_POINT ( 'NONE',  ( 10.00000000000000178, 20.00000000000000000, 75.00000000000000000 ) ) ;
#1009 = VECTOR ( 'NONE', #25, 1000.000000000000000 ) ;
#1010 = EDGE_CURVE ( 'NONE', #967, #382, #946, .T. ) ;
#1011 = DIRECTION ( 'NONE',  ( 0.000000000000000000, 0.000000000000000000, -1.000000000000000000 ) ) ;
#1012 = VERTEX_POINT ( 'NONE', #109 ) ;
#1013 = LINE ( 'NONE', #1202, #1070 ) ;
#1014 = ORIENTED_EDGE ( 'NONE', *, *, #219, .F. ) ;
#1015 = CARTESIAN_POINT ( 'NONE',  ( 3.000000000000001776, -14.99999999999999822, -57.50000000000000000 ) ) ;
#1016 = DIRECTION ( 'NONE',  ( 0.000000000000000000, 0.000000000000000000, -1.000000000000000000 ) ) ;
#1017 = CIRCLE ( 'NONE', #520, 2.499999999999995115 ) ;
#1018 = ORIENTED_EDGE ( 'NONE', *, *, #798, .F. ) ;
#1019 = DIRECTION ( 'NONE',  ( 0.000000000000000000, 0.000000000000000000, -1.000000000000000000 ) ) ;
#1020 = ORIENTED_EDGE ( 'NONE', *, *, #475, .T. ) ;
#1021 = CARTESIAN_POINT ( 'NONE',  ( -1.561251128379126385E-14, -14.99999999999999822, -60.00000000000000000 ) ) ;
#1022 = APPLICATION_PROTOCOL_DEFINITION ( 'draft international standard', 'automotive_design', 1998, #270 ) ;
#1023 = AXIS2_PLACEMENT_3D ( 'NONE', #258, #629, #996 ) ;
#1024 = ADVANCED_FACE ( 'NONE', ( #492 ), #223, .F. ) ;
#1025 = VERTEX_POINT ( 'NONE', #588 ) ;
#1026 = EDGE_CURVE ( 'NONE', #1088, #674, #407, .T. ) ;
#1027 = ORIENTED_EDGE ( 'NONE', *, *, #402, .T. ) ;
#1028 = VECTOR ( 'NONE', #427, 1000.000000000000000 ) ;
#1029 = VECTOR ( 'NONE', #1173, 1000.000000000000000 ) ;
#1030 = AXIS2_PLACEMENT_3D ( 'NONE', #704, #1072, #155 ) ;
#1031 = AXIS2_PLACEMENT_3D ( 'NONE', #1040, #205, #487 ) ;
#1032 = VERTEX_POINT ( 'NONE', #1057 ) ;
#1033 = EDGE_LOOP ( 'NONE', ( #365, #1048 ) ) ;
#1034 = LINE ( 'NONE', #841, #357 ) ;
#1035 = CYLINDRICAL_SURFACE ( 'NONE', #1113, 2.499999999999995115 ) ;
#1036 = VECTOR ( 'NONE', #952, 1000.000000000000000 ) ;
#1037 = ORIENTED_EDGE ( 'NONE', *, *, #436, .T. ) ;
#1038 = ORIENTED_EDGE ( 'NONE', *, *, #292, .F. ) ;
#1039 = ADVANCED_FACE ( 'NONE', ( #962 ), #580, .F. ) ;
#1040 = CARTESIAN_POINT ( 'NONE',  ( 7.000000000000002665, 10.00000000000000000, 75.00000000000000000 ) ) ;
#1041 = DIRECTION ( 'NONE',  ( -0.000000000000000000, -0.000000000000000000, -1.000000000000000000 ) ) ;
#1042 = ORIENTED_EDGE ( 'NONE', *, *, #100, .T. ) ;
#1043 = CIRCLE ( 'NONE', #579, 4.999999999999997335 ) ;
#1044 = ORIENTED_EDGE ( 'NONE', *, *, #657, .T. ) ;
#1045 = DIRECTION ( 'NONE',  ( 1.734723475976806848E-16, -1.000000000000000000, 0.000000000000000000 ) ) ;
#1046 = FACE_OUTER_BOUND ( 'NONE', #711, .T. ) ;
#1047 = EDGE_CURVE ( 'NONE', #722, #779, #56, .T. ) ;
#1048 = ORIENTED_EDGE ( 'NONE', *, *, #332, .T. ) ;
#1049 = CARTESIAN_POINT ( 'NONE',  ( 10.00000000000000178, 20.00000000000000000, 75.00000000000000000 ) ) ;
#1050 = CARTESIAN_POINT ( 'NONE',  ( 3.000000000000001776, -14.99999999999999822, 57.49999999999997868 ) ) ;
#1051 = DIRECTION ( 'NONE',  ( 0.000000000000000000, 1.000000000000000000, 0.000000000000000000 ) ) ;
#1052 = ADVANCED_FACE ( 'NONE', ( #912 ), #1174, .F. ) ;
#1053 = ORIENTED_EDGE ( 'NONE', *, *, #1118, .T. ) ;
#1054 = VERTEX_POINT ( 'NONE', #544 ) ;
#1055 = AXIS2_PLACEMENT_3D ( 'NONE', #99, #105, #488 ) ;
#1056 = FACE_OUTER_BOUND ( 'NONE', #762, .T. ) ;
#1057 = CARTESIAN_POINT ( 'NONE',  ( 3.000000000000001776, -14.99999999999999822, 57.49999999999997868 ) ) ;
#1058 = DIRECTION ( 'NONE',  ( 0.000000000000000000, 0.000000000000000000, 1.000000000000000000 ) ) ;
#1059 = EDGE_CURVE ( 'NONE', #101, #780, #150, .T. ) ;
#1060 = CARTESIAN_POINT ( 'NONE',  ( 3.000000000000001776, 15.00000000000000000, -62.50000000000000000 ) ) ;
#1061 = ORIENTED_EDGE ( 'NONE', *, *, #581, .T. ) ;
#1062 = ORIENTED_EDGE ( 'NONE', *, *, #714, .F. ) ;
#1063 = DIRECTION ( 'NONE',  ( 1.000000000000000000, -0.000000000000000000, -0.000000000000000000 ) ) ;
#1064 = EDGE_CURVE ( 'NONE', #850, #442, #1124, .T. ) ;
#1065 = DIRECTION ( 'NONE',  ( 0.000000000000000000, 1.000000000000000000, -0.000000000000000000 ) ) ;
#1066 = ORIENTED_EDGE ( 'NONE', *, *, #1064, .T. ) ;
#1067 = LINE ( 'NONE', #875, #138 ) ;
#1068 = EDGE_LOOP ( 'NONE', ( #954, #1172, #496, #97 ) ) ;
#1069 = VERTEX_POINT ( 'NONE', #799 ) ;
#1070 = VECTOR ( 'NONE', #368, 1000.000000000000000 ) ;
#1071 = FACE_OUTER_BOUND ( 'NONE', #755, .T. ) ;
#1072 = DIRECTION ( 'NONE',  ( 1.000000000000000000, -0.000000000000000000, -0.000000000000000000 ) ) ;
#1073 = VERTEX_POINT ( 'NONE', #986 ) ;
#1074 = FACE_OUTER_BOUND ( 'NONE', #531, .T. ) ;
#1075 = CARTESIAN_POINT ( 'NONE',  ( 9.999999999999984013, 40.00000000000000000, -75.00000000000000000 ) ) ;
#1076 = ORIENTED_EDGE ( 'NONE', *, *, #1111, .F. ) ;
#1077 = DIRECTION ( 'NONE',  ( 1.000000000000000000, -0.000000000000000000, -0.000000000000000000 ) ) ;
#1078 = CARTESIAN_POINT ( 'NONE',  ( -1.561251128379126385E-14, 15.00000000000000000, -60.00000000000000000 ) ) ;
#1079 = ADVANCED_FACE ( 'NONE', ( #1085 ), #533, .F. ) ;
#1080 = ORIENTED_EDGE ( 'NONE', *, *, #22, .T. ) ;
#1081 = CARTESIAN_POINT ( 'NONE',  ( 3.000000000000001776, 15.00000000000000000, -60.00000000000000000 ) ) ;
#1082 = DIRECTION ( 'NONE',  ( 0.000000000000000000, 0.000000000000000000, -1.000000000000000000 ) ) ;
#1083 = ORIENTED_EDGE ( 'NONE', *, *, #295, .T. ) ;
#1084 = CARTESIAN_POINT ( 'NONE',  ( 10.00000000000000178, -20.00000000000000000, -75.00000000000000000 ) ) ;
#1085 = FACE_OUTER_BOUND ( 'NONE', #63, .T. ) ;
#1086 = CIRCLE ( 'NONE', #465, 2.500000000000002220 ) ;
#1087 = CARTESIAN_POINT ( 'NONE',  ( 10.00000000000000178, -20.00000000000000000, 75.00000000000000000 ) ) ;
#1088 = VERTEX_POINT ( 'NONE', #1181 ) ;
#1089 = CYLINDRICAL_SURFACE ( 'NONE', #194, 2.500000000000002220 ) ;
#1090 = CONICAL_SURFACE ( 'NONE', #869, 5.000000000000004441, 0.7853981633974473908 ) ;
#1091 = VECTOR ( 'NONE', #765, 1000.000000000000000 ) ;
#1092 = DIRECTION ( 'NONE',  ( 1.000000000000000000, -0.000000000000000000, -0.000000000000000000 ) ) ;
#1093 = ORIENTED_EDGE ( 'NONE', *, *, #729, .F. ) ;
#1094 = LINE ( 'NONE', #266, #70 ) ;
#1095 = LINE ( 'NONE', #819, #826 ) ;
#1096 = CARTESIAN_POINT ( 'NONE',  ( 3.000000000000001776, 15.00000000000000000, -62.50000000000000000 ) ) ;
#1097 = EDGE_LOOP ( 'NONE', ( #960, #511, #1005, #887, #62, #129, #750, #108, #171, #609, #582, #926, #53, #296, #723, #753, #381, #238, #1201, #41 ) ) ;
#1098 = CARTESIAN_POINT ( 'NONE',  ( 3.000000000000001776, 15.00000000000000000, -62.50000000000000000 ) ) ;
#1099 = DIRECTION ( 'NONE',  ( 0.7071067811865476838, 8.659560562354931626E-17, 0.7071067811865474617 ) ) ;
#1100 = DIRECTION ( 'NONE',  ( -1.734723475976806848E-16, -1.000000000000000000, -0.000000000000000000 ) ) ;
#1101 = ADVANCED_FACE ( 'NONE', ( #264 ), #721, .F. ) ;
#1102 = AXIS2_PLACEMENT_3D ( 'NONE', #816, #785, #540 ) ;
#1103 = CARTESIAN_POINT ( 'NONE',  ( 9.999999999999984013, 40.00000000000000000, 75.00000000000000000 ) ) ;
#1104 = CYLINDRICAL_SURFACE ( 'NONE', #550, 2.500000000000002220 ) ;
#1105 = DIRECTION ( 'NONE',  ( 1.000000000000000000, -0.000000000000000000, -0.000000000000000000 ) ) ;
#1106 = EDGE_CURVE ( 'NONE', #930, #186, #635, .T. ) ;
#1107 = DIRECTION ( 'NONE',  ( 1.000000000000000000, -0.000000000000000000, -0.000000000000000000 ) ) ;
#1108 = FACE_OUTER_BOUND ( 'NONE', #283, .T. ) ;
#1109 = VERTEX_POINT ( 'NONE', #167 ) ;
#1110 = LINE ( 'NONE', #279, #392 ) ;
#1111 = EDGE_CURVE ( 'NONE', #304, #868, #611, .T. ) ;
#1112 = CARTESIAN_POINT ( 'NONE',  ( 3.000000000000001776, 25.00000000000000000, 75.00000000000000000 ) ) ;
#1113 = AXIS2_PLACEMENT_3D ( 'NONE', #942, #501, #482 ) ;
#1114 = ADVANCED_FACE ( 'NONE', ( #455 ), #823, .F. ) ;
#1115 = VERTEX_POINT ( 'NONE', #539 ) ;
#1116 = MANIFOLD_SOLID_BREP ( 'CSK for M5 Flat Head Machine Screw1', #1136 ) ;
#1117 = ORIENTED_EDGE ( 'NONE', *, *, #547, .F. ) ;
#1118 = EDGE_CURVE ( 'NONE', #768, #1125, #726, .T. ) ;
#1119 = VERTEX_POINT ( 'NONE', #1078 ) ;
#1120 = ORIENTED_EDGE ( 'NONE', *, *, #510, .F. ) ;
#1121 = VECTOR ( 'NONE', #215, 1000.000000000000000 ) ;
#1122 = PLANE ( 'NONE',  #979 ) ;
#1123 = VECTOR ( 'NONE', #1099, 1000.000000000000000 ) ;
#1124 = CIRCLE ( 'NONE', #911, 2.500000000000002220 ) ;
#1125 = VERTEX_POINT ( 'NONE', #248 ) ;
#1126 = EDGE_CURVE ( 'NONE', #10, #578, #925, .T. ) ;
#1127 = ORIENTED_EDGE ( 'NONE', *, *, #1203, .F. ) ;
#1128 = ADVANCED_BREP_SHAPE_REPRESENTATION ( 'PRT-13', ( #1116, #489 ), #804 ) ;
#1129 = LINE ( 'NONE', #676, #1036 ) ;
#1130 = VECTOR ( 'NONE', #808, 1000.000000000000000 ) ;
#1131 = VERTEX_POINT ( 'NONE', #654 ) ;
#1132 = ORIENTED_EDGE ( 'NONE', *, *, #11, .T. ) ;
#1133 = CARTESIAN_POINT ( 'NONE',  ( 7.000000000000000888, 20.00000000000000000, 75.00000000000000000 ) ) ;
#1134 = EDGE_CURVE ( 'NONE', #101, #707, #828, .T. ) ;
#1135 = LINE ( 'NONE', #309, #717 ) ;
#1136 = CLOSED_SHELL ( 'NONE', ( #730, #1140, #895, #251, #16, #702, #430, #1079, #341, #213, #671, #1, #1101, #1052, #595, #44, #971, #591, #490, #1024, #903, #924, #458, #1039, #562, #289, #915, #953, #24, #107, #1148, #624, #1114, #259, #1166, #349, #483, #364 ) ) ;
#1137 = VERTEX_POINT ( 'NONE', #1007 ) ;
#1138 = CARTESIAN_POINT ( 'NONE',  ( 3.000000000000001776, 15.00000000000000000, -57.49999999999999289 ) ) ;
#1139 = PLANE ( 'NONE',  #818 ) ;
#1140 = ADVANCED_FACE ( 'NONE', ( #553 ), #81, .F. ) ;
#1141 = PLANE ( 'NONE',  #1195 ) ;
#1142 = CONICAL_SURFACE ( 'NONE', #104, 5.000000000000004441, 0.7853981633974481680 ) ;
#1143 = EDGE_LOOP ( 'NONE', ( #1061, #338, #198, #801 ) ) ;
#1144 = ORIENTED_EDGE ( 'NONE', *, *, #683, .T. ) ;
#1145 = PLANE ( 'NONE',  #773 ) ;
#1146 = CARTESIAN_POINT ( 'NONE',  ( 7.000000000000001776, 5.000000000000000888, 75.00000000000000000 ) ) ;
#1147 = DIRECTION ( 'NONE',  ( -1.000000000000000000, 0.000000000000000000, 0.000000000000000000 ) ) ;
#1148 = ADVANCED_FACE ( 'NONE', ( #1108 ), #557, .F. ) ;
#1149 = EDGE_CURVE ( 'NONE', #685, #959, #174, .T. ) ;
#1150 = EDGE_LOOP ( 'NONE', ( #394, #310, #719, #305 ) ) ;
#1151 = VERTEX_POINT ( 'NONE', #372 ) ;
#1152 = UNCERTAINTY_MEASURE_WITH_UNIT (LENGTH_MEASURE( 1.000000000000000082E-05 ), #526, 'distance_accuracy_value', 'NONE');
#1153 = CARTESIAN_POINT ( 'NONE',  ( 3.000000000000001776, 15.00000000000000000, 62.49999999999999289 ) ) ;
#1154 = CARTESIAN_POINT ( 'NONE',  ( 7.000000000000001776, 25.00000000000000000, 75.00000000000000000 ) ) ;
#1155 = DIRECTION ( 'NONE',  ( 1.000000000000000000, -0.000000000000000000, -0.000000000000000000 ) ) ;
#1156 = DIRECTION ( 'NONE',  ( -1.000000000000000000, -0.000000000000000000, -0.000000000000000000 ) ) ;
#1157 = EDGE_LOOP ( 'NONE', ( #863, #262, #599, #1179 ) ) ;
#1158 = CIRCLE ( 'NONE', #815, 2.500000000000002220 ) ;
#1159 = CARTESIAN_POINT ( 'NONE',  ( 3.000000000000001776, 25.00000000000000000, 75.00000000000000000 ) ) ;
#1160 = DIRECTION ( 'NONE',  ( -1.734723475976807341E-16, 1.000000000000000000, 0.000000000000000000 ) ) ;
#1161 = ORIENTED_EDGE ( 'NONE', *, *, #814, .F. ) ;
#1162 = DIRECTION ( 'NONE',  ( 1.000000000000000000, -0.000000000000000000, -0.000000000000000000 ) ) ;
#1163 = CARTESIAN_POINT ( 'NONE',  ( 7.000000000000001776, 25.00000000000000000, -75.00000000000000000 ) ) ;
#1164 = CARTESIAN_POINT ( 'NONE',  ( 3.000000000000001776, 15.00000000000000000, 60.00000000000000000 ) ) ;
#1165 = ORIENTED_EDGE ( 'NONE', *, *, #253, .F. ) ;
#1166 = ADVANCED_FACE ( 'NONE', ( #1198 ), #1104, .F. ) ;
#1167 = DIRECTION ( 'NONE',  ( 0.000000000000000000, 0.000000000000000000, 1.000000000000000000 ) ) ;
#1168 = CARTESIAN_POINT ( 'NONE',  ( 7.000000000000000888, -20.00000000000000000, 75.00000000000000000 ) ) ;
#1169 = ORIENTED_EDGE ( 'NONE', *, *, #948, .F. ) ;
#1170 = DIRECTION ( 'NONE',  ( 1.000000000000000000, -0.000000000000000000, -0.000000000000000000 ) ) ;
#1171 = DIRECTION ( 'NONE',  ( 1.000000000000000000, -0.000000000000000000, -0.000000000000000000 ) ) ;
#1172 = ORIENTED_EDGE ( 'NONE', *, *, #644, .F. ) ;
#1173 = DIRECTION ( 'NONE',  ( -0.000000000000000000, -0.000000000000000000, -1.000000000000000000 ) ) ;
#1174 = PLANE ( 'NONE',  #872 ) ;
#1175 = VECTOR ( 'NONE', #274, 1000.000000000000000 ) ;
#1176 = EDGE_CURVE ( 'NONE', #959, #1088, #832, .T. ) ;
#1177 = CARTESIAN_POINT ( 'NONE',  ( 7.000000000000001776, 5.000000000000000888, 75.00000000000000000 ) ) ;
#1178 = ORIENTED_EDGE ( 'NONE', *, *, #436, .F. ) ;
#1179 = ORIENTED_EDGE ( 'NONE', *, *, #575, .F. ) ;
#1180 = DIRECTION ( 'NONE',  ( 1.000000000000000000, -0.000000000000000000, -0.000000000000000000 ) ) ;
#1181 = CARTESIAN_POINT ( 'NONE',  ( 10.00000000000000888, -40.00000000000000000, 75.00000000000000000 ) ) ;
#1182 = AXIS2_PLACEMENT_3D ( 'NONE', #426, #891, #52 ) ;
#1183 = DIRECTION ( 'NONE',  ( 0.000000000000000000, 0.000000000000000000, -1.000000000000000000 ) ) ;
#1184 = LINE ( 'NONE', #901, #1029 ) ;
#1185 = AXIS2_PLACEMENT_3D ( 'NONE', #54, #880, #149 ) ;
#1186 = DIRECTION ( 'NONE',  ( 0.000000000000000000, -0.000000000000000000, -1.000000000000000000 ) ) ;
#1187 = STYLED_ITEM ( 'NONE', ( #448 ), #1116 ) ;
#1188 = DIRECTION ( 'NONE',  ( 1.734723475976807341E-16, -1.000000000000000000, 0.000000000000000000 ) ) ;
#1189 = VECTOR ( 'NONE', #995, 1000.000000000000000 ) ;
#1190 = CARTESIAN_POINT ( 'NONE',  ( 3.000000000000001776, -14.99999999999999822, -62.50000000000000000 ) ) ;
#1191 = EDGE_CURVE ( 'NONE', #435, #779, #1013, .T. ) ;
#1192 = FACE_BOUND ( 'NONE', #12, .T. ) ;
#1193 = CARTESIAN_POINT ( 'NONE',  ( -1.561251128379126385E-14, -14.99999999999999822, -62.50000000000000000 ) ) ;
#1194 = DIRECTION ( 'NONE',  ( 1.000000000000000000, -0.000000000000000000, -0.000000000000000000 ) ) ;
#1195 = AXIS2_PLACEMENT_3D ( 'NONE', #314, #1051, #224 ) ;
#1196 = DIRECTION ( 'NONE',  ( 1.000000000000000000, -0.000000000000000000, -0.000000000000000000 ) ) ;
#1197 = EDGE_CURVE ( 'NONE', #1054, #420, #745, .T. ) ;
#1198 = FACE_OUTER_BOUND ( 'NONE', #1150, .T. ) ;
#1199 = DIRECTION ( 'NONE',  ( 0.000000000000000000, 0.000000000000000000, -1.000000000000000000 ) ) ;
#1200 = DIRECTION ( 'NONE',  ( 0.000000000000000000, 0.000000000000000000, -1.000000000000000000 ) ) ;
#1201 = ORIENTED_EDGE ( 'NONE', *, *, #208, .T. ) ;
#1202 = CARTESIAN_POINT ( 'NONE',  ( 10.00000000000000533, 10.00000000000000000, 75.00000000000000000 ) ) ;
#1203 = EDGE_CURVE ( 'NONE', #697, #151, #1034, .T. ) ;
#1204 = ORIENTED_EDGE ( 'NONE', *, *, #200, .T. ) ;
#1205 = CARTESIAN_POINT ( 'NONE',  ( 10.00000000000000178, -20.00000000000000000, -75.00000000000000000 ) ) ;
#1206 = PRODUCT_CONTEXT ( 'NONE', #134, 'mechanical' ) ;
#1207 = DIRECTION ( 'NONE',  ( 1.000000000000000000, -0.000000000000000000, -0.000000000000000000 ) ) ;
#1208 = ORIENTED_EDGE ( 'NONE', *, *, #472, .T. ) ;
#1209 = ORIENTED_EDGE ( 'NONE', *, *, #1191, .F. ) ;
#1210 = LINE ( 'NONE', #383, #1175 ) ;
#1211 = APPLICATION_PROTOCOL_DEFINITION ( 'draft international standard', 'automotive_design', 1998, #134 ) ;
ENDSEC;
END-ISO-10303-21;
