ISO-10303-21;
HEADER;
FILE_DESCRIPTION (( 'STEP AP214' ),
    '1' );
FILE_NAME ('PRT-22.STEP',
    '2025-07-15T13:05:46',
    ( '' ),
    ( '' ),
    'SwSTEP 2.0',
    'SolidWorks 2023',
    '' );
FILE_SCHEMA (( 'AUTOMOTIVE_DESIGN' ));
ENDSEC;

DATA;
#1 = VERTEX_POINT ( 'NONE', #644 ) ;
#2 = ORIENTED_EDGE ( 'NONE', *, *, #490, .F. ) ;
#3 = DIRECTION ( 'NONE',  ( 1.000000000000000000, 0.000000000000000000, 0.000000000000000000 ) ) ;
#4 = CARTESIAN_POINT ( 'NONE',  ( -13.25825214724783940, -13.25825214724769019, -8.000000000000000000 ) ) ;
#5 = EDGE_CURVE ( 'NONE', #942, #343, #29, .T. ) ;
#6 = ORIENTED_EDGE ( 'NONE', *, *, #305, .F. ) ;
#7 = ORIENTED_EDGE ( 'NONE', *, *, #423, .F. ) ;
#8 = CYLINDRICAL_SURFACE ( 'NONE', #168, 15.00000000000000000 ) ;
#9 = CARTESIAN_POINT ( 'NONE',  ( 24.00000000000000000, 2.939152317953647894E-15, 0.000000000000000000 ) ) ;
#10 =( GEOMETRIC_REPRESENTATION_CONTEXT ( 3 ) GLOBAL_UNCERTAINTY_ASSIGNED_CONTEXT ( ( #898 ) ) GLOBAL_UNIT_ASSIGNED_CONTEXT ( ( #539, #947, #431 ) ) REPRESENTATION_CONTEXT ( 'NONE', 'WORKASPACE' ) );
#11 = ORIENTED_EDGE ( 'NONE', *, *, #214, .F. ) ;
#12 = LINE ( 'NONE', #838, #1263 ) ;
#13 = AXIS2_PLACEMENT_3D ( 'NONE', #84, #1300, #605 ) ;
#14 = DIRECTION ( 'NONE',  ( -0.000000000000000000, -0.000000000000000000, 1.000000000000000000 ) ) ;
#15 = DIRECTION ( 'NONE',  ( -1.000000000000000000, 0.000000000000000000, -0.000000000000000000 ) ) ;
#16 = ADVANCED_FACE ( 'NONE', ( #746 ), #538, .F. ) ;
#17 = FACE_OUTER_BOUND ( 'NONE', #1015, .T. ) ;
#18 = EDGE_CURVE ( 'NONE', #212, #254, #533, .T. ) ;
#19 = CARTESIAN_POINT ( 'NONE',  ( 13.25825214724769374, -13.25825214724783585, -4.000000000000000000 ) ) ;
#20 = DIRECTION ( 'NONE',  ( 0.000000000000000000, 0.000000000000000000, 1.000000000000000000 ) ) ;
#21 = SHAPE_DEFINITION_REPRESENTATION ( #196, #197 ) ;
#22 = EDGE_LOOP ( 'NONE', ( #515, #1253, #124, #826 ) ) ;
#23 = CARTESIAN_POINT ( 'NONE',  ( -3.000000000000000000, 13.00000000000000178, -1.000000000000000888 ) ) ;
#24 = CIRCLE ( 'NONE', #914, 11.50000000000000888 ) ;
#25 = ADVANCED_FACE ( 'NONE', ( #1058, #17 ), #131, .F. ) ;
#26 = CARTESIAN_POINT ( 'NONE',  ( 0.000000000000000000, 0.000000000000000000, -1.000000000000000888 ) ) ;
#27 = FACE_OUTER_BOUND ( 'NONE', #1003, .T. ) ;
#28 = ORIENTED_EDGE ( 'NONE', *, *, #951, .T. ) ;
#29 = CIRCLE ( 'NONE', #312, 10.50000000000000000 ) ;
#30 = DIRECTION ( 'NONE',  ( 0.000000000000000000, 0.000000000000000000, 1.000000000000000000 ) ) ;
#31 = CARTESIAN_POINT ( 'NONE',  ( -4.000000000000007994, 14.00000000000000888, 0.000000000000000000 ) ) ;
#32 = AXIS2_PLACEMENT_3D ( 'NONE', #42, #864, #346 ) ;
#33 = EDGE_LOOP ( 'NONE', ( #245, #878 ) ) ;
#34 = AXIS2_PLACEMENT_3D ( 'NONE', #1146, #1331, #1126 ) ;
#35 = DIRECTION ( 'NONE',  ( -0.000000000000000000, -0.000000000000000000, 1.000000000000000000 ) ) ;
#36 = CARTESIAN_POINT ( 'NONE',  ( 3.000000000000000444, 10.06230589874905412, -30.19916611039150922 ) ) ;
#37 = DIRECTION ( 'NONE',  ( 1.000000000000000000, 0.000000000000000000, 0.000000000000000000 ) ) ;
#38 = ORIENTED_EDGE ( 'NONE', *, *, #744, .T. ) ;
#39 = EDGE_CURVE ( 'NONE', #594, #981, #398, .T. ) ;
#40 = CARTESIAN_POINT ( 'NONE',  ( 0.000000000000000000, 0.000000000000000000, -1.000000000000000888 ) ) ;
#41 = ORIENTED_EDGE ( 'NONE', *, *, #537, .F. ) ;
#42 = CARTESIAN_POINT ( 'NONE',  ( 0.000000000000000000, 0.000000000000000000, -33.99999999999997868 ) ) ;
#43 = DIRECTION ( 'NONE',  ( 1.000000000000000000, 0.000000000000000000, 0.000000000000000000 ) ) ;
#44 = DIRECTION ( 'NONE',  ( 1.000000000000000000, 0.000000000000000000, 0.000000000000000000 ) ) ;
#45 = ORIENTED_EDGE ( 'NONE', *, *, #951, .F. ) ;
#46 = EDGE_CURVE ( 'NONE', #1, #108, #12, .T. ) ;
#47 = EDGE_CURVE ( 'NONE', #981, #1094, #419, .T. ) ;
#48 = DIRECTION ( 'NONE',  ( 0.000000000000000000, 1.000000000000000000, 0.000000000000000000 ) ) ;
#49 = ORIENTED_EDGE ( 'NONE', *, *, #356, .F. ) ;
#50 = AXIS2_PLACEMENT_3D ( 'NONE', #64, #573, #486 ) ;
#51 = EDGE_CURVE ( 'NONE', #680, #551, #120, .T. ) ;
#52 = LINE ( 'NONE', #1287, #82 ) ;
#53 = CARTESIAN_POINT ( 'NONE',  ( -15.00000000000000000, 1.836970198721029589E-15, -33.99999999999997868 ) ) ;
#54 = DIRECTION ( 'NONE',  ( 1.000000000000000000, 0.000000000000000000, 0.000000000000000000 ) ) ;
#55 = DIRECTION ( 'NONE',  ( -0.000000000000000000, -0.000000000000000000, 1.000000000000000000 ) ) ;
#56 = ORIENTED_EDGE ( 'NONE', *, *, #317, .T. ) ;
#57 = CIRCLE ( 'NONE', #612, 13.99999999999997158 ) ;
#58 = DIRECTION ( 'NONE',  ( 0.000000000000000000, 0.000000000000000000, 1.000000000000000000 ) ) ;
#59 = ORIENTED_EDGE ( 'NONE', *, *, #666, .F. ) ;
#60 = AXIS2_PLACEMENT_3D ( 'NONE', #115, #646, #534 ) ;
#61 = FACE_OUTER_BOUND ( 'NONE', #1196, .T. ) ;
#62 = CARTESIAN_POINT ( 'NONE',  ( 0.000000000000000000, 0.000000000000000000, 0.000000000000000000 ) ) ;
#63 = VECTOR ( 'NONE', #48, 1000.000000000000000 ) ;
#64 = CARTESIAN_POINT ( 'NONE',  ( 0.000000000000000000, 13.00000000000000178, -30.00000000000000000 ) ) ;
#65 = DIRECTION ( 'NONE',  ( 1.000000000000000000, 0.000000000000000000, 0.000000000000000000 ) ) ;
#66 = CARTESIAN_POINT ( 'NONE',  ( 17.50825214724768841, 13.25825214724783940, 0.000000000000000000 ) ) ;
#67 = VECTOR ( 'NONE', #805, 1000.000000000000000 ) ;
#68 = ORIENTED_EDGE ( 'NONE', *, *, #490, .T. ) ;
#69 = CARTESIAN_POINT ( 'NONE',  ( 13.25825214724769374, -13.25825214724783585, 0.000000000000000000 ) ) ;
#70 = ORIENTED_EDGE ( 'NONE', *, *, #882, .T. ) ;
#71 = CARTESIAN_POINT ( 'NONE',  ( -17.50825214724783763, 13.25825214724769019, -4.000000000000000000 ) ) ;
#72 = ADVANCED_FACE ( 'NONE', ( #544 ), #638, .T. ) ;
#73 = LINE ( 'NONE', #481, #323 ) ;
#74 = DIRECTION ( 'NONE',  ( 0.7071067811865500152, 0.000000000000000000, 0.7071067811865451302 ) ) ;
#75 = EDGE_LOOP ( 'NONE', ( #227, #474, #614, #2 ) ) ;
#76 = DIRECTION ( 'NONE',  ( -0.000000000000000000, -0.000000000000000000, 1.000000000000000000 ) ) ;
#77 = DIRECTION ( 'NONE',  ( 1.000000000000000000, 0.000000000000000000, 0.000000000000000000 ) ) ;
#78 = DIRECTION ( 'NONE',  ( -0.000000000000000000, -0.000000000000000000, 1.000000000000000000 ) ) ;
#79 = CARTESIAN_POINT ( 'NONE',  ( 15.00000000000000000, 0.000000000000000000, -35.00000000000000000 ) ) ;
#80 = VERTEX_POINT ( 'NONE', #1250 ) ;
#81 = FACE_BOUND ( 'NONE', #607, .T. ) ;
#82 = VECTOR ( 'NONE', #35, 1000.000000000000000 ) ;
#83 = CARTESIAN_POINT ( 'NONE',  ( 13.25825214724769374, -13.25825214724783585, 0.000000000000000000 ) ) ;
#84 = CARTESIAN_POINT ( 'NONE',  ( 0.000000000000000000, 0.000000000000000000, -33.99999999999997868 ) ) ;
#85 = EDGE_LOOP ( 'NONE', ( #1262, #447, #1113, #339 ) ) ;
#86 = EDGE_CURVE ( 'NONE', #712, #108, #1097, .T. ) ;
#87 = EDGE_CURVE ( 'NONE', #212, #576, #100, .T. ) ;
#88 = CARTESIAN_POINT ( 'NONE',  ( -13.25825214724783940, 13.25825214724769019, -4.000000000000000000 ) ) ;
#89 = ORIENTED_EDGE ( 'NONE', *, *, #1144, .F. ) ;
#90 = CARTESIAN_POINT ( 'NONE',  ( 3.330899708984626617, 10.30894397975722931, -0.6691002910153767136 ) ) ;
#91 = LINE ( 'NONE', #502, #962 ) ;
#92 = EDGE_LOOP ( 'NONE', ( #969, #1170, #1129, #855 ) ) ;
#93 = EDGE_CURVE ( 'NONE', #1293, #1119, #846, .T. ) ;
#94 = CARTESIAN_POINT ( 'NONE',  ( -2.845194395620255001, 10.10747234740469125, -30.97133256230530662 ) ) ;
#95 = AXIS2_PLACEMENT_3D ( 'NONE', #1072, #648, #146 ) ;
#96 = ORIENTED_EDGE ( 'NONE', *, *, #1112, .T. ) ;
#97 = EDGE_LOOP ( 'NONE', ( #568, #41 ) ) ;
#98 = EDGE_CURVE ( 'NONE', #680, #785, #493, .T. ) ;
#99 = DIRECTION ( 'NONE',  ( 0.7071067811865463515, 8.659560562354918067E-17, -0.7071067811865487940 ) ) ;
#100 = CIRCLE ( 'NONE', #117, 4.249999999999998224 ) ;
#101 = AXIS2_PLACEMENT_3D ( 'NONE', #759, #1083, #132 ) ;
#102 = VECTOR ( 'NONE', #74, 1000.000000000000114 ) ;
#103 = ORIENTED_EDGE ( 'NONE', *, *, #98, .T. ) ;
#104 = ORIENTED_EDGE ( 'NONE', *, *, #221, .T. ) ;
#105 = ADVANCED_FACE ( 'NONE', ( #622 ), #1246, .F. ) ;
#106 = LINE ( 'NONE', #1219, #1317 ) ;
#107 = EDGE_CURVE ( 'NONE', #657, #1119, #110, .T. ) ;
#108 = VERTEX_POINT ( 'NONE', #234 ) ;
#109 = VERTEX_POINT ( 'NONE', #932 ) ;
#110 = LINE ( 'NONE', #224, #1122 ) ;
#111 = CARTESIAN_POINT ( 'NONE',  ( -2.384108497768252732, 10.22636761597017419, -31.83148928447828396 ) ) ;
#112 = AXIS2_PLACEMENT_3D ( 'NONE', #873, #342, #174 ) ;
#113 = ORIENTED_EDGE ( 'NONE', *, *, #547, .T. ) ;
#114 = VERTEX_POINT ( 'NONE', #939 ) ;
#115 = CARTESIAN_POINT ( 'NONE',  ( -13.25825214724783940, -13.25825214724769019, -8.000000000000000000 ) ) ;
#116 = DIRECTION ( 'NONE',  ( -0.000000000000000000, -0.000000000000000000, 1.000000000000000000 ) ) ;
#117 = AXIS2_PLACEMENT_3D ( 'NONE', #1038, #321, #1259 ) ;
#118 = ADVANCED_FACE ( 'NONE', ( #1044 ), #8, .T. ) ;
#119 = AXIS2_PLACEMENT_3D ( 'NONE', #949, #144, #558 ) ;
#120 = LINE ( 'NONE', #1256, #795 ) ;
#121 = CIRCLE ( 'NONE', #13, 15.00000000000000000 ) ;
#122 = CARTESIAN_POINT ( 'NONE',  ( 0.000000000000000000, 0.000000000000000000, -35.00000000000000000 ) ) ;
#123 = CARTESIAN_POINT ( 'NONE',  ( 3.000000000000000000, 13.00000000000000178, 0.000000000000000000 ) ) ;
#124 = ORIENTED_EDGE ( 'NONE', *, *, #411, .T. ) ;
#125 = EDGE_CURVE ( 'NONE', #649, #812, #1154, .T. ) ;
#126 = DIRECTION ( 'NONE',  ( 1.000000000000000000, 0.000000000000000000, 0.000000000000000000 ) ) ;
#127 = DIRECTION ( 'NONE',  ( -0.000000000000000000, -0.000000000000000000, 1.000000000000000000 ) ) ;
#128 = CARTESIAN_POINT ( 'NONE',  ( 0.000000000000000000, 0.000000000000000000, 0.000000000000000000 ) ) ;
#129 = DIRECTION ( 'NONE',  ( 1.000000000000000000, 0.000000000000000000, 0.000000000000000000 ) ) ;
#130 = ORIENTED_EDGE ( 'NONE', *, *, #794, .T. ) ;
#131 = PLANE ( 'NONE',  #530 ) ;
#132 = DIRECTION ( 'NONE',  ( -1.000000000000000000, 0.000000000000000000, -0.000000000000000000 ) ) ;
#133 = LINE ( 'NONE', #143, #464 ) ;
#134 = CARTESIAN_POINT ( 'NONE',  ( 2.260062277695723765, 10.25485779748860615, -31.98254280954723683 ) ) ;
#135 = ADVANCED_FACE ( 'NONE', ( #630 ), #829, .F. ) ;
#136 = DIRECTION ( 'NONE',  ( -0.000000000000000000, -0.000000000000000000, 1.000000000000000000 ) ) ;
#137 =( GEOMETRIC_REPRESENTATION_CONTEXT ( 3 ) GLOBAL_UNCERTAINTY_ASSIGNED_CONTEXT ( ( #1108 ) ) GLOBAL_UNIT_ASSIGNED_CONTEXT ( ( #1298, #370, #842 ) ) REPRESENTATION_CONTEXT ( 'NONE', 'WORKASPACE' ) );
#138 = ORIENTED_EDGE ( 'NONE', *, *, #336, .F. ) ;
#139 = VECTOR ( 'NONE', #362, 1000.000000000000000 ) ;
#140 = CIRCLE ( 'NONE', #119, 4.250000000000000000 ) ;
#141 = ORIENTED_EDGE ( 'NONE', *, *, #561, .T. ) ;
#142 = CIRCLE ( 'NONE', #1073, 10.50000000000000000 ) ;
#143 = CARTESIAN_POINT ( 'NONE',  ( 15.75825214724768664, -13.25825214724783585, 0.000000000000000000 ) ) ;
#144 = DIRECTION ( 'NONE',  ( -0.000000000000000000, -0.000000000000000000, 1.000000000000000000 ) ) ;
#145 = EDGE_CURVE ( 'NONE', #683, #642, #916, .T. ) ;
#146 = DIRECTION ( 'NONE',  ( 1.000000000000000000, 0.000000000000000000, 0.000000000000000000 ) ) ;
#147 = EDGE_CURVE ( 'NONE', #294, #389, #732, .T. ) ;
#148 = VERTEX_POINT ( 'NONE', #1049 ) ;
#149 = DIRECTION ( 'NONE',  ( 1.000000000000000000, 0.000000000000000000, 0.000000000000000000 ) ) ;
#150 = VERTEX_POINT ( 'NONE', #839 ) ;
#151 = DIRECTION ( 'NONE',  ( -0.000000000000000000, -0.000000000000000000, 1.000000000000000000 ) ) ;
#152 = CARTESIAN_POINT ( 'NONE',  ( 0.9691190455296896378, 10.45678650568870616, -32.84599878719389920 ) ) ;
#153 = CYLINDRICAL_SURFACE ( 'NONE', #392, 4.249999999999998224 ) ;
#154 = CYLINDRICAL_SURFACE ( 'NONE', #290, 4.249999999999998224 ) ;
#155 = PRODUCT_DEFINITION_CONTEXT ( 'detailed design', #879, 'design' ) ;
#156 = VERTEX_POINT ( 'NONE', #823 ) ;
#157 = ORIENTED_EDGE ( 'NONE', *, *, #147, .F. ) ;
#158 = AXIS2_PLACEMENT_3D ( 'NONE', #462, #567, #44 ) ;
#159 = PLANE ( 'NONE',  #632 ) ;
#160 = CARTESIAN_POINT ( 'NONE',  ( -3.017787392922980662E-24, 10.50000000000000000, -33.00000000000000000 ) ) ;
#161 = FACE_OUTER_BOUND ( 'NONE', #1247, .T. ) ;
#162 = CARTESIAN_POINT ( 'NONE',  ( 0.000000000000000000, 13.00000000000000178, -8.673617379884035472E-16 ) ) ;
#163 = DIRECTION ( 'NONE',  ( 1.000000000000000000, 0.000000000000000000, 0.000000000000000000 ) ) ;
#164 = ORIENTED_EDGE ( 'NONE', *, *, #606, .T. ) ;
#165 = AXIS2_PLACEMENT_3D ( 'NONE', #277, #1087, #252 ) ;
#166 = FACE_BOUND ( 'NONE', #231, .T. ) ;
#167 = ADVANCED_FACE ( 'NONE', ( #847 ), #948, .F. ) ;
#168 = AXIS2_PLACEMENT_3D ( 'NONE', #122, #414, #219 ) ;
#169 = EDGE_LOOP ( 'NONE', ( #1200, #7 ) ) ;
#170 = AXIS2_PLACEMENT_3D ( 'NONE', #442, #238, #970 ) ;
#171 = CARTESIAN_POINT ( 'NONE',  ( -15.75825214724783230, -13.25825214724769019, -8.000000000000000000 ) ) ;
#172 = AXIS2_PLACEMENT_3D ( 'NONE', #216, #296, #15 ) ;
#173 = CARTESIAN_POINT ( 'NONE',  ( 15.75825214724769019, 13.25825214724783940, -4.000000000000000000 ) ) ;
#174 = DIRECTION ( 'NONE',  ( 1.000000000000000000, 0.000000000000000000, 0.000000000000000000 ) ) ;
#175 = DIRECTION ( 'NONE',  ( 1.000000000000000000, 0.000000000000000000, 0.000000000000000000 ) ) ;
#176 = AXIS2_PLACEMENT_3D ( 'NONE', #529, #1251, #824 ) ;
#177 = ORIENTED_EDGE ( 'NONE', *, *, #624, .T. ) ;
#178 = DIRECTION ( 'NONE',  ( -0.000000000000000000, -0.000000000000000000, 1.000000000000000000 ) ) ;
#179 = DIRECTION ( 'NONE',  ( 0.000000000000000000, 0.000000000000000000, 1.000000000000000000 ) ) ;
#180 = CARTESIAN_POINT ( 'NONE',  ( -13.25825214724783940, 13.25825214724769019, 0.000000000000000000 ) ) ;
#181 = CARTESIAN_POINT ( 'NONE',  ( -9.008252147247837627, -13.25825214724769019, 0.000000000000000000 ) ) ;
#182 = ORIENTED_EDGE ( 'NONE', *, *, #375, .F. ) ;
#183 = DIRECTION ( 'NONE',  ( -0.000000000000000000, -0.000000000000000000, 1.000000000000000000 ) ) ;
#184 = ORIENTED_EDGE ( 'NONE', *, *, #934, .F. ) ;
#185 = CARTESIAN_POINT ( 'NONE',  ( -13.25825214724783940, -13.25825214724769019, -4.000000000000000000 ) ) ;
#186 = DIRECTION ( 'NONE',  ( 0.000000000000000000, 0.000000000000000000, 1.000000000000000000 ) ) ;
#187 = ORIENTED_EDGE ( 'NONE', *, *, #1191, .F. ) ;
#188 = EDGE_CURVE ( 'NONE', #1030, #680, #1254, .T. ) ;
#189 = CARTESIAN_POINT ( 'NONE',  ( 13.25825214724769019, 13.25825214724783940, 0.000000000000000000 ) ) ;
#190 = ORIENTED_EDGE ( 'NONE', *, *, #902, .T. ) ;
#191 = LINE ( 'NONE', #691, #689 ) ;
#192 = DIRECTION ( 'NONE',  ( 0.000000000000000000, 0.000000000000000000, 1.000000000000000000 ) ) ;
#193 = AXIS2_PLACEMENT_3D ( 'NONE', #1012, #588, #1118 ) ;
#194 = EDGE_CURVE ( 'NONE', #621, #1081, #601, .T. ) ;
#195 = VECTOR ( 'NONE', #1225, 1000.000000000000114 ) ;
#196 = PRODUCT_DEFINITION_SHAPE ( 'NONE', 'NONE',  #239 ) ;
#197 = ADVANCED_BREP_SHAPE_REPRESENTATION ( 'PRT-22', ( #378, #1245 ), #137 ) ;
#198 = ORIENTED_EDGE ( 'NONE', *, *, #107, .T. ) ;
#199 = FACE_OUTER_BOUND ( 'NONE', #374, .T. ) ;
#200 = CARTESIAN_POINT ( 'NONE',  ( -3.000000000000000000, 10.06230589874905590, -30.19939813032340226 ) ) ;
#201 = VERTEX_POINT ( 'NONE', #229 ) ;
#202 = ORIENTED_EDGE ( 'NONE', *, *, #125, .T. ) ;
#203 = DIRECTION ( 'NONE',  ( -0.000000000000000000, -0.000000000000000000, 1.000000000000000000 ) ) ;
#204 = AXIS2_PLACEMENT_3D ( 'NONE', #783, #968, #453 ) ;
#205 = ORIENTED_EDGE ( 'NONE', *, *, #46, .T. ) ;
#206 = ORIENTED_EDGE ( 'NONE', *, *, #51, .T. ) ;
#207 = ADVANCED_FACE ( 'NONE', ( #640 ), #937, .T. ) ;
#208 = CARTESIAN_POINT ( 'NONE',  ( -0.3923616460756126356, 10.49446477243525067, -32.98079976920261203 ) ) ;
#209 = VECTOR ( 'NONE', #14, 1000.000000000000000 ) ;
#210 = CIRCLE ( 'NONE', #876, 4.249999999999998224 ) ;
#211 = AXIS2_PLACEMENT_3D ( 'NONE', #1288, #355, #1115 ) ;
#212 = VERTEX_POINT ( 'NONE', #548 ) ;
#213 = VERTEX_POINT ( 'NONE', #459 ) ;
#214 = EDGE_CURVE ( 'NONE', #825, #1212, #1209, .T. ) ;
#215 = DIRECTION ( 'NONE',  ( 1.000000000000000000, 0.000000000000000000, 0.000000000000000000 ) ) ;
#216 = CARTESIAN_POINT ( 'NONE',  ( -10.75825214724783763, -13.25825214724769019, -4.000000000000000000 ) ) ;
#217 = ORIENTED_EDGE ( 'NONE', *, *, #271, .T. ) ;
#218 = DIRECTION ( 'NONE',  ( 0.000000000000000000, 0.000000000000000000, 1.000000000000000000 ) ) ;
#219 = DIRECTION ( 'NONE',  ( 1.000000000000000000, 0.000000000000000000, 0.000000000000000000 ) ) ;
#220 = CARTESIAN_POINT ( 'NONE',  ( -13.25825214724783940, -13.25825214724769019, 0.000000000000000000 ) ) ;
#221 = EDGE_CURVE ( 'NONE', #1137, #213, #377, .T. ) ;
#222 = CIRCLE ( 'NONE', #1153, 25.00000000000000000 ) ;
#223 = CARTESIAN_POINT ( 'NONE',  ( 15.75825214724769374, -13.25825214724783585, -4.000000000000000000 ) ) ;
#224 = CARTESIAN_POINT ( 'NONE',  ( -17.50825214724783763, 13.25825214724769019, 0.000000000000000000 ) ) ;
#225 = DIRECTION ( 'NONE',  ( 0.000000000000000000, 0.000000000000000000, 1.000000000000000000 ) ) ;
#226 = CONICAL_SURFACE ( 'NONE', #959, 10.50000000000000000, 0.7853981633974517207 ) ;
#227 = ORIENTED_EDGE ( 'NONE', *, *, #1027, .F. ) ;
#228 = ADVANCED_FACE ( 'NONE', ( #564 ), #340, .F. ) ;
#229 = CARTESIAN_POINT ( 'NONE',  ( 9.008252147247693742, -13.25825214724783585, -4.000000000000000000 ) ) ;
#230 = DIRECTION ( 'NONE',  ( 0.000000000000000000, -1.000000000000000000, 0.000000000000000000 ) ) ;
#231 = EDGE_LOOP ( 'NONE', ( #104, #381 ) ) ;
#232 = DIRECTION ( 'NONE',  ( -0.000000000000000000, -0.000000000000000000, 1.000000000000000000 ) ) ;
#233 = EDGE_CURVE ( 'NONE', #942, #594, #957, .T. ) ;
#234 = CARTESIAN_POINT ( 'NONE',  ( 10.75825214724769197, -13.25825214724783585, -4.000000000000000000 ) ) ;
#235 = CARTESIAN_POINT ( 'NONE',  ( 0.000000000000000000, 0.000000000000000000, -35.00000000000000000 ) ) ;
#236 = DIRECTION ( 'NONE',  ( 0.000000000000000000, 0.000000000000000000, 1.000000000000000000 ) ) ;
#237 = ORIENTED_EDGE ( 'NONE', *, *, #233, .F. ) ;
#238 = DIRECTION ( 'NONE',  ( 0.000000000000000000, 0.000000000000000000, 1.000000000000000000 ) ) ;
#239 = PRODUCT_DEFINITION ( 'UNKNOWN', '', #894, #155 ) ;
#240 = ORIENTED_EDGE ( 'NONE', *, *, #961, .T. ) ;
#241 = EDGE_CURVE ( 'NONE', #935, #1042, #779, .T. ) ;
#242 = FACE_OUTER_BOUND ( 'NONE', #1116, .T. ) ;
#243 = LINE ( 'NONE', #1070, #724 ) ;
#244 = DIRECTION ( 'NONE',  ( 1.000000000000000000, 0.000000000000000000, 0.000000000000000000 ) ) ;
#245 = ORIENTED_EDGE ( 'NONE', *, *, #1161, .F. ) ;
#246 = CARTESIAN_POINT ( 'NONE',  ( 3.000000000000000000, 13.00000000000000178, -1.000000000000000888 ) ) ;
#247 = AXIS2_PLACEMENT_3D ( 'NONE', #282, #990, #272 ) ;
#248 = EDGE_LOOP ( 'NONE', ( #138, #205, #822, #977 ) ) ;
#249 = VECTOR ( 'NONE', #993, 1000.000000000000000 ) ;
#250 = CARTESIAN_POINT ( 'NONE',  ( 3.000000000000000000, 14.00000000000000888, 0.000000000000000000 ) ) ;
#251 = CARTESIAN_POINT ( 'NONE',  ( 2.902177825525292576, 10.09103587860701801, -30.78501138219342437 ) ) ;
#252 = DIRECTION ( 'NONE',  ( 1.000000000000000000, 0.000000000000000000, 0.000000000000000000 ) ) ;
#253 = DIRECTION ( 'NONE',  ( 0.000000000000000000, 0.000000000000000000, 1.000000000000000000 ) ) ;
#254 = VERTEX_POINT ( 'NONE', #1197 ) ;
#255 = DIRECTION ( 'NONE',  ( 0.000000000000000000, 0.000000000000000000, 1.000000000000000000 ) ) ;
#256 = ORIENTED_EDGE ( 'NONE', *, *, #194, .F. ) ;
#257 = CARTESIAN_POINT ( 'NONE',  ( 0.000000000000000000, 0.000000000000000000, -33.99999999999997868 ) ) ;
#258 = CARTESIAN_POINT ( 'NONE',  ( -3.000000000000000000, 10.06230589874905412, -1.000000000000000888 ) ) ;
#259 = DIRECTION ( 'NONE',  ( 1.000000000000000000, 0.000000000000000000, 0.000000000000000000 ) ) ;
#260 = DIRECTION ( 'NONE',  ( -0.000000000000000000, -0.000000000000000000, -1.000000000000000000 ) ) ;
#261 = DIRECTION ( 'NONE',  ( 0.000000000000000000, -1.000000000000000000, 0.000000000000000000 ) ) ;
#262 = ORIENTED_EDGE ( 'NONE', *, *, #687, .T. ) ;
#263 = EDGE_CURVE ( 'NONE', #114, #712, #133, .T. ) ;
#264 = DIRECTION ( 'NONE',  ( 1.000000000000000000, 0.000000000000000000, 0.000000000000000000 ) ) ;
#265 = VERTEX_POINT ( 'NONE', #451 ) ;
#266 = LINE ( 'NONE', #671, #708 ) ;
#267 = DIRECTION ( 'NONE',  ( 0.000000000000000000, 0.000000000000000000, 1.000000000000000000 ) ) ;
#268 = CARTESIAN_POINT ( 'NONE',  ( -13.25825214724783940, -13.25825214724769019, 0.000000000000000000 ) ) ;
#269 = CARTESIAN_POINT ( 'NONE',  ( 9.008252147247690189, -13.25825214724783585, 0.000000000000000000 ) ) ;
#270 = ORIENTED_EDGE ( 'NONE', *, *, #634, .T. ) ;
#271 = EDGE_CURVE ( 'NONE', #1212, #504, #982, .T. ) ;
#272 = DIRECTION ( 'NONE',  ( -0.000000000000000000, 0.000000000000000000, 1.000000000000000000 ) ) ;
#273 = AXIS2_PLACEMENT_3D ( 'NONE', #430, #30, #425 ) ;
#274 = AXIS2_PLACEMENT_3D ( 'NONE', #40, #449, #862 ) ;
#275 = FACE_OUTER_BOUND ( 'NONE', #345, .T. ) ;
#276 = CIRCLE ( 'NONE', #1013, 24.00000000000000000 ) ;
#277 = CARTESIAN_POINT ( 'NONE',  ( 0.000000000000000000, 0.000000000000000000, -35.00000000000000000 ) ) ;
#278 = CARTESIAN_POINT ( 'NONE',  ( 13.25825214724769374, -13.25825214724783585, 0.000000000000000000 ) ) ;
#279 = LINE ( 'NONE', #293, #603 ) ;
#280 = AXIS2_PLACEMENT_3D ( 'NONE', #185, #78, #906 ) ;
#281 = ORIENTED_EDGE ( 'NONE', *, *, #503, .T. ) ;
#282 = CARTESIAN_POINT ( 'NONE',  ( -3.000000000000000000, 13.00000000000000178, 0.000000000000000000 ) ) ;
#283 = EDGE_CURVE ( 'NONE', #201, #713, #52, .T. ) ;
#284 = ORIENTED_EDGE ( 'NONE', *, *, #307, .T. ) ;
#285 = DIRECTION ( 'NONE',  ( 0.000000000000000000, 0.000000000000000000, 1.000000000000000000 ) ) ;
#286 = DIRECTION ( 'NONE',  ( 1.000000000000000000, 0.000000000000000000, 0.000000000000000000 ) ) ;
#287 = VERTEX_POINT ( 'NONE', #662 ) ;
#288 = FACE_OUTER_BOUND ( 'NONE', #719, .T. ) ;
#289 = ADVANCED_FACE ( 'NONE', ( #1188 ), #416, .T. ) ;
#290 = AXIS2_PLACEMENT_3D ( 'NONE', #775, #334, #750 ) ;
#291 = ADVANCED_FACE ( 'NONE', ( #670, #61 ), #159, .F. ) ;
#292 = DIRECTION ( 'NONE',  ( 1.000000000000000000, 0.000000000000000000, 0.000000000000000000 ) ) ;
#293 = CARTESIAN_POINT ( 'NONE',  ( -9.008252147247839403, -13.25825214724769019, 0.000000000000000000 ) ) ;
#294 = VERTEX_POINT ( 'NONE', #557 ) ;
#295 = CARTESIAN_POINT ( 'NONE',  ( 10.50000000000000000, 0.000000000000000000, -1.000000000000000888 ) ) ;
#296 = DIRECTION ( 'NONE',  ( 0.000000000000000000, 0.000000000000000000, -1.000000000000000000 ) ) ;
#297 = CIRCLE ( 'NONE', #438, 4.249999999999998224 ) ;
#298 = AXIS2_PLACEMENT_3D ( 'NONE', #1099, #1109, #175 ) ;
#299 = EDGE_LOOP ( 'NONE', ( #963, #1248, #384, #1311 ) ) ;
#300 = ORIENTED_EDGE ( 'NONE', *, *, #283, .T. ) ;
#301 = DIRECTION ( 'NONE',  ( 0.000000000000000000, 0.000000000000000000, 1.000000000000000000 ) ) ;
#302 = ADVANCED_FACE ( 'NONE', ( #242 ), #635, .T. ) ;
#303 = ORIENTED_EDGE ( 'NONE', *, *, #1139, .T. ) ;
#304 = ORIENTED_EDGE ( 'NONE', *, *, #929, .F. ) ;
#305 = EDGE_CURVE ( 'NONE', #396, #327, #1178, .T. ) ;
#306 = CARTESIAN_POINT ( 'NONE',  ( -1.511828303610746715, 10.39692952775775225, -32.62050222826559320 ) ) ;
#307 = EDGE_CURVE ( 'NONE', #1042, #504, #1332, .T. ) ;
#308 = ORIENTED_EDGE ( 'NONE', *, *, #561, .F. ) ;
#309 = VERTEX_POINT ( 'NONE', #246 ) ;
#310 = DIRECTION ( 'NONE',  ( 0.7071067811865451302, -0.000000000000000000, 0.7071067811865500152 ) ) ;
#311 = PLANE ( 'NONE',  #402 ) ;
#312 = AXIS2_PLACEMENT_3D ( 'NONE', #330, #218, #126 ) ;
#313 = CIRCLE ( 'NONE', #1071, 2.999999999999999112 ) ;
#314 = AXIS2_PLACEMENT_3D ( 'NONE', #1297, #363, #1095 ) ;
#315 = ORIENTED_EDGE ( 'NONE', *, *, #606, .F. ) ;
#316 = ORIENTED_EDGE ( 'NONE', *, *, #540, .F. ) ;
#317 = EDGE_CURVE ( 'NONE', #109, #396, #668, .T. ) ;
#318 = DIRECTION ( 'NONE',  ( 0.000000000000000000, 0.000000000000000000, 1.000000000000000000 ) ) ;
#319 = PLANE ( 'NONE',  #172 ) ;
#320 = ORIENTED_EDGE ( 'NONE', *, *, #924, .T. ) ;
#321 = DIRECTION ( 'NONE',  ( -0.000000000000000000, -0.000000000000000000, 1.000000000000000000 ) ) ;
#322 = CARTESIAN_POINT ( 'NONE',  ( 0.1966770027500105711, 10.50000000000000000, -33.00000000000000000 ) ) ;
#323 = VECTOR ( 'NONE', #358, 1000.000000000000000 ) ;
#324 = DIRECTION ( 'NONE',  ( 0.7071067811865500152, 0.000000000000000000, 0.7071067811865451302 ) ) ;
#325 = CARTESIAN_POINT ( 'NONE',  ( -13.25825214724783940, 13.25825214724769019, -4.000000000000000000 ) ) ;
#326 = CARTESIAN_POINT ( 'NONE',  ( -15.75825214724783940, -13.25825214724769019, -4.000000000000000000 ) ) ;
#327 = VERTEX_POINT ( 'NONE', #562 ) ;
#328 = EDGE_CURVE ( 'NONE', #114, #1, #1333, .T. ) ;
#329 = VECTOR ( 'NONE', #1198, 1000.000000000000000 ) ;
#330 = CARTESIAN_POINT ( 'NONE',  ( 0.000000000000000000, 0.000000000000000000, -35.00000000000000000 ) ) ;
#331 = AXIS2_PLACEMENT_3D ( 'NONE', #501, #709, #382 ) ;
#332 = DIRECTION ( 'NONE',  ( 1.000000000000000000, 0.000000000000000000, 0.000000000000000000 ) ) ;
#333 = CARTESIAN_POINT ( 'NONE',  ( 0.7817338133391226185, 10.47263656987540337, -32.90301357156933904 ) ) ;
#334 = DIRECTION ( 'NONE',  ( -0.000000000000000000, -0.000000000000000000, 1.000000000000000000 ) ) ;
#335 = ORIENTED_EDGE ( 'NONE', *, *, #87, .T. ) ;
#336 = EDGE_CURVE ( 'NONE', #1, #114, #1181, .T. ) ;
#337 = ADVANCED_FACE ( 'NONE', ( #1270 ), #868, .T. ) ;
#338 = LINE ( 'NONE', #1163, #63 ) ;
#339 = ORIENTED_EDGE ( 'NONE', *, *, #860, .F. ) ;
#340 = CYLINDRICAL_SURFACE ( 'NONE', #1312, 3.000000000000002665 ) ;
#341 = DIRECTION ( 'NONE',  ( 1.000000000000000000, 0.000000000000000000, 0.000000000000000000 ) ) ;
#342 = DIRECTION ( 'NONE',  ( -0.000000000000000000, -0.000000000000000000, -1.000000000000000000 ) ) ;
#343 = VERTEX_POINT ( 'NONE', #660 ) ;
#344 = FACE_OUTER_BOUND ( 'NONE', #896, .T. ) ;
#345 = EDGE_LOOP ( 'NONE', ( #483, #808, #801, #1132 ) ) ;
#346 = DIRECTION ( 'NONE',  ( 1.000000000000000000, 0.000000000000000000, 0.000000000000000000 ) ) ;
#347 = CYLINDRICAL_SURFACE ( 'NONE', #1289, 4.249999999999998224 ) ;
#348 = DIRECTION ( 'NONE',  ( 1.000000000000000000, 0.000000000000000000, 0.000000000000000000 ) ) ;
#349 = ORIENTED_EDGE ( 'NONE', *, *, #735, .T. ) ;
#350 = FILL_AREA_STYLE ('',( #1285 ) ) ;
#351 = VECTOR ( 'NONE', #127, 1000.000000000000000 ) ;
#352 = ORIENTED_EDGE ( 'NONE', *, *, #860, .T. ) ;
#353 = AXIS2_PLACEMENT_3D ( 'NONE', #180, #1016, #912 ) ;
#354 = CARTESIAN_POINT ( 'NONE',  ( 0.000000000000000000, 13.00000000000000178, -30.00000000000000000 ) ) ;
#355 = DIRECTION ( 'NONE',  ( 0.000000000000000000, 0.000000000000000000, 1.000000000000000000 ) ) ;
#356 = EDGE_CURVE ( 'NONE', #683, #396, #338, .T. ) ;
#357 = FACE_OUTER_BOUND ( 'NONE', #85, .T. ) ;
#358 = DIRECTION ( 'NONE',  ( 0.000000000000000000, -1.000000000000000000, 0.000000000000000000 ) ) ;
#359 = ORIENTED_EDGE ( 'NONE', *, *, #307, .F. ) ;
#360 = SURFACE_SIDE_STYLE ('',( #677 ) ) ;
#361 = ORIENTED_EDGE ( 'NONE', *, *, #637, .F. ) ;
#362 = DIRECTION ( 'NONE',  ( -0.7071067811865463515, 0.000000000000000000, -0.7071067811865487940 ) ) ;
#363 = DIRECTION ( 'NONE',  ( 0.000000000000000000, 0.000000000000000000, 1.000000000000000000 ) ) ;
#364 = EDGE_CURVE ( 'NONE', #580, #1324, #1294, .T. ) ;
#365 = DIRECTION ( 'NONE',  ( 1.000000000000000000, 0.000000000000000000, 0.000000000000000000 ) ) ;
#366 = CARTESIAN_POINT ( 'NONE',  ( 0.000000000000000000, 0.000000000000000000, -8.000000000000000000 ) ) ;
#367 = ORIENTED_EDGE ( 'NONE', *, *, #1037, .F. ) ;
#368 = CARTESIAN_POINT ( 'NONE',  ( -9.008252147247839403, 13.25825214724769019, 0.000000000000000000 ) ) ;
#369 = LINE ( 'NONE', #572, #329 ) ;
#370 =( NAMED_UNIT ( * ) PLANE_ANGLE_UNIT ( ) SI_UNIT ( $, .RADIAN. ) );
#371 = ORIENTED_EDGE ( 'NONE', *, *, #1059, .T. ) ;
#372 = CARTESIAN_POINT ( 'NONE',  ( 9.008252147247690189, 13.25825214724783940, 0.000000000000000000 ) ) ;
#373 = CARTESIAN_POINT ( 'NONE',  ( 17.50825214724768841, 13.25825214724783940, -4.000000000000000000 ) ) ;
#374 = EDGE_LOOP ( 'NONE', ( #1319, #771, #610, #1036 ) ) ;
#375 = EDGE_CURVE ( 'NONE', #696, #713, #707, .T. ) ;
#376 = PLANE ( 'NONE',  #828 ) ;
#377 = CIRCLE ( 'NONE', #552, 2.499999999999995115 ) ;
#378 = MANIFOLD_SOLID_BREP ( 'Chamfer1', #1177 ) ;
#379 = CIRCLE ( 'NONE', #938, 4.250000000000001776 ) ;
#380 = VECTOR ( 'NONE', #99, 1000.000000000000000 ) ;
#381 = ORIENTED_EDGE ( 'NONE', *, *, #420, .T. ) ;
#382 = DIRECTION ( 'NONE',  ( 1.000000000000000000, 0.000000000000000000, 0.000000000000000000 ) ) ;
#383 = CARTESIAN_POINT ( 'NONE',  ( -3.000000000000000000, 13.00000000000000178, -30.00000000000000000 ) ) ;
#384 = ORIENTED_EDGE ( 'NONE', *, *, #1338, .T. ) ;
#385 = FACE_OUTER_BOUND ( 'NONE', #778, .T. ) ;
#386 = ADVANCED_FACE ( 'NONE', ( #645, #747 ), #545, .F. ) ;
#387 = DIRECTION ( 'NONE',  ( 1.000000000000000000, 0.000000000000000000, 0.000000000000000000 ) ) ;
#388 = LINE ( 'NONE', #66, #67 ) ;
#389 = VERTEX_POINT ( 'NONE', #954 ) ;
#390 = CARTESIAN_POINT ( 'NONE',  ( -10.75825214724784296, -13.25825214724769019, 0.000000000000000000 ) ) ;
#391 = EDGE_LOOP ( 'NONE', ( #315, #536, #516, #187 ) ) ;
#392 = AXIS2_PLACEMENT_3D ( 'NONE', #1304, #471, #259 ) ;
#393 = CARTESIAN_POINT ( 'NONE',  ( 0.000000000000000000, 0.000000000000000000, 0.000000000000000000 ) ) ;
#394 = PLANE ( 'NONE',  #877 ) ;
#395 = CIRCLE ( 'NONE', #112, 13.99999999999997158 ) ;
#396 = VERTEX_POINT ( 'NONE', #31 ) ;
#397 = ORIENTED_EDGE ( 'NONE', *, *, #475, .F. ) ;
#398 = CIRCLE ( 'NONE', #273, 10.50000000000000000 ) ;
#399 = CARTESIAN_POINT ( 'NONE',  ( -2.694171336989647170, 10.14877180792645639, -31.33418848084029662 ) ) ;
#400 = ADVANCED_FACE ( 'NONE', ( #344 ), #752, .T. ) ;
#401 = AXIS2_PLACEMENT_3D ( 'NONE', #1186, #58, #854 ) ;
#402 = AXIS2_PLACEMENT_3D ( 'NONE', #933, #415, #830 ) ;
#403 = ORIENTED_EDGE ( 'NONE', *, *, #86, .T. ) ;
#404 = EDGE_LOOP ( 'NONE', ( #1174, #1278 ) ) ;
#405 = FACE_BOUND ( 'NONE', #33, .T. ) ;
#406 = EDGE_CURVE ( 'NONE', #981, #389, #769, .T. ) ;
#407 = ORIENTED_EDGE ( 'NONE', *, *, #283, .F. ) ;
#408 = ORIENTED_EDGE ( 'NONE', *, *, #803, .F. ) ;
#409 = CARTESIAN_POINT ( 'NONE',  ( -3.000000000000000000, 10.06230589874905412, -1.000000000000000888 ) ) ;
#410 = DIRECTION ( 'NONE',  ( -0.000000000000000000, -0.000000000000000000, 1.000000000000000000 ) ) ;
#411 = EDGE_CURVE ( 'NONE', #812, #761, #1276, .T. ) ;
#412 = ORIENTED_EDGE ( 'NONE', *, *, #525, .F. ) ;
#413 = ORIENTED_EDGE ( 'NONE', *, *, #794, .F. ) ;
#414 = DIRECTION ( 'NONE',  ( 0.000000000000000000, 0.000000000000000000, 1.000000000000000000 ) ) ;
#415 = DIRECTION ( 'NONE',  ( 0.000000000000000000, -0.7071067811865451302, 0.7071067811865500152 ) ) ;
#416 = CONICAL_SURFACE ( 'NONE', #1230, 15.00000000000000000, 0.7853981633974517207 ) ;
#417 = PRESENTATION_LAYER_ASSIGNMENT (  '', '', ( #988 ) ) ;
#418 = EDGE_LOOP ( 'NONE', ( #1035, #793, #1269, #1053 ) ) ;
#419 = LINE ( 'NONE', #629, #1047 ) ;
#420 = EDGE_CURVE ( 'NONE', #213, #1137, #741, .T. ) ;
#421 = CARTESIAN_POINT ( 'NONE',  ( 13.25825214724769374, -13.25825214724783585, 0.000000000000000000 ) ) ;
#422 = CARTESIAN_POINT ( 'NONE',  ( -15.00000000000000000, 1.836970198721029589E-15, -8.000000000000000000 ) ) ;
#423 = EDGE_CURVE ( 'NONE', #150, #1324, #617, .T. ) ;
#424 = DIRECTION ( 'NONE',  ( 1.000000000000000000, 0.000000000000000000, 0.000000000000000000 ) ) ;
#425 = DIRECTION ( 'NONE',  ( 1.000000000000000000, 0.000000000000000000, 0.000000000000000000 ) ) ;
#426 = DIRECTION ( 'NONE',  ( 1.000000000000000000, 0.000000000000000000, 0.000000000000000000 ) ) ;
#427 = DIRECTION ( 'NONE',  ( 0.000000000000000000, 0.000000000000000000, -1.000000000000000000 ) ) ;
#428 = ORIENTED_EDGE ( 'NONE', *, *, #540, .T. ) ;
#429 = AXIS2_PLACEMENT_3D ( 'NONE', #1166, #550, #960 ) ;
#430 = CARTESIAN_POINT ( 'NONE',  ( 0.000000000000000000, 0.000000000000000000, -1.000000000000000888 ) ) ;
#431 =( NAMED_UNIT ( * ) SI_UNIT ( $, .STERADIAN. ) SOLID_ANGLE_UNIT ( ) );
#432 = DIRECTION ( 'NONE',  ( -0.000000000000000000, -0.000000000000000000, 1.000000000000000000 ) ) ;
#433 = DIRECTION ( 'NONE',  ( -0.000000000000000000, -0.000000000000000000, 1.000000000000000000 ) ) ;
#434 = DIRECTION ( 'NONE',  ( 0.000000000000000000, 0.000000000000000000, 1.000000000000000000 ) ) ;
#435 = EDGE_CURVE ( 'NONE', #1275, #1293, #578, .T. ) ;
#436 = ORIENTED_EDGE ( 'NONE', *, *, #1037, .T. ) ;
#437 = AXIS2_PLACEMENT_3D ( 'NONE', #128, #1243, #1267 ) ;
#438 = AXIS2_PLACEMENT_3D ( 'NONE', #88, #485, #476 ) ;
#439 = AXIS2_PLACEMENT_3D ( 'NONE', #1141, #410, #923 ) ;
#440 = DIRECTION ( 'NONE',  ( -0.000000000000000000, -0.000000000000000000, 1.000000000000000000 ) ) ;
#441 = CIRCLE ( 'NONE', #331, 4.249999999999998224 ) ;
#442 = CARTESIAN_POINT ( 'NONE',  ( 13.25825214724769374, -13.25825214724783585, -8.000000000000000000 ) ) ;
#443 = EDGE_LOOP ( 'NONE', ( #1091, #371, #1176, #767 ) ) ;
#444 = CARTESIAN_POINT ( 'NONE',  ( 0.000000000000000000, 0.000000000000000000, -8.000000000000000000 ) ) ;
#445 = CARTESIAN_POINT ( 'NONE',  ( 10.75825214724769374, 13.25825214724783940, -8.000000000000000000 ) ) ;
#446 = CYLINDRICAL_SURFACE ( 'NONE', #1328, 4.249999999999998224 ) ;
#447 = ORIENTED_EDGE ( 'NONE', *, *, #233, .T. ) ;
#448 = ADVANCED_FACE ( 'NONE', ( #893 ), #694, .F. ) ;
#449 = DIRECTION ( 'NONE',  ( 0.000000000000000000, 0.000000000000000000, 1.000000000000000000 ) ) ;
#450 = ORIENTED_EDGE ( 'NONE', *, *, #762, .T. ) ;
#451 = CARTESIAN_POINT ( 'NONE',  ( -3.000000000000000000, 10.06230589874905412, -30.00000000000000000 ) ) ;
#452 = CARTESIAN_POINT ( 'NONE',  ( 2.600400894300772148, 10.17351430586196592, -31.50860643119406035 ) ) ;
#453 = DIRECTION ( 'NONE',  ( 1.000000000000000000, 0.000000000000000000, 0.000000000000000000 ) ) ;
#454 = EDGE_LOOP ( 'NONE', ( #556, #1136, #758, #1076 ) ) ;
#455 = CIRCLE ( 'NONE', #978, 15.00000000000000000 ) ;
#456 = CARTESIAN_POINT ( 'NONE',  ( 15.75825214724768664, 13.25825214724783940, 0.000000000000000000 ) ) ;
#457 = ADVANCED_FACE ( 'NONE', ( #1318, #385, #1104, #788, #81, #998 ), #376, .T. ) ;
#458 = ORIENTED_EDGE ( 'NONE', *, *, #589, .F. ) ;
#459 = CARTESIAN_POINT ( 'NONE',  ( -15.75825214724783230, 13.25825214724769019, -8.000000000000000000 ) ) ;
#460 = CARTESIAN_POINT ( 'NONE',  ( -3.999999999999982681, 10.78192932642392954, 0.000000000000000000 ) ) ;
#461 = DIRECTION ( 'NONE',  ( 1.000000000000000000, 0.000000000000000000, 0.000000000000000000 ) ) ;
#462 = CARTESIAN_POINT ( 'NONE',  ( 13.25825214724769374, -13.25825214724783585, 0.000000000000000000 ) ) ;
#463 = ORIENTED_EDGE ( 'NONE', *, *, #1277, .T. ) ;
#464 = VECTOR ( 'NONE', #772, 1000.000000000000000 ) ;
#465 = DIRECTION ( 'NONE',  ( 1.000000000000000000, 0.000000000000000000, 0.000000000000000000 ) ) ;
#466 = AXIS2_PLACEMENT_3D ( 'NONE', #663, #944, #967 ) ;
#467 = ORIENTED_EDGE ( 'NONE', *, *, #582, .T. ) ;
#468 = AXIS2_PLACEMENT_3D ( 'NONE', #575, #792, #163 ) ;
#469 = DIRECTION ( 'NONE',  ( 0.000000000000000000, 0.000000000000000000, -1.000000000000000000 ) ) ;
#470 = DIRECTION ( 'NONE',  ( 0.000000000000000000, 0.000000000000000000, 1.000000000000000000 ) ) ;
#471 = DIRECTION ( 'NONE',  ( -0.000000000000000000, -0.000000000000000000, 1.000000000000000000 ) ) ;
#472 = DIRECTION ( 'NONE',  ( 1.000000000000000000, 0.000000000000000000, 0.000000000000000000 ) ) ;
#473 = DIRECTION ( 'NONE',  ( -0.000000000000000000, -0.000000000000000000, 1.000000000000000000 ) ) ;
#474 = ORIENTED_EDGE ( 'NONE', *, *, #624, .F. ) ;
#475 = EDGE_CURVE ( 'NONE', #713, #696, #379, .T. ) ;
#476 = DIRECTION ( 'NONE',  ( 1.000000000000000000, 0.000000000000000000, 0.000000000000000000 ) ) ;
#477 = ORIENTED_EDGE ( 'NONE', *, *, #411, .F. ) ;
#478 = DIRECTION ( 'NONE',  ( -0.000000000000000000, -0.000000000000000000, 1.000000000000000000 ) ) ;
#479 = DIRECTION ( 'NONE',  ( -0.000000000000000000, -0.000000000000000000, 1.000000000000000000 ) ) ;
#480 = ORIENTED_EDGE ( 'NONE', *, *, #590, .T. ) ;
#481 = CARTESIAN_POINT ( 'NONE',  ( -3.000000000000000000, 13.00000000000000178, -30.00000000000000000 ) ) ;
#482 = DIRECTION ( 'NONE',  ( 1.000000000000000000, 0.000000000000000000, 0.000000000000000000 ) ) ;
#483 = ORIENTED_EDGE ( 'NONE', *, *, #39, .F. ) ;
#484 = EDGE_CURVE ( 'NONE', #1142, #669, #210, .T. ) ;
#485 = DIRECTION ( 'NONE',  ( -0.000000000000000000, -0.000000000000000000, 1.000000000000000000 ) ) ;
#486 = DIRECTION ( 'NONE',  ( 0.000000000000000000, 0.000000000000000000, -1.000000000000000000 ) ) ;
#487 = CARTESIAN_POINT ( 'NONE',  ( -25.00000000000000000, 3.061616997868383043E-15, -1.000000000000004441 ) ) ;
#488 = LINE ( 'NONE', #891, #195 ) ;
#489 = ORIENTED_EDGE ( 'NONE', *, *, #375, .T. ) ;
#490 = EDGE_CURVE ( 'NONE', #389, #309, #492, .T. ) ;
#491 = EDGE_CURVE ( 'NONE', #504, #1042, #1123, .T. ) ;
#492 = LINE ( 'NONE', #802, #511 ) ;
#493 = CIRCLE ( 'NONE', #875, 15.00000000000000000 ) ;
#494 = VECTOR ( 'NONE', #1056, 1000.000000000000000 ) ;
#495 = ORIENTED_EDGE ( 'NONE', *, *, #317, .F. ) ;
#496 = DIRECTION ( 'NONE',  ( -0.000000000000000000, -0.000000000000000000, 1.000000000000000000 ) ) ;
#497 = LINE ( 'NONE', #907, #905 ) ;
#498 = EDGE_LOOP ( 'NONE', ( #817, #262 ) ) ;
#499 = CARTESIAN_POINT ( 'NONE',  ( -13.25825214724783940, 13.25825214724769019, -8.000000000000000000 ) ) ;
#500 = EDGE_LOOP ( 'NONE', ( #678, #1223, #359, #1124 ) ) ;
#501 = CARTESIAN_POINT ( 'NONE',  ( 13.25825214724769374, -13.25825214724783585, -4.000000000000000000 ) ) ;
#502 = CARTESIAN_POINT ( 'NONE',  ( -3.000000000000000000, 13.00000000000000178, -1.000000000000000888 ) ) ;
#503 = EDGE_CURVE ( 'NONE', #657, #1275, #297, .T. ) ;
#504 = VERTEX_POINT ( 'NONE', #807 ) ;
#505 = PRODUCT ( 'PRT-22', 'PRT-22', '', ( #655 ) ) ;
#506 = ADVANCED_FACE ( 'NONE', ( #166, #1310, #886, #797, #1111, #288 ), #1216, .F. ) ;
#507 = CIRCLE ( 'NONE', #1279, 2.499999999999996891 ) ;
#508 = CARTESIAN_POINT ( 'NONE',  ( 13.25825214724769019, 13.25825214724783940, 0.000000000000000000 ) ) ;
#509 = ORIENTED_EDGE ( 'NONE', *, *, #687, .F. ) ;
#510 = VERTEX_POINT ( 'NONE', #445 ) ;
#511 = VECTOR ( 'NONE', #686, 1000.000000000000000 ) ;
#512 = FACE_OUTER_BOUND ( 'NONE', #1226, .T. ) ;
#513 = CONICAL_SURFACE ( 'NONE', #314, 10.50000000000000000, 0.7853981633974517207 ) ;
#514 = AXIS2_PLACEMENT_3D ( 'NONE', #1120, #1326, #1210 ) ;
#515 = ORIENTED_EDGE ( 'NONE', *, *, #744, .F. ) ;
#516 = ORIENTED_EDGE ( 'NONE', *, *, #634, .F. ) ;
#517 = DIRECTION ( 'NONE',  ( 1.000000000000000000, 0.000000000000000000, 0.000000000000000000 ) ) ;
#518 = CARTESIAN_POINT ( 'NONE',  ( 10.50000000000000000, 0.000000000000000000, -35.00000000000000000 ) ) ;
#519 = ADVANCED_FACE ( 'NONE', ( #535 ), #347, .F. ) ;
#520 = EDGE_LOOP ( 'NONE', ( #320, #1335, #467, #1006, #1018, #177 ) ) ;
#521 = EDGE_LOOP ( 'NONE', ( #412, #987, #164, #1295, #184 ) ) ;
#522 = DIRECTION ( 'NONE',  ( -0.000000000000000000, -0.000000000000000000, 1.000000000000000000 ) ) ;
#523 = CARTESIAN_POINT ( 'NONE',  ( 15.00000000000000000, 0.000000000000000000, -8.000000000000000000 ) ) ;
#524 = ADVANCED_FACE ( 'NONE', ( #653 ), #226, .F. ) ;
#525 = EDGE_CURVE ( 'NONE', #309, #651, #749, .T. ) ;
#526 = EDGE_LOOP ( 'NONE', ( #1064, #599 ) ) ;
#527 = VERTEX_POINT ( 'NONE', #326 ) ;
#528 = CARTESIAN_POINT ( 'NONE',  ( 3.000000000000000000, 10.06230589874905412, -35.00000000000000000 ) ) ;
#529 = CARTESIAN_POINT ( 'NONE',  ( 0.000000000000000000, 13.00000000000000178, -30.00000000000000000 ) ) ;
#530 = AXIS2_PLACEMENT_3D ( 'NONE', #223, #626, #946 ) ;
#531 = VECTOR ( 'NONE', #178, 1000.000000000000000 ) ;
#532 = CIRCLE ( 'NONE', #770, 4.249999999999998224 ) ;
#533 = LINE ( 'NONE', #1046, #684 ) ;
#534 = DIRECTION ( 'NONE',  ( 1.000000000000000000, 0.000000000000000000, 0.000000000000000000 ) ) ;
#535 = FACE_OUTER_BOUND ( 'NONE', #706, .T. ) ;
#536 = ORIENTED_EDGE ( 'NONE', *, *, #639, .T. ) ;
#537 = EDGE_CURVE ( 'NONE', #108, #712, #553, .T. ) ;
#538 = CYLINDRICAL_SURFACE ( 'NONE', #1135, 4.249999999999998224 ) ;
#539 =( LENGTH_UNIT ( ) NAMED_UNIT ( * ) SI_UNIT ( .MILLI., .METRE. ) );
#540 = EDGE_CURVE ( 'NONE', #625, #294, #837, .T. ) ;
#541 = CARTESIAN_POINT ( 'NONE',  ( 0.000000000000000000, 0.000000000000000000, -33.99999999999997868 ) ) ;
#542 = DIRECTION ( 'NONE',  ( 0.000000000000000000, 1.000000000000000000, 0.000000000000000000 ) ) ;
#543 = ORIENTED_EDGE ( 'NONE', *, *, #364, .T. ) ;
#544 = FACE_OUTER_BOUND ( 'NONE', #1160, .T. ) ;
#545 = PLANE ( 'NONE',  #101 ) ;
#546 = ORIENTED_EDGE ( 'NONE', *, *, #47, .T. ) ;
#547 = EDGE_CURVE ( 'NONE', #651, #294, #243, .T. ) ;
#548 = CARTESIAN_POINT ( 'NONE',  ( -17.50825214724783763, -13.25825214724769019, -4.000000000000000000 ) ) ;
#549 = CARTESIAN_POINT ( 'NONE',  ( 2.694626838096303434, 10.14864809478395458, -31.33314116138836170 ) ) ;
#550 = DIRECTION ( 'NONE',  ( -0.000000000000000000, -0.000000000000000000, 1.000000000000000000 ) ) ;
#551 = VERTEX_POINT ( 'NONE', #422 ) ;
#552 = AXIS2_PLACEMENT_3D ( 'NONE', #972, #966, #1272 ) ;
#553 = CIRCLE ( 'NONE', #1316, 2.500000000000000444 ) ;
#554 = CIRCLE ( 'NONE', #34, 11.50000000000000888 ) ;
#555 = CARTESIAN_POINT ( 'NONE',  ( 3.000000000000000000, 13.00000000000000178, 0.000000000000000000 ) ) ;
#556 = ORIENTED_EDGE ( 'NONE', *, *, #711, .F. ) ;
#557 = CARTESIAN_POINT ( 'NONE',  ( 3.000000000000000000, 10.06230589874905412, -30.00000000000000000 ) ) ;
#558 = DIRECTION ( 'NONE',  ( 1.000000000000000000, 0.000000000000000000, 0.000000000000000000 ) ) ;
#559 = DIRECTION ( 'NONE',  ( -0.000000000000000000, -0.000000000000000000, 1.000000000000000000 ) ) ;
#560 = ORIENTED_EDGE ( 'NONE', *, *, #1236, .T. ) ;
#561 = EDGE_CURVE ( 'NONE', #1119, #1293, #140, .T. ) ;
#562 = CARTESIAN_POINT ( 'NONE',  ( 4.000000000000007994, 14.00000000000000888, 0.000000000000000000 ) ) ;
#563 = EDGE_LOOP ( 'NONE', ( #915, #1133, #965, #1241 ) ) ;
#564 = FACE_OUTER_BOUND ( 'NONE', #1271, .T. ) ;
#565 = LINE ( 'NONE', #973, #494 ) ;
#566 = DIRECTION ( 'NONE',  ( 0.000000000000000000, 0.000000000000000000, 1.000000000000000000 ) ) ;
#567 = DIRECTION ( 'NONE',  ( -0.000000000000000000, -0.000000000000000000, 1.000000000000000000 ) ) ;
#568 = ORIENTED_EDGE ( 'NONE', *, *, #86, .F. ) ;
#569 = PRESENTATION_STYLE_ASSIGNMENT (( #650 ) ) ;
#570 = EDGE_LOOP ( 'NONE', ( #349, #206, #727, #1155 ) ) ;
#571 = CARTESIAN_POINT ( 'NONE',  ( 25.00000000000000000, 0.000000000000000000, -8.000000000000000000 ) ) ;
#572 = CARTESIAN_POINT ( 'NONE',  ( 4.000000000000007994, 0.000000000000000000, 0.000000000000000000 ) ) ;
#573 = DIRECTION ( 'NONE',  ( 0.000000000000000000, -1.000000000000000000, 0.000000000000000000 ) ) ;
#574 = FACE_OUTER_BOUND ( 'NONE', #717, .T. ) ;
#575 = CARTESIAN_POINT ( 'NONE',  ( 13.25825214724769019, 13.25825214724783940, -4.000000000000000000 ) ) ;
#576 = VERTEX_POINT ( 'NONE', #836 ) ;
#577 = VECTOR ( 'NONE', #183, 1000.000000000000000 ) ;
#578 = LINE ( 'NONE', #368, #577 ) ;
#579 = AXIS2_PLACEMENT_3D ( 'NONE', #840, #647, #631 ) ;
#580 = VERTEX_POINT ( 'NONE', #1179 ) ;
#581 = AXIS2_PLACEMENT_3D ( 'NONE', #508, #609, #710 ) ;
#582 = EDGE_CURVE ( 'NONE', #287, #683, #903, .T. ) ;
#583 = CARTESIAN_POINT ( 'NONE',  ( -10.75825214724783763, 13.25825214724769019, -4.000000000000000000 ) ) ;
#584 = LINE ( 'NONE', #1199, #806 ) ;
#585 = CARTESIAN_POINT ( 'NONE',  ( 13.25825214724769019, 13.25825214724783940, -8.000000000000000000 ) ) ;
#586 = CARTESIAN_POINT ( 'NONE',  ( -10.75825214724784296, -13.25825214724769019, -8.000000000000000000 ) ) ;
#587 = ORIENTED_EDGE ( 'NONE', *, *, #98, .F. ) ;
#588 = DIRECTION ( 'NONE',  ( -0.000000000000000000, -0.000000000000000000, 1.000000000000000000 ) ) ;
#589 = EDGE_CURVE ( 'NONE', #343, #942, #1231, .T. ) ;
#590 = EDGE_CURVE ( 'NONE', #156, #716, #313, .T. ) ;
#591 = CYLINDRICAL_SURFACE ( 'NONE', #700, 10.50000000000000000 ) ;
#592 = CARTESIAN_POINT ( 'NONE',  ( 4.000000000000007994, 10.78192932642392954, 0.000000000000000000 ) ) ;
#593 = FACE_OUTER_BOUND ( 'NONE', #92, .T. ) ;
#594 = VERTEX_POINT ( 'NONE', #641 ) ;
#595 = DIRECTION ( 'NONE',  ( 0.000000000000000000, 0.000000000000000000, 1.000000000000000000 ) ) ;
#596 = VERTEX_POINT ( 'NONE', #1165 ) ;
#597 = CARTESIAN_POINT ( 'NONE',  ( -15.75825214724783940, 13.25825214724769019, -4.000000000000000000 ) ) ;
#598 = CARTESIAN_POINT ( 'NONE',  ( 17.50825214724769552, -13.25825214724783585, 0.000000000000000000 ) ) ;
#599 = ORIENTED_EDGE ( 'NONE', *, *, #5, .T. ) ;
#600 = DIRECTION ( 'NONE',  ( 0.000000000000000000, 0.000000000000000000, -1.000000000000000000 ) ) ;
#601 = CIRCLE ( 'NONE', #827, 2.500000000000000444 ) ;
#602 = ORIENTED_EDGE ( 'NONE', *, *, #1217, .F. ) ;
#603 = VECTOR ( 'NONE', #1220, 1000.000000000000000 ) ;
#604 = DIRECTION ( 'NONE',  ( 0.5773502691896270633, 0.5773502691896270633, 0.5773502691896231775 ) ) ;
#605 = DIRECTION ( 'NONE',  ( 1.000000000000000000, 0.000000000000000000, 0.000000000000000000 ) ) ;
#606 = EDGE_CURVE ( 'NONE', #109, #716, #565, .T. ) ;
#607 = EDGE_LOOP ( 'NONE', ( #182, #397 ) ) ;
#608 = DIRECTION ( 'NONE',  ( -0.000000000000000000, -0.000000000000000000, 1.000000000000000000 ) ) ;
#609 = DIRECTION ( 'NONE',  ( -0.000000000000000000, -0.000000000000000000, 1.000000000000000000 ) ) ;
#610 = ORIENTED_EDGE ( 'NONE', *, *, #241, .T. ) ;
#611 = ORIENTED_EDGE ( 'NONE', *, *, #93, .F. ) ;
#612 = AXIS2_PLACEMENT_3D ( 'NONE', #858, #260, #472 ) ;
#613 = DIRECTION ( 'NONE',  ( 0.000000000000000000, -1.000000000000000000, 0.000000000000000000 ) ) ;
#614 = ORIENTED_EDGE ( 'NONE', *, *, #1040, .F. ) ;
#615 = ORIENTED_EDGE ( 'NONE', *, *, #188, .F. ) ;
#616 = ADVANCED_FACE ( 'NONE', ( #27, #1268 ), #1281, .F. ) ;
#617 = CIRCLE ( 'NONE', #193, 2.500000000000000444 ) ;
#618 = CARTESIAN_POINT ( 'NONE',  ( -0.1969162909058462529, 10.50000000000000000, -33.00000000000000711 ) ) ;
#619 = CIRCLE ( 'NONE', #742, 4.250000000000000000 ) ;
#620 = EDGE_LOOP ( 'NONE', ( #953, #361, #1000, #1308 ) ) ;
#621 = VERTEX_POINT ( 'NONE', #583 ) ;
#622 = FACE_OUTER_BOUND ( 'NONE', #859, .T. ) ;
#623 = CARTESIAN_POINT ( 'NONE',  ( -2.903417309453169892, 10.09067749866569663, -30.78018714959146251 ) ) ;
#624 = EDGE_CURVE ( 'NONE', #327, #1041, #369, .T. ) ;
#625 = VERTEX_POINT ( 'NONE', #160 ) ;
#626 = DIRECTION ( 'NONE',  ( 0.000000000000000000, 0.000000000000000000, -1.000000000000000000 ) ) ;
#627 = CARTESIAN_POINT ( 'NONE',  ( -3.330899708984636387, 10.30894397975723642, -0.6691002910153671657 ) ) ;
#628 = CARTESIAN_POINT ( 'NONE',  ( 10.75825214724769374, 13.25825214724783940, 0.000000000000000000 ) ) ;
#629 = CARTESIAN_POINT ( 'NONE',  ( 10.50000000000000000, 0.000000000000000000, -1.000000000000000888 ) ) ;
#630 = FACE_OUTER_BOUND ( 'NONE', #1100, .T. ) ;
#631 = DIRECTION ( 'NONE',  ( 1.000000000000000000, 0.000000000000000000, -0.000000000000000000 ) ) ;
#632 = AXIS2_PLACEMENT_3D ( 'NONE', #1280, #469, #856 ) ;
#633 = CARTESIAN_POINT ( 'NONE',  ( 0.000000000000000000, 0.000000000000000000, 0.000000000000000000 ) ) ;
#634 = EDGE_CURVE ( 'NONE', #265, #642, #266, .T. ) ;
#635 = CONICAL_SURFACE ( 'NONE', #32, 15.00000000000000000, 0.7853981633974517207 ) ;
#636 = VECTOR ( 'NONE', #116, 1000.000000000000000 ) ;
#637 = EDGE_CURVE ( 'NONE', #1275, #657, #1266, .T. ) ;
#638 = PLANE ( 'NONE',  #1068 ) ;
#639 = EDGE_CURVE ( 'NONE', #109, #642, #881, .T. ) ;
#640 = FACE_OUTER_BOUND ( 'NONE', #500, .T. ) ;
#641 = CARTESIAN_POINT ( 'NONE',  ( -10.50000000000000000, 1.285879139104720831E-15, -1.000000000000000888 ) ) ;
#642 = VERTEX_POINT ( 'NONE', #983 ) ;
#643 = EDGE_CURVE ( 'NONE', #935, #80, #276, .T. ) ;
#644 = CARTESIAN_POINT ( 'NONE',  ( 10.75825214724769729, -13.25825214724783585, -8.000000000000000000 ) ) ;
#645 = FACE_BOUND ( 'NONE', #926, .T. ) ;
#646 = DIRECTION ( 'NONE',  ( 0.000000000000000000, 0.000000000000000000, 1.000000000000000000 ) ) ;
#647 = DIRECTION ( 'NONE',  ( 0.000000000000000000, 0.000000000000000000, 1.000000000000000000 ) ) ;
#648 = DIRECTION ( 'NONE',  ( -0.000000000000000000, -0.000000000000000000, 1.000000000000000000 ) ) ;
#649 = VERTEX_POINT ( 'NONE', #171 ) ;
#650 = SURFACE_STYLE_USAGE ( .BOTH. , #360 ) ;
#651 = VERTEX_POINT ( 'NONE', #1189 ) ;
#652 = DIRECTION ( 'NONE',  ( 0.000000000000000000, 0.000000000000000000, 1.000000000000000000 ) ) ;
#653 = FACE_OUTER_BOUND ( 'NONE', #454, .T. ) ;
#654 = ADVANCED_FACE ( 'NONE', ( #275 ), #513, .F. ) ;
#655 = PRODUCT_CONTEXT ( 'NONE', #1067, 'mechanical' ) ;
#656 = CARTESIAN_POINT ( 'NONE',  ( -17.50825214724784118, 13.25825214724769019, 0.000000000000000000 ) ) ;
#657 = VERTEX_POINT ( 'NONE', #71 ) ;
#658 = AXIS2_PLACEMENT_3D ( 'NONE', #1060, #927, #426 ) ;
#659 = AXIS2_PLACEMENT_3D ( 'NONE', #1195, #255, #465 ) ;
#660 = CARTESIAN_POINT ( 'NONE',  ( 10.50000000000000000, 0.000000000000000000, -35.00000000000000000 ) ) ;
#661 = EDGE_LOOP ( 'NONE', ( #1221, #1329, #1218, #1084 ) ) ;
#662 = CARTESIAN_POINT ( 'NONE',  ( -11.50000000000000888, 1.408343819019457162E-15, 0.000000000000000000 ) ) ;
#663 = CARTESIAN_POINT ( 'NONE',  ( 0.000000000000000000, 0.000000000000000000, 0.000000000000000000 ) ) ;
#664 = FACE_OUTER_BOUND ( 'NONE', #874, .T. ) ;
#665 = DIRECTION ( 'NONE',  ( -0.000000000000000000, -0.000000000000000000, -1.000000000000000000 ) ) ;
#666 = EDGE_CURVE ( 'NONE', #669, #1142, #1213, .T. ) ;
#667 = ORIENTED_EDGE ( 'NONE', *, *, #910, .F. ) ;
#668 = LINE ( 'NONE', #1065, #918 ) ;
#669 = VERTEX_POINT ( 'NONE', #789 ) ;
#670 = FACE_BOUND ( 'NONE', #169, .T. ) ;
#671 = CARTESIAN_POINT ( 'NONE',  ( -3.000000000000000000, 10.06230589874905412, -35.00000000000000000 ) ) ;
#672 = CYLINDRICAL_SURFACE ( 'NONE', #736, 2.499999999999996891 ) ;
#673 = DIRECTION ( 'NONE',  ( 1.000000000000000000, 0.000000000000000000, 0.000000000000000000 ) ) ;
#674 = CARTESIAN_POINT ( 'NONE',  ( 15.75825214724769374, -13.25825214724783585, -4.000000000000000000 ) ) ;
#675 = ORIENTED_EDGE ( 'NONE', *, *, #484, .F. ) ;
#676 = AXIS2_PLACEMENT_3D ( 'NONE', #83, #496, #387 ) ;
#677 = SURFACE_STYLE_FILL_AREA ( #350 ) ;
#678 = ORIENTED_EDGE ( 'NONE', *, *, #1277, .F. ) ;
#679 = DIRECTION ( 'NONE',  ( 1.000000000000000000, 0.000000000000000000, 0.000000000000000000 ) ) ;
#680 = VERTEX_POINT ( 'NONE', #53 ) ;
#681 = DIRECTION ( 'NONE',  ( 0.000000000000000000, 1.000000000000000000, 0.000000000000000000 ) ) ;
#682 = CARTESIAN_POINT ( 'NONE',  ( 15.00000000000000000, 0.000000000000000000, -33.99999999999997868 ) ) ;
#683 = VERTEX_POINT ( 'NONE', #460 ) ;
#684 = VECTOR ( 'NONE', #232, 1000.000000000000000 ) ;
#685 = AXIS2_PLACEMENT_3D ( 'NONE', #1075, #1175, #264 ) ;
#686 = DIRECTION ( 'NONE',  ( 0.000000000000000000, 1.000000000000000000, 0.000000000000000000 ) ) ;
#687 = EDGE_CURVE ( 'NONE', #551, #851, #815, .T. ) ;
#688 = CIRCLE ( 'NONE', #468, 2.500000000000000444 ) ;
#689 = VECTOR ( 'NONE', #604, 1000.000000000000114 ) ;
#690 = CYLINDRICAL_SURFACE ( 'NONE', #976, 15.00000000000000000 ) ;
#691 = CARTESIAN_POINT ( 'NONE',  ( -0.6666666666666817287, 9.333333333333316162, -4.666666666666658081 ) ) ;
#692 = LINE ( 'NONE', #79, #989 ) ;
#693 = VERTEX_POINT ( 'NONE', #373 ) ;
#694 = PLANE ( 'NONE',  #247 ) ;
#695 = EDGE_CURVE ( 'NONE', #1324, #150, #688, .T. ) ;
#696 = VERTEX_POINT ( 'NONE', #598 ) ;
#697 = FACE_OUTER_BOUND ( 'NONE', #997, .T. ) ;
#698 = FACE_OUTER_BOUND ( 'NONE', #1024, .T. ) ;
#699 = ORIENTED_EDGE ( 'NONE', *, *, #271, .F. ) ;
#700 = AXIS2_PLACEMENT_3D ( 'NONE', #1079, #479, #77 ) ;
#701 = DIRECTION ( 'NONE',  ( -0.000000000000000000, -0.000000000000000000, 1.000000000000000000 ) ) ;
#702 = CYLINDRICAL_SURFACE ( 'NONE', #831, 4.250000000000001776 ) ;
#703 = LINE ( 'NONE', #1314, #1032 ) ;
#704 = EDGE_CURVE ( 'NONE', #213, #1081, #703, .T. ) ;
#705 = AXIS2_PLACEMENT_3D ( 'NONE', #1158, #522, #748 ) ;
#706 = EDGE_LOOP ( 'NONE', ( #955, #602, #1301, #1234 ) ) ;
#707 = CIRCLE ( 'NONE', #685, 4.250000000000001776 ) ;
#708 = VECTOR ( 'NONE', #871, 1000.000000000000000 ) ;
#709 = DIRECTION ( 'NONE',  ( -0.000000000000000000, -0.000000000000000000, 1.000000000000000000 ) ) ;
#710 = DIRECTION ( 'NONE',  ( 1.000000000000000000, 0.000000000000000000, 0.000000000000000000 ) ) ;
#711 = EDGE_CURVE ( 'NONE', #594, #287, #488, .T. ) ;
#712 = VERTEX_POINT ( 'NONE', #674 ) ;
#713 = VERTEX_POINT ( 'NONE', #269 ) ;
#714 = CARTESIAN_POINT ( 'NONE',  ( -3.000000000000000000, 10.06230589874905412, -30.00000000000000000 ) ) ;
#715 = EDGE_CURVE ( 'NONE', #576, #818, #279, .T. ) ;
#716 = VERTEX_POINT ( 'NONE', #383 ) ;
#717 = EDGE_LOOP ( 'NONE', ( #367, #300, #1330, #863 ) ) ;
#718 = CARTESIAN_POINT ( 'NONE',  ( -0.9706109150985198220, 10.45661783549927826, -32.84536089775576073 ) ) ;
#719 = EDGE_LOOP ( 'NONE', ( #1167, #11 ) ) ;
#720 = ADVANCED_FACE ( 'NONE', ( #698 ), #800, .T. ) ;
#721 = ORIENTED_EDGE ( 'NONE', *, *, #1205, .F. ) ;
#722 = ADVANCED_FACE ( 'NONE', ( #899 ), #986, .F. ) ;
#723 = VECTOR ( 'NONE', #151, 1000.000000000000000 ) ;
#724 = VECTOR ( 'NONE', #230, 1000.000000000000000 ) ;
#725 = DIRECTION ( 'NONE',  ( 0.000000000000000000, 1.000000000000000000, 0.000000000000000000 ) ) ;
#726 = DIRECTION ( 'NONE',  ( 1.000000000000000000, 0.000000000000000000, 0.000000000000000000 ) ) ;
#727 = ORIENTED_EDGE ( 'NONE', *, *, #1229, .F. ) ;
#728 = ORIENTED_EDGE ( 'NONE', *, *, #525, .T. ) ;
#729 = CARTESIAN_POINT ( 'NONE',  ( -3.999999999999982681, 10.78192932642392954, 0.000000000000000000 ) ) ;
#730 = FACE_OUTER_BOUND ( 'NONE', #754, .T. ) ;
#731 = EDGE_LOOP ( 'NONE', ( #89, #667 ) ) ;
#732 = LINE ( 'NONE', #528, #209 ) ;
#733 = DIRECTION ( 'NONE',  ( -0.000000000000000000, -0.000000000000000000, 1.000000000000000000 ) ) ;
#734 = CIRCLE ( 'NONE', #204, 2.500000000000000444 ) ;
#735 = EDGE_CURVE ( 'NONE', #785, #680, #121, .T. ) ;
#736 = AXIS2_PLACEMENT_3D ( 'NONE', #1208, #790, #872 ) ;
#737 = DIRECTION ( 'NONE',  ( 0.000000000000000000, 0.000000000000000000, 1.000000000000000000 ) ) ;
#738 = VECTOR ( 'NONE', #943, 1000.000000000000114 ) ;
#739 = DIRECTION ( 'NONE',  ( -0.000000000000000000, -0.000000000000000000, 1.000000000000000000 ) ) ;
#740 = CARTESIAN_POINT ( 'NONE',  ( -3.017787392922980662E-24, 10.50000000000000000, -33.00000000000000000 ) ) ;
#741 = CIRCLE ( 'NONE', #1029, 2.499999999999995115 ) ;
#742 = AXIS2_PLACEMENT_3D ( 'NONE', #220, #1039, #1026 ) ;
#743 = ORIENTED_EDGE ( 'NONE', *, *, #1139, .F. ) ;
#744 = EDGE_CURVE ( 'NONE', #649, #527, #497, .T. ) ;
#745 = VECTOR ( 'NONE', #203, 1000.000000000000000 ) ;
#746 = FACE_OUTER_BOUND ( 'NONE', #1336, .T. ) ;
#747 = FACE_OUTER_BOUND ( 'NONE', #889, .T. ) ;
#748 = DIRECTION ( 'NONE',  ( 1.000000000000000000, 0.000000000000000000, 0.000000000000000000 ) ) ;
#749 = LINE ( 'NONE', #123, #1048 ) ;
#750 = DIRECTION ( 'NONE',  ( 1.000000000000000000, 0.000000000000000000, 0.000000000000000000 ) ) ;
#751 = EDGE_LOOP ( 'NONE', ( #721, #920, #217, #776 ) ) ;
#752 = PLANE ( 'NONE',  #849 ) ;
#753 = EDGE_CURVE ( 'NONE', #693, #1142, #388, .T. ) ;
#754 = EDGE_LOOP ( 'NONE', ( #925, #6, #495, #1238 ) ) ;
#755 = CARTESIAN_POINT ( 'NONE',  ( -10.50000000000000000, 1.285879139104720831E-15, -35.00000000000000000 ) ) ;
#756 = DIRECTION ( 'NONE',  ( 1.000000000000000000, 0.000000000000000000, 0.000000000000000000 ) ) ;
#757 = FACE_OUTER_BOUND ( 'NONE', #620, .T. ) ;
#758 = ORIENTED_EDGE ( 'NONE', *, *, #145, .F. ) ;
#759 = CARTESIAN_POINT ( 'NONE',  ( -10.75825214724783763, 13.25825214724769019, -4.000000000000000000 ) ) ;
#760 = EDGE_CURVE ( 'NONE', #785, #851, #692, .T. ) ;
#761 = VERTEX_POINT ( 'NONE', #996 ) ;
#762 = EDGE_CURVE ( 'NONE', #148, #201, #532, .T. ) ;
#763 = DIRECTION ( 'NONE',  ( 1.000000000000000000, 0.000000000000000000, 0.000000000000000000 ) ) ;
#764 = CARTESIAN_POINT ( 'NONE',  ( 13.25825214724769374, -13.25825214724783585, -4.000000000000000000 ) ) ;
#765 = APPLICATION_PROTOCOL_DEFINITION ( 'draft international standard', 'automotive_design', 1998, #1067 ) ;
#766 = CARTESIAN_POINT ( 'NONE',  ( 13.25825214724769019, 13.25825214724783940, 0.000000000000000000 ) ) ;
#767 = ORIENTED_EDGE ( 'NONE', *, *, #753, .F. ) ;
#768 = AXIS2_PLACEMENT_3D ( 'NONE', #19, #432, #3 ) ;
#769 = CIRCLE ( 'NONE', #274, 10.50000000000000000 ) ;
#770 = AXIS2_PLACEMENT_3D ( 'NONE', #1017, #473, #482 ) ;
#771 = ORIENTED_EDGE ( 'NONE', *, *, #643, .F. ) ;
#772 = DIRECTION ( 'NONE',  ( -0.000000000000000000, -0.000000000000000000, 1.000000000000000000 ) ) ;
#773 = DIRECTION ( 'NONE',  ( 1.000000000000000000, 0.000000000000000000, 0.000000000000000000 ) ) ;
#774 = CARTESIAN_POINT ( 'NONE',  ( -9.008252147247839403, 13.25825214724769019, -4.000000000000000000 ) ) ;
#775 = CARTESIAN_POINT ( 'NONE',  ( -13.25825214724783940, 13.25825214724769019, 0.000000000000000000 ) ) ;
#776 = ORIENTED_EDGE ( 'NONE', *, *, #491, .T. ) ;
#777 = DIRECTION ( 'NONE',  ( 0.000000000000000000, 0.000000000000000000, -1.000000000000000000 ) ) ;
#778 = EDGE_LOOP ( 'NONE', ( #1143, #463 ) ) ;
#779 = LINE ( 'NONE', #1085, #139 ) ;
#780 = CARTESIAN_POINT ( 'NONE',  ( 13.25825214724769019, 13.25825214724783940, 0.000000000000000000 ) ) ;
#781 = EDGE_CURVE ( 'NONE', #309, #109, #91, .T. ) ;
#782 = FACE_OUTER_BOUND ( 'NONE', #821, .T. ) ;
#783 = CARTESIAN_POINT ( 'NONE',  ( -13.25825214724783940, -13.25825214724769019, -4.000000000000000000 ) ) ;
#784 = FACE_OUTER_BOUND ( 'NONE', #75, .T. ) ;
#785 = VERTEX_POINT ( 'NONE', #682 ) ;
#786 = ADVANCED_FACE ( 'NONE', ( #784 ), #394, .F. ) ;
#787 = CIRCLE ( 'NONE', #1257, 4.249999999999998224 ) ;
#788 = FACE_BOUND ( 'NONE', #1052, .T. ) ;
#789 = CARTESIAN_POINT ( 'NONE',  ( 9.008252147247690189, 13.25825214724783940, 0.000000000000000000 ) ) ;
#790 = DIRECTION ( 'NONE',  ( -0.000000000000000000, -0.000000000000000000, 1.000000000000000000 ) ) ;
#791 = FACE_OUTER_BOUND ( 'NONE', #248, .T. ) ;
#792 = DIRECTION ( 'NONE',  ( -0.000000000000000000, -0.000000000000000000, 1.000000000000000000 ) ) ;
#793 = ORIENTED_EDGE ( 'NONE', *, *, #929, .T. ) ;
#794 = EDGE_CURVE ( 'NONE', #596, #785, #1090, .T. ) ;
#795 = VECTOR ( 'NONE', #737, 1000.000000000000000 ) ;
#796 = AXIS2_PLACEMENT_3D ( 'NONE', #979, #777, #149 ) ;
#797 = FACE_BOUND ( 'NONE', #832, .T. ) ;
#798 = AXIS2_PLACEMENT_3D ( 'NONE', #780, #478, #1303 ) ;
#799 = CARTESIAN_POINT ( 'NONE',  ( 4.000000000000007994, 10.78192932642392954, 0.000000000000000000 ) ) ;
#800 = CYLINDRICAL_SURFACE ( 'NONE', #921, 25.00000000000000000 ) ;
#801 = ORIENTED_EDGE ( 'NONE', *, *, #1092, .F. ) ;
#802 = CARTESIAN_POINT ( 'NONE',  ( 3.000000000000000000, 13.00000000000000178, -1.000000000000000888 ) ) ;
#803 = EDGE_CURVE ( 'NONE', #580, #510, #850, .T. ) ;
#804 = DIRECTION ( 'NONE',  ( -1.000000000000000000, 0.000000000000000000, 0.000000000000000000 ) ) ;
#805 = DIRECTION ( 'NONE',  ( -0.000000000000000000, -0.000000000000000000, 1.000000000000000000 ) ) ;
#806 = VECTOR ( 'NONE', #974, 1000.000000000000000 ) ;
#807 = CARTESIAN_POINT ( 'NONE',  ( 25.00000000000000000, 0.000000000000000000, -1.000000000000004441 ) ) ;
#808 = ORIENTED_EDGE ( 'NONE', *, *, #711, .T. ) ;
#809 = CARTESIAN_POINT ( 'NONE',  ( -13.99999999999997158, 1.775737858763660240E-15, -35.00000000000000000 ) ) ;
#810 = VECTOR ( 'NONE', #253, 1000.000000000000000 ) ;
#811 = CYLINDRICAL_SURFACE ( 'NONE', #581, 4.249999999999998224 ) ;
#812 = VERTEX_POINT ( 'NONE', #586 ) ;
#813 = VERTEX_POINT ( 'NONE', #1307 ) ;
#814 = AXIS2_PLACEMENT_3D ( 'NONE', #235, #20, #43 ) ;
#815 = CIRCLE ( 'NONE', #211, 15.00000000000000000 ) ;
#816 = LINE ( 'NONE', #9, #380 ) ;
#817 = ORIENTED_EDGE ( 'NONE', *, *, #1229, .T. ) ;
#818 = VERTEX_POINT ( 'NONE', #181 ) ;
#819 = CARTESIAN_POINT ( 'NONE',  ( -2.258103367356887770, 10.25527826019963307, -31.98465389356103827 ) ) ;
#820 = ADVANCED_FACE ( 'NONE', ( #593 ), #1002, .F. ) ;
#821 = EDGE_LOOP ( 'NONE', ( #1305, #190, #428, #1185 ) ) ;
#822 = ORIENTED_EDGE ( 'NONE', *, *, #537, .T. ) ;
#823 = CARTESIAN_POINT ( 'NONE',  ( 0.000000000000000000, 13.00000000000000178, -33.00000000000000000 ) ) ;
#824 = DIRECTION ( 'NONE',  ( 0.000000000000000000, 0.000000000000000000, 1.000000000000000000 ) ) ;
#825 = VERTEX_POINT ( 'NONE', #1244 ) ;
#826 = ORIENTED_EDGE ( 'NONE', *, *, #1161, .T. ) ;
#827 = AXIS2_PLACEMENT_3D ( 'NONE', #325, #739, #332 ) ;
#828 = AXIS2_PLACEMENT_3D ( 'NONE', #1323, #595, #1206 ) ;
#829 = CYLINDRICAL_SURFACE ( 'NONE', #658, 2.499999999999995115 ) ;
#830 = DIRECTION ( 'NONE',  ( 1.000000000000000000, 0.000000000000000000, 0.000000000000000000 ) ) ;
#831 = AXIS2_PLACEMENT_3D ( 'NONE', #278, #1001, #1114 ) ;
#832 = EDGE_LOOP ( 'NONE', ( #70, #202 ) ) ;
#833 = DIRECTION ( 'NONE',  ( -0.000000000000000000, -0.000000000000000000, 1.000000000000000000 ) ) ;
#834 = EDGE_CURVE ( 'NONE', #80, #504, #816, .T. ) ;
#835 = DIRECTION ( 'NONE',  ( 1.000000000000000000, 0.000000000000000000, 0.000000000000000000 ) ) ;
#836 = CARTESIAN_POINT ( 'NONE',  ( -9.008252147247839403, -13.25825214724769019, -4.000000000000000000 ) ) ;
#837 = B_SPLINE_CURVE_WITH_KNOTS ( 'NONE', 3,
 ( #740, #322, #1159, #333, #152, #1061, #848, #134, #1078, #452, #549, #958, #251, #857, #36, #1172 ),
 .UNSPECIFIED., .F., .F.,
 ( 4, 2, 2, 2, 2, 2, 2, 4 ),
 ( 0.004715583253113680810, 0.005304314876189493433, 0.005893046499265305188, 0.007070509745416930433, 0.007659241368492742189, 0.008247972991568553944, 0.008836704614644357025, 0.009425436237720160107 ),
 .UNSPECIFIED. ) ;
#838 = CARTESIAN_POINT ( 'NONE',  ( 10.75825214724769729, -13.25825214724783585, 0.000000000000000000 ) ) ;
#839 = CARTESIAN_POINT ( 'NONE',  ( 10.75825214724768841, 13.25825214724783940, -4.000000000000000000 ) ) ;
#840 = CARTESIAN_POINT ( 'NONE',  ( 0.000000000000000000, 0.000000000000000000, -8.000000000000000000 ) ) ;
#841 = CIRCLE ( 'NONE', #95, 4.250000000000000000 ) ;
#842 =( NAMED_UNIT ( * ) SI_UNIT ( $, .STERADIAN. ) SOLID_ANGLE_UNIT ( ) );
#843 = ORIENTED_EDGE ( 'NONE', *, *, #147, .T. ) ;
#844 = EDGE_LOOP ( 'NONE', ( #931, #1233, #919, #403 ) ) ;
#845 = DIRECTION ( 'NONE',  ( -0.5773502691896270633, 0.5773502691896270633, 0.5773502691896231775 ) ) ;
#846 = CIRCLE ( 'NONE', #705, 4.250000000000000000 ) ;
#847 = FACE_OUTER_BOUND ( 'NONE', #844, .T. ) ;
#848 = CARTESIAN_POINT ( 'NONE',  ( 1.844653586429030767, 10.34056153838748671, -32.39805819551511235 ) ) ;
#849 = AXIS2_PLACEMENT_3D ( 'NONE', #555, #1169, #964 ) ;
#850 = CIRCLE ( 'NONE', #298, 2.499999999999996891 ) ;
#851 = VERTEX_POINT ( 'NONE', #523 ) ;
#852 = AXIS2_PLACEMENT_3D ( 'NONE', #393, #1320, #804 ) ;
#853 = ADVANCED_FACE ( 'NONE', ( #730 ), #311, .T. ) ;
#854 = DIRECTION ( 'NONE',  ( 1.000000000000000000, 0.000000000000000000, 0.000000000000000000 ) ) ;
#855 = ORIENTED_EDGE ( 'NONE', *, *, #1338, .F. ) ;
#856 = DIRECTION ( 'NONE',  ( -1.000000000000000000, 0.000000000000000000, -0.000000000000000000 ) ) ;
#857 = CARTESIAN_POINT ( 'NONE',  ( 2.979958748855692896, 10.06834083101199795, -30.39840288184496941 ) ) ;
#858 = CARTESIAN_POINT ( 'NONE',  ( 0.000000000000000000, 0.000000000000000000, -35.00000000000000000 ) ) ;
#859 = EDGE_LOOP ( 'NONE', ( #1237, #546, #867, #971 ) ) ;
#860 = EDGE_CURVE ( 'NONE', #343, #981, #1235, .T. ) ;
#861 = ADVANCED_FACE ( 'NONE', ( #940 ), #811, .F. ) ;
#862 = DIRECTION ( 'NONE',  ( 1.000000000000000000, 0.000000000000000000, 0.000000000000000000 ) ) ;
#863 = ORIENTED_EDGE ( 'NONE', *, *, #961, .F. ) ;
#864 = DIRECTION ( 'NONE',  ( -0.000000000000000000, -0.000000000000000000, 1.000000000000000000 ) ) ;
#865 = CARTESIAN_POINT ( 'NONE',  ( 0.000000000000000000, 13.00000000000000178, -30.00000000000000000 ) ) ;
#866 = LINE ( 'NONE', #1183, #810 ) ;
#867 = ORIENTED_EDGE ( 'NONE', *, *, #924, .F. ) ;
#868 = CYLINDRICAL_SURFACE ( 'NONE', #659, 25.00000000000000000 ) ;
#869 = ORIENTED_EDGE ( 'NONE', *, *, #1105, .T. ) ;
#870 = DIRECTION ( 'NONE',  ( -0.000000000000000000, -0.000000000000000000, 1.000000000000000000 ) ) ;
#871 = DIRECTION ( 'NONE',  ( -0.000000000000000000, -0.000000000000000000, 1.000000000000000000 ) ) ;
#872 = DIRECTION ( 'NONE',  ( 1.000000000000000000, 0.000000000000000000, 0.000000000000000000 ) ) ;
#873 = CARTESIAN_POINT ( 'NONE',  ( 0.000000000000000000, 0.000000000000000000, -35.00000000000000000 ) ) ;
#874 = EDGE_LOOP ( 'NONE', ( #237, #458, #352, #1315, #157, #316, #45, #270, #1264 ) ) ;
#875 = AXIS2_PLACEMENT_3D ( 'NONE', #541, #1140, #215 ) ;
#876 = AXIS2_PLACEMENT_3D ( 'NONE', #189, #701, #1302 ) ;
#877 = AXIS2_PLACEMENT_3D ( 'NONE', #884, #1193, #261 ) ;
#878 = ORIENTED_EDGE ( 'NONE', *, *, #1025, .F. ) ;
#879 = APPLICATION_CONTEXT ( 'automotive_design' ) ;
#880 = DIRECTION ( 'NONE',  ( 0.000000000000000000, -1.000000000000000000, 0.000000000000000000 ) ) ;
#881 = LINE ( 'NONE', #258, #249 ) ;
#882 = EDGE_CURVE ( 'NONE', #812, #649, #1102, .T. ) ;
#883 = CARTESIAN_POINT ( 'NONE',  ( 17.50825214724768841, 13.25825214724783940, 0.000000000000000000 ) ) ;
#884 = CARTESIAN_POINT ( 'NONE',  ( 4.000000000000007994, 0.000000000000000000, 0.000000000000000000 ) ) ;
#885 = EDGE_LOOP ( 'NONE', ( #1204, #96 ) ) ;
#886 = FACE_BOUND ( 'NONE', #404, .T. ) ;
#887 = CARTESIAN_POINT ( 'NONE',  ( -13.25825214724783940, 13.25825214724769019, -4.000000000000000000 ) ) ;
#888 = CARTESIAN_POINT ( 'NONE',  ( -9.008252147247837627, 13.25825214724769019, 0.000000000000000000 ) ) ;
#889 = EDGE_LOOP ( 'NONE', ( #992, #281 ) ) ;
#890 = DIRECTION ( 'NONE',  ( 0.000000000000000000, -0.000000000000000000, 1.000000000000000000 ) ) ;
#891 = CARTESIAN_POINT ( 'NONE',  ( -10.50000000000000000, 1.285879139104720831E-15, -1.000000000000000888 ) ) ;
#892 = ORIENTED_EDGE ( 'NONE', *, *, #188, .T. ) ;
#893 = FACE_OUTER_BOUND ( 'NONE', #391, .T. ) ;
#894 = PRODUCT_DEFINITION_FORMATION_WITH_SPECIFIED_SOURCE ( 'ANY', '', #505, .NOT_KNOWN. ) ;
#895 = CARTESIAN_POINT ( 'NONE',  ( 0.000000000000000000, 0.000000000000000000, -35.00000000000000000 ) ) ;
#896 = EDGE_LOOP ( 'NONE', ( #843, #68, #728, #113 ) ) ;
#897 = DIRECTION ( 'NONE',  ( -0.000000000000000000, -0.000000000000000000, 1.000000000000000000 ) ) ;
#898 = UNCERTAINTY_MEASURE_WITH_UNIT (LENGTH_MEASURE( 1.000000000000000082E-05 ), #539, 'distance_accuracy_value', 'NONE');
#899 = FACE_OUTER_BOUND ( 'NONE', #418, .T. ) ;
#900 = ORIENTED_EDGE ( 'NONE', *, *, #125, .F. ) ;
#901 = VECTOR ( 'NONE', #1171, 1000.000000000000000 ) ;
#902 = EDGE_CURVE ( 'NONE', #156, #625, #917, .T. ) ;
#903 = CIRCLE ( 'NONE', #466, 11.50000000000000888 ) ;
#904 = DIRECTION ( 'NONE',  ( 0.000000000000000000, 0.000000000000000000, 1.000000000000000000 ) ) ;
#905 = VECTOR ( 'NONE', #1321, 1000.000000000000000 ) ;
#906 = DIRECTION ( 'NONE',  ( 1.000000000000000000, 0.000000000000000000, 0.000000000000000000 ) ) ;
#907 = CARTESIAN_POINT ( 'NONE',  ( -15.75825214724783230, -13.25825214724769019, 0.000000000000000000 ) ) ;
#908 = ORIENTED_EDGE ( 'NONE', *, *, #1180, .F. ) ;
#909 = CARTESIAN_POINT ( 'NONE',  ( 0.000000000000000000, 0.000000000000000000, -1.000000000000004441 ) ) ;
#910 = EDGE_CURVE ( 'NONE', #254, #818, #619, .T. ) ;
#911 = ORIENTED_EDGE ( 'NONE', *, *, #145, .T. ) ;
#912 = DIRECTION ( 'NONE',  ( 1.000000000000000000, 0.000000000000000000, 0.000000000000000000 ) ) ;
#913 = DIRECTION ( 'NONE',  ( -1.000000000000000000, 0.000000000000000000, 0.000000000000000000 ) ) ;
#914 = AXIS2_PLACEMENT_3D ( 'NONE', #1224, #665, #673 ) ;
#915 = ORIENTED_EDGE ( 'NONE', *, *, #1059, .F. ) ;
#916 = B_SPLINE_CURVE_WITH_KNOTS ( 'NONE', 3,
 ( #729, #1145, #627, #409 ),
 .UNSPECIFIED., .F., .F.,
 ( 4, 4 ),
 ( 0.000000000000000000, 0.001586775938076529337 ),
 .UNSPECIFIED. ) ;
#917 = LINE ( 'NONE', #1045, #1334 ) ;
#918 = VECTOR ( 'NONE', #845, 1000.000000000000114 ) ;
#919 = ORIENTED_EDGE ( 'NONE', *, *, #263, .T. ) ;
#920 = ORIENTED_EDGE ( 'NONE', *, *, #214, .T. ) ;
#921 = AXIS2_PLACEMENT_3D ( 'NONE', #366, #186, #1008 ) ;
#922 = CIRCLE ( 'NONE', #514, 2.500000000000000444 ) ;
#923 = DIRECTION ( 'NONE',  ( 1.000000000000000000, 0.000000000000000000, 0.000000000000000000 ) ) ;
#924 = EDGE_CURVE ( 'NONE', #1041, #1094, #554, .T. ) ;
#925 = ORIENTED_EDGE ( 'NONE', *, *, #1040, .T. ) ;
#926 = EDGE_LOOP ( 'NONE', ( #256, #1110 ) ) ;
#927 = DIRECTION ( 'NONE',  ( -0.000000000000000000, -0.000000000000000000, 1.000000000000000000 ) ) ;
#928 = LINE ( 'NONE', #628, #745 ) ;
#929 = EDGE_CURVE ( 'NONE', #510, #150, #928, .T. ) ;
#930 = ORIENTED_EDGE ( 'NONE', *, *, #503, .F. ) ;
#931 = ORIENTED_EDGE ( 'NONE', *, *, #46, .F. ) ;
#932 = CARTESIAN_POINT ( 'NONE',  ( -3.000000000000000000, 13.00000000000000178, -1.000000000000000888 ) ) ;
#933 = CARTESIAN_POINT ( 'NONE',  ( 0.000000000000000000, 13.00000000000000178, -1.000000000000000888 ) ) ;
#934 = EDGE_CURVE ( 'NONE', #651, #156, #1292, .T. ) ;
#935 = VERTEX_POINT ( 'NONE', #1130 ) ;
#936 = ORIENTED_EDGE ( 'NONE', *, *, #1025, .T. ) ;
#937 = CONICAL_SURFACE ( 'NONE', #437, 24.00000000000000000, 0.7853981633974466137 ) ;
#938 = AXIS2_PLACEMENT_3D ( 'NONE', #69, #76, #1222 ) ;
#939 = CARTESIAN_POINT ( 'NONE',  ( 15.75825214724768664, -13.25825214724783585, -8.000000000000000000 ) ) ;
#940 = FACE_OUTER_BOUND ( 'NONE', #443, .T. ) ;
#941 = ADVANCED_FACE ( 'NONE', ( #405, #512 ), #319, .F. ) ;
#942 = VERTEX_POINT ( 'NONE', #1228 ) ;
#943 = DIRECTION ( 'NONE',  ( -0.7071067811865500152, 8.659560562354962440E-17, 0.7071067811865451302 ) ) ;
#944 = DIRECTION ( 'NONE',  ( -0.000000000000000000, -0.000000000000000000, -1.000000000000000000 ) ) ;
#945 = ORIENTED_EDGE ( 'NONE', *, *, #1180, .T. ) ;
#946 = DIRECTION ( 'NONE',  ( -1.000000000000000000, 0.000000000000000000, -0.000000000000000000 ) ) ;
#947 =( NAMED_UNIT ( * ) PLANE_ANGLE_UNIT ( ) SI_UNIT ( $, .RADIAN. ) );
#948 = CYLINDRICAL_SURFACE ( 'NONE', #1028, 2.499999999999993339 ) ;
#949 = CARTESIAN_POINT ( 'NONE',  ( -13.25825214724783940, 13.25825214724769019, 0.000000000000000000 ) ) ;
#950 = AXIS2_PLACEMENT_3D ( 'NONE', #268, #136, #348 ) ;
#951 = EDGE_CURVE ( 'NONE', #265, #625, #1282, .T. ) ;
#952 = ORIENTED_EDGE ( 'NONE', *, *, #760, .T. ) ;
#953 = ORIENTED_EDGE ( 'NONE', *, *, #107, .F. ) ;
#954 = CARTESIAN_POINT ( 'NONE',  ( 3.000000000000000000, 10.06230589874905412, -1.000000000000000888 ) ) ;
#955 = ORIENTED_EDGE ( 'NONE', *, *, #18, .F. ) ;
#956 = AXIS2_PLACEMENT_3D ( 'NONE', #444, #652, #1296 ) ;
#957 = LINE ( 'NONE', #755, #723 ) ;
#958 = CARTESIAN_POINT ( 'NONE',  ( 2.844952251685631595, 10.10753771370553622, -30.97186719175287095 ) ) ;
#959 = AXIS2_PLACEMENT_3D ( 'NONE', #1273, #1050, #756 ) ;
#960 = DIRECTION ( 'NONE',  ( 1.000000000000000000, 0.000000000000000000, 0.000000000000000000 ) ) ;
#961 = EDGE_CURVE ( 'NONE', #148, #696, #106, .T. ) ;
#962 = VECTOR ( 'NONE', #913, 1000.000000000000000 ) ;
#963 = ORIENTED_EDGE ( 'NONE', *, *, #704, .F. ) ;
#964 = DIRECTION ( 'NONE',  ( -0.000000000000000000, 0.000000000000000000, 1.000000000000000000 ) ) ;
#965 = ORIENTED_EDGE ( 'NONE', *, *, #753, .T. ) ;
#966 = DIRECTION ( 'NONE',  ( 0.000000000000000000, 0.000000000000000000, 1.000000000000000000 ) ) ;
#967 = DIRECTION ( 'NONE',  ( 1.000000000000000000, -8.881784197001252323E-16, 0.000000000000000000 ) ) ;
#968 = DIRECTION ( 'NONE',  ( -0.000000000000000000, -0.000000000000000000, 1.000000000000000000 ) ) ;
#969 = ORIENTED_EDGE ( 'NONE', *, *, #420, .F. ) ;
#970 = DIRECTION ( 'NONE',  ( 1.000000000000000000, 0.000000000000000000, 0.000000000000000000 ) ) ;
#971 = ORIENTED_EDGE ( 'NONE', *, *, #1027, .T. ) ;
#972 = CARTESIAN_POINT ( 'NONE',  ( -13.25825214724783940, 13.25825214724769019, -8.000000000000000000 ) ) ;
#973 = CARTESIAN_POINT ( 'NONE',  ( -3.000000000000000000, 13.00000000000000178, 0.000000000000000000 ) ) ;
#974 = DIRECTION ( 'NONE',  ( -0.000000000000000000, -0.000000000000000000, 1.000000000000000000 ) ) ;
#975 = DIRECTION ( 'NONE',  ( 0.000000000000000000, 0.000000000000000000, 1.000000000000000000 ) ) ;
#976 = AXIS2_PLACEMENT_3D ( 'NONE', #895, #566, #1290 ) ;
#977 = ORIENTED_EDGE ( 'NONE', *, *, #263, .F. ) ;
#978 = AXIS2_PLACEMENT_3D ( 'NONE', #1173, #975, #461 ) ;
#979 = CARTESIAN_POINT ( 'NONE',  ( 0.000000000000000000, 0.000000000000000000, -1.000000000000004441 ) ) ;
#980 = EDGE_CURVE ( 'NONE', #642, #594, #142, .T. ) ;
#981 = VERTEX_POINT ( 'NONE', #295 ) ;
#982 = LINE ( 'NONE', #571, #901 ) ;
#983 = CARTESIAN_POINT ( 'NONE',  ( -3.000000000000000000, 10.06230589874905412, -1.000000000000000888 ) ) ;
#984 = CYLINDRICAL_SURFACE ( 'NONE', #165, 10.50000000000000000 ) ;
#985 = CARTESIAN_POINT ( 'NONE',  ( 13.25825214724769019, 13.25825214724783940, -4.000000000000000000 ) ) ;
#986 = CYLINDRICAL_SURFACE ( 'NONE', #1232, 2.499999999999996891 ) ;
#987 = ORIENTED_EDGE ( 'NONE', *, *, #781, .T. ) ;
#988 = STYLED_ITEM ( 'NONE', ( #569 ), #378 ) ;
#989 = VECTOR ( 'NONE', #192, 1000.000000000000000 ) ;
#990 = DIRECTION ( 'NONE',  ( -1.000000000000000000, 0.000000000000000000, -0.000000000000000000 ) ) ;
#991 = PRODUCT_RELATED_PRODUCT_CATEGORY ( 'part', '', ( #505 ) ) ;
#992 = ORIENTED_EDGE ( 'NONE', *, *, #637, .T. ) ;
#993 = DIRECTION ( 'NONE',  ( 0.000000000000000000, -1.000000000000000000, 0.000000000000000000 ) ) ;
#994 = FACE_OUTER_BOUND ( 'NONE', #661, .T. ) ;
#995 = CARTESIAN_POINT ( 'NONE',  ( -10.75825214724784296, 13.25825214724769019, -8.000000000000000000 ) ) ;
#996 = CARTESIAN_POINT ( 'NONE',  ( -10.75825214724783763, -13.25825214724769019, -4.000000000000000000 ) ) ;
#997 = EDGE_LOOP ( 'NONE', ( #407, #1057, #240, #489 ) ) ;
#998 = FACE_BOUND ( 'NONE', #731, .T. ) ;
#999 = CARTESIAN_POINT ( 'NONE',  ( 0.000000000000000000, 0.000000000000000000, -8.000000000000000000 ) ) ;
#1000 = ORIENTED_EDGE ( 'NONE', *, *, #435, .T. ) ;
#1001 = DIRECTION ( 'NONE',  ( -0.000000000000000000, -0.000000000000000000, 1.000000000000000000 ) ) ;
#1002 = CYLINDRICAL_SURFACE ( 'NONE', #439, 2.499999999999995115 ) ;
#1003 = EDGE_LOOP ( 'NONE', ( #303, #945 ) ) ;
#1004 = ADVANCED_FACE ( 'NONE', ( #1107 ), #1125, .F. ) ;
#1005 = DIRECTION ( 'NONE',  ( 1.000000000000000000, 0.000000000000000000, 0.000000000000000000 ) ) ;
#1006 = ORIENTED_EDGE ( 'NONE', *, *, #356, .T. ) ;
#1007 = CYLINDRICAL_SURFACE ( 'NONE', #676, 2.499999999999993339 ) ;
#1008 = DIRECTION ( 'NONE',  ( 1.000000000000000000, 0.000000000000000000, 0.000000000000000000 ) ) ;
#1009 = ORIENTED_EDGE ( 'NONE', *, *, #51, .F. ) ;
#1010 = ADVANCED_FACE ( 'NONE', ( #697 ), #702, .F. ) ;
#1011 = VECTOR ( 'NONE', #1077, 1000.000000000000000 ) ;
#1012 = CARTESIAN_POINT ( 'NONE',  ( 13.25825214724769019, 13.25825214724783940, -4.000000000000000000 ) ) ;
#1013 = AXIS2_PLACEMENT_3D ( 'NONE', #62, #470, #773 ) ;
#1014 = ADVANCED_FACE ( 'NONE', ( #199 ), #1214, .T. ) ;
#1015 = EDGE_LOOP ( 'NONE', ( #450, #436 ) ) ;
#1016 = DIRECTION ( 'NONE',  ( -0.000000000000000000, -0.000000000000000000, 1.000000000000000000 ) ) ;
#1017 = CARTESIAN_POINT ( 'NONE',  ( 13.25825214724769374, -13.25825214724783585, -4.000000000000000000 ) ) ;
#1018 = ORIENTED_EDGE ( 'NONE', *, *, #305, .T. ) ;
#1019 = CARTESIAN_POINT ( 'NONE',  ( 3.664362955219081286, 10.54845739763954882, -0.3356370447809247093 ) ) ;
#1020 = CARTESIAN_POINT ( 'NONE',  ( -2.980319993216092644, 10.06823207881835636, -30.39524270930196792 ) ) ;
#1021 = EDGE_CURVE ( 'NONE', #1081, #621, #922, .T. ) ;
#1022 = AXIS2_PLACEMENT_3D ( 'NONE', #162, #681, #890 ) ;
#1023 = ORIENTED_EDGE ( 'NONE', *, *, #1147, .T. ) ;
#1024 = EDGE_LOOP ( 'NONE', ( #560, #1066, #284, #699 ) ) ;
#1025 = EDGE_CURVE ( 'NONE', #527, #761, #1033, .T. ) ;
#1026 = DIRECTION ( 'NONE',  ( 1.000000000000000000, 0.000000000000000000, 0.000000000000000000 ) ) ;
#1027 = EDGE_CURVE ( 'NONE', #1041, #389, #1054, .T. ) ;
#1028 = AXIS2_PLACEMENT_3D ( 'NONE', #421, #1055, #835 ) ;
#1029 = AXIS2_PLACEMENT_3D ( 'NONE', #499, #904, #1093 ) ;
#1030 = VERTEX_POINT ( 'NONE', #809 ) ;
#1031 = ORIENTED_EDGE ( 'NONE', *, *, #1217, .T. ) ;
#1032 = VECTOR ( 'NONE', #1211, 1000.000000000000000 ) ;
#1033 = CIRCLE ( 'NONE', #280, 2.500000000000000444 ) ;
#1034 = CARTESIAN_POINT ( 'NONE',  ( -3.017787392922980662E-24, 10.50000000000000000, -33.00000000000000000 ) ) ;
#1035 = ORIENTED_EDGE ( 'NONE', *, *, #1112, .F. ) ;
#1036 = ORIENTED_EDGE ( 'NONE', *, *, #491, .F. ) ;
#1037 = EDGE_CURVE ( 'NONE', #201, #148, #441, .T. ) ;
#1038 = CARTESIAN_POINT ( 'NONE',  ( -13.25825214724783940, -13.25825214724769019, -4.000000000000000000 ) ) ;
#1039 = DIRECTION ( 'NONE',  ( -0.000000000000000000, -0.000000000000000000, 1.000000000000000000 ) ) ;
#1040 = EDGE_CURVE ( 'NONE', #309, #327, #191, .T. ) ;
#1041 = VERTEX_POINT ( 'NONE', #799 ) ;
#1042 = VERTEX_POINT ( 'NONE', #487 ) ;
#1043 = AXIS2_PLACEMENT_3D ( 'NONE', #1106, #179, #1190 ) ;
#1044 = FACE_OUTER_BOUND ( 'NONE', #570, .T. ) ;
#1045 = CARTESIAN_POINT ( 'NONE',  ( 0.000000000000000000, 13.00000000000000178, -33.00000000000000000 ) ) ;
#1046 = CARTESIAN_POINT ( 'NONE',  ( -17.50825214724783763, -13.25825214724769019, 0.000000000000000000 ) ) ;
#1047 = VECTOR ( 'NONE', #324, 1000.000000000000114 ) ;
#1048 = VECTOR ( 'NONE', #427, 1000.000000000000000 ) ;
#1049 = CARTESIAN_POINT ( 'NONE',  ( 17.50825214724769197, -13.25825214724783585, -4.000000000000000000 ) ) ;
#1050 = DIRECTION ( 'NONE',  ( 0.000000000000000000, 0.000000000000000000, 1.000000000000000000 ) ) ;
#1051 = AXIS2_PLACEMENT_3D ( 'NONE', #887, #1207, #679 ) ;
#1052 = EDGE_LOOP ( 'NONE', ( #675, #59 ) ) ;
#1053 = ORIENTED_EDGE ( 'NONE', *, *, #364, .F. ) ;
#1054 = B_SPLINE_CURVE_WITH_KNOTS ( 'NONE', 3,
 ( #592, #1019, #90, #1306 ),
 .UNSPECIFIED., .F., .F.,
 ( 4, 4 ),
 ( 0.000000000000000000, 0.001586775938076482500 ),
 .UNSPECIFIED. ) ;
#1055 = DIRECTION ( 'NONE',  ( -0.000000000000000000, -0.000000000000000000, 1.000000000000000000 ) ) ;
#1056 = DIRECTION ( 'NONE',  ( 0.000000000000000000, 0.000000000000000000, -1.000000000000000000 ) ) ;
#1057 = ORIENTED_EDGE ( 'NONE', *, *, #762, .F. ) ;
#1058 = FACE_BOUND ( 'NONE', #97, .T. ) ;
#1059 = EDGE_CURVE ( 'NONE', #813, #669, #1227, .T. ) ;
#1060 = CARTESIAN_POINT ( 'NONE',  ( -13.25825214724783940, -13.25825214724769019, 0.000000000000000000 ) ) ;
#1061 = CARTESIAN_POINT ( 'NONE',  ( 1.515515465094044112, 10.39651460225531565, -32.61893416479509256 ) ) ;
#1062 = APPLICATION_PROTOCOL_DEFINITION ( 'draft international standard', 'automotive_design', 1998, #879 ) ;
#1063 = CYLINDRICAL_SURFACE ( 'NONE', #950, 2.499999999999995115 ) ;
#1064 = ORIENTED_EDGE ( 'NONE', *, *, #589, .T. ) ;
#1065 = CARTESIAN_POINT ( 'NONE',  ( -3.000000000000000000, 13.00000000000000178, -1.000000000000000888 ) ) ;
#1066 = ORIENTED_EDGE ( 'NONE', *, *, #1205, .T. ) ;
#1067 = APPLICATION_CONTEXT ( 'automotive_design' ) ;
#1068 = AXIS2_PLACEMENT_3D ( 'NONE', #23, #310, #725 ) ;
#1069 = DIRECTION ( 'NONE',  ( 0.000000000000000000, 0.000000000000000000, -1.000000000000000000 ) ) ;
#1070 = CARTESIAN_POINT ( 'NONE',  ( 3.000000000000000000, 13.00000000000000178, -30.00000000000000000 ) ) ;
#1071 = AXIS2_PLACEMENT_3D ( 'NONE', #865, #542, #1260 ) ;
#1072 = CARTESIAN_POINT ( 'NONE',  ( -13.25825214724783940, -13.25825214724769019, 0.000000000000000000 ) ) ;
#1073 = AXIS2_PLACEMENT_3D ( 'NONE', #1313, #285, #292 ) ;
#1074 = ORIENTED_EDGE ( 'NONE', *, *, #639, .F. ) ;
#1075 = CARTESIAN_POINT ( 'NONE',  ( 13.25825214724769374, -13.25825214724783585, 0.000000000000000000 ) ) ;
#1076 = ORIENTED_EDGE ( 'NONE', *, *, #582, .F. ) ;
#1077 = DIRECTION ( 'NONE',  ( 1.000000000000000000, 0.000000000000000000, 0.000000000000000000 ) ) ;
#1078 = CARTESIAN_POINT ( 'NONE',  ( 2.383372334994743547, 10.22653482150430015, -31.83235217360146763 ) ) ;
#1079 = CARTESIAN_POINT ( 'NONE',  ( 0.000000000000000000, 0.000000000000000000, -35.00000000000000000 ) ) ;
#1080 = FACE_OUTER_BOUND ( 'NONE', #563, .T. ) ;
#1081 = VERTEX_POINT ( 'NONE', #597 ) ;
#1082 = ADVANCED_FACE ( 'NONE', ( #791 ), #1007, .F. ) ;
#1083 = DIRECTION ( 'NONE',  ( 0.000000000000000000, 0.000000000000000000, -1.000000000000000000 ) ) ;
#1084 = ORIENTED_EDGE ( 'NONE', *, *, #715, .F. ) ;
#1085 = CARTESIAN_POINT ( 'NONE',  ( -24.00000000000000000, 0.000000000000000000, 0.000000000000000000 ) ) ;
#1086 = DIRECTION ( 'NONE',  ( 1.000000000000000000, 0.000000000000000000, -0.000000000000000000 ) ) ;
#1087 = DIRECTION ( 'NONE',  ( -0.000000000000000000, -0.000000000000000000, 1.000000000000000000 ) ) ;
#1088 = FACE_OUTER_BOUND ( 'NONE', #22, .T. ) ;
#1089 = CIRCLE ( 'NONE', #429, 4.249999999999998224 ) ;
#1090 = LINE ( 'NONE', #1203, #102 ) ;
#1091 = ORIENTED_EDGE ( 'NONE', *, *, #1105, .F. ) ;
#1092 = EDGE_CURVE ( 'NONE', #1094, #287, #24, .T. ) ;
#1093 = DIRECTION ( 'NONE',  ( 1.000000000000000000, 0.000000000000000000, 0.000000000000000000 ) ) ;
#1094 = VERTEX_POINT ( 'NONE', #1192 ) ;
#1095 = DIRECTION ( 'NONE',  ( 1.000000000000000000, 0.000000000000000000, 0.000000000000000000 ) ) ;
#1096 = CYLINDRICAL_SURFACE ( 'NONE', #50, 3.000000000000002665 ) ;
#1097 = CIRCLE ( 'NONE', #768, 2.500000000000000444 ) ;
#1098 = DIRECTION ( 'NONE',  ( -0.000000000000000000, -0.000000000000000000, 1.000000000000000000 ) ) ;
#1099 = CARTESIAN_POINT ( 'NONE',  ( 13.25825214724769019, 13.25825214724783940, -8.000000000000000000 ) ) ;
#1100 = EDGE_LOOP ( 'NONE', ( #900, #38, #936, #477 ) ) ;
#1101 = MECHANICAL_DESIGN_GEOMETRIC_PRESENTATION_REPRESENTATION (  '', ( #988 ), #10 ) ;
#1102 = CIRCLE ( 'NONE', #1138, 2.499999999999995115 ) ;
#1103 = VECTOR ( 'NONE', #897, 1000.000000000000000 ) ;
#1104 = FACE_BOUND ( 'NONE', #1252, .T. ) ;
#1105 = EDGE_CURVE ( 'NONE', #813, #693, #787, .T. ) ;
#1106 = CARTESIAN_POINT ( 'NONE',  ( 0.000000000000000000, 0.000000000000000000, 0.000000000000000000 ) ) ;
#1107 = FACE_OUTER_BOUND ( 'NONE', #299, .T. ) ;
#1108 = UNCERTAINTY_MEASURE_WITH_UNIT (LENGTH_MEASURE( 1.000000000000000082E-05 ), #1298, 'distance_accuracy_value', 'NONE');
#1109 = DIRECTION ( 'NONE',  ( 0.000000000000000000, 0.000000000000000000, 1.000000000000000000 ) ) ;
#1110 = ORIENTED_EDGE ( 'NONE', *, *, #1021, .F. ) ;
#1111 = FACE_BOUND ( 'NONE', #498, .T. ) ;
#1112 = EDGE_CURVE ( 'NONE', #510, #580, #507, .T. ) ;
#1113 = ORIENTED_EDGE ( 'NONE', *, *, #39, .T. ) ;
#1114 = DIRECTION ( 'NONE',  ( 1.000000000000000000, 0.000000000000000000, 0.000000000000000000 ) ) ;
#1115 = DIRECTION ( 'NONE',  ( 1.000000000000000000, 0.000000000000000000, 0.000000000000000000 ) ) ;
#1116 = EDGE_LOOP ( 'NONE', ( #615, #743, #130, #587 ) ) ;
#1117 = CIRCLE ( 'NONE', #1043, 24.00000000000000000 ) ;
#1118 = DIRECTION ( 'NONE',  ( 1.000000000000000000, 0.000000000000000000, 0.000000000000000000 ) ) ;
#1119 = VERTEX_POINT ( 'NONE', #656 ) ;
#1120 = CARTESIAN_POINT ( 'NONE',  ( -13.25825214724783940, 13.25825214724769019, -4.000000000000000000 ) ) ;
#1121 = CARTESIAN_POINT ( 'NONE',  ( 13.25825214724769019, 13.25825214724783940, 0.000000000000000000 ) ) ;
#1122 = VECTOR ( 'NONE', #1164, 1000.000000000000000 ) ;
#1123 = CIRCLE ( 'NONE', #1157, 25.00000000000000000 ) ;
#1124 = ORIENTED_EDGE ( 'NONE', *, *, #241, .F. ) ;
#1125 = CYLINDRICAL_SURFACE ( 'NONE', #353, 2.499999999999995115 ) ;
#1126 = DIRECTION ( 'NONE',  ( 1.000000000000000000, 1.776356839400250465E-15, 0.000000000000000000 ) ) ;
#1127 = ADVANCED_FACE ( 'NONE', ( #1080 ), #446, .F. ) ;
#1128 = ORIENTED_EDGE ( 'NONE', *, *, #735, .F. ) ;
#1129 = ORIENTED_EDGE ( 'NONE', *, *, #1021, .T. ) ;
#1130 = CARTESIAN_POINT ( 'NONE',  ( -24.00000000000000000, 0.000000000000000000, 0.000000000000000000 ) ) ;
#1131 = ADVANCED_FACE ( 'NONE', ( #574 ), #1283, .F. ) ;
#1132 = ORIENTED_EDGE ( 'NONE', *, *, #47, .F. ) ;
#1133 = ORIENTED_EDGE ( 'NONE', *, *, #1147, .F. ) ;
#1134 = CARTESIAN_POINT ( 'NONE',  ( -0.7802835323463742645, 10.47276926750248904, -32.90349316075283781 ) ) ;
#1135 = AXIS2_PLACEMENT_3D ( 'NONE', #1149, #440, #1162 ) ;
#1136 = ORIENTED_EDGE ( 'NONE', *, *, #980, .F. ) ;
#1137 = VERTEX_POINT ( 'NONE', #995 ) ;
#1138 = AXIS2_PLACEMENT_3D ( 'NONE', #4, #301, #726 ) ;
#1139 = EDGE_CURVE ( 'NONE', #596, #1030, #57, .T. ) ;
#1140 = DIRECTION ( 'NONE',  ( -0.000000000000000000, -0.000000000000000000, 1.000000000000000000 ) ) ;
#1141 = CARTESIAN_POINT ( 'NONE',  ( -13.25825214724783940, 13.25825214724769019, 0.000000000000000000 ) ) ;
#1142 = VERTEX_POINT ( 'NONE', #883 ) ;
#1143 = ORIENTED_EDGE ( 'NONE', *, *, #643, .T. ) ;
#1144 = EDGE_CURVE ( 'NONE', #818, #254, #841, .T. ) ;
#1145 = CARTESIAN_POINT ( 'NONE',  ( -3.664362955219100826, 10.54845739763956303, -0.3356370447809048363 ) ) ;
#1146 = CARTESIAN_POINT ( 'NONE',  ( 0.000000000000000000, 0.000000000000000000, 0.000000000000000000 ) ) ;
#1147 = EDGE_CURVE ( 'NONE', #693, #813, #1150, .T. ) ;
#1148 = ADVANCED_FACE ( 'NONE', ( #1088 ), #1063, .F. ) ;
#1149 = CARTESIAN_POINT ( 'NONE',  ( -13.25825214724783940, 13.25825214724769019, 0.000000000000000000 ) ) ;
#1150 = CIRCLE ( 'NONE', #1202, 4.249999999999998224 ) ;
#1151 = CARTESIAN_POINT ( 'NONE',  ( -15.00000000000000000, 1.836970198721029589E-15, -33.99999999999997868 ) ) ;
#1152 = CARTESIAN_POINT ( 'NONE',  ( -13.25825214724783940, -13.25825214724769019, 0.000000000000000000 ) ) ;
#1153 = AXIS2_PLACEMENT_3D ( 'NONE', #999, #267, #54 ) ;
#1154 = CIRCLE ( 'NONE', #60, 2.499999999999995115 ) ;
#1155 = ORIENTED_EDGE ( 'NONE', *, *, #760, .F. ) ;
#1156 = AXIS2_PLACEMENT_3D ( 'NONE', #26, #318, #517 ) ;
#1157 = AXIS2_PLACEMENT_3D ( 'NONE', #909, #600, #1005 ) ;
#1158 = CARTESIAN_POINT ( 'NONE',  ( -13.25825214724783940, 13.25825214724769019, 0.000000000000000000 ) ) ;
#1159 = CARTESIAN_POINT ( 'NONE',  ( 0.3964686788162652964, 10.49428592455566367, -32.98016914592967908 ) ) ;
#1160 = EDGE_LOOP ( 'NONE', ( #56, #49, #911, #1074 ) ) ;
#1161 = EDGE_CURVE ( 'NONE', #761, #527, #734, .T. ) ;
#1162 = DIRECTION ( 'NONE',  ( 1.000000000000000000, 0.000000000000000000, 0.000000000000000000 ) ) ;
#1163 = CARTESIAN_POINT ( 'NONE',  ( -4.000000000000007994, 13.00000000000000178, 0.000000000000000000 ) ) ;
#1164 = DIRECTION ( 'NONE',  ( -0.000000000000000000, -0.000000000000000000, 1.000000000000000000 ) ) ;
#1165 = CARTESIAN_POINT ( 'NONE',  ( 13.99999999999997158, 0.000000000000000000, -35.00000000000000000 ) ) ;
#1166 = CARTESIAN_POINT ( 'NONE',  ( -13.25825214724783940, -13.25825214724769019, -4.000000000000000000 ) ) ;
#1167 = ORIENTED_EDGE ( 'NONE', *, *, #1236, .F. ) ;
#1168 = ADVANCED_FACE ( 'NONE', ( #1201 ), #1274, .F. ) ;
#1169 = DIRECTION ( 'NONE',  ( -1.000000000000000000, 0.000000000000000000, -0.000000000000000000 ) ) ;
#1170 = ORIENTED_EDGE ( 'NONE', *, *, #704, .T. ) ;
#1171 = DIRECTION ( 'NONE',  ( 0.000000000000000000, 0.000000000000000000, 1.000000000000000000 ) ) ;
#1172 = CARTESIAN_POINT ( 'NONE',  ( 3.000000000000000000, 10.06230589874905412, -30.00000000000000000 ) ) ;
#1173 = CARTESIAN_POINT ( 'NONE',  ( 0.000000000000000000, 0.000000000000000000, -8.000000000000000000 ) ) ;
#1174 = ORIENTED_EDGE ( 'NONE', *, *, #328, .T. ) ;
#1175 = DIRECTION ( 'NONE',  ( -0.000000000000000000, -0.000000000000000000, 1.000000000000000000 ) ) ;
#1176 = ORIENTED_EDGE ( 'NONE', *, *, #666, .T. ) ;
#1177 = CLOSED_SHELL ( 'NONE', ( #289, #207, #654, #105, #1309, #16, #820, #861, #722, #1131, #1082, #1325, #135, #118, #720, #1261, #457, #1249, #337, #506, #1258, #616, #1148, #941, #519, #167, #25, #1010, #1240, #291, #1127, #1004, #386, #1215, #400, #228, #448, #1168, #786, #853, #524, #72, #1014, #302 ) ) ;
#1178 = LINE ( 'NONE', #250, #1011 ) ;
#1179 = CARTESIAN_POINT ( 'NONE',  ( 15.75825214724768664, 13.25825214724783940, -8.000000000000000000 ) ) ;
#1180 = EDGE_CURVE ( 'NONE', #1030, #596, #395, .T. ) ;
#1181 = CIRCLE ( 'NONE', #401, 2.499999999999993339 ) ;
#1182 = FACE_OUTER_BOUND ( 'NONE', #1242, .T. ) ;
#1183 = CARTESIAN_POINT ( 'NONE',  ( -25.00000000000000000, 3.061616997868383043E-15, -8.000000000000000000 ) ) ;
#1184 = AXIS2_PLACEMENT_3D ( 'NONE', #1255, #225, #1086 ) ;
#1185 = ORIENTED_EDGE ( 'NONE', *, *, #547, .F. ) ;
#1186 = CARTESIAN_POINT ( 'NONE',  ( 13.25825214724769374, -13.25825214724783585, -8.000000000000000000 ) ) ;
#1187 = ORIENTED_EDGE ( 'NONE', *, *, #695, .T. ) ;
#1188 = FACE_OUTER_BOUND ( 'NONE', #1322, .T. ) ;
#1189 = CARTESIAN_POINT ( 'NONE',  ( 3.000000000000000000, 13.00000000000000178, -30.00000000000000000 ) ) ;
#1190 = DIRECTION ( 'NONE',  ( 1.000000000000000000, 0.000000000000000000, 0.000000000000000000 ) ) ;
#1191 = EDGE_CURVE ( 'NONE', #716, #265, #73, .T. ) ;
#1192 = CARTESIAN_POINT ( 'NONE',  ( 11.50000000000000888, 0.000000000000000000, 0.000000000000000000 ) ) ;
#1193 = DIRECTION ( 'NONE',  ( 0.7071067811865451302, 0.000000000000000000, -0.7071067811865500152 ) ) ;
#1194 = ORIENTED_EDGE ( 'NONE', *, *, #902, .F. ) ;
#1195 = CARTESIAN_POINT ( 'NONE',  ( 0.000000000000000000, 0.000000000000000000, -8.000000000000000000 ) ) ;
#1196 = EDGE_LOOP ( 'NONE', ( #1023, #869 ) ) ;
#1197 = CARTESIAN_POINT ( 'NONE',  ( -17.50825214724784118, -13.25825214724769019, 0.000000000000000000 ) ) ;
#1198 = DIRECTION ( 'NONE',  ( 0.000000000000000000, -1.000000000000000000, 0.000000000000000000 ) ) ;
#1199 = CARTESIAN_POINT ( 'NONE',  ( -10.75825214724784296, 13.25825214724769019, 0.000000000000000000 ) ) ;
#1200 = ORIENTED_EDGE ( 'NONE', *, *, #695, .F. ) ;
#1201 = FACE_OUTER_BOUND ( 'NONE', #521, .T. ) ;
#1202 = AXIS2_PLACEMENT_3D ( 'NONE', #1299, #559, #244 ) ;
#1203 = CARTESIAN_POINT ( 'NONE',  ( 15.00000000000000000, 0.000000000000000000, -33.99999999999997868 ) ) ;
#1204 = ORIENTED_EDGE ( 'NONE', *, *, #803, .T. ) ;
#1205 = EDGE_CURVE ( 'NONE', #825, #1042, #866, .T. ) ;
#1206 = DIRECTION ( 'NONE',  ( 1.000000000000000000, 0.000000000000000000, -0.000000000000000000 ) ) ;
#1207 = DIRECTION ( 'NONE',  ( -0.000000000000000000, -0.000000000000000000, 1.000000000000000000 ) ) ;
#1208 = CARTESIAN_POINT ( 'NONE',  ( 13.25825214724769019, 13.25825214724783940, 0.000000000000000000 ) ) ;
#1209 = CIRCLE ( 'NONE', #956, 25.00000000000000000 ) ;
#1210 = DIRECTION ( 'NONE',  ( 1.000000000000000000, 0.000000000000000000, 0.000000000000000000 ) ) ;
#1211 = DIRECTION ( 'NONE',  ( -0.000000000000000000, -0.000000000000000000, 1.000000000000000000 ) ) ;
#1212 = VERTEX_POINT ( 'NONE', #1291 ) ;
#1213 = CIRCLE ( 'NONE', #798, 4.249999999999998224 ) ;
#1214 = CONICAL_SURFACE ( 'NONE', #852, 24.00000000000000000, 0.7853981633974466137 ) ;
#1215 = ADVANCED_FACE ( 'NONE', ( #757 ), #154, .F. ) ;
#1216 = PLANE ( 'NONE',  #579 ) ;
#1217 = EDGE_CURVE ( 'NONE', #576, #212, #1089, .T. ) ;
#1218 = ORIENTED_EDGE ( 'NONE', *, *, #910, .T. ) ;
#1219 = CARTESIAN_POINT ( 'NONE',  ( 17.50825214724769552, -13.25825214724783585, 0.000000000000000000 ) ) ;
#1220 = DIRECTION ( 'NONE',  ( -0.000000000000000000, -0.000000000000000000, 1.000000000000000000 ) ) ;
#1221 = ORIENTED_EDGE ( 'NONE', *, *, #87, .F. ) ;
#1222 = DIRECTION ( 'NONE',  ( 1.000000000000000000, 0.000000000000000000, 0.000000000000000000 ) ) ;
#1223 = ORIENTED_EDGE ( 'NONE', *, *, #834, .T. ) ;
#1224 = CARTESIAN_POINT ( 'NONE',  ( 0.000000000000000000, 0.000000000000000000, 0.000000000000000000 ) ) ;
#1225 = DIRECTION ( 'NONE',  ( -0.7071067811865500152, 8.659560562354962440E-17, 0.7071067811865451302 ) ) ;
#1226 = EDGE_LOOP ( 'NONE', ( #1031, #335 ) ) ;
#1227 = LINE ( 'NONE', #372, #1103 ) ;
#1228 = CARTESIAN_POINT ( 'NONE',  ( -10.50000000000000000, 1.285879139104720831E-15, -35.00000000000000000 ) ) ;
#1229 = EDGE_CURVE ( 'NONE', #851, #551, #455, .T. ) ;
#1230 = AXIS2_PLACEMENT_3D ( 'NONE', #257, #870, #763 ) ;
#1231 = CIRCLE ( 'NONE', #814, 10.50000000000000000 ) ;
#1232 = AXIS2_PLACEMENT_3D ( 'NONE', #1121, #1327, #286 ) ;
#1233 = ORIENTED_EDGE ( 'NONE', *, *, #328, .F. ) ;
#1234 = ORIENTED_EDGE ( 'NONE', *, *, #1144, .T. ) ;
#1235 = LINE ( 'NONE', #518, #636 ) ;
#1236 = EDGE_CURVE ( 'NONE', #1212, #825, #222, .T. ) ;
#1237 = ORIENTED_EDGE ( 'NONE', *, *, #406, .F. ) ;
#1238 = ORIENTED_EDGE ( 'NONE', *, *, #781, .F. ) ;
#1239 = CARTESIAN_POINT ( 'NONE',  ( -1.845049625331126375, 10.34044698875402268, -32.39735676519948271 ) ) ;
#1240 = ADVANCED_FACE ( 'NONE', ( #1182 ), #672, .F. ) ;
#1241 = ORIENTED_EDGE ( 'NONE', *, *, #484, .T. ) ;
#1242 = EDGE_LOOP ( 'NONE', ( #304, #408, #543, #1187 ) ) ;
#1243 = DIRECTION ( 'NONE',  ( 0.000000000000000000, 0.000000000000000000, -1.000000000000000000 ) ) ;
#1244 = CARTESIAN_POINT ( 'NONE',  ( -25.00000000000000000, 3.061616997868383043E-15, -8.000000000000000000 ) ) ;
#1245 = AXIS2_PLACEMENT_3D ( 'NONE', #633, #434, #424 ) ;
#1246 = CONICAL_SURFACE ( 'NONE', #1156, 10.50000000000000000, 0.7853981633974517207 ) ;
#1247 = EDGE_LOOP ( 'NONE', ( #1009, #103, #952, #509 ) ) ;
#1248 = ORIENTED_EDGE ( 'NONE', *, *, #221, .F. ) ;
#1249 = ADVANCED_FACE ( 'NONE', ( #664 ), #984, .F. ) ;
#1250 = CARTESIAN_POINT ( 'NONE',  ( 24.00000000000000000, 3.000384657911015469E-15, 0.000000000000000000 ) ) ;
#1251 = DIRECTION ( 'NONE',  ( 0.000000000000000000, 1.000000000000000000, 0.000000000000000000 ) ) ;
#1252 = EDGE_LOOP ( 'NONE', ( #611, #308 ) ) ;
#1253 = ORIENTED_EDGE ( 'NONE', *, *, #882, .F. ) ;
#1254 = LINE ( 'NONE', #1151, #738 ) ;
#1255 = CARTESIAN_POINT ( 'NONE',  ( 0.000000000000000000, 0.000000000000000000, -35.00000000000000000 ) ) ;
#1256 = CARTESIAN_POINT ( 'NONE',  ( -15.00000000000000000, 1.836970198721029589E-15, -35.00000000000000000 ) ) ;
#1257 = AXIS2_PLACEMENT_3D ( 'NONE', #985, #55, #365 ) ;
#1258 = ADVANCED_FACE ( 'NONE', ( #161 ), #690, .T. ) ;
#1259 = DIRECTION ( 'NONE',  ( 1.000000000000000000, 0.000000000000000000, 0.000000000000000000 ) ) ;
#1260 = DIRECTION ( 'NONE',  ( 0.000000000000000000, 0.000000000000000000, 1.000000000000000000 ) ) ;
#1261 = ADVANCED_FACE ( 'NONE', ( #357 ), #591, .F. ) ;
#1262 = ORIENTED_EDGE ( 'NONE', *, *, #5, .F. ) ;
#1263 = VECTOR ( 'NONE', #833, 1000.000000000000000 ) ;
#1264 = ORIENTED_EDGE ( 'NONE', *, *, #980, .T. ) ;
#1265 = COLOUR_RGB ( '',0.7921568627450980005, 0.8196078431372548767, 0.9333333333333333481 ) ;
#1266 = CIRCLE ( 'NONE', #1051, 4.249999999999998224 ) ;
#1267 = DIRECTION ( 'NONE',  ( -1.000000000000000000, 0.000000000000000000, 0.000000000000000000 ) ) ;
#1268 = FACE_BOUND ( 'NONE', #526, .T. ) ;
#1269 = ORIENTED_EDGE ( 'NONE', *, *, #423, .T. ) ;
#1270 = FACE_OUTER_BOUND ( 'NONE', #751, .T. ) ;
#1271 = EDGE_LOOP ( 'NONE', ( #1194, #480, #1284, #28 ) ) ;
#1272 = DIRECTION ( 'NONE',  ( 1.000000000000000000, 0.000000000000000000, 0.000000000000000000 ) ) ;
#1273 = CARTESIAN_POINT ( 'NONE',  ( 0.000000000000000000, 0.000000000000000000, -1.000000000000000888 ) ) ;
#1274 = PLANE ( 'NONE',  #1022 ) ;
#1275 = VERTEX_POINT ( 'NONE', #774 ) ;
#1276 = LINE ( 'NONE', #390, #531 ) ;
#1277 = EDGE_CURVE ( 'NONE', #80, #935, #1117, .T. ) ;
#1278 = ORIENTED_EDGE ( 'NONE', *, *, #336, .T. ) ;
#1279 = AXIS2_PLACEMENT_3D ( 'NONE', #585, #236, #37 ) ;
#1280 = CARTESIAN_POINT ( 'NONE',  ( 15.75825214724769019, 13.25825214724783940, -4.000000000000000000 ) ) ;
#1281 = PLANE ( 'NONE',  #1184 ) ;
#1282 = B_SPLINE_CURVE_WITH_KNOTS ( 'NONE', 3,
 ( #714, #200, #1020, #623, #94, #399, #1337, #111, #819, #1239, #306, #718, #1134, #208, #618, #1034 ),
 .UNSPECIFIED., .F., .F.,
 ( 4, 2, 2, 2, 2, 2, 2, 4 ),
 ( 0.000000000000000000, 0.0005894479066392147634, 0.001178895813278429527, 0.001768343719917644507, 0.002357791626556859053, 0.003536687439835274269, 0.004126135346474477106, 0.004715583253113680810 ),
 .UNSPECIFIED. ) ;
#1283 = CYLINDRICAL_SURFACE ( 'NONE', #158, 4.250000000000001776 ) ;
#1284 = ORIENTED_EDGE ( 'NONE', *, *, #1191, .T. ) ;
#1285 = FILL_AREA_STYLE_COLOUR ( '', #1265 ) ;
#1286 = ORIENTED_EDGE ( 'NONE', *, *, #435, .F. ) ;
#1287 = CARTESIAN_POINT ( 'NONE',  ( 9.008252147247691966, -13.25825214724783585, 0.000000000000000000 ) ) ;
#1288 = CARTESIAN_POINT ( 'NONE',  ( 0.000000000000000000, 0.000000000000000000, -8.000000000000000000 ) ) ;
#1289 = AXIS2_PLACEMENT_3D ( 'NONE', #1152, #433, #129 ) ;
#1290 = DIRECTION ( 'NONE',  ( 1.000000000000000000, 0.000000000000000000, 0.000000000000000000 ) ) ;
#1291 = CARTESIAN_POINT ( 'NONE',  ( 25.00000000000000000, 0.000000000000000000, -8.000000000000000000 ) ) ;
#1292 = CIRCLE ( 'NONE', #176, 2.999999999999999112 ) ;
#1293 = VERTEX_POINT ( 'NONE', #888 ) ;
#1294 = LINE ( 'NONE', #456, #351 ) ;
#1295 = ORIENTED_EDGE ( 'NONE', *, *, #590, .F. ) ;
#1296 = DIRECTION ( 'NONE',  ( 1.000000000000000000, 0.000000000000000000, 0.000000000000000000 ) ) ;
#1297 = CARTESIAN_POINT ( 'NONE',  ( 0.000000000000000000, 0.000000000000000000, -1.000000000000000888 ) ) ;
#1298 =( LENGTH_UNIT ( ) NAMED_UNIT ( * ) SI_UNIT ( .MILLI., .METRE. ) );
#1299 = CARTESIAN_POINT ( 'NONE',  ( 13.25825214724769019, 13.25825214724783940, -4.000000000000000000 ) ) ;
#1300 = DIRECTION ( 'NONE',  ( -0.000000000000000000, -0.000000000000000000, 1.000000000000000000 ) ) ;
#1301 = ORIENTED_EDGE ( 'NONE', *, *, #715, .T. ) ;
#1302 = DIRECTION ( 'NONE',  ( 1.000000000000000000, 0.000000000000000000, 0.000000000000000000 ) ) ;
#1303 = DIRECTION ( 'NONE',  ( 1.000000000000000000, 0.000000000000000000, 0.000000000000000000 ) ) ;
#1304 = CARTESIAN_POINT ( 'NONE',  ( -13.25825214724783940, -13.25825214724769019, 0.000000000000000000 ) ) ;
#1305 = ORIENTED_EDGE ( 'NONE', *, *, #934, .T. ) ;
#1306 = CARTESIAN_POINT ( 'NONE',  ( 3.000000000000000000, 10.06230589874905412, -1.000000000000000888 ) ) ;
#1307 = CARTESIAN_POINT ( 'NONE',  ( 9.008252147247690189, 13.25825214724783940, -4.000000000000000000 ) ) ;
#1308 = ORIENTED_EDGE ( 'NONE', *, *, #93, .T. ) ;
#1309 = ADVANCED_FACE ( 'NONE', ( #782 ), #1096, .F. ) ;
#1310 = FACE_BOUND ( 'NONE', #885, .T. ) ;
#1311 = ORIENTED_EDGE ( 'NONE', *, *, #194, .T. ) ;
#1312 = AXIS2_PLACEMENT_3D ( 'NONE', #354, #880, #1069 ) ;
#1313 = CARTESIAN_POINT ( 'NONE',  ( 0.000000000000000000, 0.000000000000000000, -1.000000000000000888 ) ) ;
#1314 = CARTESIAN_POINT ( 'NONE',  ( -15.75825214724783230, 13.25825214724769019, 0.000000000000000000 ) ) ;
#1315 = ORIENTED_EDGE ( 'NONE', *, *, #406, .T. ) ;
#1316 = AXIS2_PLACEMENT_3D ( 'NONE', #764, #733, #341 ) ;
#1317 = VECTOR ( 'NONE', #608, 1000.000000000000000 ) ;
#1318 = FACE_BOUND ( 'NONE', #520, .T. ) ;
#1319 = ORIENTED_EDGE ( 'NONE', *, *, #834, .F. ) ;
#1320 = DIRECTION ( 'NONE',  ( 0.000000000000000000, 0.000000000000000000, -1.000000000000000000 ) ) ;
#1321 = DIRECTION ( 'NONE',  ( -0.000000000000000000, -0.000000000000000000, 1.000000000000000000 ) ) ;
#1322 = EDGE_LOOP ( 'NONE', ( #908, #892, #1128, #413 ) ) ;
#1323 = CARTESIAN_POINT ( 'NONE',  ( 0.000000000000000000, 0.000000000000000000, 0.000000000000000000 ) ) ;
#1324 = VERTEX_POINT ( 'NONE', #173 ) ;
#1325 = ADVANCED_FACE ( 'NONE', ( #994 ), #153, .F. ) ;
#1326 = DIRECTION ( 'NONE',  ( -0.000000000000000000, -0.000000000000000000, 1.000000000000000000 ) ) ;
#1327 = DIRECTION ( 'NONE',  ( -0.000000000000000000, -0.000000000000000000, 1.000000000000000000 ) ) ;
#1328 = AXIS2_PLACEMENT_3D ( 'NONE', #766, #1098, #65 ) ;
#1329 = ORIENTED_EDGE ( 'NONE', *, *, #18, .T. ) ;
#1330 = ORIENTED_EDGE ( 'NONE', *, *, #475, .T. ) ;
#1331 = DIRECTION ( 'NONE',  ( -0.000000000000000000, -0.000000000000000000, -1.000000000000000000 ) ) ;
#1332 = CIRCLE ( 'NONE', #796, 25.00000000000000000 ) ;
#1333 = CIRCLE ( 'NONE', #170, 2.499999999999993339 ) ;
#1334 = VECTOR ( 'NONE', #613, 1000.000000000000000 ) ;
#1335 = ORIENTED_EDGE ( 'NONE', *, *, #1092, .T. ) ;
#1336 = EDGE_LOOP ( 'NONE', ( #930, #198, #141, #1286 ) ) ;
#1337 = CARTESIAN_POINT ( 'NONE',  ( -2.601910759103515325, 10.17313267129431154, -31.50611643970543341 ) ) ;
#1338 = EDGE_CURVE ( 'NONE', #1137, #621, #584, .T. ) ;
ENDSEC;
END-ISO-10303-21;
